<svg xmlns="http://www.w3.org/2000/svg" viewBox="0 0 587.53 214.31">
  <g id="purple_info">
    <path d="M441.61 160.63h4.72v1.19h-1.62v4.9h-1.48v-4.9h-1.62zM450.81 161.82h-2.25v1.23h2v1.15h-2v1.33h2.25v1.19h-3.74v-6.09h3.74zM455.51 161.82h-2.25v1.23h2v1.15h-2v1.33h2.25v1.19h-3.74v-6.09h3.74zM464 162.55h-1.64a1.3 1.3 0 0 0-1.2-.62 1.57 1.57 0 0 0-1.59 1.74 1.6 1.6 0 0 0 1.71 1.78 1.47 1.47 0 0 0 1.48-1.07h-1.89v-1.1h3.23v1.38a3.1 3.1 0 1 1-2.94-4.1 2.7 2.7 0 0 1 2.84 1.99zM467.13 166.79a2.49 2.49 0 1 1 2.54-2.49 2.4 2.4 0 0 1-2.54 2.49zm0-1.28a1.06 1.06 0 0 0 1-1.21c0-.83-.49-1.21-1-1.21s-1 .38-1 1.21.46 1.21 1 1.21zM472.43 166.79a2 2 0 0 1-2.23-1.66h1.46a.69.69 0 0 0 .75.57c.38 0 .58-.18.58-.39 0-.78-2.64-.22-2.64-2 0-.83.71-1.5 2-1.5a1.82 1.82 0 0 1 2 1.65H473a.63.63 0 0 0-.71-.55c-.35 0-.54.14-.54.37 0 .78 2.62.23 2.65 2-.01.88-.76 1.51-1.97 1.51zM477.27 166.79a2 2 0 0 1-2.23-1.66h1.47a.69.69 0 0 0 .75.57c.38 0 .58-.18.58-.39 0-.78-2.64-.22-2.64-2 0-.83.7-1.5 2-1.5a1.83 1.83 0 0 1 2 1.65h-1.37a.64.64 0 0 0-.71-.55c-.35 0-.54.14-.54.37 0 .78 2.62.23 2.65 2 .01.88-.74 1.51-1.96 1.51zM480 160.57a.88.88 0 1 1 .88.8.81.81 0 0 1-.88-.8zm.14 1.31h1.48v4.84h-1.48zM485.69 161.81a2.52 2.52 0 0 1 0 5 1.76 1.76 0 0 1-1.5-.75v3h-1.48v-7.15h1.48v.68a1.73 1.73 0 0 1 1.5-.78zm-.45 1.29a1.21 1.21 0 0 0 0 2.4 1.1 1.1 0 0 0 1.07-1.21 1.08 1.08 0 0 0-1.07-1.19zM495.9 160.63v6.09h-1.49l-2.48-3.72v3.76h-1.48v-6.09h1.48l2.48 3.77v-3.77zM499.13 166.79a2.49 2.49 0 0 1 0-5 2.28 2.28 0 0 1 2.41 2.41v.44h-3.36a.89.89 0 0 0 .92.92.79.79 0 0 0 .77-.46h1.58a2.26 2.26 0 0 1-2.32 1.69zm-1-3H500a.83.83 0 0 0-.91-.83.91.91 0 0 0-.92.87zM502.56 163.11H502v-1.23h.59v-1.18H504v1.18h1v1.23h-1v1.94c0 .29.13.41.46.41h.54v1.26h-.75a1.49 1.49 0 0 1-1.71-1.68zM505.35 161.88h1.48l.69 3.46.81-3.46h1.57l.83 3.44.68-3.44h1.39l-1.31 4.84h-1.64l-.76-3.14-.79 3.14h-1.63zM515.57 166.79a2.49 2.49 0 1 1 2.54-2.49 2.4 2.4 0 0 1-2.54 2.49zm0-1.28a1.06 1.06 0 0 0 1-1.21c0-.83-.49-1.21-1-1.21s-1 .38-1 1.21.43 1.21 1 1.21zM520.39 166.72h-1.49v-4.84h1.49v.8a1.78 1.78 0 0 1 1.51-.85v1.57h-.4c-.71 0-1.11.24-1.11 1.07zM522.62 160.3h1.48v3.55l1.47-2h1.83l-2 2.43 2 2.41h-1.84l-1.48-2v2h-1.48zM531.31 160.63v5h1.94v1.14h-3.43v-6.09zM535.81 161.81a1.69 1.69 0 0 1 1.49.75v-.68h1.49v4.84h-1.49V166a1.72 1.72 0 0 1-1.5.75 2.52 2.52 0 0 1 0-5zm.43 1.29a1.08 1.08 0 0 0-1.06 1.19 1.1 1.1 0 0 0 1.06 1.21 1.21 1.21 0 0 0 0-2.4zM543.2 161.88h1.61l-3 7.14h-1.6l1.12-2.46-2-4.68H541l1.12 3zM547.5 166.79a2.49 2.49 0 0 1 0-5 2.29 2.29 0 0 1 2.42 2.41 3.37 3.37 0 0 1 0 .44h-3.36a.89.89 0 0 0 .92.92.78.78 0 0 0 .77-.46h1.58a2.26 2.26 0 0 1-2.33 1.69zm-1-3h1.86a.84.84 0 0 0-.92-.83.91.91 0 0 0-.9.87zM552.18 166.72h-1.48v-4.84h1.48v.8a1.81 1.81 0 0 1 1.52-.85v1.57h-.41c-.7 0-1.11.24-1.11 1.07z" transform="translate(-6.62 -21.82)"/>
    <g>
      <path d="M477.25 179.6a1.22 1.22 0 1 1 1.21 1.21 1.2 1.2 0 0 1-1.21-1.21zM489.61 179.9h-1v2.1H488v-5h1.63c1.19 0 1.74.66 1.74 1.48s-.51 1.42-1.76 1.42zm0-.54c.75 0 1.07-.36 1.07-.92s-.32-.93-1.07-.93h-1v1.85zM493.89 182.07a2 2 0 0 1 0-4.09 1.81 1.81 0 0 1 1.9 1.89v.4h-3.19a1.25 1.25 0 0 0 1.29 1.24 1.08 1.08 0 0 0 1.11-.73h.71a1.77 1.77 0 0 1-1.82 1.29zm-1.28-2.34h2.5a1.16 1.16 0 0 0-1.25-1.2 1.23 1.23 0 0 0-1.25 1.2zM497.32 182h-.66v-4h.66v.65a1.33 1.33 0 0 1 1.28-.72v.68h-.18c-.62 0-1.1.28-1.1 1.2zM500.76 182.07a1.45 1.45 0 0 1-1.62-1.23h.68c0 .38.38.67.94.67s.8-.26.8-.58c0-.88-2.34-.37-2.34-1.85 0-.6.57-1.1 1.45-1.1a1.33 1.33 0 0 1 1.5 1.24h-.66c0-.4-.33-.69-.86-.69s-.77.24-.77.55c0 .94 2.3.43 2.33 1.85 0 .65-.57 1.14-1.45 1.14zM503 177a.44.44 0 1 1 .45.45.44.44 0 0 1-.45-.45zm.11 1.09h.65v4h-.65zM506.32 182.07c-.93 0-1.58-.51-1.62-1.23h.68c0 .38.38.67.93.67s.81-.26.81-.58c0-.88-2.34-.37-2.34-1.85 0-.6.57-1.1 1.45-1.1a1.33 1.33 0 0 1 1.5 1.24h-.66a.76.76 0 0 0-.86-.69c-.48 0-.77.24-.77.55 0 .94 2.3.43 2.33 1.85 0 .65-.58 1.14-1.45 1.14zM508.84 178.58h-.51V178h.51v-1h.66v1h1v.54h-1v2.34c0 .39.14.53.55.53h.48v.59h-.59c-.7 0-1.1-.29-1.1-1.09zM513 182.07a2 2 0 0 1 0-4.09 1.81 1.81 0 0 1 1.9 1.89 2.61 2.61 0 0 1 0 .4h-3.17a1.25 1.25 0 0 0 1.29 1.24 1.1 1.1 0 0 0 1.12-.73h.7a1.77 1.77 0 0 1-1.84 1.29zm-1.28-2.34h2.5a1.16 1.16 0 0 0-1.25-1.2 1.23 1.23 0 0 0-1.21 1.2zM518.71 179.76c0-.81-.44-1.22-1.1-1.22s-1.14.42-1.14 1.27V182h-.66v-4h.66v.57a1.46 1.46 0 0 1 1.28-.64 1.54 1.54 0 0 1 1.62 1.7V182h-.66zM520.59 178.58h-.51V178h.51v-1h.66v1h1v.54h-1v2.34c0 .39.14.53.55.53h.48v.59h-.59c-.7 0-1.1-.29-1.1-1.09zM526.64 178a1.63 1.63 0 0 1 1.48.79V178h.67v4h-.67v-.74a1.64 1.64 0 0 1-1.48.8 1.91 1.91 0 0 1-1.88-2.06 1.88 1.88 0 0 1 1.88-2zm.13.57a1.33 1.33 0 0 0-1.33 1.46 1.35 1.35 0 1 0 1.33-1.46zM532.8 179.76c0-.81-.44-1.22-1.1-1.22s-1.14.42-1.14 1.27V182h-.66v-4h.66v.57a1.45 1.45 0 0 1 1.27-.64 1.53 1.53 0 0 1 1.62 1.7V182h-.65zM536.17 178a1.73 1.73 0 0 1 1.47.77v-2.1h.67V182h-.67v-.75a1.63 1.63 0 0 1-1.47.81 1.9 1.9 0 0 1-1.88-2.06 1.87 1.87 0 0 1 1.88-2zm.13.57A1.34 1.34 0 0 0 535 180a1.35 1.35 0 1 0 1.34-1.46zM543.5 178a1.88 1.88 0 0 1 1.88 2 1.91 1.91 0 0 1-1.88 2.06 1.73 1.73 0 0 1-1.49-.79v2.61h-.65V178h.64v.73a1.68 1.68 0 0 1 1.5-.73zm-.14.57a1.48 1.48 0 1 0 1.34 1.43 1.34 1.34 0 0 0-1.34-1.45zM548 182.07a2 2 0 0 1 0-4.09 1.81 1.81 0 0 1 1.9 1.89 2.61 2.61 0 0 1 0 .4h-3.17a1.25 1.25 0 0 0 1.29 1.24 1.1 1.1 0 0 0 1.12-.73h.7a1.77 1.77 0 0 1-1.84 1.29zm-1.28-2.34h2.5a1.16 1.16 0 0 0-1.25-1.2 1.23 1.23 0 0 0-1.29 1.2zM551.39 182h-.66v-4h.66v.65a1.34 1.34 0 0 1 1.28-.72v.68h-.17c-.63 0-1.11.28-1.11 1.2zM559.15 179.76c0-.81-.43-1.22-1.08-1.22s-1.07.46-1.07 1.28V182h-.65v-2.25c0-.81-.44-1.22-1.09-1.22s-1.12.43-1.12 1.28V182h-.66v-4h.66v.57a1.43 1.43 0 0 1 1.25-.64 1.5 1.5 0 0 1 1.46.88 1.46 1.46 0 0 1 1.4-.88 1.53 1.53 0 0 1 1.6 1.7V182h-.65zM560.78 177a.44.44 0 1 1 .45.45.44.44 0 0 1-.45-.45zm.11 1.09h.65v4h-.65zM564.07 182.07c-.93 0-1.58-.51-1.62-1.23h.68c0 .38.38.67.93.67s.81-.26.81-.58c0-.88-2.34-.37-2.34-1.85 0-.6.57-1.1 1.45-1.1a1.33 1.33 0 0 1 1.5 1.24h-.66a.76.76 0 0 0-.86-.69c-.48 0-.77.24-.77.55 0 .94 2.3.43 2.33 1.85 0 .65-.58 1.14-1.45 1.14zM567.85 182.07c-.93 0-1.58-.51-1.62-1.23h.68c0 .38.37.67.93.67s.81-.26.81-.58c0-.88-2.34-.37-2.34-1.85 0-.6.57-1.1 1.45-1.1a1.34 1.34 0 0 1 1.5 1.24h-.66a.76.76 0 0 0-.86-.69c-.49 0-.77.24-.77.55 0 .94 2.29.43 2.32 1.85 0 .65-.57 1.14-1.44 1.14zM570.11 177a.45.45 0 1 1 .45.45.45.45 0 0 1-.45-.45zm.11 1.09h.66v4h-.66zM573.73 182.07a1.92 1.92 0 0 1-2-2 2 2 0 1 1 4 0 2 2 0 0 1-2 2zm0-.58a1.48 1.48 0 0 0 0-2.94 1.31 1.31 0 0 0-1.32 1.47 1.3 1.3 0 0 0 1.32 1.47zM579.53 179.76c0-.81-.44-1.22-1.1-1.22s-1.14.42-1.14 1.27V182h-.66v-4h.66v.57a1.45 1.45 0 0 1 1.27-.64 1.53 1.53 0 0 1 1.62 1.7V182h-.65zM581.26 176.65h.66V182h-.66zM584.76 182.07a2 2 0 0 1 0-4.09 1.81 1.81 0 0 1 1.9 1.89v.4h-3.17a1.25 1.25 0 0 0 1.29 1.24 1.08 1.08 0 0 0 1.11-.73h.71a1.77 1.77 0 0 1-1.84 1.29zm-1.28-2.34H586a1.16 1.16 0 0 0-1.25-1.2 1.23 1.23 0 0 0-1.27 1.2zM588.93 182.07a1.45 1.45 0 0 1-1.62-1.23h.69c0 .38.38.67.94.67s.81-.26.81-.58c0-.88-2.35-.37-2.35-1.85 0-.6.57-1.1 1.46-1.1a1.32 1.32 0 0 1 1.49 1.24h-.66c0-.4-.33-.69-.86-.69s-.77.24-.77.55c0 .94 2.3.43 2.33 1.85-.01.65-.58 1.14-1.46 1.14zM592.71 182.07c-.93 0-1.58-.51-1.62-1.23h.68c0 .38.38.67.93.67s.81-.26.81-.58c0-.88-2.34-.37-2.34-1.85 0-.6.57-1.1 1.45-1.1a1.33 1.33 0 0 1 1.5 1.24h-.66a.76.76 0 0 0-.86-.69c-.48 0-.77.24-.77.55 0 .94 2.3.43 2.33 1.85 0 .65-.57 1.14-1.45 1.14zM489.38 186.66a1.73 1.73 0 0 1 1.83 1.34h-.71a1.08 1.08 0 0 0-1.12-.78c-.73 0-1.26.51-1.26 1.48s.53 1.5 1.26 1.5a1.07 1.07 0 0 0 1.12-.78h.71a1.76 1.76 0 0 1-1.83 1.33 2 2 0 0 1 0-4.09zM493.81 190.75a1.92 1.92 0 0 1-2-2.05 2 2 0 1 1 4 0 2 2 0 0 1-2 2.05zm0-.57a1.35 1.35 0 0 0 1.36-1.48 1.33 1.33 0 0 0-1.33-1.47 1.48 1.48 0 0 0 0 3zM502.44 188.45c0-.81-.44-1.23-1.09-1.23s-1.12.43-1.12 1.28v2.19h-.65v-2.24c0-.81-.43-1.23-1.09-1.23s-1.12.43-1.12 1.28v2.19h-.65v-4h.65v.57a1.44 1.44 0 0 1 1.26-.65 1.48 1.48 0 0 1 1.45.89 1.45 1.45 0 0 1 1.4-.89 1.54 1.54 0 0 1 1.61 1.7v2.34h-.65zM506.31 186.66a1.88 1.88 0 0 1 1.88 2 1.91 1.91 0 0 1-1.88 2.06 1.71 1.71 0 0 1-1.48-.79v2.61h-.66v-5.84h.66v.73a1.68 1.68 0 0 1 1.48-.77zm-.14.57a1.48 1.48 0 1 0 1.35 1.46 1.34 1.34 0 0 0-1.35-1.46zM512.58 190.69h-.66v-.59a1.46 1.46 0 0 1-1.27.65 1.55 1.55 0 0 1-1.63-1.7v-2.32h.65V189a1.07 1.07 0 0 0 1.11 1.22c.68 0 1.14-.42 1.14-1.28v-2.17h.66zM513.84 187.27h-.52v-.54h.52v-1h.65v1h1v.54h-1v2.33c0 .4.15.53.55.53h.49v.56h-.6c-.7 0-1.09-.29-1.09-1.09zM516.22 185.63a.43.43 0 0 1 .44-.44.45.45 0 1 1-.44.44zm.1 1.1h.68v4h-.66zM521 188.45a1.08 1.08 0 0 0-1.11-1.23c-.67 0-1.14.42-1.14 1.28v2.19h-.66v-4h.66v.56a1.48 1.48 0 0 1 1.28-.64 1.54 1.54 0 0 1 1.62 1.7v2.34H521zM524.37 186.66a1.65 1.65 0 0 1 1.48.79v-.72h.66v4.05a1.77 1.77 0 0 1-1.89 1.86 1.74 1.74 0 0 1-1.92-1.37h.65a1.24 1.24 0 0 0 1.27.8 1.18 1.18 0 0 0 1.23-1.29v-.84a1.66 1.66 0 0 1-1.48.81 1.91 1.91 0 0 1-1.88-2.06 1.88 1.88 0 0 1 1.88-2.03zm.13.57a1.34 1.34 0 0 0-1.34 1.46 1.35 1.35 0 1 0 1.34-1.46zM532.46 188.45c0-.81-.44-1.23-1.11-1.23s-1.13.42-1.13 1.28v2.19h-.66v-4h.66v.56a1.47 1.47 0 0 1 1.27-.64 1.54 1.54 0 0 1 1.62 1.7v2.34h-.65zM535.9 190.75a2 2 0 0 1 0-4.09 1.82 1.82 0 0 1 1.91 1.9 2.47 2.47 0 0 1 0 .39h-3.16a1.24 1.24 0 0 0 1.28 1.25 1.1 1.1 0 0 0 1.12-.73h.71a1.79 1.79 0 0 1-1.86 1.28zm-1.28-2.33h2.51a1.17 1.17 0 0 0-1.25-1.2 1.23 1.23 0 0 0-1.26 1.2zM538.82 187.27h-.51v-.54h.51v-1h.66v1h1v.54h-1v2.33c0 .4.14.53.55.53h.48v.56h-.59c-.7 0-1.1-.29-1.1-1.09zM540.84 186.73h.67l.91 3.32 1-3.32h.67l1 3.33.9-3.33h.65l-1.24 4h-.68l-.95-3.15-1 3.15h-.68zM549 190.75a1.92 1.92 0 0 1-2-2.05 2 2 0 1 1 4 0 2 2 0 0 1-2 2.05zm0-.57a1.48 1.48 0 0 0 0-3 1.49 1.49 0 0 0 0 3zM552.53 190.69h-.66v-4h.66v.64a1.34 1.34 0 0 1 1.28-.72v.68h-.17c-.63 0-1.11.29-1.11 1.2zM554.57 185.34h.66v3.14l1.53-1.75h.92l-1.87 2 1.87 2h-.89l-1.56-1.75v1.75h-.66z" transform="translate(-6.62 -21.82)"/>
    </g>
    <g fill="#5059ab">
      <path d="M459.71 186.21a1.48 1.48 0 0 0 1.48-1.48v-6.46a1.48 1.48 0 0 0-1.48-1.48h-9a1.48 1.48 0 0 0-1.48 1.48v6.46a1.48 1.48 0 0 0 1.48 1.48h4v1.24h-1.31a.55.55 0 1 0 0 1.09h3.6a.55.55 0 1 0 0-1.09h-1.26v-1.24zm-9-1.09a.39.39 0 0 1-.39-.39v-6.46a.4.4 0 0 1 .39-.39h9a.39.39 0 0 1 .38.39v6.46a.38.38 0 0 1-.38.39zm0 0M452.15 190.29h-9a1.48 1.48 0 0 0-1.48 1.48v6.46a1.48 1.48 0 0 0 1.48 1.48h4V201h-1.26a.55.55 0 1 0 0 1.09h3.62a.55.55 0 0 0 0-1.09h-1.27v-1.24h4a1.48 1.48 0 0 0 1.48-1.48v-6.46a1.49 1.49 0 0 0-1.48-1.48zm.38 8a.38.38 0 0 1-.38.38h-9a.38.38 0 0 1-.39-.38v-6.46a.38.38 0 0 1 .39-.39h9a.38.38 0 0 1 .39.39v6.46zm0 0M467.28 190.29h-9a1.48 1.48 0 0 0-1.48 1.48v6.46a1.48 1.48 0 0 0 1.48 1.48h4V201H461a.55.55 0 0 0 0 1.09h3.63a.55.55 0 0 0 0-1.09h-1.27v-1.24h4a1.47 1.47 0 0 0 1.47-1.48v-6.46a1.48 1.48 0 0 0-1.47-1.48zm.38 8a.38.38 0 0 1-.38.38h-9a.38.38 0 0 1-.39-.38v-6.46a.38.38 0 0 1 .39-.39h9a.39.39 0 0 1 .39.39v6.46zm0 0M443.2 180.63V188a.55.55 0 1 0 1.09 0v-6.81h2.95a.55.55 0 1 0 0-1.09h-3.5a.55.55 0 0 0-.54.54zm0 0M466.68 188.55a.55.55 0 0 0 .55-.55v-7.37a.55.55 0 0 0-.55-.54h-3.5a.55.55 0 0 0 0 1.09h2.95V188a.56.56 0 0 0 .55.56zm0 0" transform="translate(-6.62 -21.82)"/>
    </g>
  </g>
  <g id="teal_info">
    <path d="M29.55 118.19a2.84 2.84 0 0 1 2.89 2.14H30.8a1.33 1.33 0 0 0-1.27-.79 1.77 1.77 0 0 0 0 3.51 1.34 1.34 0 0 0 1.27-.78h1.64a2.83 2.83 0 0 1-2.89 2.13 3.11 3.11 0 0 1 0-6.21zM35.55 124.42a2.49 2.49 0 1 1 2.54-2.49 2.4 2.4 0 0 1-2.54 2.49zm0-1.28a1.06 1.06 0 0 0 1-1.21c0-.82-.49-1.21-1-1.21s-1 .39-1 1.21.45 1.21 1 1.21zM40 119.51l1.06 3.49 1-3.45h1.58l-1.64 4.8h-1.86l-1.72-4.84zM46.16 119.44a1.69 1.69 0 0 1 1.49.75v-.68h1.48v4.84h-1.48v-.68a1.72 1.72 0 0 1-1.5.75 2.52 2.52 0 0 1 0-5zm.43 1.29a1.08 1.08 0 0 0-1.06 1.19 1.07 1.07 0 1 0 1.06-1.19zM53 118.19a2.85 2.85 0 0 1 2.9 2.14h-1.62a1.33 1.33 0 0 0-1.27-.79 1.77 1.77 0 0 0 0 3.51 1.34 1.34 0 0 0 1.27-.78h1.64A2.84 2.84 0 0 1 53 124.4a3.11 3.11 0 0 1 0-6.21zM59 124.42a2.49 2.49 0 1 1 2.54-2.49 2.4 2.4 0 0 1-2.54 2.49zm0-1.28a1.06 1.06 0 0 0 1-1.21c0-.82-.49-1.21-1-1.21s-1 .39-1 1.21.49 1.21 1 1.21zM63.84 124.35h-1.48v-4.84h1.48v.81a1.79 1.79 0 0 1 1.52-.86V121H65c-.7 0-1.11.24-1.11 1.07zM68.23 124.42a2.49 2.49 0 0 1 0-5 2.28 2.28 0 0 1 2.41 2.41v.44h-3.38a.9.9 0 0 0 .92.93.79.79 0 0 0 .77-.47h1.58a2.27 2.27 0 0 1-2.3 1.69zm-1-3h1.86a.83.83 0 0 0-.91-.83.92.92 0 0 0-.92.87zM72.12 120.89a.81.81 0 1 1 .88-.8.83.83 0 0 1-.88.8zm0 3.53a.81.81 0 1 1 .88-.8.82.82 0 0 1-.88.8zM78.54 118.19a2.83 2.83 0 0 1 2.89 2.14H79.8a1.33 1.33 0 0 0-1.27-.79 1.77 1.77 0 0 0 0 3.51 1.34 1.34 0 0 0 1.27-.78h1.63a2.82 2.82 0 0 1-2.89 2.13 3.11 3.11 0 0 1 0-6.21zM85.23 124.41a3.12 3.12 0 1 1 3.12-3.12 3.06 3.06 0 0 1-3.12 3.12zm0-1.35a1.78 1.78 0 1 0-1.62-1.77 1.6 1.6 0 0 0 1.62 1.77zM93.32 118.26h1.57l-2.16 6.09h-1.86l-2.16-6.09h1.58l1.51 4.6zM99.3 123.28H97l-.36 1.07h-1.53l2.21-6.09H99l2.2 6.09h-1.53zm-1.13-3.38l-.75 2.23h1.5zM106.16 122.17h-.92v2.18h-1.49v-6.09h2.41c1.49 0 2.24.84 2.24 2a2 2 0 0 1-2.24 1.91zM106 121c.59 0 .84-.29.84-.76s-.25-.76-.84-.76h-.8V121zM110.65 124.35h-1.48v-4.84h1.48v.81a1.79 1.79 0 0 1 1.52-.86V121h-.41c-.7 0-1.11.24-1.11 1.07zM115.09 124.42a2.49 2.49 0 1 1 2.54-2.49 2.41 2.41 0 0 1-2.54 2.49zm0-1.28a1.06 1.06 0 0 0 1-1.21c0-.82-.49-1.21-1-1.21s-1 .39-1 1.21.46 1.21 1 1.21zM118.65 120.74h-.59v-1.23h.59v-1.18h1.49v1.18h1v1.23h-1v2c0 .28.12.4.45.4h.53v1.26h-.76a1.49 1.49 0 0 1-1.71-1.68zM124.15 124.42a2.49 2.49 0 1 1 2.53-2.49 2.4 2.4 0 0 1-2.53 2.49zm0-1.28c.53 0 1-.39 1-1.21s-.48-1.21-1-1.21-1 .39-1 1.21.46 1.21 1 1.21zM129.61 119.44a2.23 2.23 0 0 1 2.33 1.82h-1.58a.77.77 0 0 0-.78-.55c-.53 0-.89.41-.89 1.22s.36 1.23.89 1.23a.76.76 0 0 0 .78-.56h1.58a2.26 2.26 0 0 1-2.33 1.82 2.49 2.49 0 0 1 0-5zM134.93 124.42a2.49 2.49 0 1 1 2.54-2.49 2.4 2.4 0 0 1-2.54 2.49zm0-1.28a1.06 1.06 0 0 0 1-1.21c0-.82-.49-1.21-1-1.21s-1 .39-1 1.21.46 1.21 1 1.21zM138.26 117.93h1.48v6.42h-1.48zM144.86 124.41c-1.31 0-2.33-.65-2.37-1.88h1.58a.69.69 0 0 0 .75.69c.44 0 .71-.21.71-.57 0-1.13-3-.52-3-2.68 0-1.16.95-1.8 2.23-1.8s2.22.66 2.28 1.83h-1.64a.65.65 0 0 0-.7-.64.54.54 0 0 0-.63.56c0 1.06 3 .58 3 2.62a2 2 0 0 1-2.21 1.87zM150.21 124.42a2.49 2.49 0 1 1 2.53-2.49 2.38 2.38 0 0 1-2.53 2.49zm0-1.28c.53 0 1-.39 1-1.21s-.49-1.21-1-1.21-1 .39-1 1.21.46 1.21 1 1.21zM153.68 120.74h-.54v-1.23h.54v-.14c0-1.27.78-1.89 2.26-1.81v1.25c-.58 0-.78.14-.78.66h.8v1.23h-.8v3.61h-1.48zM156.89 120.74h-.59v-1.23h.59v-1.18h1.49v1.18h1v1.23h-1v2c0 .28.12.4.45.4h.53v1.26h-.76a1.49 1.49 0 0 1-1.71-1.68zM159.68 119.51h1.48l.69 3.46.82-3.46h1.57l.82 3.45.68-3.45h1.4l-1.31 4.84h-1.65l-.76-3.14-.79 3.14H161zM169.54 119.44a1.71 1.71 0 0 1 1.5.75v-.68h1.48v4.84H171v-.68a1.74 1.74 0 0 1-1.51.75 2.52 2.52 0 0 1 0-5zm.44 1.29a1.08 1.08 0 0 0-1.06 1.19 1.07 1.07 0 1 0 1.06-1.19zM175.08 124.35h-1.48v-4.84h1.48v.81a1.79 1.79 0 0 1 1.52-.86V121h-.41c-.7 0-1.11.24-1.11 1.07zM179.47 124.42a2.49 2.49 0 0 1 0-5 2.28 2.28 0 0 1 2.41 2.41 3.37 3.37 0 0 1 0 .44h-3.36a.91.91 0 0 0 .93.93.79.79 0 0 0 .77-.47h1.58a2.28 2.28 0 0 1-2.33 1.69zm-1-3h1.86a.84.84 0 0 0-.91-.83.92.92 0 0 0-.92.87z" transform="translate(-6.62 -21.82)"/>
    <g>
      <path d="M52.65 133.9a2.36 2.36 0 0 1 2.35 1.53h-.8a1.59 1.59 0 0 0-1.55-1 2 2 0 0 0 0 4 1.6 1.6 0 0 0 1.55-.94h.8a2.36 2.36 0 0 1-2.33 1.51 2.58 2.58 0 0 1 0-5.15zM57.68 139.07a2 2 0 0 1 0-4.09 1.81 1.81 0 0 1 1.9 1.89v.4h-3.19a1.24 1.24 0 0 0 1.29 1.25 1.09 1.09 0 0 0 1.11-.73h.71a1.78 1.78 0 0 1-1.82 1.28zm-1.28-2.33h2.5a1.16 1.16 0 0 0-1.25-1.2 1.22 1.22 0 0 0-1.25 1.2zM63.35 136.77c0-.81-.44-1.23-1.11-1.23s-1.13.42-1.13 1.28V139h-.66v-4h.66v.57a1.46 1.46 0 0 1 1.27-.64 1.54 1.54 0 0 1 1.62 1.7V139h-.65zM65.22 135.59h-.51V135h.51v-1h.66v1h1v.55h-1v2.33c0 .39.15.53.55.53h.49v.59h-.6c-.7 0-1.1-.29-1.1-1.09zM68.37 139h-.66v-4h.66v.65a1.34 1.34 0 0 1 1.28-.72v.68h-.17c-.63 0-1.11.28-1.11 1.2zM70.3 134a.45.45 0 1 1 .89 0 .45.45 0 1 1-.89 0zm.11 1.09h.66v4h-.66zM72.31 135.59h-.51V135h.51v-.28c0-.88.44-1.28 1.45-1.28v.56c-.59 0-.79.22-.79.73v.27h.83v.55H73V139h-.66zM78.09 139h-.66v-.59a1.47 1.47 0 0 1-1.27.65 1.54 1.54 0 0 1-1.62-1.7V135h.65v2.24a1.06 1.06 0 0 0 1.1 1.21c.68 0 1.14-.41 1.14-1.27V135h.66zM80.84 135a1.62 1.62 0 0 1 1.47.79V135H83v4.05a1.78 1.78 0 0 1-1.9 1.87 1.74 1.74 0 0 1-1.91-1.37h.65a1.23 1.23 0 0 0 1.26.8 1.18 1.18 0 0 0 1.23-1.3v-.83a1.65 1.65 0 0 1-1.47.81A1.9 1.9 0 0 1 79 137a1.87 1.87 0 0 1 1.84-2zm.13.57a1.34 1.34 0 0 0-1.34 1.43 1.35 1.35 0 1 0 1.37-1.45zM85.81 139.07a2 2 0 0 1 0-4.09 1.81 1.81 0 0 1 1.9 1.89v.4h-3.19a1.25 1.25 0 0 0 1.29 1.25 1.09 1.09 0 0 0 1.11-.73h.71a1.78 1.78 0 0 1-1.82 1.28zm-1.28-2.33H87a1.16 1.16 0 0 0-1.25-1.2 1.22 1.22 0 0 0-1.22 1.2zM92.15 135a1.64 1.64 0 0 1 1.47.79V135h.67v4h-.67v-.74a1.64 1.64 0 0 1-1.48.8 1.9 1.9 0 0 1-1.87-2.06 1.87 1.87 0 0 1 1.88-2zm.13.57a1.34 1.34 0 0 0-1.34 1.43 1.35 1.35 0 1 0 1.34-1.46zM98.3 136.77c0-.81-.44-1.23-1.1-1.23s-1.14.42-1.14 1.28V139h-.66v-4h.66v.57a1.48 1.48 0 0 1 1.28-.64 1.54 1.54 0 0 1 1.62 1.7V139h-.66zM101.68 135a1.75 1.75 0 0 1 1.47.77v-2.09h.66V139h-.66v-.75a1.64 1.64 0 0 1-1.48.81 1.91 1.91 0 0 1-1.88-2.06 1.88 1.88 0 0 1 1.89-2zm.12.57a1.34 1.34 0 0 0-1.34 1.46 1.35 1.35 0 1 0 1.34-1.46zM109.13 133.9a2.38 2.38 0 0 1 2.34 1.53h-.79a1.59 1.59 0 0 0-1.55-1 2 2 0 0 0 0 4 1.6 1.6 0 0 0 1.55-.94h.79a2.38 2.38 0 0 1-2.34 1.51 2.58 2.58 0 0 1 0-5.15zM114.17 139.07a1.92 1.92 0 0 1-2-2 2 2 0 1 1 4 0 2 2 0 0 1-2 2zm0-.58a1.34 1.34 0 0 0 1.36-1.47 1.34 1.34 0 1 0-2.66 0 1.31 1.31 0 0 0 1.3 1.47zM117.31 135l1.24 3.36 1.23-3.36h.7l-1.55 4h-.77l-1.55-4zM122.77 135a1.67 1.67 0 0 1 1.48.79V135h.66v4h-.66v-.74a1.66 1.66 0 0 1-1.49.8 1.91 1.91 0 0 1-1.87-2.06 1.88 1.88 0 0 1 1.88-2zm.13.57a1.34 1.34 0 0 0-1.34 1.46 1.35 1.35 0 1 0 1.34-1.46zM129.5 134h.69l-1.9 5h-.76l-1.9-5h.7l1.58 4.34zM130.92 134h.71l1.85 4.14 1.85-4.14h.7v5h-.66v-3.73l-1.66 3.73h-.46l-1.67-3.74V139h-.66zM141.18 136.6a1.22 1.22 0 1 1 1.21 1.21 1.2 1.2 0 0 1-1.21-1.21zM6.62 142.65H10v.54H8.66v4.5H8v-4.5H6.62zM10.85 142.34h.66v2a1.48 1.48 0 0 1 1.3-.64 1.53 1.53 0 0 1 1.59 1.7v2.33h-.65v-2.24a1.06 1.06 0 0 0-1.11-1.22c-.67 0-1.13.42-1.13 1.27v2.19h-.66zM16.14 147.69h-.66v-4h.66v.64a1.33 1.33 0 0 1 1.28-.71v.68h-.18c-.63 0-1.1.28-1.1 1.2zM19.89 147.76a1.91 1.91 0 0 1-2-2.06 1.89 1.89 0 0 1 2-2 1.82 1.82 0 0 1 1.9 1.9 2.68 2.68 0 0 1 0 .4H18.6a1.25 1.25 0 0 0 1.29 1.24 1.08 1.08 0 0 0 1.11-.73h.71a1.79 1.79 0 0 1-1.82 1.25zm-1.28-2.34h2.5a1.16 1.16 0 0 0-1.25-1.2 1.23 1.23 0 0 0-1.25 1.2zM24.07 147.76c-.93 0-1.58-.51-1.62-1.23h.68c0 .38.37.67.93.67s.81-.26.81-.59c0-.88-2.34-.36-2.34-1.84 0-.61.57-1.11 1.45-1.11a1.34 1.34 0 0 1 1.5 1.25h-.66a.76.76 0 0 0-.86-.69c-.49 0-.78.23-.78.55 0 .94 2.3.43 2.33 1.84 0 .65-.57 1.15-1.44 1.15zM26.44 142.34h.66v2a1.49 1.49 0 0 1 1.31-.64 1.53 1.53 0 0 1 1.58 1.7v2.33h-.65v-2.24a1.06 1.06 0 0 0-1.11-1.22c-.67 0-1.13.42-1.13 1.27v2.19h-.66zM32.8 147.76a2.05 2.05 0 1 1 2-2.06 2 2 0 0 1-2 2.06zm0-.58a1.48 1.48 0 0 0 0-3 1.49 1.49 0 0 0 0 3zM35.7 142.34h.66v5.35h-.66zM39.12 143.66a1.71 1.71 0 0 1 1.47.78v-2.1h.67v5.35h-.67V147a1.63 1.63 0 0 1-1.47.81 1.91 1.91 0 0 1-1.88-2.06 1.88 1.88 0 0 1 1.88-2.09zm.13.57a1.34 1.34 0 0 0-1.34 1.47 1.35 1.35 0 1 0 1.34-1.47zM47 143.19h-2v1.68h1.8v.54H45v1.74h2v.54h-2.69v-5.05H47zM50.92 145.45a1.06 1.06 0 0 0-1.11-1.22c-.67 0-1.14.42-1.14 1.27v2.19H48v-4h.65v.56a1.48 1.48 0 0 1 1.28-.63 1.53 1.53 0 0 1 1.62 1.7v2.33h-.65zM54.33 143.66a1.72 1.72 0 0 1 1.83 1.34h-.71a1.07 1.07 0 0 0-1.12-.78c-.72 0-1.26.51-1.26 1.48s.54 1.5 1.26 1.5a1.05 1.05 0 0 0 1.12-.78h.71a1.76 1.76 0 0 1-1.83 1.34 2.05 2.05 0 0 1 0-4.1zM57.7 147.69H57v-4h.66v.64a1.33 1.33 0 0 1 1.28-.71v.68h-.14c-.62 0-1.1.28-1.1 1.2zM62.47 143.73h.68l-2.38 5.83h-.68l.78-1.91-1.6-3.92H60l1.24 3.21zM66 143.66a1.88 1.88 0 0 1 1.88 2 1.91 1.91 0 0 1-1.88 2.1 1.71 1.71 0 0 1-1.48-.8v2.61h-.66v-5.84h.66v.73a1.68 1.68 0 0 1 1.48-.8zm-.13.57a1.48 1.48 0 1 0 1.34 1.47 1.34 1.34 0 0 0-1.39-1.47zM68.85 144.27h-.51v-.54h.51v-1h.66v1h1v.54h-1v2.34c0 .39.14.52.55.52h.48v.56H70c-.7 0-1.1-.29-1.1-1.08zM73.05 147.76a1.91 1.91 0 0 1-2-2.06 1.89 1.89 0 0 1 2-2 1.82 1.82 0 0 1 1.9 1.9 2.68 2.68 0 0 1 0 .4h-3.19a1.25 1.25 0 0 0 1.29 1.24 1.09 1.09 0 0 0 1.12-.73h.7a1.78 1.78 0 0 1-1.82 1.25zm-1.28-2.34h2.5a1.16 1.16 0 0 0-1.25-1.2 1.23 1.23 0 0 0-1.25 1.2zM77.47 143.66a1.71 1.71 0 0 1 1.46.78v-2.1h.67v5.35h-.67V147a1.61 1.61 0 0 1-1.47.81 1.91 1.91 0 0 1-1.88-2.06 1.89 1.89 0 0 1 1.89-2.09zm.12.57a1.35 1.35 0 0 0-1.34 1.47 1.35 1.35 0 1 0 1.34-1.47zM83.31 145.39v2.3h-.66v-5h.66V145l2.08-2.34h.83l-2.28 2.52 2.3 2.52h-.86zM88.7 147.76a1.91 1.91 0 0 1-2-2.06 1.89 1.89 0 0 1 2-2 1.82 1.82 0 0 1 1.9 1.9v.4h-3.19a1.24 1.24 0 0 0 1.29 1.24 1.08 1.08 0 0 0 1.11-.73h.71a1.79 1.79 0 0 1-1.82 1.25zm-1.28-2.34h2.5a1.16 1.16 0 0 0-1.25-1.2 1.22 1.22 0 0 0-1.25 1.2zM94.2 143.73h.68l-2.38 5.83h-.68l.78-1.91-1.6-3.92h.73l1.27 3.21zM99.07 147.74c-1 0-1.73-.56-1.74-1.39H98a.93.93 0 0 0 1 .84c.64 0 1-.37 1-.84 0-1.36-2.73-.5-2.73-2.37 0-.83.67-1.4 1.67-1.4a1.51 1.51 0 0 1 1.67 1.3H100a.92.92 0 0 0-1-.73.83.83 0 0 0-1 .81c0 1.3 2.72.49 2.72 2.36a1.51 1.51 0 0 1-1.65 1.42zM101.87 144.27h-.52v-.54h.52v-1h.66v1h1v.54h-1v2.34c0 .39.14.52.54.52h.49v.56H103c-.71 0-1.1-.29-1.1-1.08zM106.08 147.76a2.05 2.05 0 1 1 2-2.06 2 2 0 0 1-2 2.06zm0-.58a1.35 1.35 0 0 0 1.36-1.48 1.34 1.34 0 1 0-2.66 0 1.31 1.31 0 0 0 1.3 1.48zM109.64 147.69H109v-4h.65v.64a1.35 1.35 0 0 1 1.28-.71v.68h-.17c-.63 0-1.11.28-1.11 1.2zM113.32 143.66a1.67 1.67 0 0 1 1.48.79v-.72h.66v4h-.66V147a1.67 1.67 0 0 1-1.49.81 1.91 1.91 0 0 1-1.87-2.06 1.88 1.88 0 0 1 1.88-2.09zm.13.57a1.35 1.35 0 0 0-1.34 1.47 1.35 1.35 0 1 0 1.34-1.47zM118.21 143.66a1.64 1.64 0 0 1 1.48.79v-.72h.66v4.05a1.77 1.77 0 0 1-1.89 1.86 1.74 1.74 0 0 1-1.92-1.37h.65a1.24 1.24 0 0 0 1.27.8 1.18 1.18 0 0 0 1.23-1.29V147a1.68 1.68 0 0 1-1.48.81 1.91 1.91 0 0 1-1.88-2.06 1.88 1.88 0 0 1 1.88-2.09zm.13.57a1.35 1.35 0 0 0-1.34 1.47 1.35 1.35 0 1 0 1.34-1.47zM123.18 147.76a1.91 1.91 0 0 1-2-2.06 1.89 1.89 0 0 1 2-2 1.82 1.82 0 0 1 1.91 1.9 2.69 2.69 0 0 1 0 .4h-3.19a1.24 1.24 0 0 0 1.28 1.24 1.09 1.09 0 0 0 1.12-.73h.7a1.8 1.8 0 0 1-1.82 1.25zm-1.28-2.34h2.5a1.16 1.16 0 0 0-1.25-1.2 1.23 1.23 0 0 0-1.25 1.2zM129.62 147.76a2.05 2.05 0 1 1 2-2.06 2 2 0 0 1-2 2.06zm0-.58a1.35 1.35 0 0 0 1.38-1.48 1.33 1.33 0 0 0-1.34-1.47 1.48 1.48 0 0 0 0 3zM135.42 145.45a1.06 1.06 0 0 0-1.11-1.22c-.67 0-1.13.42-1.13 1.27v2.19h-.66v-4h.66v.56a1.45 1.45 0 0 1 1.27-.63 1.53 1.53 0 0 1 1.62 1.7v2.33h-.65zM141.18 145.28a1.22 1.22 0 1 1 1.21 1.21 1.2 1.2 0 0 1-1.21-1.21zM118.38 151.27a2.36 2.36 0 0 1 2.33 1.52h-.78a1.6 1.6 0 0 0-1.55-.94 2 2 0 0 0 0 4 1.6 1.6 0 0 0 1.55-.94h.78a2.36 2.36 0 0 1-2.33 1.51 2.58 2.58 0 0 1 0-5.15zM124 156.42a2.57 2.57 0 1 1 2.53-2.57 2.48 2.48 0 0 1-2.53 2.57zm0-.57a2 2 0 1 0-1.86-2 1.84 1.84 0 0 0 1.86 2zM130.85 151.33h.7l-1.91 5h-.75l-1.91-5h.7l1.59 4.35zM135.25 155.25h-2.2l-.4 1.12H132l1.83-5h.76l1.81 5h-.69zm-1.1-3.08l-.91 2.55h1.82z" transform="translate(-6.62 -21.82)"/>
      <path fill="#fff" d="M141.18 154a1.22 1.22 0 1 1 2.43 0 1.22 1.22 0 0 1-2.43 0z" transform="translate(-6.62 -21.82)"/>
    </g>
    <path fill="#14a0c0" d="M181.14 134.08H175a.44.44 0 0 0-.44.43.44.44 0 0 0 .44.44h6.12a.47.47 0 0 1 .47.47v16.85a.47.47 0 0 1-.47.47H154a.47.47 0 0 1-.47-.47v-16.85a.47.47 0 0 1 .47-.42h9.61v.87h-8.77a.44.44 0 0 0-.44.44v11.56a.44.44 0 0 0 .88 0V136.7h8.33v2.35l-1.87.89a.45.45 0 0 0-.25.4v7.13a.41.41 0 0 0 .25.39l5.65 2.71a.5.5 0 0 0 .38 0l3.18-1.52a.44.44 0 1 0-.38-.79l-2.57 1.22v-6.17l4.78-2.28v6.16l-.65.31a.44.44 0 0 0-.2.59.43.43 0 0 0 .58.2l.9-.43a.43.43 0 0 0 .25-.39v-7.13a.45.45 0 0 0-.25-.4l-1.87-.89v-2.35h8.33V151h-24.62v-1.3a.44.44 0 0 0-.88 0v1.74a.44.44 0 0 0 .44.43h25.49a.43.43 0 0 0 .43-.43v-15.18a.44.44 0 0 0-.43-.44h-8.77V135h1.62a.44.44 0 0 0 .44-.44.44.44 0 0 0-.44-.43h-1.62v-.88h3.92a.44.44 0 0 0 .43-.44v-1a1.33 1.33 0 0 0 .88-1.24 1.32 1.32 0 0 0-2.63 0 1.33 1.33 0 0 0 .88 1.24v.6h-3.92a.44.44 0 0 0-.44.43v1.32H168v-2.35a1.32 1.32 0 0 0 .87-1.24 1.31 1.31 0 0 0-2.62 0 1.34 1.34 0 0 0 .87 1.24v2.35h-2.66v-1.32a.43.43 0 0 0-.43-.43h-3.93v-.6a1.33 1.33 0 0 0 .88-1.24 1.32 1.32 0 0 0-2.63 0 1.33 1.33 0 0 0 .88 1.24v1a.44.44 0 0 0 .44.44h3.92v.88H154a1.35 1.35 0 0 0-1.35 1.34v16.85a1.35 1.35 0 0 0 1.35 1.34h9.48a4.18 4.18 0 0 1-1.56 2.8H160a1.32 1.32 0 0 0 0 2.63h15.05a1.32 1.32 0 0 0 0-2.63h-1.86a4.18 4.18 0 0 1-1.57-2.8h9.49a1.34 1.34 0 0 0 1.34-1.34v-16.9a1.34 1.34 0 0 0-1.34-1.34zm-5.69-4a.44.44 0 0 1 0 .88.44.44 0 0 1 0-.88zm-7.9 0a.44.44 0 1 1-.44.44.44.44 0 0 1 .44-.44zm-7.89 0a.44.44 0 0 1 0 .88.44.44 0 1 1 0-.88zm4.79 6.65h2.66v.66l-2.66 1.27zm7.74 3.64l-4.64 2.21-4.64-2.21 4.64-2.22zm-9.86.69l4.78 2.28v6.17l-4.78-2.29zm8.32-2.4l-2.65-1.3v-.66h2.66zm0-3.68v.87H168V135zm-3.54 0v.87h-2.66V135zm8.4 22.77a.43.43 0 0 1-.43.44H160a.44.44 0 1 1 0-.87h15.05a.43.43 0 0 1 .43.43zm-3.51-1.34h-8.82a5 5 0 0 0 1.19-2.8h6.44a5 5 0 0 0 1.19 2.8zm0 0" transform="translate(-6.62 -21.82)"/>
  </g>
  <g id="light_teal_info">
    <path d="M444.78 74.81h-2.84v-6.1h2.75c1.24 0 2 .62 2 1.58a1.38 1.38 0 0 1-1 1.39 1.48 1.48 0 0 1 1.17 1.47c-.06 1.01-.79 1.66-2.08 1.66zm-.38-4.91h-1v1.28h1c.49 0 .76-.22.76-.64s-.27-.64-.76-.64zm.1 2.36h-1.07v1.35h1.09c.5 0 .78-.23.78-.66s-.3-.69-.8-.69zM447.67 68.38h1.48v6.43h-1.48zM452.43 74.88a2.5 2.5 0 1 1 2.57-2.49 2.41 2.41 0 0 1-2.57 2.49zm0-1.29a1.06 1.06 0 0 0 1-1.2c0-.83-.49-1.21-1-1.21s-1 .38-1 1.21.46 1.2 1 1.2zM457.89 69.89a2.22 2.22 0 0 1 2.33 1.83h-1.58a.76.76 0 0 0-.77-.56c-.53 0-.9.42-.9 1.23s.37 1.22.9 1.22a.75.75 0 0 0 .77-.56h1.58a2.25 2.25 0 0 1-2.33 1.83 2.5 2.5 0 0 1 0-5zM461 68.38h1.49v3.55L464 70h1.84l-2 2.43 2 2.42H464l-1.47-2v2H461zM468.51 69.89a2.22 2.22 0 0 1 2.33 1.83h-1.58a.77.77 0 0 0-.77-.56c-.53 0-.9.42-.9 1.23s.37 1.22.9 1.22a.76.76 0 0 0 .77-.56h1.58a2.25 2.25 0 0 1-2.33 1.83 2.5 2.5 0 0 1 0-5zM471.63 68.38h1.49v2.23a1.79 1.79 0 0 1 1.49-.7 1.82 1.82 0 0 1 1.84 2.09v2.83H475v-2.65a.9.9 0 0 0-.93-1c-.56 0-.92.37-.92 1v2.63h-1.49zM479.32 69.89a1.69 1.69 0 0 1 1.5.76V70h1.48v4.85h-1.48v-.69a1.71 1.71 0 0 1-1.51.76 2.53 2.53 0 0 1 0-5zm.44 1.3a1.07 1.07 0 0 0-1.06 1.19 1.07 1.07 0 1 0 1.06-1.19zM483.24 68.66a.88.88 0 1 1 .89.8.82.82 0 0 1-.89-.8zm.14 1.3h1.48v4.85h-1.48zM489.28 72.18a.93.93 0 1 0-1.86 0v2.63h-1.48V70h1.48v.65a1.79 1.79 0 0 1 1.47-.7 1.83 1.83 0 0 1 1.87 2.05v2.83h-1.48zM495.12 68.71v5h1.94v1.15h-3.43v-6.1zM499.62 69.89a1.67 1.67 0 0 1 1.49.76V70h1.48v4.85h-1.48v-.69a1.7 1.7 0 0 1-1.5.76 2.53 2.53 0 0 1 0-5zm.43 1.3a1.07 1.07 0 0 0-1.05 1.19 1.07 1.07 0 1 0 1.06-1.19zM507 70h1.61l-3 7.15H504l1.11-2.47-2-4.68h1.66l1.12 3zM511.31 74.88a2.5 2.5 0 0 1 0-5 2.29 2.29 0 0 1 2.42 2.42 3.22 3.22 0 0 1 0 .43h-3.36a.89.89 0 0 0 .92.93.78.78 0 0 0 .77-.47h1.58a2.26 2.26 0 0 1-2.33 1.69zm-1-3h1.86a.85.85 0 0 0-.92-.84.92.92 0 0 0-.9.88zM516 74.81h-1.48V70H516v.81a1.82 1.82 0 0 1 1.52-.86v1.57h-.41c-.7 0-1.11.25-1.11 1.08zM518.92 71.34a.81.81 0 1 1 .88-.8.82.82 0 0 1-.88.8zm0 3.54a.81.81 0 1 1 .88-.8.83.83 0 0 1-.88.8zM522.53 68.71h4v1.19H524v1.29h1.85v1.15H524v2.47h-1.49zM529.48 74.88a2.5 2.5 0 1 1 2.52-2.49 2.41 2.41 0 0 1-2.52 2.49zm0-1.29a1.06 1.06 0 0 0 1-1.2c0-.83-.49-1.21-1-1.21s-1 .38-1 1.21.52 1.2 1 1.2zM534.3 74.81h-1.49V70h1.49v.81a1.79 1.79 0 0 1 1.51-.86v1.57h-.4c-.71 0-1.11.25-1.11 1.08zM540.77 72.62h-.92v2.19h-1.48v-6.1h2.4c1.5 0 2.24.84 2.24 2a2 2 0 0 1-2.24 1.91zm-.11-1.18c.59 0 .84-.3.84-.77s-.25-.76-.84-.76h-.81v1.53zM545.94 74.88a2.5 2.5 0 0 1 0-5 2.29 2.29 0 0 1 2.41 2.42v.43H545a.89.89 0 0 0 .92.93.79.79 0 0 0 .77-.47h1.58a2.26 2.26 0 0 1-2.33 1.69zm-1-3h1.85a.84.84 0 0 0-.91-.84.92.92 0 0 0-.88.88zM550.62 74.81h-1.49V70h1.49v.81a1.82 1.82 0 0 1 1.52-.86v1.57h-.41c-.7 0-1.11.25-1.11 1.08zM554.82 74.88a2 2 0 0 1-2.23-1.66h1.47a.68.68 0 0 0 .75.56c.38 0 .58-.17.58-.39 0-.78-2.64-.21-2.64-2 0-.83.7-1.51 2-1.51a1.84 1.84 0 0 1 2 1.65h-1.37a.64.64 0 0 0-.72-.54c-.34 0-.53.14-.53.37 0 .77 2.62.23 2.65 2 .01.88-.78 1.52-1.96 1.52zM557.56 68.66a.88.88 0 1 1 .88.8.82.82 0 0 1-.88-.8zm.14 1.3h1.48v4.85h-1.48zM562.23 74.88a2 2 0 0 1-2.23-1.66h1.47a.66.66 0 0 0 .74.56c.38 0 .58-.17.58-.39 0-.78-2.64-.21-2.64-2 0-.83.71-1.51 2-1.51a1.84 1.84 0 0 1 2 1.65h-1.38a.63.63 0 0 0-.71-.54c-.35 0-.54.14-.54.37 0 .77 2.63.23 2.65 2 .02.88-.73 1.52-1.94 1.52zM565.34 71.2h-.59V70h.59v-1.22h1.48V70h1v1.2h-1v1.94c0 .29.12.41.45.41h.53v1.26h-.75a1.5 1.5 0 0 1-1.71-1.69zM570.78 74.88a2.5 2.5 0 0 1 0-5 2.29 2.29 0 0 1 2.42 2.42 3.22 3.22 0 0 1 0 .43h-3.36a.89.89 0 0 0 .92.93.78.78 0 0 0 .77-.47h1.58a2.26 2.26 0 0 1-2.33 1.69zm-1-3h1.86a.85.85 0 0 0-.92-.84.92.92 0 0 0-.9.88zM577.32 72.18a.93.93 0 1 0-1.86 0v2.63H574V70h1.48v.65a1.79 1.79 0 0 1 1.47-.7A1.83 1.83 0 0 1 578.8 72v2.83h-1.48zM582 69.89a2.22 2.22 0 0 1 2.32 1.83h-1.58a.76.76 0 0 0-.77-.56c-.53 0-.89.42-.89 1.23s.36 1.22.89 1.22a.75.75 0 0 0 .77-.56h1.58a2.25 2.25 0 0 1-2.32 1.83 2.5 2.5 0 0 1 0-5zM587.24 74.88a2.5 2.5 0 0 1 0-5 2.29 2.29 0 0 1 2.41 2.42 3.22 3.22 0 0 1 0 .43h-3.36a.9.9 0 0 0 .92.93.8.8 0 0 0 .78-.47h1.58a2.27 2.27 0 0 1-2.33 1.69zm-1-3h1.86a.84.84 0 0 0-.91-.84.93.93 0 0 0-.92.88z" transform="translate(-6.62 -21.82)"/>
    <g>
      <path d="M477.25 87.47a1.22 1.22 0 1 1 2.43 0 1.22 1.22 0 0 1-2.43 0zM490.7 85.37h-2.06v1.68h1.84v.55h-1.84v1.73h2.06v.54H488v-5h2.72zM494.6 87.63a1.07 1.07 0 0 0-1.11-1.22c-.67 0-1.14.42-1.14 1.27v2.19h-.65v-4h.65v.57a1.46 1.46 0 0 1 1.28-.64 1.53 1.53 0 0 1 1.62 1.7v2.33h-.65zM498 85.85a1.71 1.71 0 0 1 1.83 1.33h-.71a1.08 1.08 0 0 0-1.12-.78c-.72 0-1.26.52-1.26 1.49s.54 1.49 1.26 1.49a1.05 1.05 0 0 0 1.12-.78h.71a1.76 1.76 0 0 1-1.83 1.34 2 2 0 0 1 0-4.09zM501.38 89.87h-.66v-4h.66v.64a1.33 1.33 0 0 1 1.28-.71v.68h-.18c-.63 0-1.1.28-1.1 1.2zM506.15 85.91h.68l-2.38 5.83h-.68l.78-1.91-1.55-3.92h.73l1.24 3.21zM509.63 85.85a1.87 1.87 0 0 1 1.88 2 1.9 1.9 0 0 1-1.88 2.06 1.71 1.71 0 0 1-1.48-.8v2.61h-.66v-5.81h.66v.73a1.67 1.67 0 0 1 1.48-.79zm-.13.57a1.48 1.48 0 1 0 1.34 1.46 1.34 1.34 0 0 0-1.34-1.46zM512.53 86.45H512v-.54h.51v-1h.66v1h1v.54h-1v2.34c0 .39.14.53.55.53h.48v.55h-.59c-.7 0-1.1-.29-1.1-1.08zM516.73 89.94a1.91 1.91 0 0 1-2-2 1.89 1.89 0 0 1 2-2 1.81 1.81 0 0 1 1.9 1.89 2.61 2.61 0 0 1 0 .4h-3.17a1.25 1.25 0 0 0 1.29 1.24 1.09 1.09 0 0 0 1.12-.73h.7a1.77 1.77 0 0 1-1.84 1.2zm-1.28-2.34H518a1.16 1.16 0 0 0-1.25-1.2 1.23 1.23 0 0 0-1.3 1.2zM521.15 85.85a1.7 1.7 0 0 1 1.46.77v-2.1h.67v5.35h-.67v-.74a1.61 1.61 0 0 1-1.47.81 1.91 1.91 0 0 1-1.88-2.06 1.88 1.88 0 0 1 1.89-2.03zm.12.57a1.34 1.34 0 0 0-1.34 1.46 1.35 1.35 0 1 0 1.34-1.46zM526.33 84.87h.67l1.89 4.13 1.85-4.14h.7v5h-.66v-3.72l-1.66 3.73h-.46L527 86.14v3.73h-.66zM534.27 89.94a1.91 1.91 0 0 1-2-2 1.89 1.89 0 0 1 2-2 1.81 1.81 0 0 1 1.9 1.89 2.61 2.61 0 0 1 0 .4H533a1.25 1.25 0 0 0 1.29 1.24 1.09 1.09 0 0 0 1.12-.73h.7a1.77 1.77 0 0 1-1.84 1.2zM533 87.6h2.5a1.16 1.16 0 0 0-1.25-1.2 1.23 1.23 0 0 0-1.25 1.2zM537.19 86.45h-.51v-.54h.51v-1h.66v1h1v.54h-1v2.34c0 .39.14.53.55.53h.48v.55h-.59c-.7 0-1.1-.29-1.1-1.08zM541.31 85.85a1.65 1.65 0 0 1 1.48.78v-.72h.66v4h-.66v-.73a1.66 1.66 0 0 1-1.48.8 1.91 1.91 0 0 1-1.88-2.06 1.88 1.88 0 0 1 1.88-2.07zm.13.57a1.34 1.34 0 0 0-1.34 1.46 1.35 1.35 0 1 0 1.34-1.46zM546.21 85.85a1.71 1.71 0 0 1 1.47.77v-2.1h.66v5.35h-.66v-.74a1.63 1.63 0 0 1-1.48.81 1.91 1.91 0 0 1-1.88-2.06 1.88 1.88 0 0 1 1.89-2.03zm.12.57a1.33 1.33 0 0 0-1.33 1.46 1.35 1.35 0 1 0 1.33-1.46zM551.1 85.85a1.64 1.64 0 0 1 1.47.78v-.72h.67v4h-.67v-.73a1.66 1.66 0 0 1-1.48.8 1.9 1.9 0 0 1-1.87-2.06 1.87 1.87 0 0 1 1.88-2.07zm.13.57a1.34 1.34 0 0 0-1.34 1.46 1.35 1.35 0 1 0 1.34-1.46zM554.5 86.45h-.5v-.54h.52v-1h.66v1h1v.54h-1v2.34c0 .39.14.53.55.53h.48v.55h-.59c-.7 0-1.1-.29-1.1-1.08zM558.62 85.85a1.65 1.65 0 0 1 1.48.78v-.72h.66v4h-.66v-.73a1.68 1.68 0 0 1-1.49.8 1.91 1.91 0 0 1-1.87-2.06 1.88 1.88 0 0 1 1.88-2.07zm.13.57a1.34 1.34 0 0 0-1.34 1.46 1.35 1.35 0 1 0 1.34-1.46zM488.81 98.61c-1 0-1.73-.57-1.74-1.4h.7a.93.93 0 0 0 1 .84c.64 0 1-.36 1-.84 0-1.36-2.73-.49-2.73-2.36 0-.83.68-1.4 1.68-1.4a1.51 1.51 0 0 1 1.67 1.3h-.73a.9.9 0 0 0-1-.73c-.55 0-1 .26-1 .81 0 1.3 2.72.49 2.72 2.35a1.51 1.51 0 0 1-1.57 1.43zM491.6 95.14h-.51v-.55h.51v-1h.66v1h1v.55h-1v2.33c0 .39.14.53.55.53h.48v.56h-.59c-.7 0-1.1-.29-1.1-1.09zM495.82 98.62a1.92 1.92 0 0 1-2-2.05 2 2 0 1 1 2 2.05zm0-.58a1.48 1.48 0 0 0 0-2.94 1.31 1.31 0 0 0-1.32 1.47 1.3 1.3 0 0 0 1.32 1.43zM499.38 98.56h-.66v-4h.66v.65a1.33 1.33 0 0 1 1.28-.72v.68h-.17c-.63 0-1.11.28-1.11 1.2zM503.06 94.53a1.65 1.65 0 0 1 1.47.79v-.73h.67v4h-.67v-.74a1.64 1.64 0 0 1-1.48.8 1.91 1.91 0 0 1-1.88-2.06 1.88 1.88 0 0 1 1.89-2.06zm.13.57a1.34 1.34 0 0 0-1.34 1.46 1.35 1.35 0 1 0 1.34-1.46zM508 94.53a1.62 1.62 0 0 1 1.47.79v-.73h.67v4a1.78 1.78 0 0 1-1.9 1.87 1.74 1.74 0 0 1-1.91-1.37h.65a1.23 1.23 0 0 0 1.26.8 1.18 1.18 0 0 0 1.23-1.3v-.83a1.65 1.65 0 0 1-1.47.81 1.9 1.9 0 0 1-1.88-2.06 1.87 1.87 0 0 1 1.88-1.98zm.13.57a1.34 1.34 0 0 0-1.34 1.46 1.35 1.35 0 1 0 1.34-1.46zM512.92 98.62a2 2 0 0 1 0-4.09 1.81 1.81 0 0 1 1.9 1.89v.4h-3.17a1.26 1.26 0 0 0 1.29 1.25 1.09 1.09 0 0 0 1.11-.73h.71a1.78 1.78 0 0 1-1.84 1.28zm-1.28-2.33h2.5a1.16 1.16 0 0 0-1.25-1.2 1.22 1.22 0 0 0-1.25 1.2zM519.35 98.62a1.92 1.92 0 0 1-2-2.05 2 2 0 1 1 4 0 2 2 0 0 1-2 2.05zm0-.58a1.48 1.48 0 0 0 0-2.94 1.31 1.31 0 0 0-1.32 1.47 1.3 1.3 0 0 0 1.32 1.43zM525.15 96.32c0-.81-.44-1.23-1.1-1.23s-1.14.42-1.14 1.28v2.19h-.66v-4h.66v.57a1.47 1.47 0 0 1 1.27-.64 1.54 1.54 0 0 1 1.62 1.7v2.34h-.65zM528.51 93.52h3.41v.53h-1.38v4.51h-.65v-4.51h-1.38zM535.44 94.05h-2.05v1.69h1.84v.54h-1.84V98h2.05v.54h-2.71v-5h2.71zM539.16 94.05h-2.06v1.69h1.84v.54h-1.84V98h2.06v.54h-2.72v-5h2.72zM542.74 98.56h-.65v-4h.65v.65a1.35 1.35 0 0 1 1.28-.72v.68h-.17c-.63 0-1.11.28-1.11 1.2zM546.51 98.62a1.92 1.92 0 0 1-2-2.05 2 2 0 1 1 4 0 2 2 0 0 1-2 2.05zm0-.58a1.34 1.34 0 0 0 1.36-1.47 1.34 1.34 0 1 0-2.66 0 1.31 1.31 0 0 0 1.3 1.43zM552.93 98.56h-.66V98a1.45 1.45 0 0 1-1.26.65 1.55 1.55 0 0 1-1.63-1.7v-2.36h.62v2.24a1.06 1.06 0 0 0 1.14 1.17c.68 0 1.13-.42 1.13-1.27v-2.14h.66zM554.19 95.14h-.51v-.55h.51v-1h.66v1h1v.55h-1v2.33c0 .39.14.53.55.53h.48v.56h-.59c-.7 0-1.1-.29-1.1-1.09zM556.57 93.5a.45.45 0 1 1 .43.5.45.45 0 0 1-.43-.5zm.11 1.09h.66v4h-.66zM561.36 96.32c0-.81-.44-1.23-1.1-1.23s-1.14.42-1.14 1.28v2.19h-.66v-4h.66v.57a1.47 1.47 0 0 1 1.27-.64 1.54 1.54 0 0 1 1.62 1.7v2.34h-.65zM564.73 94.53a1.62 1.62 0 0 1 1.47.79v-.73h.67v4a1.78 1.78 0 0 1-1.9 1.87 1.74 1.74 0 0 1-1.91-1.37h.65a1.23 1.23 0 0 0 1.26.8 1.18 1.18 0 0 0 1.23-1.3v-.83a1.65 1.65 0 0 1-1.47.81 1.9 1.9 0 0 1-1.88-2.06 1.87 1.87 0 0 1 1.88-1.98zm.13.57a1.34 1.34 0 0 0-1.34 1.46 1.35 1.35 0 1 0 1.34-1.46zM572.82 96.32a1.08 1.08 0 0 0-1.11-1.23c-.67 0-1.14.42-1.14 1.28v2.19h-.65v-4h.65v.57a1.48 1.48 0 0 1 1.28-.64 1.54 1.54 0 0 1 1.62 1.7v2.34h-.65zM576.27 98.62a1.92 1.92 0 0 1-2-2.05 2 2 0 1 1 4 0 2 2 0 0 1-2 2.05zm0-.58a1.34 1.34 0 0 0 1.36-1.47 1.34 1.34 0 1 0-2.66 0 1.31 1.31 0 0 0 1.3 1.43zM580.82 94.53a1.75 1.75 0 0 1 1.47.77v-2.09h.71v5.35h-.66v-.75a1.63 1.63 0 0 1-1.48.81 1.91 1.91 0 0 1-1.88-2.06 1.88 1.88 0 0 1 1.84-2.03zm.12.57a1.34 1.34 0 0 0-1.34 1.46 1.35 1.35 0 1 0 1.34-1.46zM585.78 98.62a2 2 0 0 1 0-4.09 1.81 1.81 0 0 1 1.9 1.89 2.61 2.61 0 0 1 0 .4h-3.18a1.25 1.25 0 0 0 1.28 1.25 1.1 1.1 0 0 0 1.12-.73h.71a1.79 1.79 0 0 1-1.83 1.28zm-1.28-2.33h2.5a1.17 1.17 0 0 0-1.26-1.2 1.23 1.23 0 0 0-1.24 1.2zM590 98.62c-.93 0-1.58-.5-1.62-1.23h.62c0 .39.37.68.93.68s.81-.26.81-.59c0-.88-2.34-.37-2.34-1.84 0-.61.57-1.11 1.45-1.11a1.33 1.33 0 0 1 1.5 1.24h-.66a.76.76 0 0 0-.86-.68c-.48 0-.77.23-.77.55 0 .94 2.3.42 2.32 1.84.02.65-.55 1.14-1.38 1.14zM477.25 104.83a1.22 1.22 0 1 1 1.21 1.21 1.2 1.2 0 0 1-1.21-1.21zM487.59 102.2h.71l1.09 4.27 1.22-4.27h.74l1.15 4.26 1.11-4.26h.71l-1.46 5h-.74l-1.12-4.02-1.22 4.06H489zM496.68 103.21a1.67 1.67 0 0 1 1.48.79v-.72h.66v4h-.66v-.74a1.67 1.67 0 0 1-1.49.81 1.91 1.91 0 0 1-1.87-2.07 1.88 1.88 0 0 1 1.88-2.07zm.13.57a1.34 1.34 0 0 0-1.34 1.46 1.35 1.35 0 1 0 1.34-1.46zM499.94 101.89h.66v5.35h-.66zM501.72 101.89h.66v5.35h-.66zM505.21 107.31a1.91 1.91 0 0 1-2-2.06 1.89 1.89 0 0 1 2-2 1.82 1.82 0 0 1 1.9 1.9 2.48 2.48 0 0 1 0 .39h-3.17a1.26 1.26 0 0 0 1.29 1.25 1.09 1.09 0 0 0 1.12-.73h.65a1.8 1.8 0 0 1-1.79 1.25zm-1.28-2.31h2.5a1.16 1.16 0 0 0-1.25-1.2 1.24 1.24 0 0 0-1.25 1.2zM508.13 103.82h-.51v-.54h.51v-1h.66v1h1v.54h-1v2.34c0 .39.14.52.55.52h.48v.56h-.59c-.7 0-1.1-.29-1.1-1.08zM514.18 103.21a1.65 1.65 0 0 1 1.48.79v-.72h.67v4h-.67v-.74a1.65 1.65 0 0 1-1.48.81 1.92 1.92 0 0 1-1.88-2.07 1.88 1.88 0 0 1 1.88-2.07zm.13.57a1.33 1.33 0 0 0-1.33 1.46 1.35 1.35 0 1 0 1.33-1.46zM520.34 105c0-.81-.44-1.22-1.1-1.22s-1.14.42-1.14 1.27v2.19h-.66v-4h.66v.56a1.47 1.47 0 0 1 1.27-.63 1.53 1.53 0 0 1 1.63 1.73v2.34h-.65zM523.72 103.21a1.71 1.71 0 0 1 1.46.78v-2.1h.67v5.35h-.67v-.74a1.63 1.63 0 0 1-1.47.81 1.91 1.91 0 0 1-1.88-2.07 1.88 1.88 0 0 1 1.89-2.03zm.12.57a1.34 1.34 0 0 0-1.34 1.46 1.35 1.35 0 1 0 1.34-1.46zM530.3 107.31c-.93 0-1.58-.51-1.62-1.23h.68c0 .38.37.67.93.67s.81-.26.81-.59c0-.88-2.34-.37-2.34-1.84 0-.61.57-1.11 1.45-1.11a1.33 1.33 0 0 1 1.5 1.25h-.66a.76.76 0 0 0-.86-.69c-.48 0-.77.23-.77.55 0 .94 2.3.43 2.33 1.84 0 .65-.58 1.15-1.45 1.15zM538.39 105c0-.81-.43-1.22-1.08-1.22s-1.12.42-1.12 1.28v2.18h-.65V105c0-.81-.44-1.22-1.09-1.22s-1.12.42-1.12 1.28v2.18h-.66v-4h.66v.57a1.43 1.43 0 0 1 1.25-.64 1.49 1.49 0 0 1 1.46.88 1.46 1.46 0 0 1 1.4-.88 1.53 1.53 0 0 1 1.61 1.69v2.34h-.66zM541.76 103.21a1.65 1.65 0 0 1 1.48.79v-.72h.66v4h-.66v-.74a1.67 1.67 0 0 1-1.49.81 1.91 1.91 0 0 1-1.87-2.07 1.88 1.88 0 0 1 1.88-2.07zm.13.57a1.34 1.34 0 0 0-1.34 1.46 1.35 1.35 0 1 0 1.34-1.46zM545.68 107.24H545v-4h.66v.64a1.33 1.33 0 0 1 1.28-.71v.67h-.18c-.63 0-1.1.29-1.1 1.21zM547.86 103.82h-.51v-.54h.51v-1h.66v1h1v.54h-1v2.34c0 .39.14.52.55.52h.48v.56H549c-.7 0-1.1-.29-1.1-1.08zM554 103.21a1.73 1.73 0 0 1 1.83 1.34h-.71a1.08 1.08 0 0 0-1.12-.78c-.73 0-1.26.51-1.26 1.48s.53 1.5 1.26 1.5a1.07 1.07 0 0 0 1.12-.78h.71a1.77 1.77 0 0 1-1.83 1.34 2.05 2.05 0 0 1 0-4.1zM558.4 107.31a2.05 2.05 0 1 1 2-2.06 2 2 0 0 1-2 2.06zm0-.58a1.35 1.35 0 0 0 1.36-1.48 1.34 1.34 0 1 0-2.66 0 1.31 1.31 0 0 0 1.3 1.48zM564.21 105a1.07 1.07 0 0 0-1.11-1.22c-.67 0-1.14.42-1.14 1.27v2.19h-.65v-4h.69v.56a1.47 1.47 0 0 1 1.28-.63 1.53 1.53 0 0 1 1.62 1.69v2.34h-.65zM566.08 103.82h-.51v-.54h.51v-1h.66v1h1v.54h-1v2.34c0 .39.14.52.55.52h.48v.56h-.59c-.7 0-1.1-.29-1.1-1.08zM569.23 107.24h-.66v-4h.66v.64a1.33 1.33 0 0 1 1.28-.71v.67h-.17c-.63 0-1.11.29-1.11 1.21zM572.9 103.21a1.65 1.65 0 0 1 1.48.79v-.72h.67v4h-.67v-.74a1.65 1.65 0 0 1-1.48.81 1.92 1.92 0 0 1-1.88-2.07 1.88 1.88 0 0 1 1.88-2.07zm.13.57a1.33 1.33 0 0 0-1.33 1.46 1.35 1.35 0 1 0 1.33-1.46zM577.85 103.21a1.73 1.73 0 0 1 1.83 1.34H579a1.08 1.08 0 0 0-1.12-.78c-.73 0-1.26.51-1.26 1.48s.53 1.5 1.26 1.5A1.07 1.07 0 0 0 579 106h.71a1.77 1.77 0 0 1-1.83 1.34 2.05 2.05 0 0 1 0-4.1zM580.7 103.82h-.51v-.54h.51v-1h.66v1h1v.54h-1v2.34c0 .39.14.52.55.52h.48v.56h-.59c-.7 0-1.1-.29-1.1-1.08zM489.42 116a2 2 0 1 1 2-2 2 2 0 0 1-2 2zm0-.58a1.48 1.48 0 0 0 0-2.94 1.31 1.31 0 0 0-1.32 1.47 1.3 1.3 0 0 0 1.32 1.46zM495.22 113.68c0-.81-.44-1.22-1.1-1.22s-1.14.42-1.14 1.27v2.19h-.66v-4h.68v.56a1.47 1.47 0 0 1 1.27-.63 1.53 1.53 0 0 1 1.62 1.7v2.33h-.65zM501.6 111.42h-2.06v1.68h1.84v.55h-1.84v1.73h2.06v.54h-2.72v-5h2.72zM502.74 112.5h-.51v-.5h.51v-1h.66v1h1v.54h-1v2.34c0 .39.15.53.55.53h.48v.55h-.59c-.7 0-1.1-.29-1.1-1.08zM505.23 110.57h.66v2a1.49 1.49 0 0 1 1.31-.64 1.53 1.53 0 0 1 1.58 1.7v2.33h-.65v-2.24a1.06 1.06 0 0 0-1.11-1.22c-.67 0-1.13.42-1.13 1.27v2.19h-.66zM511.58 116a1.91 1.91 0 0 1-2-2 1.88 1.88 0 0 1 2-2 1.81 1.81 0 0 1 1.9 1.89v.4h-3.17a1.24 1.24 0 0 0 1.29 1.24 1.08 1.08 0 0 0 1.11-.73h.71a1.79 1.79 0 0 1-1.84 1.2zm-1.28-2.34h2.5a1.16 1.16 0 0 0-1.25-1.2 1.22 1.22 0 0 0-1.25 1.19zM515 115.92h-.66v-4h.66v.64a1.33 1.33 0 0 1 1.28-.71v.68h-.18c-.63 0-1.1.28-1.1 1.2zM518.76 116a1.91 1.91 0 0 1-2-2 1.88 1.88 0 0 1 2-2 1.81 1.81 0 0 1 1.9 1.89 2.61 2.61 0 0 1 0 .4h-3.17a1.25 1.25 0 0 0 1.29 1.24 1.1 1.1 0 0 0 1.12-.73h.7a1.78 1.78 0 0 1-1.84 1.2zm-1.28-2.34H520a1.16 1.16 0 0 0-1.25-1.2 1.23 1.23 0 0 0-1.27 1.19zM525.05 115.92h-.66v-.58a1.46 1.46 0 0 1-1.26.64 1.54 1.54 0 0 1-1.63-1.7V112h.65v2.24a1.06 1.06 0 0 0 1.11 1.21c.67 0 1.13-.42 1.13-1.27V112h.66zM531.89 113.68c0-.81-.44-1.22-1.09-1.22s-1.12.43-1.12 1.28v2.18H529v-2.24c0-.81-.44-1.22-1.09-1.22s-1.12.43-1.12 1.28v2.18h-.66v-4h.66v.57a1.43 1.43 0 0 1 1.25-.64 1.5 1.5 0 0 1 1.46.88 1.46 1.46 0 0 1 1.4-.88 1.53 1.53 0 0 1 1.61 1.7v2.33h-.65zM537.24 117.27a6.14 6.14 0 0 1 .11-8.1h.65v.06a5.83 5.83 0 0 0-.11 8v.07zM539 112.5h-.52v-.5h.52v-.28c0-.88.43-1.28 1.44-1.28v.56c-.59 0-.78.21-.78.73v.27h.83v.54h-.83v3.42H539zM542.94 116a2 2 0 1 1 2-2 2 2 0 0 1-2 2zm0-.58a1.34 1.34 0 0 0 1.36-1.47 1.34 1.34 0 1 0-2.66 0 1.31 1.31 0 0 0 1.3 1.46zM546.5 115.92h-.65v-4h.65v.64a1.35 1.35 0 0 1 1.28-.71v.68h-.17c-.63 0-1.11.28-1.11 1.2zM550.37 110.87a.44.44 0 1 1 .45.45.44.44 0 0 1-.45-.45zm.11 1.09h.65v4h-.65zM555.16 113.68a1.06 1.06 0 0 0-1.11-1.22c-.67 0-1.13.42-1.13 1.27v2.19h-.66v-4h.66v.56a1.45 1.45 0 0 1 1.27-.63 1.53 1.53 0 0 1 1.62 1.7v2.33h-.65zM558.57 111.9a1.71 1.71 0 0 1 1.83 1.33h-.71a1.08 1.08 0 0 0-1.12-.78c-.72 0-1.26.52-1.26 1.49s.54 1.49 1.26 1.49a1.05 1.05 0 0 0 1.12-.78h.71a1.76 1.76 0 0 1-1.83 1.34 2 2 0 0 1 0-4.09zM563 116a1.92 1.92 0 0 1-2-2 1.89 1.89 0 0 1 2-2 1.82 1.82 0 0 1 1.9 1.89v.4h-3.17a1.24 1.24 0 0 0 1.29 1.24 1.09 1.09 0 0 0 1.11-.73h.71A1.79 1.79 0 0 1 563 116zm-1.28-2.34h2.5a1.17 1.17 0 0 0-1.25-1.2 1.22 1.22 0 0 0-1.25 1.19zM568.67 113.68a1.06 1.06 0 0 0-1.11-1.22c-.67 0-1.14.42-1.14 1.27v2.19h-.65v-4h.65v.56a1.48 1.48 0 0 1 1.28-.63 1.53 1.53 0 0 1 1.62 1.7v2.33h-.65zM570.54 112.5H570v-.5h.51v-1h.66v1h1v.54h-1v2.34c0 .39.15.53.55.53h.48v.55h-.59c-.7 0-1.1-.29-1.1-1.08zM572.92 110.87a.45.45 0 1 1 .45.45.45.45 0 0 1-.45-.45zM573 112h.66v4H573zM575.05 112l1.24 3.36 1.23-3.36h.7l-1.56 4h-.76l-1.56-4zM580.59 116a1.91 1.91 0 0 1-2-2 1.88 1.88 0 0 1 2-2 1.81 1.81 0 0 1 1.9 1.89v.4h-3.19a1.24 1.24 0 0 0 1.29 1.24 1.09 1.09 0 0 0 1.11-.73h.71a1.79 1.79 0 0 1-1.82 1.2zm-1.28-2.34h2.5a1.16 1.16 0 0 0-1.25-1.2 1.22 1.22 0 0 0-1.25 1.19zM584.76 116a1.45 1.45 0 0 1-1.62-1.23h.68c0 .38.38.67.93.67s.81-.26.81-.58c0-.89-2.34-.37-2.34-1.85 0-.61.57-1.1 1.45-1.1a1.33 1.33 0 0 1 1.5 1.24h-.66a.76.76 0 0 0-.86-.69c-.48 0-.77.23-.77.55 0 .94 2.3.43 2.33 1.85 0 .64-.57 1.14-1.45 1.14zM586.93 117.27v-.07a5.86 5.86 0 0 0-.11-8v-.06h.68a6.14 6.14 0 0 1 .11 8.1z" transform="translate(-6.62 -21.82)"/>
    </g>
    <path fill="#01cc9b" d="M457.71 86h7.22l-1.38 2.75h-7.21l1.37-2.75zm6.58 9.29v-6l.92-1.83v5.74l-.92 2.06zm-.91 1.7h-3.21v-4.16h-.91V97h-3.21v-7.37h7.33V97zm-4.12 2.75h-1.83a.46.46 0 0 0-.42.25l-1.83 3.66a.41.41 0 0 0-.05.21v3.66h-2.75v-7.32a.46.46 0 0 0-.45-.46h-5.5v-1.87h3.66a.46.46 0 0 0 .42-.28l1.71-3.84h2.91v3.66a.46.46 0 0 0 .46.46h3.66v1.83zm5.67.91l-1.38 2.75h-3.38v-2.75zm-.64 9.29v-6l.92-1.84v5.75l-.92 2.06zm-8-6.54l1.37-2.75h1.55v2.75zm7 8.24h-7.33v-3.21h4.12v-.91h-4.12v-3.2h7.33v7.32zm-12.82-1.7v-1.51h.67l-.67 1.51zm-.92 1.7h-7.32v-7.32h3.2v4.11h.92v-4.11h3.2v7.32zm.18-8.24h-3.38v-2.75h4.75l-1.37 2.75zm1.66 4.12h-.92v-3.55l.92-1.84v5.39zm-7.5-6.87h1.54v2.75h-2.83l1.38-2.75zm-1.66-11h7.32v3.2h-4.12v.92h4.12V97h-7.32v-7.37zM444 86h7.21l-1.37 2.75h-7.24L444 86zm6.58 6.87v-3.59l.92-1.83v5.38zm0 .92h.67l-.67 1.5v-1.5zm4.58-.92h-2.75v-7.36a.46.46 0 0 0-.45-.46h-8.25a.47.47 0 0 0-.41.25l-1.85 3.7a.56.56 0 0 0-.06.21v8.24a.47.47 0 0 0 .46.46h3.66v1.79h-1.83a.47.47 0 0 0-.41.25l-1.83 3.66a.56.56 0 0 0-.06.21v8.24a.46.46 0 0 0 .46.45h8.24a.45.45 0 0 0 .42-.27l1.71-3.85h2.91v3.67a.45.45 0 0 0 .46.45h8.23a.44.44 0 0 0 .42-.27l1.83-4.12a.39.39 0 0 0 0-.18v-7.78a.44.44 0 0 0-.44-.46h-5.51v-1.83h3.66a.45.45 0 0 0 .42-.28l1.83-4.11a.43.43 0 0 0 0-.19v-7.78a.44.44 0 0 0-.44-.46h-8.25a.48.48 0 0 0-.42.25l-1.73 3.7a.41.41 0 0 0-.05.21v3.66z" transform="translate(-6.62 -21.82)"/>
  </g>
  <g id="green_info">
    <path d="M18.85 27.7h-2.28l-.36 1.07h-1.56l2.21-6.09h1.72l2.2 6.09h-1.57zm-1.14-3.38L17 26.55h1.5zM24.43 23.86a2.22 2.22 0 0 1 2.13 2.48 2.24 2.24 0 0 1-2.13 2.5 1.74 1.74 0 0 1-1.49-.74v3h-1.49v-7.17h1.49v.68a1.7 1.7 0 0 1 1.49-.75zM24 25.15a1.21 1.21 0 1 0 1.06 1.19A1.09 1.09 0 0 0 24 25.15zM30.32 23.86a2.23 2.23 0 0 1 2.14 2.48 2.25 2.25 0 0 1-2.14 2.5 1.76 1.76 0 0 1-1.49-.74v3h-1.48v-7.17h1.48v.68a1.71 1.71 0 0 1 1.49-.75zm-.44 1.29A1.21 1.21 0 1 0 31 26.34a1.08 1.08 0 0 0-1.12-1.19zM33.24 22.35h1.49v6.42h-1.49zM35.66 22.63a.89.89 0 1 1 .89.79.82.82 0 0 1-.89-.79zm.14 1.3h1.49v4.84H35.8zM40.5 23.86a2.22 2.22 0 0 1 2.33 1.82h-1.58a.77.77 0 0 0-.78-.55c-.52 0-.89.41-.89 1.22s.37 1.22.89 1.22a.76.76 0 0 0 .78-.55h1.58a2.25 2.25 0 0 1-2.33 1.82 2.32 2.32 0 0 1-2.43-2.49 2.33 2.33 0 0 1 2.43-2.49zM45.46 23.86a1.69 1.69 0 0 1 1.49.75v-.68h1.49v4.84H47v-.68a1.72 1.72 0 0 1-1.5.75 2.25 2.25 0 0 1-2.13-2.5 2.23 2.23 0 0 1 2.09-2.48zm.43 1.29a1.08 1.08 0 0 0-1.06 1.19 1.1 1.1 0 0 0 1.06 1.21 1.21 1.21 0 0 0 0-2.4zM49.75 25.16h-.59v-1.23h.59v-1.18h1.48v1.18h1v1.23h-1v1.95c0 .28.12.4.45.4h.53v1.26h-.75a1.49 1.49 0 0 1-1.71-1.68zM52.9 22.63a.82.82 0 0 1 .89-.81.8.8 0 1 1 0 1.6.82.82 0 0 1-.89-.79zm.14 1.3h1.48v4.84H53zM57.81 28.84a2.49 2.49 0 1 1 2.53-2.49 2.4 2.4 0 0 1-2.53 2.49zm0-1.28c.53 0 1-.39 1-1.21s-.49-1.21-1-1.21-1 .39-1 1.21.46 1.21 1 1.21zM64.47 26.14a.93.93 0 1 0-1.85 0v2.63h-1.49v-4.84h1.49v.64a1.75 1.75 0 0 1 1.46-.69A1.83 1.83 0 0 1 66 25.94v2.83h-1.53zM70.31 22.68v4.95h2v1.14h-3.48v-6.09zM74.81 23.86a1.69 1.69 0 0 1 1.49.75v-.68h1.49v4.84H76.3v-.68a1.72 1.72 0 0 1-1.5.75 2.25 2.25 0 0 1-2.13-2.5 2.23 2.23 0 0 1 2.14-2.48zm.43 1.29a1.08 1.08 0 0 0-1.06 1.19 1.1 1.1 0 0 0 1.06 1.21 1.21 1.21 0 0 0 0-2.4zM82.21 23.93h1.6l-3 7.14h-1.63l1.11-2.46-2-4.68H80l1.12 3zM86.5 28.84a2.33 2.33 0 0 1-2.44-2.49 2.32 2.32 0 0 1 2.44-2.49 2.29 2.29 0 0 1 2.42 2.41 3.37 3.37 0 0 1 0 .44h-3.39a.9.9 0 0 0 .92.93.78.78 0 0 0 .77-.47h1.58a2.26 2.26 0 0 1-2.3 1.67zm-1-3h1.9a.84.84 0 0 0-.91-.83.92.92 0 0 0-.95.87zM91.18 28.77H89.7v-4.84h1.48v.81a1.79 1.79 0 0 1 1.52-.86v1.57h-.4c-.71 0-1.12.24-1.12 1.07zM94.11 25.31a.81.81 0 1 1 .88-.8.83.83 0 0 1-.88.8zm0 3.53A.81.81 0 1 1 95 28a.82.82 0 0 1-.89.84zM97.72 22.68h4v1.19h-2.51v1.28h1.86v1.16h-1.86v2.46h-1.49zM104.68 28.84a2.49 2.49 0 1 1 2.53-2.49 2.4 2.4 0 0 1-2.53 2.49zm0-1.28c.53 0 1-.39 1-1.21s-.48-1.21-1-1.21-1 .39-1 1.21.46 1.21 1 1.21zM109.49 28.77H108v-4.84h1.49v.81a1.79 1.79 0 0 1 1.52-.86v1.57h-.41c-.7 0-1.11.24-1.11 1.07zM115.71 28.84a2.33 2.33 0 0 1-2.44-2.49 2.32 2.32 0 0 1 2.44-2.49 2.29 2.29 0 0 1 2.42 2.41 3.37 3.37 0 0 1 0 .44h-3.36a.9.9 0 0 0 .92.93.78.78 0 0 0 .77-.47H118a2.26 2.26 0 0 1-2.29 1.67zm-1-3h1.86a.84.84 0 0 0-.91-.83.92.92 0 0 0-.91.87zM122.25 26.14a.93.93 0 1 0-1.86 0v2.63h-1.48v-4.84h1.48v.64a1.78 1.78 0 0 1 1.47-.69 1.83 1.83 0 0 1 1.87 2.06v2.83h-1.48zM126.6 23.86a1.78 1.78 0 0 1 1.5.74v-2.25h1.48v6.42h-1.48v-.69a1.69 1.69 0 0 1-1.5.76 2.24 2.24 0 0 1-2.13-2.5 2.22 2.22 0 0 1 2.13-2.48zm.44 1.29a1.08 1.08 0 0 0-1.04 1.19 1.07 1.07 0 1 0 1-1.19zM137.28 28.77h-1.48v-.66a1.77 1.77 0 0 1-1.47.71 1.84 1.84 0 0 1-1.88-2.06v-2.83h1.48v2.63a.94.94 0 1 0 1.87 0v-2.63h1.48zM140.32 28.84a2 2 0 0 1-2.23-1.66h1.47a.68.68 0 0 0 .74.57c.39 0 .59-.18.59-.39 0-.78-2.64-.22-2.64-2 0-.82.7-1.5 2-1.5a1.83 1.83 0 0 1 2 1.65h-1.37a.65.65 0 0 0-.72-.55c-.34 0-.53.14-.53.37 0 .78 2.62.23 2.64 2 .01.88-.73 1.51-1.95 1.51zM145.35 28.84a2.33 2.33 0 0 1-2.45-2.49 2.33 2.33 0 0 1 2.45-2.49 2.28 2.28 0 0 1 2.41 2.41v.44h-3.36a.9.9 0 0 0 .92.93.79.79 0 0 0 .77-.47h1.58a2.26 2.26 0 0 1-2.32 1.67zm-1-3h1.86a.83.83 0 0 0-.91-.83.92.92 0 0 0-.92.87zM150 28.77h-1.49v-4.84H150v.81a1.79 1.79 0 0 1 1.52-.86v1.57h-.41c-.7 0-1.11.24-1.11 1.07zM158.89 28.77h-1.49v-.66a1.76 1.76 0 0 1-1.47.71 1.84 1.84 0 0 1-1.87-2.06v-2.83h1.47v2.63a.94.94 0 1 0 1.87 0v-2.63h1.49zM161.92 28.84a2 2 0 0 1-2.23-1.66h1.47a.69.69 0 0 0 .75.57c.38 0 .58-.18.58-.39 0-.78-2.64-.22-2.64-2 0-.82.7-1.5 2-1.5a1.82 1.82 0 0 1 2 1.65h-1.37a.64.64 0 0 0-.71-.55c-.35 0-.54.14-.54.37 0 .78 2.62.23 2.65 2 .01.88-.74 1.51-1.96 1.51zM166.64 23.86a1.69 1.69 0 0 1 1.49.75v-.68h1.49v4.84h-1.49v-.68a1.72 1.72 0 0 1-1.5.75 2.25 2.25 0 0 1-2.13-2.5 2.23 2.23 0 0 1 2.14-2.48zm.43 1.29a1.08 1.08 0 0 0-1.07 1.19 1.1 1.1 0 0 0 1.06 1.21 1.21 1.21 0 0 0 0-2.4zM172.54 23.86a1.68 1.68 0 0 1 1.49.75v-.68h1.48v4.83a2.51 2.51 0 0 1-4.93.52h1.47a.92.92 0 0 0 1 .6c.57 0 1-.3 1-1.12v-.68a1.72 1.72 0 0 1-1.49.76 2.25 2.25 0 0 1-2.14-2.5 2.23 2.23 0 0 1 2.12-2.48zm.43 1.29a1.08 1.08 0 0 0-1.06 1.19 1.07 1.07 0 1 0 1.09-1.19zM178.74 28.84a2.33 2.33 0 0 1-2.44-2.49 2.32 2.32 0 0 1 2.44-2.49 2.29 2.29 0 0 1 2.42 2.41 3.37 3.37 0 0 1 0 .44h-3.36a.9.9 0 0 0 .92.93.78.78 0 0 0 .77-.47H181a2.26 2.26 0 0 1-2.26 1.67zm-1-3h1.86a.84.84 0 0 0-.91-.83.92.92 0 0 0-.91.87z" transform="translate(-6.62 -21.82)"/>
    <g>
      <path d="M61.18 41.33a2.4 2.4 0 0 1-2.68 2.51h-1.57v-5h1.57a2.42 2.42 0 0 1 2.68 2.49zm-2.68 2a1.8 1.8 0 0 0 2-2 1.82 1.82 0 0 0-2-2h-.91v4zM63.68 39.81a1.65 1.65 0 0 1 1.48.79v-.72h.66v4h-.66v-.78a1.65 1.65 0 0 1-1.48.81 1.92 1.92 0 0 1-1.88-2.07 1.88 1.88 0 0 1 1.88-2.03zm.13.57a1.34 1.34 0 0 0-1.34 1.46 1.35 1.35 0 1 0 1.34-1.46zM67.08 40.42h-.51v-.54h.51v-1h.66v1h1v.54h-1v2.34c0 .39.15.52.55.52h.49v.56h-.6c-.7 0-1.1-.29-1.1-1.08zM71.21 39.81a1.64 1.64 0 0 1 1.47.79v-.72h.67v4h-.67v-.78a1.65 1.65 0 0 1-1.48.81 1.91 1.91 0 0 1-1.87-2.07 1.88 1.88 0 0 1 1.88-2.03zm.13.57A1.34 1.34 0 0 0 70 41.84a1.35 1.35 0 1 0 1.34-1.46zM78.68 43.89a2.58 2.58 0 1 1 2.53-2.57 2.49 2.49 0 0 1-2.53 2.57zm0-.57a2 2 0 1 0-1.86-2 1.84 1.84 0 0 0 1.86 2zM81.61 39.88h.68l.91 3.32 1-3.32h.68l1 3.33.89-3.33h.65l-1.23 4h-.68l-1-3.15-.95 3.15h-.68zM90.92 41.6a1.06 1.06 0 0 0-1.11-1.22c-.67 0-1.13.42-1.13 1.27v2.19H88v-4h.66v.56a1.46 1.46 0 0 1 1.34-.6 1.54 1.54 0 0 1 1.62 1.7v2.34h-.65zM94.36 43.91a1.92 1.92 0 0 1-2-2.06 1.89 1.89 0 0 1 2-2 1.82 1.82 0 0 1 1.91 1.9 2.47 2.47 0 0 1 0 .39h-3.19a1.24 1.24 0 0 0 1.28 1.25 1.1 1.1 0 0 0 1.12-.73h.71a1.8 1.8 0 0 1-1.83 1.25zm-1.28-2.34h2.51a1.18 1.18 0 0 0-1.26-1.2 1.24 1.24 0 0 0-1.25 1.2zM97.79 43.84h-.65v-4h.65v.64a1.34 1.34 0 0 1 1.28-.72v.68h-.17c-.63 0-1.11.29-1.11 1.21zM100 40.79a.45.45 0 0 1 0-.9.45.45 0 0 1 0 .9zm0 3.09a.45.45 0 0 1 0-.89.45.45 0 0 1 0 .89zM106.29 42.72h-2.2l-.41 1.12H103l1.82-5h.76l1.82 5h-.7zm-1.1-3.08l-.91 2.54h1.82zM109.81 41.74h-1v2.1h-.66v-5h1.63c1.19 0 1.74.65 1.74 1.47s-.46 1.43-1.71 1.43zm0-.55c.75 0 1.07-.35 1.07-.92s-.32-.93-1.07-.93h-1v1.85zM112.37 38.8h.63v5h-.66zM116 37h.66l-2 8H114zM119.24 39.81a1.74 1.74 0 0 1 1.47.78v-2.1h.66v5.35h-.66v-.74a1.63 1.63 0 0 1-1.48.81 1.92 1.92 0 0 1-1.88-2.07 1.88 1.88 0 0 1 1.89-2.03zm.12.57a1.34 1.34 0 0 0-1.36 1.46 1.35 1.35 0 1 0 1.34-1.46zM125.47 42.72h-2.2l-.4 1.12h-.7l1.82-5h.76l1.82 5h-.7zm-1.1-3.08l-.91 2.54h1.82zM129.51 39.81a1.88 1.88 0 0 1 1.88 2 1.92 1.92 0 0 1-1.88 2.07 1.74 1.74 0 0 1-1.49-.8v2.61h-.65v-5.81h.63v.73a1.68 1.68 0 0 1 1.51-.8zm-.14.57a1.48 1.48 0 1 0 1.35 1.46 1.34 1.34 0 0 0-1.35-1.46zM134.4 39.81a1.88 1.88 0 0 1 1.88 2 1.92 1.92 0 0 1-1.88 2.07 1.72 1.72 0 0 1-1.48-.8v2.61h-.66v-5.81h.66v.73a1.66 1.66 0 0 1 1.48-.8zm-.14.57a1.48 1.48 0 1 0 1.35 1.46 1.34 1.34 0 0 0-1.35-1.46zM141.18 41.43a1.22 1.22 0 1 1 1.22 1.21 1.21 1.21 0 0 1-1.22-1.21zM68.77 50a2.4 2.4 0 0 1-2.68 2.51h-1.57v-5h1.57A2.42 2.42 0 0 1 68.77 50zm-2.68 2a2 2 0 1 0 0-4h-.91v4zM71.27 48.49a1.65 1.65 0 0 1 1.48.79v-.72h.66v4h-.66v-.73a1.66 1.66 0 0 1-1.48.8 1.91 1.91 0 0 1-1.88-2.06 1.88 1.88 0 0 1 1.88-2.08zm.13.58a1.33 1.33 0 0 0-1.33 1.46 1.34 1.34 0 1 0 1.33-1.46zM74.67 49.1h-.51v-.54h.51v-1h.66v1h1v.54h-1v2.34c0 .39.15.53.55.53h.49v.55h-.6c-.7 0-1.1-.29-1.1-1.08zM78.8 48.49a1.64 1.64 0 0 1 1.47.79v-.72h.67v4h-.67v-.73a1.65 1.65 0 0 1-1.48.8 1.91 1.91 0 0 1-1.87-2.06 1.88 1.88 0 0 1 1.88-2.08zm.13.58a1.34 1.34 0 0 0-1.34 1.46 1.34 1.34 0 1 0 1.34-1.46zM84 47.48h.66v3.19A1.16 1.16 0 0 0 85.88 52c.74 0 1.23-.4 1.23-1.33v-3.19h.66v3.18a1.9 1.9 0 1 1-3.8 0zM90.28 52.59a1.46 1.46 0 0 1-1.63-1.23h.69c0 .38.37.67.93.67s.81-.26.81-.58c0-.89-2.35-.37-2.35-1.85 0-.61.58-1.11 1.46-1.11a1.34 1.34 0 0 1 1.5 1.25H91a.77.77 0 0 0-.86-.69c-.49 0-.78.23-.78.55 0 .94 2.3.43 2.33 1.85.03.65-.54 1.14-1.41 1.14zM94.36 52.59a1.91 1.91 0 0 1-2-2.06 1.89 1.89 0 0 1 2-2 1.82 1.82 0 0 1 1.91 1.9 2.69 2.69 0 0 1 0 .4h-3.19A1.24 1.24 0 0 0 94.36 52a1.09 1.09 0 0 0 1.12-.73h.71a1.8 1.8 0 0 1-1.83 1.32zm-1.28-2.34h2.51a1.18 1.18 0 0 0-1.26-1.2 1.23 1.23 0 0 0-1.25 1.2zM97.79 52.52h-.65v-4h.65v.64a1.34 1.34 0 0 1 1.28-.71v.68h-.17c-.63 0-1.11.28-1.11 1.2zM100 49.47a.43.43 0 0 1-.4-.47.44.44 0 0 1 .44-.45.45.45 0 0 1 .44.45.44.44 0 0 1-.48.47zm0 3.1a.45.45 0 0 1 0-.9.45.45 0 0 1 0 .9zM106.29 51.4h-2.2l-.41 1.12H103l1.82-5h.76l1.82 5h-.7zm-1.1-3.08l-.91 2.55h1.82zM109.81 50.42h-1v2.1h-.66v-5h1.63c1.19 0 1.74.65 1.74 1.48s-.46 1.42-1.71 1.42zm0-.54c.75 0 1.07-.36 1.07-.92s-.32-.94-1.07-.94h-1v1.86zM112.37 47.48h.63v5h-.66zM116 45.71h.66l-2 8H114zM119.24 48.49a1.74 1.74 0 0 1 1.47.78v-2.1h.66v5.35h-.66v-.74a1.63 1.63 0 0 1-1.48.81 1.91 1.91 0 0 1-1.88-2.06 1.89 1.89 0 0 1 1.89-2.04zm.12.58a1.34 1.34 0 0 0-1.36 1.46 1.35 1.35 0 1 0 1.34-1.46zM125.47 51.4h-2.2l-.4 1.12h-.7l1.82-5h.76l1.82 5h-.7zm-1.1-3.08l-.91 2.55h1.82zM129.51 48.49a1.88 1.88 0 0 1 1.88 2 1.91 1.91 0 0 1-1.88 2.06 1.72 1.72 0 0 1-1.49-.8v2.65h-.65v-5.84h.63v.73a1.68 1.68 0 0 1 1.51-.8zm-.14.58a1.48 1.48 0 1 0 1.35 1.46 1.34 1.34 0 0 0-1.35-1.46zM134.4 48.49a1.88 1.88 0 0 1 1.88 2 1.91 1.91 0 0 1-1.88 2.06 1.7 1.7 0 0 1-1.48-.8v2.65h-.66v-5.84h.66v.73a1.66 1.66 0 0 1 1.48-.8zm-.14.58a1.48 1.48 0 1 0 1.35 1.46 1.34 1.34 0 0 0-1.35-1.46zM141.18 50.11a1.22 1.22 0 1 1 2.43 0 1.22 1.22 0 0 1-2.43 0z" transform="translate(-6.62 -21.82)"/>
    </g>
    <g fill="#7de314">
      <path d="M153.75 55.84h26.52V40.69a1 1 0 0 0-1-.95h-24.58a1 1 0 0 0-.94.95v15.15zm27 .95h-27.48a.47.47 0 0 1-.47-.47V40.69a1.89 1.89 0 0 1 1.89-1.89h24.63a1.89 1.89 0 0 1 1.89 1.89v15.63a.47.47 0 0 1-.47.47z" transform="translate(-6.62 -21.82)"/>
      <path d="M153.75 56.79v1.9a.94.94 0 0 0 .94.94h24.63a1 1 0 0 0 1-.94v-1.9zm25.57 3.79h-24.63a1.89 1.89 0 0 1-1.89-1.89v-2.37a.48.48 0 0 1 .47-.48h27.47a.48.48 0 0 1 .47.48v2.37a1.89 1.89 0 0 1-1.89 1.89z" transform="translate(-6.62 -21.82)"/>
      <path d="M168.43 58.69h-2.84a.48.48 0 0 1-.48-.48.47.47 0 0 1 .48-.47h2.84a.47.47 0 0 1 .47.47.48.48 0 0 1-.47.48zM155.64 55.84h22.73v-14.2h-22.73v14.2zm23.2.95h-23.67a.48.48 0 0 1-.48-.47V41.16a.48.48 0 0 1 .48-.47h23.67a.47.47 0 0 1 .48.47v15.16a.47.47 0 0 1-.48.47zM160.85 64.37a.47.47 0 0 0-.47.47.48.48 0 0 0 .47.48h12.31a.49.49 0 0 0 .48-.48.48.48 0 0 0-.48-.47zm12.31 1.89h-12.31a1.42 1.42 0 1 1 0-2.84h12.31a1.42 1.42 0 1 1 0 2.84z" transform="translate(-6.62 -21.82)"/>
      <path d="M164.1 63.42h5.81a4.55 4.55 0 0 1-1-2.84h-3.81a4.49 4.49 0 0 1-1 2.84zm8.11 1H161.8a.48.48 0 1 1 0-1c1.57 0 2.36-1.11 2.36-3.31a.48.48 0 0 1 .48-.48h4.73a.48.48 0 0 1 .48.48c0 2.2.79 3.31 2.36 3.31a.48.48 0 1 1 0 1zM172.28 52.53a.61.61 0 0 1 .43.18l1 1 .67-.67-1.06-1.04a.55.55 0 0 1-.15-.38.52.52 0 0 1 .15-.38l.37-.37-3.13-.94.94 3.13.34-.34a.62.62 0 0 1 .44-.18zm1.47 2.37a.47.47 0 0 1-.33-.14l-1.14-1.15-.67.67a.47.47 0 0 1-.45.13.46.46 0 0 1-.34-.32l-1.42-4.74a.45.45 0 0 1 .12-.47.48.48 0 0 1 .47-.12l4.73 1.42a.48.48 0 0 1 .32.34.45.45 0 0 1-.12.45l-.64.64 1.15 1.14a.48.48 0 0 1 0 .67l-1.34 1.34a.48.48 0 0 1-.34.14zM159.9 45h12.31v-1.47H159.9V45zm12.79.95h-13.26a.47.47 0 0 1-.47-.47v-2.42a.48.48 0 0 1 .47-.48h13.26a.48.48 0 0 1 .47.48v2.37a.47.47 0 0 1-.47.47zM161.8 49.69h2.84v-.95h-2.84v.95zm3.31 1h-3.79a.48.48 0 0 1-.47-.48v-1.94a.48.48 0 0 1 .47-.48h3.79a.49.49 0 0 1 .48.48v1.89a.49.49 0 0 1-.48.48z" transform="translate(-6.62 -21.82)"/>
      <path d="M159.9 51.58h10.17l-.67-2.23a.45.45 0 0 1 .12-.47.48.48 0 0 1 .47-.12l2.22.67v-5.9H159.9v8zm10.8 1h-11.27a.47.47 0 0 1-.47-.47v-9a.48.48 0 0 1 .47-.48h13.26a.48.48 0 0 1 .47.48v7a.47.47 0 0 1-.19.38.48.48 0 0 1-.42.07l-2-.6.6 2a.49.49 0 0 1-.08.42.47.47 0 0 1-.38.19z" transform="translate(-6.62 -21.82)"/>
    </g>
  </g>
  <g id="purple_pointer_right" fill="#5059ab">
    <path d="M469 214.09a1.08 1.08 0 0 1-1.08 1.08H409.5a3.76 3.76 0 0 0 0-2.17h58.37a1.08 1.08 0 0 1 1.13 1.09z" transform="translate(-6.62 -21.82)"/>
    <path d="M409.66 214.09a3.92 3.92 0 0 1-.16 1.08 4 4 0 1 1 0-2.17 3.94 3.94 0 0 1 .16 1.09zM469.9 214.09a2 2 0 1 1-2-2 2 2 0 0 1 2 2z" transform="translate(-6.62 -21.82)"/>
  </g>
  <g id="teal_pointer_left" fill="#14a0c0">
    <path d="M153.17 169.88a1.08 1.08 0 0 0 1.09 1.08h58.36a4 4 0 0 1 0-2.17h-58.36a1.09 1.09 0 0 0-1.09 1.09z" transform="translate(-6.62 -21.82)"/>
    <path d="M212.47 169.88a3.91 3.91 0 0 0 .15 1.08 4 4 0 1 0 0-2.17 3.93 3.93 0 0 0-.15 1.09zM152.22 169.88a2 2 0 1 0 2-2 2 2 0 0 0-2 2z" transform="translate(-6.62 -21.82)"/>
  </g>
  <g id="light_teal_pointer_right" fill="#01cc9b">
    <path d="M469 124a1.08 1.08 0 0 1-1.08 1.09H409.5a3.94 3.94 0 0 0 .16-1.09 3.86 3.86 0 0 0-.16-1.08h58.37A1.08 1.08 0 0 1 469 124z" transform="translate(-6.62 -21.82)"/>
    <path d="M409.66 124a3.94 3.94 0 0 1-.16 1.09 4 4 0 1 1 0-2.17 3.86 3.86 0 0 1 .16 1.08zM469.9 124a2 2 0 1 1-2-2 2 2 0 0 1 2 2z" transform="translate(-6.62 -21.82)"/>
  </g>
  <g id="green_pointer_left" fill="#7de314">
    <path d="M153.17 77.25a1.09 1.09 0 0 0 1.09 1.09h58.36a4 4 0 0 1 0-2.17h-58.36a1.08 1.08 0 0 0-1.09 1.08z" transform="translate(-6.62 -21.82)"/>
    <path d="M212.47 77.25a3.93 3.93 0 0 0 .15 1.09 4 4 0 1 0 0-2.17 3.91 3.91 0 0 0-.15 1.08zM152.22 77.25a2 2 0 1 0 2-2 2 2 0 0 0-2 2z" transform="translate(-6.62 -21.82)"/>
  </g>
  <path id="purple_layer" fill="#5059ab" d="M418.77 188.9l-104.63-39.83a3.89 3.89 0 0 0-2.73 0L207.49 188.9a3.82 3.82 0 0 0 0 7.14l104.64 39.83a3.7 3.7 0 0 0 1.36.26 3.77 3.77 0 0 0 1.36-.26l103.93-39.82a3.83 3.83 0 0 0 0-7.15zm-105.28 42.85l-103.18-39.29 102.47-39.27L416 192.48z" transform="translate(-6.62 -21.82)"/>
  <path id="teal_layer" fill="#14a0c0" d="M418.77 188.9l-104.63-39.83a3.89 3.89 0 0 0-2.73 0L207.49 188.9a3.82 3.82 0 0 0 0 7.14l104.64 39.83a3.7 3.7 0 0 0 1.36.26 3.77 3.77 0 0 0 1.36-.26l103.93-39.82a3.83 3.83 0 0 0 0-7.15zm-105.28 42.85l-103.18-39.29 102.47-39.27L416 192.48z" transform="translate(-6.62 -21.82)"/>
  <path id="light_teal_layer" fill="#01cc9b" d="M418.77 188.9l-104.63-39.83a3.89 3.89 0 0 0-2.73 0L207.49 188.9a3.82 3.82 0 0 0 0 7.14l104.64 39.83a3.7 3.7 0 0 0 1.36.26 3.77 3.77 0 0 0 1.36-.26l103.93-39.82a3.83 3.83 0 0 0 0-7.15zm-105.28 42.85l-103.18-39.29 102.47-39.27L416 192.48z" transform="translate(-6.62 -21.82)"/>
  <path id="green_layer" fill="#7de314" d="M418.77 188.9l-104.63-39.83a3.89 3.89 0 0 0-2.73 0L207.49 188.9a3.82 3.82 0 0 0 0 7.14l104.64 39.83a3.7 3.7 0 0 0 1.36.26 3.77 3.77 0 0 0 1.36-.26l103.93-39.82a3.83 3.83 0 0 0 0-7.15zm-105.28 42.85l-103.18-39.29 102.47-39.27L416 192.48z" transform="translate(-6.62 -21.82)"/>
</svg>
