<?xml version="1.0" encoding="utf-8"?>
<!-- Generator: Adobe Illustrator 22.0.1, SVG Export Plug-In . SVG Version: 6.00 Build 0)  -->
<svg version="1.1" id="Layer_1" xmlns="http://www.w3.org/2000/svg" xmlns:xlink="http://www.w3.org/1999/xlink" x="0px" y="0px"
	 viewBox="0 0 587.5 214.3" style="enable-background:new 0 0 587.5 214.3;" xml:space="preserve">
<style type="text/css">
	.st0{fill:#5059AB;}
	.st1{fill:#14A0C0;}
	.st2{fill:#01CC9B;}
	.st3{fill:#7DE314;}
</style>
<path id="purple_layer" class="st0" d="M412.1,167.1l-104.6-39.8c-0.9-0.3-1.8-0.3-2.7,0l-103.9,39.8c-2,0.8-3,3-2.2,4.9
	c0.4,1,1.2,1.8,2.2,2.2L305.5,214c0.4,0.2,0.9,0.3,1.4,0.3c0.5,0,0.9-0.1,1.4-0.3l103.9-39.8c2-0.8,3-3,2.2-4.9
	C414,168.3,413.2,167.5,412.1,167.1L412.1,167.1z M306.9,209.9l-103.2-39.3l102.5-39.3l103.2,39.3L306.9,209.9z"/>
<path id="teal_layer" class="st1" d="M412.1,167.1l-104.6-39.8c-0.9-0.3-1.8-0.3-2.7,0l-103.9,39.8c-2,0.8-3,3-2.2,4.9
	c0.4,1,1.2,1.8,2.2,2.2L305.5,214c0.4,0.2,0.9,0.3,1.4,0.3c0.5,0,0.9-0.1,1.4-0.3l103.9-39.8c2-0.8,3-3,2.2-4.9
	C414,168.3,413.2,167.5,412.1,167.1L412.1,167.1z M306.9,209.9l-103.2-39.3l102.5-39.3l103.2,39.3L306.9,209.9z"/>
<path id="light_teal_layer" class="st2" d="M412.1,167.1l-104.6-39.8c-0.9-0.3-1.8-0.3-2.7,0l-103.9,39.8c-2,0.8-3,3-2.2,4.9
	c0.4,1,1.2,1.8,2.2,2.2L305.5,214c0.4,0.2,0.9,0.3,1.4,0.3c0.5,0,0.9-0.1,1.4-0.3l103.9-39.8c2-0.8,3-3,2.2-4.9
	C414,168.3,413.2,167.5,412.1,167.1L412.1,167.1z M306.9,209.9l-103.2-39.3l102.5-39.3l103.2,39.3L306.9,209.9z"/>
<path id="green_layer" class="st3" d="M412.1,167.1l-104.6-39.8c-0.9-0.3-1.8-0.3-2.7,0l-103.9,39.8c-2,0.8-3,3-2.2,4.9
	c0.4,1,1.2,1.8,2.2,2.2L305.5,214c0.4,0.2,0.9,0.3,1.4,0.3c0.5,0,0.9-0.1,1.4-0.3l103.9-39.8c2-0.8,3-3,2.2-4.9
	C414,168.3,413.2,167.5,412.1,167.1L412.1,167.1z M306.9,209.9l-103.2-39.3l102.5-39.3l103.2,39.3L306.9,209.9z"/>
</svg>
