<?xml version="1.0" encoding="utf-8"?>
<!-- Generator: Adobe Illustrator 22.0.1, SVG Export Plug-In . SVG Version: 6.00 Build 0)  -->
<svg version="1.1" id="Layer_2" xmlns="http://www.w3.org/2000/svg" xmlns:xlink="http://www.w3.org/1999/xlink" x="0px" y="0px"
	 viewBox="0 0 262 570" style="enable-background:new 0 0 262 570;" xml:space="preserve">
<style type="text/css">
	.st0{fill:#7DE314;}
	.st1{fill:#01CC9B;}
	.st2{fill:none;}
	.st3{fill:#5059AB;}
	.st4{fill:#FFFFFF;}
	.st5{fill:#14A0C0;}
</style>
<g>
	<g>
		<g>
			<path class="st0" d="M131.2,121.2c-0.5,0-0.8,0.1-0.8,0.3v17.1c0.3,0,0.6,0,0.8,0c0.3,0,0.6,0,0.8,0v-17.1
				C132,121.3,131.6,121.2,131.2,121.2z"/>
			<path class="st0" d="M131.2,135.4c-0.3,0-0.7,0-1,0.1c-1.5,0.4-2.6,1.8-2.6,3.4c0,2,1.6,3.6,3.6,3.6c2,0,3.6-1.6,3.6-3.6
				c0-1.6-1.1-3-2.6-3.4C131.8,135.4,131.5,135.4,131.2,135.4z"/>
			<path class="st0" d="M131.2,117.6c-0.3,0-0.7,0-1,0.1c-1.5,0.4-2.6,1.8-2.6,3.4c0,2,1.6,3.6,3.6,3.6c2,0,3.6-1.6,3.6-3.6
				c0-1.6-1.1-3-2.6-3.4C131.8,117.7,131.5,117.6,131.2,117.6z"/>
		</g>
	</g>
</g>
<g>
	<path d="M21.8,75.2h-3.1l-0.5,1.5H16l3-8.4h2.4l3,8.4h-2.2L21.8,75.2z M20.3,70.5l-1,3.1h2.1L20.3,70.5z"/>
	<path d="M29.5,69.9c1.6,0,3,1.3,3,3.4c0,2.1-1.3,3.5-3,3.5c-1,0-1.7-0.5-2.1-1v4.1h-2.1V70h2.1v0.9C27.9,70.3,28.6,69.9,29.5,69.9z
		 M28.9,71.7c-0.8,0-1.5,0.6-1.5,1.7s0.7,1.7,1.5,1.7c0.8,0,1.5-0.6,1.5-1.7S29.7,71.7,28.9,71.7z"/>
	<path d="M37.7,69.9c1.6,0,3,1.3,3,3.4c0,2.1-1.3,3.5-3,3.5c-1,0-1.7-0.5-2.1-1v4.1h-2.1V70h2.1v0.9C36,70.3,36.7,69.9,37.7,69.9z
		 M37.1,71.7c-0.8,0-1.5,0.6-1.5,1.7s0.7,1.7,1.5,1.7c0.8,0,1.5-0.6,1.5-1.7S37.9,71.7,37.1,71.7z"/>
	<path d="M41.7,67.8h2.1v8.9h-2.1V67.8z"/>
	<path d="M45.1,68.2c0-0.6,0.5-1.1,1.2-1.1c0.7,0,1.2,0.5,1.2,1.1c0,0.6-0.5,1.1-1.2,1.1C45.6,69.3,45.1,68.8,45.1,68.2z M45.3,70
		h2.1v6.7h-2.1V70z"/>
	<path d="M51.8,69.9c1.7,0,2.9,0.9,3.2,2.5h-2.2c-0.2-0.5-0.5-0.8-1.1-0.8c-0.7,0-1.2,0.6-1.2,1.7c0,1.1,0.5,1.7,1.2,1.7
		c0.6,0,0.9-0.3,1.1-0.8H55c-0.3,1.5-1.5,2.5-3.2,2.5c-2,0-3.4-1.3-3.4-3.4C48.4,71.2,49.8,69.9,51.8,69.9z"/>
	<path d="M58.6,69.9c1,0,1.7,0.5,2.1,1V70h2.1v6.7h-2.1v-0.9c-0.4,0.6-1.1,1-2.1,1c-1.6,0-2.9-1.3-2.9-3.5
		C55.7,71.2,57,69.9,58.6,69.9z M59.2,71.7c-0.8,0-1.5,0.6-1.5,1.6s0.7,1.7,1.5,1.7c0.8,0,1.5-0.6,1.5-1.7S60,71.7,59.2,71.7z"/>
	<path d="M64.5,71.7h-0.8V70h0.8v-1.6h2.1V70h1.3v1.7h-1.3v2.7c0,0.4,0.2,0.6,0.6,0.6h0.7v1.7h-1c-1.4,0-2.4-0.6-2.4-2.3V71.7z"/>
	<path d="M68.9,68.2c0-0.6,0.5-1.1,1.2-1.1c0.7,0,1.2,0.5,1.2,1.1c0,0.6-0.5,1.1-1.2,1.1C69.4,69.3,68.9,68.8,68.9,68.2z M69.1,70
		h2.1v6.7h-2.1V70z"/>
	<path d="M75.7,76.8c-2,0-3.5-1.3-3.5-3.4c0-2.1,1.5-3.4,3.5-3.4c2,0,3.5,1.3,3.5,3.4C79.2,75.4,77.6,76.8,75.7,76.8z M75.7,75
		c0.7,0,1.4-0.5,1.4-1.7c0-1.1-0.7-1.7-1.4-1.7c-0.7,0-1.4,0.5-1.4,1.7C74.3,74.4,74.9,75,75.7,75z"/>
	<path d="M84.9,73c0-0.9-0.5-1.4-1.3-1.4c-0.8,0-1.3,0.5-1.3,1.4v3.6h-2.1V70h2.1v0.9c0.4-0.6,1.1-1,2-1c1.5,0,2.6,1.1,2.6,2.9v3.9
		h-2V73z"/>
	<path d="M93,68.2v6.8h2.7v1.6h-4.7v-8.4H93z"/>
	<path d="M99.2,69.9c1,0,1.7,0.5,2.1,1V70h2.1v6.7h-2.1v-0.9c-0.4,0.6-1.1,1-2.1,1c-1.6,0-2.9-1.3-2.9-3.5
		C96.2,71.2,97.5,69.9,99.2,69.9z M99.8,71.7c-0.8,0-1.5,0.6-1.5,1.6S99,75,99.8,75c0.8,0,1.5-0.6,1.5-1.7S100.5,71.7,99.8,71.7z"/>
	<path d="M109.4,70h2.2l-4.2,9.9h-2.2l1.5-3.4L104,70h2.3l1.5,4.2L109.4,70z"/>
	<path d="M115.3,76.8c-2,0-3.4-1.3-3.4-3.4c0-2.1,1.4-3.4,3.4-3.4c2,0,3.3,1.3,3.3,3.3c0,0.2,0,0.4,0,0.6H114
		c0.1,0.9,0.6,1.3,1.3,1.3c0.6,0,0.9-0.3,1.1-0.6h2.2C118.2,75.7,117,76.8,115.3,76.8z M114,72.7h2.6c0-0.7-0.6-1.2-1.3-1.2
		C114.6,71.5,114.1,71.9,114,72.7z"/>
	<path d="M121.8,76.7h-2.1V70h2.1v1.1c0.5-0.7,1.2-1.2,2.1-1.2v2.2h-0.6c-1,0-1.5,0.3-1.5,1.5V76.7z"/>
	<path d="M125.8,71.9c-0.7,0-1.2-0.5-1.2-1.1c0-0.6,0.5-1.1,1.2-1.1c0.7,0,1.2,0.5,1.2,1.1C127.1,71.4,126.6,71.9,125.8,71.9z
		 M125.8,76.8c-0.7,0-1.2-0.5-1.2-1.1c0-0.6,0.5-1.1,1.2-1.1c0.7,0,1.2,0.5,1.2,1.1C127.1,76.3,126.6,76.8,125.8,76.8z"/>
	<path d="M130.8,68.2h5.5v1.6h-3.4v1.8h2.6v1.6h-2.6v3.4h-2.1V68.2z"/>
	<path d="M140.4,76.8c-2,0-3.5-1.3-3.5-3.4c0-2.1,1.5-3.4,3.5-3.4c2,0,3.5,1.3,3.5,3.4C144,75.4,142.4,76.8,140.4,76.8z M140.4,75
		c0.7,0,1.4-0.5,1.4-1.7c0-1.1-0.7-1.7-1.4-1.7c-0.7,0-1.4,0.5-1.4,1.7C139.1,74.4,139.7,75,140.4,75z"/>
	<path d="M147.1,76.7H145V70h2.1v1.1c0.5-0.7,1.2-1.2,2.1-1.2v2.2h-0.6c-1,0-1.5,0.3-1.5,1.5V76.7z"/>
	<path d="M155.7,76.8c-2,0-3.4-1.3-3.4-3.4c0-2.1,1.4-3.4,3.4-3.4c2,0,3.3,1.3,3.3,3.3c0,0.2,0,0.4,0,0.6h-4.6
		c0.1,0.9,0.6,1.3,1.3,1.3c0.6,0,0.9-0.3,1.1-0.6h2.2C158.6,75.7,157.4,76.8,155.7,76.8z M154.4,72.7h2.6c0-0.7-0.6-1.2-1.3-1.2
		C155,71.5,154.5,71.9,154.4,72.7z"/>
	<path d="M164.7,73c0-0.9-0.5-1.4-1.3-1.4c-0.8,0-1.3,0.5-1.3,1.4v3.6h-2.1V70h2.1v0.9c0.4-0.6,1.1-1,2-1c1.5,0,2.6,1.1,2.6,2.9v3.9
		h-2V73z"/>
	<path d="M170.7,69.9c0.9,0,1.7,0.4,2.1,1v-3.1h2.1v8.9h-2.1v-1c-0.4,0.6-1.1,1.1-2.1,1.1c-1.6,0-3-1.3-3-3.5
		C167.8,71.2,169.1,69.9,170.7,69.9z M171.3,71.7c-0.8,0-1.5,0.6-1.5,1.6s0.7,1.7,1.5,1.7c0.8,0,1.5-0.6,1.5-1.7
		S172.1,71.7,171.3,71.7z"/>
	<path d="M185.5,76.7h-2.1v-0.9c-0.4,0.6-1.1,1-2,1c-1.5,0-2.6-1.1-2.6-2.9V70h2v3.6c0,0.9,0.5,1.4,1.3,1.4c0.8,0,1.3-0.5,1.3-1.4
		V70h2.1V76.7z"/>
	<path d="M189.7,76.8c-1.8,0-3-1-3.1-2.3h2c0,0.5,0.5,0.8,1,0.8c0.5,0,0.8-0.2,0.8-0.5c0-1.1-3.6-0.3-3.6-2.8c0-1.1,1-2.1,2.7-2.1
		c1.7,0,2.7,1,2.8,2.3h-1.9c-0.1-0.5-0.4-0.8-1-0.8c-0.5,0-0.7,0.2-0.7,0.5c0,1.1,3.6,0.3,3.7,2.8C192.4,75.9,191.4,76.8,189.7,76.8
		z"/>
	<path d="M196.7,76.8c-2,0-3.4-1.3-3.4-3.4c0-2.1,1.4-3.4,3.4-3.4c2,0,3.3,1.3,3.3,3.3c0,0.2,0,0.4,0,0.6h-4.6
		c0.1,0.9,0.6,1.3,1.3,1.3c0.6,0,0.9-0.3,1.1-0.6h2.2C199.5,75.7,198.3,76.8,196.7,76.8z M195.3,72.7h2.6c0-0.7-0.6-1.2-1.3-1.2
		C196,71.5,195.4,71.9,195.3,72.7z"/>
	<path d="M203.1,76.7h-2.1V70h2.1v1.1c0.5-0.7,1.2-1.2,2.1-1.2v2.2h-0.6c-1,0-1.5,0.3-1.5,1.5V76.7z"/>
	<path d="M215.4,76.7h-2.1v-0.9c-0.4,0.6-1.1,1-2,1c-1.5,0-2.6-1.1-2.6-2.9V70h2v3.6c0,0.9,0.5,1.4,1.3,1.4c0.8,0,1.3-0.5,1.3-1.4
		V70h2.1V76.7z"/>
	<path d="M219.6,76.8c-1.8,0-3-1-3.1-2.3h2c0,0.5,0.5,0.8,1,0.8c0.5,0,0.8-0.2,0.8-0.5c0-1.1-3.6-0.3-3.6-2.8c0-1.1,1-2.1,2.7-2.1
		c1.7,0,2.7,1,2.8,2.3h-1.9c-0.1-0.5-0.4-0.8-1-0.8c-0.5,0-0.7,0.2-0.7,0.5c0,1.1,3.6,0.3,3.7,2.8C222.3,75.9,221.2,76.8,219.6,76.8
		z"/>
	<path d="M226.1,69.9c1,0,1.7,0.5,2.1,1V70h2.1v6.7h-2.1v-0.9c-0.4,0.6-1.1,1-2.1,1c-1.6,0-2.9-1.3-2.9-3.5
		C223.1,71.2,224.4,69.9,226.1,69.9z M226.7,71.7c-0.8,0-1.5,0.6-1.5,1.6s0.7,1.7,1.5,1.7c0.8,0,1.5-0.6,1.5-1.7
		S227.5,71.7,226.7,71.7z"/>
	<path d="M234.2,69.9c1,0,1.7,0.4,2.1,1V70h2.1v6.7c0,1.8-1,3.3-3.3,3.3c-2,0-3.3-1-3.5-2.6h2c0.1,0.5,0.6,0.8,1.3,0.8
		c0.8,0,1.4-0.4,1.4-1.5v-0.9c-0.4,0.6-1.1,1.1-2.1,1.1c-1.6,0-3-1.3-3-3.5C231.3,71.2,232.6,69.9,234.2,69.9z M234.8,71.7
		c-0.8,0-1.5,0.6-1.5,1.6s0.7,1.7,1.5,1.7c0.8,0,1.5-0.6,1.5-1.7S235.6,71.7,234.8,71.7z"/>
	<path d="M242.8,76.8c-2,0-3.4-1.3-3.4-3.4c0-2.1,1.4-3.4,3.4-3.4c2,0,3.3,1.3,3.3,3.3c0,0.2,0,0.4,0,0.6h-4.6
		c0.1,0.9,0.6,1.3,1.3,1.3c0.6,0,0.9-0.3,1.1-0.6h2.2C245.7,75.7,244.5,76.8,242.8,76.8z M241.5,72.7h2.6c0-0.7-0.6-1.2-1.3-1.2
		C242.1,71.5,241.6,71.9,241.5,72.7z"/>
</g>
<g>
	<g>
		<path d="M82.4,90.9c0,2.2-1.4,3.5-3.7,3.5h-2.2v-7h2.2C81,87.4,82.4,88.8,82.4,90.9z M78.7,93.7c1.8,0,2.8-1,2.8-2.7
			s-0.9-2.8-2.8-2.8h-1.3v5.5H78.7z"/>
		<path d="M85.8,88.8c1,0,1.7,0.5,2,1.1v-1h0.9v5.5h-0.9v-1c-0.3,0.6-1,1.1-2,1.1c-1.5,0-2.6-1.1-2.6-2.8
			C83.2,89.9,84.4,88.8,85.8,88.8z M86,89.6c-1,0-1.8,0.7-1.8,2c0,1.3,0.8,2,1.8,2c1,0,1.9-0.7,1.9-2C87.9,90.4,87,89.6,86,89.6z"/>
		<path d="M90.5,89.7h-0.7v-0.7h0.7v-1.4h0.9v1.4h1.4v0.7h-1.4v3.2c0,0.5,0.2,0.7,0.8,0.7h0.7v0.8h-0.8c-1,0-1.5-0.4-1.5-1.5V89.7z"
			/>
		<path d="M96.2,88.8c1,0,1.7,0.5,2,1.1v-1h0.9v5.5h-0.9v-1c-0.3,0.6-1,1.1-2,1.1c-1.5,0-2.6-1.1-2.6-2.8
			C93.6,89.9,94.8,88.8,96.2,88.8z M96.4,89.6c-1,0-1.8,0.7-1.8,2c0,1.3,0.8,2,1.8,2c1,0,1.9-0.7,1.9-2
			C98.3,90.4,97.4,89.6,96.4,89.6z"/>
		<path d="M106.6,94.5c-2,0-3.5-1.5-3.5-3.6s1.5-3.6,3.5-3.6c2,0,3.5,1.5,3.5,3.6S108.5,94.5,106.6,94.5z M106.6,93.7
			c1.5,0,2.6-1.1,2.6-2.8c0-1.7-1.1-2.8-2.6-2.8c-1.5,0-2.6,1.1-2.6,2.8C104,92.6,105.1,93.7,106.6,93.7z"/>
		<path d="M110.6,88.9h0.9l1.3,4.6l1.4-4.6h0.9l1.3,4.6l1.2-4.6h0.9l-1.7,5.5h-0.9l-1.3-4.3l-1.3,4.3h-0.9L110.6,88.9z"/>
		<path d="M123.5,91.3c0-1.1-0.6-1.7-1.5-1.7c-0.9,0-1.6,0.6-1.6,1.8v3h-0.9v-5.5h0.9v0.8c0.4-0.6,1-0.9,1.8-0.9
			c1.3,0,2.2,0.8,2.2,2.3v3.2h-0.9V91.3z"/>
		<path d="M128.2,94.5c-1.6,0-2.7-1.1-2.7-2.8c0-1.7,1.1-2.8,2.7-2.8c1.6,0,2.6,1.1,2.6,2.6c0,0.2,0,0.4,0,0.5h-4.4
			c0.1,1.1,0.8,1.7,1.8,1.7c0.8,0,1.3-0.4,1.5-1h1C130.5,93.7,129.6,94.5,128.2,94.5z M126.5,91.3h3.5c0-1.1-0.8-1.7-1.7-1.7
			C127.3,89.6,126.6,90.2,126.5,91.3z"/>
		<path d="M133,94.4h-0.9v-5.5h0.9v0.9c0.3-0.6,0.9-1,1.8-1v0.9h-0.2c-0.9,0-1.5,0.4-1.5,1.7V94.4z"/>
		<path d="M136.1,90.2c-0.3,0-0.6-0.3-0.6-0.6c0-0.4,0.3-0.6,0.6-0.6c0.3,0,0.6,0.3,0.6,0.6C136.7,89.9,136.4,90.2,136.1,90.2z
			 M136.1,94.5c-0.3,0-0.6-0.3-0.6-0.6s0.3-0.6,0.6-0.6c0.3,0,0.6,0.3,0.6,0.6S136.4,94.5,136.1,94.5z"/>
		<path d="M144.7,92.9h-3l-0.6,1.5h-1l2.5-6.9h1l2.5,6.9h-1L144.7,92.9z M143.2,88.6l-1.3,3.5h2.5L143.2,88.6z"/>
		<path d="M149.6,91.5h-1.3v2.9h-0.9v-7h2.2c1.6,0,2.4,0.9,2.4,2C152,90.5,151.3,91.5,149.6,91.5z M149.6,90.7c1,0,1.5-0.5,1.5-1.3
			c0-0.8-0.4-1.3-1.5-1.3h-1.3v2.6H149.6z"/>
		<path d="M153.1,87.4h0.9v7h-0.9V87.4z"/>
		<path d="M158.1,85h0.9l-2.7,11.1h-0.9L158.1,85z"/>
		<path d="M162.6,88.8c0.9,0,1.6,0.4,2,1.1V87h0.9v7.4h-0.9v-1c-0.3,0.6-1,1.1-2,1.1c-1.5,0-2.6-1.1-2.6-2.8
			C160,89.9,161.1,88.8,162.6,88.8z M162.8,89.6c-1,0-1.8,0.7-1.8,2c0,1.3,0.8,2,1.8,2c1,0,1.9-0.7,1.9-2
			C164.6,90.4,163.8,89.6,162.8,89.6z"/>
		<path d="M171.2,92.9h-3l-0.6,1.5h-1l2.5-6.9h1l2.5,6.9h-1L171.2,92.9z M169.7,88.6l-1.3,3.5h2.5L169.7,88.6z"/>
		<path d="M176.8,88.8c1.5,0,2.6,1.1,2.6,2.8c0,1.7-1.1,2.8-2.6,2.8c-1,0-1.7-0.5-2-1.1V97h-0.9v-8.1h0.9v1
			C175.1,89.4,175.8,88.8,176.8,88.8z M176.6,89.6c-1,0-1.9,0.8-1.9,2c0,1.3,0.9,2,1.9,2c1,0,1.9-0.8,1.9-2
			C178.5,90.4,177.6,89.6,176.6,89.6z"/>
		<path d="M183.6,88.8c1.5,0,2.6,1.1,2.6,2.8c0,1.7-1.1,2.8-2.6,2.8c-1,0-1.7-0.5-2-1.1V97h-0.9v-8.1h0.9v1
			C181.8,89.4,182.6,88.8,183.6,88.8z M183.4,89.6c-1,0-1.9,0.8-1.9,2c0,1.3,0.9,2,1.9,2c1,0,1.9-0.8,1.9-2
			C185.2,90.4,184.4,89.6,183.4,89.6z"/>
		<path d="M87.6,102.9c0,2.2-1.4,3.5-3.7,3.5h-2.2v-7h2.2C86.2,99.4,87.6,100.8,87.6,102.9z M83.9,105.7c1.8,0,2.8-1,2.8-2.7
			s-0.9-2.8-2.8-2.8h-1.3v5.5H83.9z"/>
		<path d="M91.1,100.8c1,0,1.7,0.5,2,1.1v-1H94v5.5h-0.9v-1c-0.3,0.6-1,1.1-2,1.1c-1.5,0-2.6-1.1-2.6-2.8
			C88.5,101.9,89.6,100.8,91.1,100.8z M91.3,101.6c-1,0-1.8,0.7-1.8,2c0,1.3,0.8,2,1.8,2c1,0,1.9-0.7,1.9-2
			C93.1,102.4,92.3,101.6,91.3,101.6z"/>
		<path d="M95.8,101.7h-0.7v-0.7h0.7v-1.4h0.9v1.4h1.4v0.7h-1.4v3.2c0,0.5,0.2,0.7,0.8,0.7h0.7v0.8h-0.8c-1,0-1.5-0.4-1.5-1.5V101.7
			z"/>
		<path d="M101.5,100.8c1,0,1.7,0.5,2,1.1v-1h0.9v5.5h-0.9v-1c-0.3,0.6-1,1.1-2,1.1c-1.5,0-2.6-1.1-2.6-2.8
			C98.9,101.9,100,100.8,101.5,100.8z M101.7,101.6c-1,0-1.8,0.7-1.8,2c0,1.3,0.8,2,1.8,2c1,0,1.9-0.7,1.9-2
			C103.5,102.4,102.7,101.6,101.7,101.6z"/>
		<path d="M108.6,99.4h0.9v4.4c0,1.3,0.7,1.8,1.7,1.8s1.7-0.5,1.7-1.8v-4.4h0.9v4.4c0,1.8-1.2,2.6-2.6,2.6s-2.6-0.8-2.6-2.6V99.4z"
			/>
		<path d="M117.3,106.5c-1.3,0-2.2-0.7-2.2-1.7h0.9c0,0.5,0.5,0.9,1.3,0.9c0.7,0,1.1-0.4,1.1-0.8c0-1.2-3.2-0.5-3.2-2.5
			c0-0.8,0.8-1.5,2-1.5c1.2,0,2,0.7,2.1,1.7h-0.9c0-0.5-0.5-0.9-1.2-0.9c-0.7,0-1.1,0.3-1.1,0.8c0,1.3,3.2,0.6,3.2,2.5
			C119.3,105.8,118.5,106.5,117.3,106.5z"/>
		<path d="M123,106.5c-1.6,0-2.7-1.1-2.7-2.8c0-1.7,1.1-2.8,2.7-2.8c1.6,0,2.6,1.1,2.6,2.6c0,0.2,0,0.4,0,0.5h-4.4
			c0.1,1.1,0.8,1.7,1.8,1.7c0.8,0,1.3-0.4,1.5-1h1C125.2,105.7,124.3,106.5,123,106.5z M121.2,103.3h3.5c0-1.1-0.8-1.7-1.7-1.7
			C122.1,101.6,121.3,102.2,121.2,103.3z"/>
		<path d="M127.7,106.4h-0.9v-5.5h0.9v0.9c0.3-0.6,0.9-1,1.8-1v0.9h-0.2c-0.9,0-1.5,0.4-1.5,1.7V106.4z"/>
		<path d="M130.8,102.2c-0.3,0-0.6-0.3-0.6-0.6c0-0.4,0.3-0.6,0.6-0.6c0.3,0,0.6,0.3,0.6,0.6C131.4,101.9,131.2,102.2,130.8,102.2z
			 M130.8,106.5c-0.3,0-0.6-0.3-0.6-0.6s0.3-0.6,0.6-0.6c0.3,0,0.6,0.3,0.6,0.6S131.2,106.5,130.8,106.5z"/>
		<path d="M139.5,104.9h-3l-0.6,1.5h-1l2.5-6.9h1l2.5,6.9h-1L139.5,104.9z M137.9,100.6l-1.3,3.5h2.5L137.9,100.6z"/>
		<path d="M144.3,103.5H143v2.9h-0.9v-7h2.2c1.6,0,2.4,0.9,2.4,2C146.7,102.5,146.1,103.5,144.3,103.5z M144.3,102.7
			c1,0,1.5-0.5,1.5-1.3c0-0.8-0.4-1.3-1.5-1.3H143v2.6H144.3z"/>
		<path d="M147.9,99.4h0.9v7h-0.9V99.4z"/>
		<path d="M152.8,97h0.9l-2.7,11.1h-0.9L152.8,97z"/>
		<path d="M157.4,100.8c0.9,0,1.6,0.4,2,1.1V99h0.9v7.4h-0.9v-1c-0.3,0.6-1,1.1-2,1.1c-1.5,0-2.6-1.1-2.6-2.8
			C154.8,101.9,155.9,100.8,157.4,100.8z M157.5,101.6c-1,0-1.8,0.7-1.8,2c0,1.3,0.8,2,1.8,2c1,0,1.9-0.7,1.9-2
			C159.4,102.4,158.5,101.6,157.5,101.6z"/>
		<path d="M166,104.9h-3l-0.6,1.5h-1l2.5-6.9h1l2.5,6.9h-1L166,104.9z M164.5,100.6l-1.3,3.5h2.5L164.5,100.6z"/>
		<path d="M171.6,100.8c1.5,0,2.6,1.1,2.6,2.8c0,1.7-1.1,2.8-2.6,2.8c-1,0-1.7-0.5-2-1.1v3.6h-0.9v-8.1h0.9v1
			C169.8,101.4,170.6,100.8,171.6,100.8z M171.4,101.6c-1,0-1.9,0.8-1.9,2c0,1.3,0.9,2,1.9,2c1,0,1.9-0.8,1.9-2
			C173.2,102.4,172.4,101.6,171.4,101.6z"/>
		<path d="M178.3,100.8c1.5,0,2.6,1.1,2.6,2.8c0,1.7-1.1,2.8-2.6,2.8c-1,0-1.7-0.5-2-1.1v3.6h-0.9v-8.1h0.9v1
			C176.6,101.4,177.3,100.8,178.3,100.8z M178.1,101.6c-1,0-1.9,0.8-1.9,2c0,1.3,0.9,2,1.9,2c1,0,1.9-0.8,1.9-2
			C180,102.4,179.1,101.6,178.1,101.6z"/>
	</g>
</g>
<path class="st1" d="M136.6,154.9h10l-1.9,3.8h-10L136.6,154.9L136.6,154.9z M145.7,167.8v-8.3l1.3-2.5v7.9L145.7,167.8L145.7,167.8
	z M144.4,170.1H140v-5.7h-1.3v5.7h-4.4V160h10.1V170.1L144.4,170.1z M138.8,173.9h-2.5c-0.2,0-0.5,0.1-0.6,0.3l-2.5,5.1h0
	c0,0.1-0.1,0.2-0.1,0.3v5.1h-3.8v-10.1l0,0c0-0.3-0.3-0.6-0.6-0.6c0,0,0,0,0,0H121v-2.5h5.1c0.2,0,0.5-0.1,0.6-0.4l0,0l0,0l0,0
	l2.4-5.3h4v5.1c0,0.3,0.3,0.6,0.6,0.6h5.1V173.9L138.8,173.9z M146.6,175.2l-1.9,3.8H140v-3.8H146.6L146.6,175.2z M145.7,188v-8.3
	l1.3-2.5v7.9L145.7,188L145.7,188z M134.7,179l1.9-3.8h2.1v3.8H134.7L134.7,179z M144.4,190.4h-10.1v-4.4h5.7v-1.3h-5.7v-4.4h10.1
	V190.4L144.4,190.4z M126.7,188v-2.1h0.9L126.7,188L126.7,188z M125.5,190.4h-10.1v-10.1h4.4v5.7h1.3v-5.7h4.4V190.4L125.5,190.4z
	 M125.7,179H121v-3.8h6.6L125.7,179L125.7,179z M128,184.7h-1.3v-4.9l1.3-2.5V184.7L128,184.7z M117.6,175.2h2.1v3.8h-4L117.6,175.2
	L117.6,175.2z M115.3,160h10.1v4.4h-5.7v1.3h5.7v4.4h-10.1V160L115.3,160z M117.6,154.9h10l-1.9,3.8h-10L117.6,154.9L117.6,154.9z
	 M126.7,164.4v-4.9l1.3-2.5v7.4H126.7L126.7,164.4z M126.7,165.7h0.9l-0.9,2.1V165.7L126.7,165.7z M133.1,164.4h-3.8v-10.1l0,0
	c0-0.3-0.3-0.6-0.6-0.6c0,0,0,0,0,0h-11.4c-0.2,0-0.5,0.1-0.6,0.3l-2.5,5.1h0c0,0.1-0.1,0.2-0.1,0.3v11.4c0,0.3,0.3,0.6,0.6,0.6h5.1
	v2.5h-2.5c-0.2,0-0.5,0.1-0.6,0.3l-2.5,5.1h0c0,0.1-0.1,0.2-0.1,0.3V191c0,0.3,0.3,0.6,0.6,0.6h11.4c0.2,0,0.5-0.1,0.6-0.4l0,0l0,0
	l0,0l2.4-5.3h4v5.1c0,0.3,0.3,0.6,0.6,0.6h11.4c0.2,0,0.5-0.1,0.6-0.4l0,0l0,0l0,0l2.5-5.7c0-0.1,0.1-0.2,0.1-0.3v-10.8l0,0
	c0-0.3-0.3-0.6-0.6-0.6c0,0,0,0,0,0H140v-2.5h5.1c0.2,0,0.5-0.1,0.6-0.4l0,0l0,0l0,0l2.5-5.7c0-0.1,0.1-0.2,0.1-0.3v-10.8l0,0
	c0-0.3-0.3-0.6-0.6-0.6c0,0,0,0,0,0h-11.4c-0.2,0-0.5,0.1-0.6,0.3l-2.5,5.1h0c0,0.1-0.1,0.2-0.1,0.3V164.4L133.1,164.4z"/>
<rect x="890.7" y="381.1" class="st2" width="28.6" height="31.8"/>
<g>
	<path class="st3" d="M137.4,470.9c1.1,0,2-0.9,2-2v-8.9c0-1.1-0.9-2-2-2h-12.4c-1.1,0-2,0.9-2,2v8.9c0,1.1,0.9,2,2,2h5.5v1.7h-1.7
		c-0.4,0-0.8,0.3-0.8,0.8c0,0.4,0.3,0.8,0.8,0.8h5c0.4,0,0.8-0.3,0.8-0.8c0-0.4-0.3-0.8-0.8-0.8h-1.7v-1.7H137.4z M124.9,469.4
		c-0.3,0-0.5-0.2-0.5-0.5v-8.9c0-0.3,0.2-0.5,0.5-0.5h12.4c0.3,0,0.5,0.2,0.5,0.5v8.9c0,0.3-0.2,0.5-0.5,0.5H124.9z M124.9,469.4"/>
	<path class="st3" d="M126.9,476.5h-12.4c-1.1,0-2,0.9-2,2v8.9c0,1.1,0.9,2,2,2h5.5v1.7h-1.7c-0.4,0-0.8,0.3-0.8,0.8
		c0,0.4,0.3,0.8,0.8,0.8h5c0.4,0,0.8-0.3,0.8-0.8c0-0.4-0.3-0.8-0.8-0.8h-1.7v-1.7h5.5c1.1,0,2-0.9,2-2v-8.9
		C129,477.5,128.1,476.5,126.9,476.5L126.9,476.5z M127.5,487.5c0,0.3-0.2,0.5-0.5,0.5h-12.4c-0.3,0-0.5-0.2-0.5-0.5v-8.9
		c0-0.3,0.2-0.5,0.5-0.5h12.4c0.3,0,0.5,0.2,0.5,0.5L127.5,487.5L127.5,487.5z M127.5,487.5"/>
	<path class="st3" d="M147.8,476.5h-12.4c-1.1,0-2,0.9-2,2v8.9c0,1.1,0.9,2,2,2h5.5v1.7h-1.7c-0.4,0-0.8,0.3-0.8,0.8
		c0,0.4,0.3,0.8,0.8,0.8h5c0.4,0,0.8-0.3,0.8-0.8c0-0.4-0.3-0.8-0.8-0.8h-1.7v-1.7h5.5c1.1,0,2-0.9,2-2v-8.9
		C149.9,477.5,149,476.5,147.8,476.5L147.8,476.5z M148.4,487.5c0,0.3-0.2,0.5-0.5,0.5h-12.4c-0.3,0-0.5-0.2-0.5-0.5v-8.9
		c0-0.3,0.2-0.5,0.5-0.5h12.4c0.3,0,0.5,0.2,0.5,0.5L148.4,487.5L148.4,487.5z M148.4,487.5"/>
	<path class="st3" d="M114.6,463.2v10.2c0,0.4,0.3,0.8,0.8,0.8c0.4,0,0.8-0.3,0.8-0.8v-9.4h4.1c0.4,0,0.8-0.3,0.8-0.8
		c0-0.4-0.3-0.8-0.8-0.8h-4.8C114.9,462.4,114.6,462.8,114.6,463.2L114.6,463.2z M114.6,463.2"/>
	<path class="st3" d="M147,474.1c0.4,0,0.8-0.3,0.8-0.8v-10.2c0-0.4-0.3-0.8-0.8-0.8h-4.8c-0.4,0-0.8,0.3-0.8,0.8
		c0,0.4,0.3,0.8,0.8,0.8h4.1v9.4C146.3,473.8,146.6,474.1,147,474.1L147,474.1z M147,474.1"/>
</g>
<g>
	<path class="st0" d="M112.8,42.2h36.6V21.2c0-0.7-0.6-1.3-1.3-1.3h-34c-0.7,0-1.3,0.6-1.3,1.3V42.2L112.8,42.2z M150.1,43.5h-38
		c-0.4,0-0.7-0.3-0.7-0.7V21.2c0-1.4,1.2-2.6,2.6-2.6h34c1.4,0,2.6,1.2,2.6,2.6v21.6C150.8,43.2,150.5,43.5,150.1,43.5L150.1,43.5z"
		/>
	<path class="st0" d="M112.8,43.5v2.6c0,0.7,0.6,1.3,1.3,1.3h34c0.7,0,1.3-0.6,1.3-1.3v-2.6H112.8L112.8,43.5z M148.2,48.7h-34
		c-1.4,0-2.6-1.2-2.6-2.6v-3.3c0-0.4,0.3-0.7,0.7-0.7h38c0.4,0,0.7,0.3,0.7,0.7v3.3C150.8,47.5,149.6,48.7,148.2,48.7L148.2,48.7z"
		/>
	<path class="st0" d="M133.1,46.1h-3.9c-0.4,0-0.7-0.3-0.7-0.7c0-0.4,0.3-0.7,0.7-0.7h3.9c0.4,0,0.7,0.3,0.7,0.7
		C133.8,45.8,133.5,46.1,133.1,46.1L133.1,46.1z"/>
	<path class="st0" d="M115.5,42.2h31.4V22.5h-31.4V42.2L115.5,42.2z M147.5,43.5h-32.7c-0.4,0-0.7-0.3-0.7-0.7V21.9
		c0-0.4,0.3-0.7,0.7-0.7h32.7c0.4,0,0.7,0.3,0.7,0.7v20.9C148.2,43.2,147.9,43.5,147.5,43.5L147.5,43.5z"/>
	<path class="st0" d="M122.7,53.9c-0.4,0-0.7,0.3-0.7,0.7c0,0.4,0.3,0.7,0.7,0.7h17c0.4,0,0.7-0.3,0.7-0.7c0-0.4-0.3-0.7-0.7-0.7
		H122.7L122.7,53.9z M139.7,56.6h-17c-1.1,0-2-0.9-2-2s0.9-2,2-2h17c1.1,0,2,0.9,2,2S140.8,56.6,139.7,56.6L139.7,56.6z"/>
	<path class="st0" d="M127.2,52.6h8c-0.8-0.9-1.3-2.2-1.4-3.9h-5.3C128.4,50.4,128,51.7,127.2,52.6L127.2,52.6z M138.4,53.9H124
		c-0.4,0-0.7-0.3-0.7-0.7c0-0.4,0.3-0.7,0.7-0.7c2.2,0,3.3-1.5,3.3-4.6c0-0.4,0.3-0.7,0.7-0.7h6.5c0.4,0,0.7,0.3,0.7,0.7
		c0,3,1.1,4.6,3.3,4.6c0.4,0,0.7,0.3,0.7,0.7C139,53.6,138.7,53.9,138.4,53.9L138.4,53.9z"/>
	<path class="st0" d="M138.4,37.6c0.2,0,0.4,0.1,0.6,0.3l1.4,1.4l0.9-0.9l-1.5-1.5c-0.1-0.1-0.2-0.3-0.2-0.5c0-0.2,0.1-0.4,0.2-0.5
		l0.5-0.5l-4.3-1.3l1.3,4.3l0.5-0.5C138,37.7,138.2,37.6,138.4,37.6L138.4,37.6z M140.5,40.8c-0.2,0-0.3-0.1-0.5-0.2l-1.6-1.6
		l-0.9,0.9c-0.2,0.2-0.4,0.2-0.6,0.2c-0.2-0.1-0.4-0.2-0.5-0.4l-2-6.5c-0.1-0.2,0-0.5,0.2-0.7c0.2-0.2,0.4-0.2,0.7-0.2l6.5,2
		c0.2,0.1,0.4,0.2,0.4,0.5s0,0.5-0.2,0.6l-0.9,0.9l1.6,1.6c0.3,0.3,0.3,0.7,0,0.9l-1.9,1.9C140.8,40.8,140.7,40.8,140.5,40.8
		L140.5,40.8z"/>
	<path class="st0" d="M121.3,27.1h17v-2h-17V27.1L121.3,27.1z M139,28.4h-18.3c-0.4,0-0.7-0.3-0.7-0.7v-3.3c0-0.4,0.3-0.7,0.7-0.7
		H139c0.4,0,0.7,0.3,0.7,0.7v3.3C139.7,28.1,139.4,28.4,139,28.4L139,28.4z"/>
	<path class="st0" d="M124,33.7h3.9v-1.3H124V33.7L124,33.7z M128.5,35h-5.2c-0.4,0-0.7-0.3-0.7-0.7v-2.6c0-0.4,0.3-0.7,0.7-0.7h5.2
		c0.4,0,0.7,0.3,0.7,0.7v2.6C129.2,34.7,128.9,35,128.5,35L128.5,35z"/>
	<path class="st0" d="M121.3,36.3h14l-0.9-3.1c-0.1-0.2,0-0.5,0.2-0.7c0.2-0.2,0.4-0.2,0.7-0.2l3.1,0.9v-8.2h-17V36.3L121.3,36.3z
		 M136.3,37.6h-15.6c-0.4,0-0.7-0.3-0.7-0.7V24.5c0-0.4,0.3-0.7,0.7-0.7H139c0.4,0,0.7,0.3,0.7,0.7v9.7c0,0.2-0.1,0.4-0.3,0.5
		c-0.2,0.1-0.4,0.2-0.6,0.1l-2.8-0.8l0.8,2.8c0.1,0.2,0,0.4-0.1,0.6C136.7,37.5,136.5,37.6,136.3,37.6L136.3,37.6z"/>
</g>
<g>
	<path d="M33.2,212h-3.9v-8.4h3.8c1.7,0,2.7,0.9,2.7,2.2c0,1-0.6,1.7-1.4,1.9c1,0.2,1.6,1.1,1.6,2C36,211.1,35,212,33.2,212z
		 M32.7,205.3h-1.3v1.8h1.3c0.7,0,1-0.3,1-0.9C33.7,205.6,33.4,205.3,32.7,205.3z M32.8,208.5h-1.5v1.9h1.5c0.7,0,1.1-0.3,1.1-0.9
		S33.5,208.5,32.8,208.5z"/>
	<path d="M37.2,203.2h2.1v8.9h-2.1V203.2z"/>
	<path d="M43.8,212.1c-2,0-3.5-1.3-3.5-3.4c0-2.1,1.5-3.4,3.5-3.4c2,0,3.5,1.3,3.5,3.4C47.3,210.8,45.8,212.1,43.8,212.1z
		 M43.8,210.4c0.7,0,1.4-0.5,1.4-1.7c0-1.1-0.7-1.7-1.4-1.7c-0.7,0-1.4,0.5-1.4,1.7C42.4,209.8,43.1,210.4,43.8,210.4z"/>
	<path d="M51.3,205.3c1.7,0,2.9,0.9,3.2,2.5h-2.2c-0.2-0.5-0.5-0.8-1.1-0.8c-0.7,0-1.2,0.6-1.2,1.7c0,1.1,0.5,1.7,1.2,1.7
		c0.6,0,0.9-0.3,1.1-0.8h2.2c-0.3,1.5-1.5,2.5-3.2,2.5c-2,0-3.4-1.3-3.4-3.4C48,206.6,49.4,205.3,51.3,205.3z"/>
	<path d="M55.7,203.2h2.1v4.9l2-2.7h2.5l-2.8,3.4l2.8,3.3h-2.5l-2-2.8v2.8h-2.1V203.2z"/>
	<path d="M66,205.3c1.7,0,2.9,0.9,3.2,2.5h-2.2c-0.2-0.5-0.5-0.8-1.1-0.8c-0.7,0-1.2,0.6-1.2,1.7c0,1.1,0.5,1.7,1.2,1.7
		c0.6,0,0.9-0.3,1.1-0.8h2.2c-0.3,1.5-1.5,2.5-3.2,2.5c-2,0-3.4-1.3-3.4-3.4C62.7,206.6,64.1,205.3,66,205.3z"/>
	<path d="M70.3,203.2h2.1v3.1c0.4-0.6,1.1-1,2.1-1c1.5,0,2.5,1.1,2.5,2.9v3.9h-2v-3.6c0-0.9-0.5-1.4-1.3-1.4c-0.8,0-1.3,0.5-1.3,1.4
		v3.6h-2.1V203.2z"/>
	<path d="M81,205.3c1,0,1.7,0.5,2.1,1v-0.9h2.1v6.7H83v-0.9c-0.4,0.6-1.1,1-2.1,1c-1.6,0-2.9-1.3-2.9-3.5
		C78,206.6,79.3,205.3,81,205.3z M81.6,207c-0.8,0-1.5,0.6-1.5,1.6s0.7,1.7,1.5,1.7c0.8,0,1.5-0.6,1.5-1.7S82.3,207,81.6,207z"/>
	<path d="M86.4,203.6c0-0.6,0.5-1.1,1.2-1.1c0.7,0,1.2,0.5,1.2,1.1c0,0.6-0.5,1.1-1.2,1.1C86.9,204.7,86.4,204.2,86.4,203.6z
		 M86.6,205.4h2.1v6.7h-2.1V205.4z"/>
	<path d="M94.7,208.4c0-0.9-0.5-1.4-1.3-1.4c-0.8,0-1.3,0.5-1.3,1.4v3.6h-2.1v-6.7h2.1v0.9c0.4-0.6,1.1-1,2-1c1.5,0,2.6,1.1,2.6,2.9
		v3.9h-2V208.4z"/>
	<path d="M102.8,203.6v6.8h2.7v1.6h-4.7v-8.4H102.8z"/>
	<path d="M109,205.3c1,0,1.7,0.5,2.1,1v-0.9h2.1v6.7h-2.1v-0.9c-0.4,0.6-1.1,1-2.1,1c-1.6,0-2.9-1.3-2.9-3.5
		C106.1,206.6,107.4,205.3,109,205.3z M109.6,207c-0.8,0-1.5,0.6-1.5,1.6s0.7,1.7,1.5,1.7c0.8,0,1.5-0.6,1.5-1.7
		S110.4,207,109.6,207z"/>
	<path d="M119.2,205.4h2.2l-4.2,9.9H115l1.5-3.4l-2.7-6.5h2.3l1.5,4.2L119.2,205.4z"/>
	<path d="M125.2,212.1c-2,0-3.4-1.3-3.4-3.4c0-2.1,1.4-3.4,3.4-3.4c2,0,3.3,1.3,3.3,3.3c0,0.2,0,0.4,0,0.6h-4.6
		c0.1,0.9,0.6,1.3,1.3,1.3c0.6,0,0.9-0.3,1.1-0.6h2.2C128,211.1,126.8,212.1,125.2,212.1z M123.8,208.1h2.6c0-0.7-0.6-1.2-1.3-1.2
		C124.5,206.9,124,207.3,123.8,208.1z"/>
	<path d="M131.6,212h-2.1v-6.7h2.1v1.1c0.5-0.7,1.2-1.2,2.1-1.2v2.2h-0.6c-1,0-1.5,0.3-1.5,1.5V212z"/>
	<path d="M135.7,207.3c-0.7,0-1.2-0.5-1.2-1.1c0-0.6,0.5-1.1,1.2-1.1c0.7,0,1.2,0.5,1.2,1.1C136.9,206.8,136.4,207.3,135.7,207.3z
		 M135.7,212.1c-0.7,0-1.2-0.5-1.2-1.1c0-0.6,0.5-1.1,1.2-1.1c0.7,0,1.2,0.5,1.2,1.1C136.9,211.7,136.4,212.1,135.7,212.1z"/>
	<path d="M140.7,203.6h5.5v1.6h-3.4v1.8h2.6v1.6h-2.6v3.4h-2.1V203.6z"/>
	<path d="M150.3,212.1c-2,0-3.5-1.3-3.5-3.4c0-2.1,1.5-3.4,3.5-3.4c2,0,3.5,1.3,3.5,3.4C153.8,210.8,152.3,212.1,150.3,212.1z
		 M150.3,210.4c0.7,0,1.4-0.5,1.4-1.7c0-1.1-0.7-1.7-1.4-1.7c-0.7,0-1.4,0.5-1.4,1.7C148.9,209.8,149.5,210.4,150.3,210.4z"/>
	<path d="M156.9,212h-2.1v-6.7h2.1v1.1c0.5-0.7,1.2-1.2,2.1-1.2v2.2h-0.6c-1,0-1.5,0.3-1.5,1.5V212z"/>
	<path d="M165.9,209h-1.3v3h-2.1v-8.4h3.3c2.1,0,3.1,1.2,3.1,2.7C169,207.7,168,209,165.9,209z M165.7,207.4c0.8,0,1.2-0.4,1.2-1.1
		s-0.3-1.1-1.2-1.1h-1.1v2.1H165.7z"/>
	<path d="M173,212.1c-2,0-3.4-1.3-3.4-3.4c0-2.1,1.4-3.4,3.4-3.4c2,0,3.3,1.3,3.3,3.3c0,0.2,0,0.4,0,0.6h-4.6
		c0.1,0.9,0.6,1.3,1.3,1.3c0.6,0,0.9-0.3,1.1-0.6h2.2C175.9,211.1,174.7,212.1,173,212.1z M171.7,208.1h2.6c0-0.7-0.6-1.2-1.3-1.2
		C172.3,206.9,171.8,207.3,171.7,208.1z"/>
	<path d="M179.5,212h-2.1v-6.7h2.1v1.1c0.5-0.7,1.2-1.2,2.1-1.2v2.2H181c-1,0-1.5,0.3-1.5,1.5V212z"/>
	<path d="M185.3,212.1c-1.8,0-3-1-3.1-2.3h2c0,0.5,0.5,0.8,1,0.8c0.5,0,0.8-0.2,0.8-0.5c0-1.1-3.6-0.3-3.6-2.8c0-1.1,1-2.1,2.7-2.1
		c1.7,0,2.7,1,2.8,2.3h-1.9c-0.1-0.5-0.4-0.8-1-0.8c-0.5,0-0.7,0.2-0.7,0.5c0,1.1,3.6,0.3,3.7,2.8C188,211.3,187,212.1,185.3,212.1z
		"/>
	<path d="M189.1,203.6c0-0.6,0.5-1.1,1.2-1.1c0.7,0,1.2,0.5,1.2,1.1c0,0.6-0.5,1.1-1.2,1.1C189.6,204.7,189.1,204.2,189.1,203.6z
		 M189.3,205.4h2.1v6.7h-2.1V205.4z"/>
	<path d="M195.5,212.1c-1.8,0-3-1-3.1-2.3h2c0,0.5,0.5,0.8,1,0.8c0.5,0,0.8-0.2,0.8-0.5c0-1.1-3.6-0.3-3.6-2.8c0-1.1,1-2.1,2.7-2.1
		c1.7,0,2.7,1,2.8,2.3h-1.9c-0.1-0.5-0.4-0.8-1-0.8c-0.5,0-0.7,0.2-0.7,0.5c0,1.1,3.6,0.3,3.7,2.8
		C198.2,211.3,197.2,212.1,195.5,212.1z"/>
	<path d="M199.8,207.1H199v-1.7h0.8v-1.6h2.1v1.6h1.3v1.7h-1.3v2.7c0,0.4,0.2,0.6,0.6,0.6h0.7v1.7h-1c-1.4,0-2.4-0.6-2.4-2.3V207.1z
		"/>
	<path d="M207.4,212.1c-2,0-3.4-1.3-3.4-3.4c0-2.1,1.4-3.4,3.4-3.4c2,0,3.3,1.3,3.3,3.3c0,0.2,0,0.4,0,0.6H206
		c0.1,0.9,0.6,1.3,1.3,1.3c0.6,0,0.9-0.3,1.1-0.6h2.2C210.2,211.1,209,212.1,207.4,212.1z M206,208.1h2.6c0-0.7-0.6-1.2-1.3-1.2
		C206.7,206.9,206.1,207.3,206,208.1z"/>
	<path d="M216.4,208.4c0-0.9-0.5-1.4-1.3-1.4c-0.8,0-1.3,0.5-1.3,1.4v3.6h-2.1v-6.7h2.1v0.9c0.4-0.6,1.1-1,2-1
		c1.5,0,2.6,1.1,2.6,2.9v3.9h-2V208.4z"/>
	<path d="M222.8,205.3c1.7,0,2.9,0.9,3.2,2.5h-2.2c-0.2-0.5-0.5-0.8-1.1-0.8c-0.7,0-1.2,0.6-1.2,1.7c0,1.1,0.5,1.7,1.2,1.7
		c0.6,0,0.9-0.3,1.1-0.8h2.2c-0.3,1.5-1.5,2.5-3.2,2.5c-2,0-3.4-1.3-3.4-3.4C219.5,206.6,220.8,205.3,222.8,205.3z"/>
	<path d="M230.1,212.1c-2,0-3.4-1.3-3.4-3.4c0-2.1,1.4-3.4,3.4-3.4c2,0,3.3,1.3,3.3,3.3c0,0.2,0,0.4,0,0.6h-4.6
		c0.1,0.9,0.6,1.3,1.3,1.3c0.6,0,0.9-0.3,1.1-0.6h2.2C232.9,211.1,231.8,212.1,230.1,212.1z M228.8,208.1h2.6c0-0.7-0.6-1.2-1.3-1.2
		C229.4,206.9,228.9,207.3,228.8,208.1z"/>
</g>
<g>
	<g>
		<path d="M46.7,226.6h-2.8v2.3h2.5v0.7h-2.5v2.4h2.8v0.8H43v-7h3.7V226.6z"/>
		<path d="M52.1,229.7c0-1.1-0.6-1.7-1.5-1.7c-0.9,0-1.6,0.6-1.6,1.8v3h-0.9v-5.5H49v0.8c0.4-0.6,1-0.9,1.8-0.9
			c1.3,0,2.2,0.8,2.2,2.3v3.2h-0.9V229.7z"/>
		<path d="M56.8,227.2c1.4,0,2.2,0.7,2.5,1.8h-1c-0.2-0.7-0.7-1.1-1.5-1.1c-1,0-1.7,0.7-1.7,2c0,1.4,0.7,2.1,1.7,2.1
			c0.8,0,1.3-0.4,1.5-1.1h1c-0.3,1.1-1.2,1.8-2.5,1.8c-1.6,0-2.7-1.1-2.7-2.8C54.1,228.3,55.3,227.2,56.8,227.2z"/>
		<path d="M61.5,232.8h-0.9v-5.5h0.9v0.9c0.3-0.6,0.9-1,1.8-1v0.9H63c-0.9,0-1.5,0.4-1.5,1.7V232.8z"/>
		<path d="M68.1,227.3H69l-3.3,8.1h-0.9l1.1-2.6l-2.2-5.4h1l1.7,4.4L68.1,227.3z"/>
		<path d="M72.9,227.2c1.5,0,2.6,1.1,2.6,2.8c0,1.7-1.1,2.8-2.6,2.8c-1,0-1.7-0.5-2-1.1v3.6h-0.9v-8.1h0.9v1
			C71.2,227.7,71.9,227.2,72.9,227.2z M72.7,228c-1,0-1.9,0.8-1.9,2c0,1.3,0.9,2,1.9,2c1,0,1.9-0.8,1.9-2
			C74.5,228.7,73.7,228,72.7,228z"/>
		<path d="M76.9,228.1h-0.7v-0.7h0.7v-1.4h0.9v1.4h1.4v0.7h-1.4v3.2c0,0.5,0.2,0.7,0.8,0.7h0.7v0.8h-0.8c-1,0-1.5-0.4-1.5-1.5V228.1
			z"/>
		<path d="M82.7,232.9c-1.6,0-2.7-1.1-2.7-2.8c0-1.7,1.1-2.8,2.7-2.8c1.6,0,2.6,1.1,2.6,2.6c0,0.2,0,0.4,0,0.5h-4.4
			c0.1,1.1,0.8,1.7,1.8,1.7c0.8,0,1.3-0.4,1.5-1h1C84.9,232.1,84,232.9,82.7,232.9z M80.9,229.7h3.5c0-1.1-0.8-1.7-1.7-1.7
			C81.8,228,81,228.6,80.9,229.7z"/>
		<path d="M88.8,227.2c0.9,0,1.6,0.4,2,1.1v-2.9h0.9v7.4h-0.9v-1c-0.3,0.6-1,1.1-2,1.1c-1.5,0-2.6-1.1-2.6-2.8
			C86.2,228.3,87.3,227.2,88.8,227.2z M89,228c-1,0-1.8,0.7-1.8,2c0,1.3,0.8,2,1.8,2c1,0,1.9-0.7,1.9-2C90.8,228.8,90,228,89,228z"
			/>
		<path d="M95.9,225.9h1l2.6,5.7l2.6-5.7h1v6.9h-0.9v-5.2l-2.3,5.2h-0.6l-2.3-5.2v5.2h-0.9V225.9z"/>
		<path d="M106.9,232.9c-1.6,0-2.7-1.1-2.7-2.8c0-1.7,1.1-2.8,2.7-2.8c1.6,0,2.6,1.1,2.6,2.6c0,0.2,0,0.4,0,0.5h-4.4
			c0.1,1.1,0.8,1.7,1.8,1.7c0.8,0,1.3-0.4,1.5-1h1C109.2,232.1,108.3,232.9,106.9,232.9z M105.2,229.7h3.5c0-1.1-0.8-1.7-1.7-1.7
			C106,228,105.3,228.6,105.2,229.7z"/>
		<path d="M111,228.1h-0.7v-0.7h0.7v-1.4h0.9v1.4h1.4v0.7h-1.4v3.2c0,0.5,0.2,0.7,0.8,0.7h0.7v0.8h-0.8c-1,0-1.5-0.4-1.5-1.5V228.1z
			"/>
		<path d="M116.7,227.2c1,0,1.7,0.5,2,1.1v-1h0.9v5.5h-0.9v-1c-0.3,0.6-1,1.1-2,1.1c-1.5,0-2.6-1.1-2.6-2.8
			C114.1,228.3,115.2,227.2,116.7,227.2z M116.8,228c-1,0-1.8,0.7-1.8,2c0,1.3,0.8,2,1.8,2c1,0,1.9-0.7,1.9-2
			C118.7,228.8,117.8,228,116.8,228z"/>
		<path d="M123.4,227.2c0.9,0,1.6,0.4,2,1.1v-2.9h0.9v7.4h-0.9v-1c-0.3,0.6-1,1.1-2,1.1c-1.5,0-2.6-1.1-2.6-2.8
			C120.8,228.3,121.9,227.2,123.4,227.2z M123.6,228c-1,0-1.8,0.7-1.8,2c0,1.3,0.8,2,1.8,2c1,0,1.9-0.7,1.9-2
			C125.5,228.8,124.6,228,123.6,228z"/>
		<path d="M130.2,227.2c1,0,1.7,0.5,2,1.1v-1h0.9v5.5h-0.9v-1c-0.3,0.6-1,1.1-2,1.1c-1.5,0-2.6-1.1-2.6-2.8
			C127.6,228.3,128.7,227.2,130.2,227.2z M130.4,228c-1,0-1.8,0.7-1.8,2c0,1.3,0.8,2,1.8,2c1,0,1.9-0.7,1.9-2
			C132.2,228.8,131.4,228,130.4,228z"/>
		<path d="M134.9,228.1h-0.7v-0.7h0.7v-1.4h0.9v1.4h1.4v0.7h-1.4v3.2c0,0.5,0.2,0.7,0.8,0.7h0.7v0.8h-0.8c-1,0-1.5-0.4-1.5-1.5
			V228.1z"/>
		<path d="M140.6,227.2c1,0,1.7,0.5,2,1.1v-1h0.9v5.5h-0.9v-1c-0.3,0.6-1,1.1-2,1.1c-1.5,0-2.6-1.1-2.6-2.8
			C138,228.3,139.1,227.2,140.6,227.2z M140.8,228c-1,0-1.8,0.7-1.8,2c0,1.3,0.8,2,1.8,2c1,0,1.9-0.7,1.9-2
			C142.6,228.8,141.8,228,140.8,228z"/>
		<path d="M150,232.9c-1.4,0-2.4-0.8-2.4-1.9h1c0.1,0.6,0.5,1.2,1.4,1.2c0.9,0,1.4-0.5,1.4-1.2c0-1.9-3.8-0.7-3.8-3.3
			c0-1.1,0.9-1.9,2.3-1.9c1.3,0,2.2,0.7,2.3,1.8h-1c-0.1-0.5-0.5-1-1.3-1c-0.7,0-1.3,0.4-1.3,1.1c0,1.8,3.8,0.7,3.8,3.3
			C152.3,231.9,151.5,232.9,150,232.9z"/>
		<path d="M153.8,228.1h-0.7v-0.7h0.7v-1.4h0.9v1.4h1.4v0.7h-1.4v3.2c0,0.5,0.2,0.7,0.8,0.7h0.7v0.8h-0.8c-1,0-1.5-0.4-1.5-1.5
			V228.1z"/>
		<path d="M159.6,232.9c-1.5,0-2.7-1.1-2.7-2.8c0-1.7,1.2-2.8,2.8-2.8c1.6,0,2.8,1.1,2.8,2.8C162.4,231.8,161.2,232.9,159.6,232.9z
			 M159.6,232.1c0.9,0,1.9-0.6,1.9-2c0-1.4-0.9-2-1.8-2c-1,0-1.8,0.6-1.8,2C157.8,231.4,158.7,232.1,159.6,232.1z"/>
		<path d="M164.6,232.8h-0.9v-5.5h0.9v0.9c0.3-0.6,0.9-1,1.8-1v0.9h-0.2c-0.9,0-1.5,0.4-1.5,1.7V232.8z"/>
		<path d="M169.6,227.2c1,0,1.7,0.5,2,1.1v-1h0.9v5.5h-0.9v-1c-0.3,0.6-1,1.1-2,1.1c-1.5,0-2.6-1.1-2.6-2.8
			C167,228.3,168.2,227.2,169.6,227.2z M169.8,228c-1,0-1.8,0.7-1.8,2c0,1.3,0.8,2,1.8,2c1,0,1.9-0.7,1.9-2
			C171.7,228.8,170.8,228,169.8,228z"/>
		<path d="M176.4,227.2c1,0,1.7,0.5,2,1.1v-1h0.9v5.6c0,1.5-1,2.6-2.6,2.6c-1.4,0-2.5-0.7-2.6-1.9h0.9c0.2,0.7,0.8,1.1,1.7,1.1
			c1,0,1.7-0.6,1.7-1.8v-1.1c-0.3,0.6-1,1.1-2,1.1c-1.5,0-2.6-1.1-2.6-2.8C173.8,228.3,174.9,227.2,176.4,227.2z M176.6,228
			c-1,0-1.8,0.7-1.8,2c0,1.3,0.8,2,1.8,2c1,0,1.9-0.7,1.9-2C178.4,228.8,177.6,228,176.6,228z"/>
		<path d="M183.3,232.9c-1.6,0-2.7-1.1-2.7-2.8c0-1.7,1.1-2.8,2.7-2.8c1.6,0,2.6,1.1,2.6,2.6c0,0.2,0,0.4,0,0.5h-4.4
			c0.1,1.1,0.8,1.7,1.8,1.7c0.8,0,1.3-0.4,1.5-1h1C185.5,232.1,184.6,232.9,183.3,232.9z M181.5,229.7h3.5c0-1.1-0.8-1.7-1.7-1.7
			C182.3,228,181.6,228.6,181.5,229.7z"/>
		<path d="M192.2,232.9c-1.5,0-2.7-1.1-2.7-2.8c0-1.7,1.2-2.8,2.8-2.8c1.6,0,2.8,1.1,2.8,2.8C195,231.8,193.7,232.9,192.2,232.9z
			 M192.2,232.1c0.9,0,1.9-0.6,1.9-2c0-1.4-0.9-2-1.8-2c-1,0-1.8,0.6-1.8,2C190.4,231.4,191.2,232.1,192.2,232.1z"/>
		<path d="M200.2,229.7c0-1.1-0.6-1.7-1.5-1.7c-0.9,0-1.6,0.6-1.6,1.8v3h-0.9v-5.5h0.9v0.8c0.4-0.6,1-0.9,1.8-0.9
			c1.3,0,2.2,0.8,2.2,2.3v3.2h-0.9V229.7z"/>
		<path d="M204.8,225.8h4.7v0.7h-1.9v6.2h-0.9v-6.2h-1.9V225.8z"/>
		<path d="M214.4,226.6h-2.8v2.3h2.5v0.7h-2.5v2.4h2.8v0.8h-3.7v-7h3.7V226.6z"/>
		<path d="M219.5,226.6h-2.8v2.3h2.5v0.7h-2.5v2.4h2.8v0.8h-3.7v-7h3.7V226.6z"/>
		<path d="M98.1,244.8h-0.9v-5.5h0.9v0.9c0.3-0.6,0.9-1,1.8-1v0.9h-0.2c-0.9,0-1.5,0.4-1.5,1.7V244.8z"/>
		<path d="M103.3,244.9c-1.5,0-2.7-1.1-2.7-2.8c0-1.7,1.2-2.8,2.8-2.8c1.6,0,2.8,1.1,2.8,2.8C106.1,243.8,104.9,244.9,103.3,244.9z
			 M103.3,244.1c0.9,0,1.9-0.6,1.9-2c0-1.4-0.9-2-1.8-2c-1,0-1.8,0.6-1.8,2C101.5,243.4,102.4,244.1,103.3,244.1z"/>
		<path d="M112.2,244.8h-0.9V244c-0.4,0.6-1,0.9-1.7,0.9c-1.3,0-2.2-0.8-2.2-2.3v-3.2h0.9v3.1c0,1.1,0.6,1.7,1.5,1.7
			c0.9,0,1.6-0.6,1.6-1.8v-3h0.9V244.8z"/>
		<path d="M113.9,240.1h-0.7v-0.7h0.7v-1.4h0.9v1.4h1.4v0.7h-1.4v3.2c0,0.5,0.2,0.7,0.8,0.7h0.7v0.8h-0.8c-1,0-1.5-0.4-1.5-1.5
			V240.1z"/>
		<path d="M117.2,237.8c0-0.3,0.3-0.6,0.6-0.6c0.3,0,0.6,0.3,0.6,0.6s-0.3,0.6-0.6,0.6C117.5,238.4,117.2,238.2,117.2,237.8z
			 M117.4,239.3h0.9v5.5h-0.9V239.3z"/>
		<path d="M123.9,241.7c0-1.1-0.6-1.7-1.5-1.7c-0.9,0-1.6,0.6-1.6,1.8v3h-0.9v-5.5h0.9v0.8c0.4-0.6,1-0.9,1.8-0.9
			c1.3,0,2.2,0.8,2.2,2.3v3.2h-0.9V241.7z"/>
		<path d="M128.5,239.2c1,0,1.7,0.5,2,1.1v-1h0.9v5.6c0,1.5-1,2.6-2.6,2.6c-1.4,0-2.5-0.7-2.6-1.9h0.9c0.2,0.7,0.8,1.1,1.7,1.1
			c1,0,1.7-0.6,1.7-1.8v-1.1c-0.3,0.6-1,1.1-2,1.1c-1.5,0-2.6-1.1-2.6-2.8C125.9,240.3,127,239.2,128.5,239.2z M128.7,240
			c-1,0-1.8,0.7-1.8,2c0,1.3,0.8,2,1.8,2c1,0,1.9-0.7,1.9-2C130.5,240.8,129.7,240,128.7,240z"/>
		<path d="M139.7,241.7c0-1.1-0.6-1.7-1.5-1.7c-0.9,0-1.6,0.6-1.6,1.8v3h-0.9v-5.5h0.9v0.8c0.4-0.6,1-0.9,1.8-0.9
			c1.3,0,2.2,0.8,2.2,2.3v3.2h-0.9V241.7z"/>
		<path d="M144.5,244.9c-1.5,0-2.7-1.1-2.7-2.8c0-1.7,1.2-2.8,2.8-2.8c1.6,0,2.8,1.1,2.8,2.8C147.3,243.8,146,244.9,144.5,244.9z
			 M144.5,244.1c0.9,0,1.9-0.6,1.9-2c0-1.4-0.9-2-1.8-2c-1,0-1.8,0.6-1.8,2C142.7,243.4,143.5,244.1,144.5,244.1z"/>
		<path d="M150.7,239.2c0.9,0,1.6,0.4,2,1.1v-2.9h0.9v7.4h-0.9v-1c-0.3,0.6-1,1.1-2,1.1c-1.5,0-2.6-1.1-2.6-2.8
			C148.1,240.3,149.3,239.2,150.7,239.2z M150.9,240c-1,0-1.8,0.7-1.8,2c0,1.3,0.8,2,1.8,2c1,0,1.9-0.7,1.9-2
			C152.8,240.8,151.9,240,150.9,240z"/>
		<path d="M157.6,244.9c-1.6,0-2.7-1.1-2.7-2.8c0-1.7,1.1-2.8,2.7-2.8c1.6,0,2.6,1.1,2.6,2.6c0,0.2,0,0.4,0,0.5h-4.4
			c0.1,1.1,0.8,1.7,1.8,1.7c0.8,0,1.3-0.4,1.5-1h1C159.8,244.1,159,244.9,157.6,244.9z M155.8,241.7h3.5c0-1.1-0.8-1.7-1.7-1.7
			C156.7,240,155.9,240.6,155.8,241.7z"/>
		<path d="M163.4,244.9c-1.3,0-2.2-0.7-2.2-1.7h0.9c0,0.5,0.5,0.9,1.3,0.9c0.7,0,1.1-0.4,1.1-0.8c0-1.2-3.2-0.5-3.2-2.5
			c0-0.8,0.8-1.5,2-1.5c1.2,0,2,0.7,2.1,1.7h-0.9c0-0.5-0.5-0.9-1.2-0.9c-0.7,0-1.1,0.3-1.1,0.8c0,1.3,3.2,0.6,3.2,2.5
			C165.4,244.2,164.6,244.9,163.4,244.9z"/>
		<path d="M57.9,249.8h1l1.5,5.9l1.7-5.9h1l1.6,5.9l1.5-5.9h1l-2,7h-1l-1.6-5.6l-1.7,5.6l-1,0L57.9,249.8z"/>
		<path d="M70.4,251.2c1,0,1.7,0.5,2,1.1v-1h0.9v5.5h-0.9v-1c-0.3,0.6-1,1.1-2,1.1c-1.5,0-2.6-1.1-2.6-2.8
			C67.8,252.3,69,251.2,70.4,251.2z M70.6,252c-1,0-1.8,0.7-1.8,2c0,1.3,0.8,2,1.8,2c1,0,1.9-0.7,1.9-2
			C72.5,252.8,71.6,252,70.6,252z"/>
		<path d="M74.9,249.4h0.9v7.4h-0.9V249.4z"/>
		<path d="M77.4,249.4h0.9v7.4h-0.9V249.4z"/>
		<path d="M82.2,256.9c-1.6,0-2.7-1.1-2.7-2.8c0-1.7,1.1-2.8,2.7-2.8c1.6,0,2.6,1.1,2.6,2.6c0,0.2,0,0.4,0,0.5h-4.4
			c0.1,1.1,0.8,1.7,1.8,1.7c0.8,0,1.3-0.4,1.5-1h1C84.5,256.1,83.6,256.9,82.2,256.9z M80.5,253.7h3.5c0-1.1-0.8-1.7-1.7-1.7
			C81.3,252,80.6,252.6,80.5,253.7z"/>
		<path d="M86.3,252.1h-0.7v-0.7h0.7v-1.4h0.9v1.4h1.4v0.7h-1.4v3.2c0,0.5,0.2,0.7,0.8,0.7h0.7v0.8h-0.8c-1,0-1.5-0.4-1.5-1.5V252.1
			z"/>
		<path d="M94.6,251.2c1,0,1.7,0.5,2,1.1v-1h0.9v5.5h-0.9v-1c-0.3,0.6-1,1.1-2,1.1c-1.5,0-2.6-1.1-2.6-2.8
			C92,252.3,93.2,251.2,94.6,251.2z M94.8,252c-1,0-1.8,0.7-1.8,2c0,1.3,0.8,2,1.8,2c1,0,1.9-0.7,1.9-2
			C96.7,252.8,95.8,252,94.8,252z"/>
		<path d="M103.1,253.7c0-1.1-0.6-1.7-1.5-1.7c-0.9,0-1.6,0.6-1.6,1.8v3h-0.9v-5.5h0.9v0.8c0.4-0.6,1-0.9,1.8-0.9
			c1.3,0,2.2,0.8,2.2,2.3v3.2h-0.9V253.7z"/>
		<path d="M107.8,251.2c0.9,0,1.6,0.4,2,1.1v-2.9h0.9v7.4h-0.9v-1c-0.3,0.6-1,1.1-2,1.1c-1.5,0-2.6-1.1-2.6-2.8
			C105.2,252.3,106.3,251.2,107.8,251.2z M108,252c-1,0-1.8,0.7-1.8,2c0,1.3,0.8,2,1.8,2c1,0,1.9-0.7,1.9-2
			C109.8,252.8,109,252,108,252z"/>
		<path d="M116.9,256.9c-1.3,0-2.2-0.7-2.2-1.7h0.9c0,0.5,0.5,0.9,1.3,0.9c0.7,0,1.1-0.4,1.1-0.8c0-1.2-3.2-0.5-3.2-2.5
			c0-0.8,0.8-1.5,2-1.5c1.2,0,2,0.7,2.1,1.7h-0.9c0-0.5-0.5-0.9-1.2-0.9c-0.7,0-1.1,0.3-1.1,0.8c0,1.3,3.2,0.6,3.2,2.5
			C118.9,256.2,118.1,256.9,116.9,256.9z"/>
		<path d="M128.1,253.7c0-1.1-0.6-1.7-1.5-1.7c-0.9,0-1.5,0.6-1.5,1.8v3h-0.9v-3.1c0-1.1-0.6-1.7-1.5-1.7c-0.9,0-1.5,0.6-1.5,1.8v3
			h-0.9v-5.5h0.9v0.8c0.4-0.6,1-0.9,1.7-0.9c0.9,0,1.6,0.4,2,1.2c0.3-0.8,1.1-1.2,1.9-1.2c1.3,0,2.2,0.8,2.2,2.3v3.2h-0.9V253.7z"/>
		<path d="M132.7,251.2c1,0,1.7,0.5,2,1.1v-1h0.9v5.5h-0.9v-1c-0.3,0.6-1,1.1-2,1.1c-1.5,0-2.6-1.1-2.6-2.8
			C130.1,252.3,131.3,251.2,132.7,251.2z M132.9,252c-1,0-1.8,0.7-1.8,2c0,1.3,0.8,2,1.8,2c1,0,1.9-0.7,1.9-2
			C134.8,252.8,133.9,252,132.9,252z"/>
		<path d="M138.1,256.8h-0.9v-5.5h0.9v0.9c0.3-0.6,0.9-1,1.8-1v0.9h-0.2c-0.9,0-1.5,0.4-1.5,1.7V256.8z"/>
		<path d="M141.2,252.1h-0.7v-0.7h0.7v-1.4h0.9v1.4h1.4v0.7h-1.4v3.2c0,0.5,0.2,0.7,0.8,0.7h0.7v0.8h-0.8c-1,0-1.5-0.4-1.5-1.5
			V252.1z"/>
		<path d="M149.6,251.2c1.4,0,2.2,0.7,2.5,1.8h-1c-0.2-0.7-0.7-1.1-1.5-1.1c-1,0-1.7,0.7-1.7,2c0,1.4,0.7,2.1,1.7,2.1
			c0.8,0,1.3-0.4,1.5-1.1h1c-0.3,1.1-1.2,1.8-2.5,1.8c-1.6,0-2.7-1.1-2.7-2.8C146.9,252.3,148,251.2,149.6,251.2z"/>
		<path d="M155.7,256.9c-1.5,0-2.7-1.1-2.7-2.8c0-1.7,1.2-2.8,2.8-2.8c1.6,0,2.8,1.1,2.8,2.8C158.5,255.8,157.3,256.9,155.7,256.9z
			 M155.7,256.1c0.9,0,1.9-0.6,1.9-2c0-1.4-0.9-2-1.8-2c-1,0-1.8,0.6-1.8,2C153.9,255.4,154.8,256.1,155.7,256.1z"/>
		<path d="M163.7,253.7c0-1.1-0.6-1.7-1.5-1.7c-0.9,0-1.6,0.6-1.6,1.8v3h-0.9v-5.5h0.9v0.8c0.4-0.6,1-0.9,1.8-0.9
			c1.3,0,2.2,0.8,2.2,2.3v3.2h-0.9V253.7z"/>
		<path d="M166.3,252.1h-0.7v-0.7h0.7v-1.4h0.9v1.4h1.4v0.7h-1.4v3.2c0,0.5,0.2,0.7,0.8,0.7h0.7v0.8h-0.8c-1,0-1.5-0.4-1.5-1.5
			V252.1z"/>
		<path d="M170.7,256.8h-0.9v-5.5h0.9v0.9c0.3-0.6,0.9-1,1.8-1v0.9h-0.2c-0.9,0-1.5,0.4-1.5,1.7V256.8z"/>
		<path d="M175.8,251.2c1,0,1.7,0.5,2,1.1v-1h0.9v5.5h-0.9v-1c-0.3,0.6-1,1.1-2,1.1c-1.5,0-2.6-1.1-2.6-2.8
			C173.2,252.3,174.3,251.2,175.8,251.2z M175.9,252c-1,0-1.8,0.7-1.8,2c0,1.3,0.8,2,1.8,2c1,0,1.9-0.7,1.9-2
			C177.8,252.8,176.9,252,175.9,252z"/>
		<path d="M182.6,251.2c1.4,0,2.2,0.7,2.5,1.8h-1c-0.2-0.7-0.7-1.1-1.5-1.1c-1,0-1.7,0.7-1.7,2c0,1.4,0.7,2.1,1.7,2.1
			c0.8,0,1.3-0.4,1.5-1.1h1c-0.3,1.1-1.2,1.8-2.5,1.8c-1.6,0-2.7-1.1-2.7-2.8C179.9,252.3,181,251.2,182.6,251.2z"/>
		<path d="M186.5,252.1h-0.7v-0.7h0.7v-1.4h0.9v1.4h1.4v0.7h-1.4v3.2c0,0.5,0.2,0.7,0.8,0.7h0.7v0.8h-0.8c-1,0-1.5-0.4-1.5-1.5
			V252.1z"/>
		<path d="M195,256.9c-1.5,0-2.7-1.1-2.7-2.8c0-1.7,1.2-2.8,2.8-2.8c1.6,0,2.8,1.1,2.8,2.8C197.8,255.8,196.6,256.9,195,256.9z
			 M195,256.1c0.9,0,1.9-0.6,1.9-2c0-1.4-0.9-2-1.8-2c-1,0-1.8,0.6-1.8,2C193.2,255.4,194.1,256.1,195,256.1z"/>
		<path d="M203.1,253.7c0-1.1-0.6-1.7-1.5-1.7c-0.9,0-1.6,0.6-1.6,1.8v3h-0.9v-5.5h0.9v0.8c0.4-0.6,1-0.9,1.8-0.9
			c1.3,0,2.2,0.8,2.2,2.3v3.2h-0.9V253.7z"/>
		<path d="M72.4,262.6h-2.8v2.3h2.5v0.7h-2.5v2.4h2.8v0.8h-3.7v-7h3.7V262.6z"/>
		<path d="M74,264.1h-0.7v-0.7H74v-1.4h0.9v1.4h1.4v0.7h-1.4v3.2c0,0.5,0.2,0.7,0.8,0.7h0.7v0.8h-0.8c-1,0-1.5-0.4-1.5-1.5V264.1z"
			/>
		<path d="M77.5,261.4h0.9v2.7c0.4-0.6,1-0.9,1.8-0.9c1.2,0,2.2,0.8,2.2,2.3v3.2h-0.9v-3.1c0-1.1-0.6-1.7-1.5-1.7
			c-0.9,0-1.6,0.6-1.6,1.8v3h-0.9V261.4z"/>
		<path d="M86.2,268.9c-1.6,0-2.7-1.1-2.7-2.8c0-1.7,1.1-2.8,2.7-2.8c1.6,0,2.6,1.1,2.6,2.6c0,0.2,0,0.4,0,0.5h-4.4
			c0.1,1.1,0.8,1.7,1.8,1.7c0.8,0,1.3-0.4,1.5-1h1C88.5,268.1,87.6,268.9,86.2,268.9z M84.5,265.7h3.5c0-1.1-0.8-1.7-1.7-1.7
			C85.3,264,84.6,264.6,84.5,265.7z"/>
		<path d="M91,268.8h-0.9v-5.5H91v0.9c0.3-0.6,0.9-1,1.8-1v0.9h-0.2c-0.9,0-1.5,0.4-1.5,1.7V268.8z"/>
		<path d="M96.2,268.9c-1.6,0-2.7-1.1-2.7-2.8c0-1.7,1.1-2.8,2.7-2.8c1.6,0,2.6,1.1,2.6,2.6c0,0.2,0,0.4,0,0.5h-4.4
			c0.1,1.1,0.8,1.7,1.8,1.7c0.8,0,1.3-0.4,1.5-1h1C98.4,268.1,97.5,268.9,96.2,268.9z M94.4,265.7h3.5c0-1.1-0.8-1.7-1.7-1.7
			C95.2,264,94.5,264.6,94.4,265.7z"/>
		<path d="M104.8,268.8h-0.9V268c-0.4,0.6-1,0.9-1.7,0.9c-1.3,0-2.2-0.8-2.2-2.3v-3.2h0.9v3.1c0,1.1,0.6,1.7,1.5,1.7
			c0.9,0,1.6-0.6,1.6-1.8v-3h0.9V268.8z"/>
		<path d="M114.3,265.7c0-1.1-0.6-1.7-1.5-1.7c-0.9,0-1.5,0.6-1.5,1.8v3h-0.9v-3.1c0-1.1-0.6-1.7-1.5-1.7c-0.9,0-1.5,0.6-1.5,1.8v3
			h-0.9v-5.5h0.9v0.8c0.4-0.6,1-0.9,1.7-0.9c0.9,0,1.6,0.4,2,1.2c0.3-0.8,1.1-1.2,1.9-1.2c1.3,0,2.2,0.8,2.2,2.3v3.2h-0.9V265.7z"/>
		<path d="M121.7,270.7c-1.3-1.3-2-3.3-2-5.5c0-2.3,0.8-4.4,2.2-5.7h1v0.1c-1.5,1.4-2.2,3.5-2.2,5.6c0,2,0.7,4,2.1,5.4v0.1H121.7z"
			/>
		<path d="M124.1,264.1h-0.7v-0.7h0.7v-0.4c0-1.2,0.6-1.8,2-1.8v0.8c-0.8,0-1.1,0.3-1.1,1v0.4h1.1v0.7H125v4.7h-0.9V264.1z"/>
		<path d="M129.6,268.9c-1.5,0-2.7-1.1-2.7-2.8c0-1.7,1.2-2.8,2.8-2.8c1.6,0,2.8,1.1,2.8,2.8C132.4,267.8,131.1,268.9,129.6,268.9z
			 M129.6,268.1c0.9,0,1.9-0.6,1.9-2c0-1.4-0.9-2-1.8-2c-1,0-1.8,0.6-1.8,2C127.8,267.4,128.6,268.1,129.6,268.1z"/>
		<path d="M134.5,268.8h-0.9v-5.5h0.9v0.9c0.3-0.6,0.9-1,1.8-1v0.9H136c-0.9,0-1.5,0.4-1.5,1.7V268.8z"/>
		<path d="M139.8,261.8c0-0.3,0.3-0.6,0.6-0.6c0.3,0,0.6,0.3,0.6,0.6s-0.3,0.6-0.6,0.6C140.1,262.4,139.8,262.2,139.8,261.8z
			 M140,263.3h0.9v5.5H140V263.3z"/>
		<path d="M146.5,265.7c0-1.1-0.6-1.7-1.5-1.7c-0.9,0-1.6,0.6-1.6,1.8v3h-0.9v-5.5h0.9v0.8c0.4-0.6,1-0.9,1.8-0.9
			c1.3,0,2.2,0.8,2.2,2.3v3.2h-0.9V265.7z"/>
		<path d="M151.2,263.2c1.4,0,2.2,0.7,2.5,1.8h-1c-0.2-0.7-0.7-1.1-1.5-1.1c-1,0-1.7,0.7-1.7,2c0,1.4,0.7,2.1,1.7,2.1
			c0.8,0,1.3-0.4,1.5-1.1h1c-0.3,1.1-1.2,1.8-2.5,1.8c-1.6,0-2.7-1.1-2.7-2.8C148.5,264.3,149.6,263.2,151.2,263.2z"/>
		<path d="M157.3,268.9c-1.6,0-2.7-1.1-2.7-2.8c0-1.7,1.1-2.8,2.7-2.8c1.6,0,2.6,1.1,2.6,2.6c0,0.2,0,0.4,0,0.5h-4.4
			c0.1,1.1,0.8,1.7,1.8,1.7c0.8,0,1.3-0.4,1.5-1h1C159.5,268.1,158.6,268.9,157.3,268.9z M155.5,265.7h3.5c0-1.1-0.8-1.7-1.7-1.7
			C156.4,264,155.6,264.6,155.5,265.7z"/>
		<path d="M165.1,265.7c0-1.1-0.6-1.7-1.5-1.7c-0.9,0-1.6,0.6-1.6,1.8v3h-0.9v-5.5h0.9v0.8c0.4-0.6,1-0.9,1.8-0.9
			c1.3,0,2.2,0.8,2.2,2.3v3.2h-0.9V265.7z"/>
		<path d="M167.7,264.1H167v-0.7h0.7v-1.4h0.9v1.4h1.4v0.7h-1.4v3.2c0,0.5,0.2,0.7,0.8,0.7h0.7v0.8h-0.8c-1,0-1.5-0.4-1.5-1.5V264.1
			z"/>
		<path d="M171,261.8c0-0.3,0.3-0.6,0.6-0.6c0.3,0,0.6,0.3,0.6,0.6s-0.3,0.6-0.6,0.6C171.3,262.4,171,262.2,171,261.8z M171.2,263.3
			h0.9v5.5h-0.9V263.3z"/>
		<path d="M173.9,263.3l1.7,4.6l1.7-4.6h1l-2.1,5.5h-1.1l-2.1-5.5H173.9z"/>
		<path d="M181.6,268.9c-1.6,0-2.7-1.1-2.7-2.8c0-1.7,1.1-2.8,2.7-2.8c1.6,0,2.6,1.1,2.6,2.6c0,0.2,0,0.4,0,0.5h-4.4
			c0.1,1.1,0.8,1.7,1.8,1.7c0.8,0,1.3-0.4,1.5-1h1C183.8,268.1,183,268.9,181.6,268.9z M179.8,265.7h3.5c0-1.1-0.8-1.7-1.7-1.7
			C180.7,264,179.9,264.6,179.8,265.7z"/>
		<path d="M187.4,268.9c-1.3,0-2.2-0.7-2.2-1.7h0.9c0,0.5,0.5,0.9,1.3,0.9c0.7,0,1.1-0.4,1.1-0.8c0-1.2-3.2-0.5-3.2-2.5
			c0-0.8,0.8-1.5,2-1.5c1.2,0,2,0.7,2.1,1.7h-0.9c0-0.5-0.5-0.9-1.2-0.9c-0.7,0-1.1,0.3-1.1,0.8c0,1.3,3.2,0.6,3.2,2.5
			C189.4,268.2,188.6,268.9,187.4,268.9z"/>
		<path d="M190.4,270.7L190.4,270.7c1.4-1.5,2.1-3.5,2.1-5.5c0-2-0.7-4.1-2.2-5.6v-0.1h0.9c1.4,1.3,2.2,3.4,2.2,5.7
			c0,2.2-0.8,4.3-2,5.5H190.4z"/>
	</g>
</g>
<g>
	<path d="M28,370.2c2,0,3.5,1.1,4,3h-2.3c-0.3-0.7-1-1.1-1.8-1.1c-1.3,0-2.1,0.9-2.1,2.4s0.9,2.4,2.1,2.4c0.8,0,1.4-0.4,1.8-1.1H32
		c-0.5,1.8-2,2.9-4,2.9c-2.5,0-4.2-1.8-4.2-4.3S25.6,370.2,28,370.2z"/>
	<path d="M36.4,378.8c-2,0-3.5-1.3-3.5-3.4c0-2.1,1.5-3.4,3.5-3.4c2,0,3.5,1.3,3.5,3.4C39.9,377.5,38.3,378.8,36.4,378.8z M36.4,377
		c0.7,0,1.4-0.5,1.4-1.7c0-1.1-0.7-1.7-1.4-1.7c-0.7,0-1.4,0.5-1.4,1.7C35,376.5,35.6,377,36.4,377z"/>
	<path d="M42.5,372l1.5,4.8l1.5-4.8h2.2l-2.4,6.7h-2.5l-2.4-6.7H42.5z"/>
	<path d="M51,371.9c1,0,1.7,0.5,2.1,1V372h2.1v6.7h-2.1v-0.9c-0.4,0.6-1.1,1-2.1,1c-1.6,0-2.9-1.3-2.9-3.5
		C48.1,373.2,49.4,371.9,51,371.9z M51.6,373.7c-0.8,0-1.5,0.6-1.5,1.6s0.7,1.7,1.5,1.7c0.8,0,1.5-0.6,1.5-1.7
		S52.4,373.7,51.6,373.7z"/>
	<path d="M60.5,370.2c2,0,3.5,1.1,4,3h-2.3c-0.3-0.7-1-1.1-1.8-1.1c-1.3,0-2.1,0.9-2.1,2.4s0.9,2.4,2.1,2.4c0.8,0,1.4-0.4,1.8-1.1
		h2.3c-0.5,1.8-2,2.9-4,2.9c-2.5,0-4.2-1.8-4.2-4.3S58,370.2,60.5,370.2z"/>
	<path d="M68.8,378.8c-2,0-3.5-1.3-3.5-3.4c0-2.1,1.5-3.4,3.5-3.4c2,0,3.5,1.3,3.5,3.4C72.3,377.5,70.8,378.8,68.8,378.8z M68.8,377
		c0.7,0,1.4-0.5,1.4-1.7c0-1.1-0.7-1.7-1.4-1.7c-0.7,0-1.4,0.5-1.4,1.7C67.4,376.5,68.1,377,68.8,377z"/>
	<path d="M75.4,378.7h-2.1V372h2.1v1.1c0.5-0.7,1.2-1.2,2.1-1.2v2.2H77c-1,0-1.5,0.3-1.5,1.5V378.7z"/>
	<path d="M81.5,378.8c-2,0-3.4-1.3-3.4-3.4c0-2.1,1.4-3.4,3.4-3.4c2,0,3.3,1.3,3.3,3.3c0,0.2,0,0.4,0,0.6h-4.6
		c0.1,0.9,0.6,1.3,1.3,1.3c0.6,0,0.9-0.3,1.1-0.6h2.2C84.4,377.8,83.2,378.8,81.5,378.8z M80.2,374.7h2.6c0-0.7-0.6-1.2-1.3-1.2
		C80.8,373.5,80.3,373.9,80.2,374.7z"/>
	<path d="M86.9,373.9c-0.7,0-1.2-0.5-1.2-1.1c0-0.6,0.5-1.1,1.2-1.1c0.7,0,1.2,0.5,1.2,1.1C88.1,373.4,87.6,373.9,86.9,373.9z
		 M86.9,378.8c-0.7,0-1.2-0.5-1.2-1.1c0-0.6,0.5-1.1,1.2-1.1c0.7,0,1.2,0.5,1.2,1.1C88.1,378.3,87.6,378.8,86.9,378.8z"/>
	<path d="M95.8,370.2c2,0,3.5,1.1,4,3h-2.3c-0.3-0.7-1-1.1-1.8-1.1c-1.3,0-2.1,0.9-2.1,2.4s0.9,2.4,2.1,2.4c0.8,0,1.4-0.4,1.8-1.1
		h2.3c-0.5,1.8-2,2.9-4,2.9c-2.5,0-4.2-1.8-4.2-4.3S93.3,370.2,95.8,370.2z"/>
	<path d="M105,378.8c-2.4,0-4.3-1.8-4.3-4.3c0-2.5,1.9-4.3,4.3-4.3c2.4,0,4.3,1.8,4.3,4.3C109.3,377,107.4,378.8,105,378.8z
		 M105,376.9c1.3,0,2.2-1,2.2-2.4c0-1.5-0.9-2.4-2.2-2.4c-1.4,0-2.2,0.9-2.2,2.4C102.8,375.9,103.6,376.9,105,376.9z"/>
	<path d="M116.2,370.3h2.2l-3,8.4h-2.6l-3-8.4h2.2l2.1,6.4L116.2,370.3z"/>
	<path d="M124.5,377.2h-3.1l-0.5,1.5h-2.1l3-8.4h2.4l3,8.4H125L124.5,377.2z M122.9,372.5l-1,3.1h2.1L122.9,372.5z"/>
	<path d="M133.9,375.7h-1.3v3h-2.1v-8.4h3.3c2.1,0,3.1,1.2,3.1,2.7C137,374.4,136.1,375.7,133.9,375.7z M133.8,374
		c0.8,0,1.2-0.4,1.2-1.1s-0.3-1.1-1.2-1.1h-1.1v2.1H133.8z"/>
	<path d="M140.1,378.7h-2.1V372h2.1v1.1c0.5-0.7,1.2-1.2,2.1-1.2v2.2h-0.6c-1,0-1.5,0.3-1.5,1.5V378.7z"/>
	<path d="M146.3,378.8c-2,0-3.5-1.3-3.5-3.4c0-2.1,1.5-3.4,3.5-3.4c2,0,3.5,1.3,3.5,3.4C149.8,377.5,148.2,378.8,146.3,378.8z
		 M146.3,377c0.7,0,1.4-0.5,1.4-1.7c0-1.1-0.7-1.7-1.4-1.7c-0.7,0-1.4,0.5-1.4,1.7C144.9,376.5,145.5,377,146.3,377z"/>
	<path d="M151.2,373.7h-0.8V372h0.8v-1.6h2.1v1.6h1.3v1.7h-1.3v2.7c0,0.4,0.2,0.6,0.6,0.6h0.7v1.7h-1c-1.4,0-2.4-0.6-2.4-2.3V373.7z
		"/>
	<path d="M158.8,378.8c-2,0-3.5-1.3-3.5-3.4c0-2.1,1.5-3.4,3.5-3.4c2,0,3.5,1.3,3.5,3.4C162.3,377.5,160.8,378.8,158.8,378.8z
		 M158.8,377c0.7,0,1.4-0.5,1.4-1.7c0-1.1-0.7-1.7-1.4-1.7c-0.7,0-1.4,0.5-1.4,1.7C157.4,376.5,158,377,158.8,377z"/>
	<path d="M166.3,371.9c1.7,0,2.9,0.9,3.2,2.5h-2.2c-0.2-0.5-0.5-0.8-1.1-0.8c-0.7,0-1.2,0.6-1.2,1.7c0,1.1,0.5,1.7,1.2,1.7
		c0.6,0,0.9-0.3,1.1-0.8h2.2c-0.3,1.5-1.5,2.5-3.2,2.5c-2,0-3.4-1.3-3.4-3.4C163,373.2,164.4,371.9,166.3,371.9z"/>
	<path d="M173.7,378.8c-2,0-3.5-1.3-3.5-3.4c0-2.1,1.5-3.4,3.5-3.4c2,0,3.5,1.3,3.5,3.4C177.2,377.5,175.7,378.8,173.7,378.8z
		 M173.7,377c0.7,0,1.4-0.5,1.4-1.7c0-1.1-0.7-1.7-1.4-1.7c-0.7,0-1.4,0.5-1.4,1.7C172.3,376.5,172.9,377,173.7,377z"/>
	<path d="M178.3,369.8h2.1v8.9h-2.1V369.8z"/>
	<path d="M187.4,378.8c-1.8,0-3.2-0.9-3.3-2.6h2.2c0.1,0.6,0.5,1,1,1c0.6,0,1-0.3,1-0.8c0-1.6-4.2-0.7-4.2-3.7
		c0-1.6,1.3-2.5,3.1-2.5c1.8,0,3.1,0.9,3.2,2.5h-2.2c0-0.5-0.4-0.9-1-0.9c-0.5,0-0.9,0.2-0.9,0.8c0,1.5,4.2,0.8,4.2,3.6
		C190.5,377.6,189.4,378.8,187.4,378.8z"/>
	<path d="M194.8,378.8c-2,0-3.5-1.3-3.5-3.4c0-2.1,1.5-3.4,3.5-3.4c2,0,3.5,1.3,3.5,3.4C198.3,377.5,196.8,378.8,194.8,378.8z
		 M194.8,377c0.7,0,1.4-0.5,1.4-1.7c0-1.1-0.7-1.7-1.4-1.7c-0.7,0-1.4,0.5-1.4,1.7C193.4,376.5,194.1,377,194.8,377z"/>
	<path d="M199.6,373.7h-0.7V372h0.7v-0.2c0-1.8,1.1-2.6,3.1-2.5v1.7c-0.8,0-1.1,0.2-1.1,0.9v0.1h1.1v1.7h-1.1v5h-2.1V373.7z"/>
	<path d="M204,373.7h-0.8V372h0.8v-1.6h2.1v1.6h1.3v1.7h-1.3v2.7c0,0.4,0.2,0.6,0.6,0.6h0.7v1.7h-1c-1.4,0-2.4-0.6-2.4-2.3V373.7z"
		/>
	<path d="M207.9,372h2.1l0.9,4.8l1.1-4.8h2.2l1.1,4.8l0.9-4.8h1.9l-1.8,6.7h-2.3l-1.1-4.3l-1.1,4.3h-2.3L207.9,372z"/>
	<path d="M221.5,371.9c1,0,1.7,0.5,2.1,1V372h2.1v6.7h-2.1v-0.9c-0.4,0.6-1.1,1-2.1,1c-1.6,0-2.9-1.3-2.9-3.5
		C218.6,373.2,219.9,371.9,221.5,371.9z M222.1,373.7c-0.8,0-1.5,0.6-1.5,1.6s0.7,1.7,1.5,1.7c0.8,0,1.5-0.6,1.5-1.7
		S222.9,373.7,222.1,373.7z"/>
	<path d="M229.2,378.7h-2.1V372h2.1v1.1c0.5-0.7,1.2-1.2,2.1-1.2v2.2h-0.6c-1,0-1.5,0.3-1.5,1.5V378.7z"/>
	<path d="M235.2,378.8c-2,0-3.4-1.3-3.4-3.4c0-2.1,1.4-3.4,3.4-3.4c2,0,3.3,1.3,3.3,3.3c0,0.2,0,0.4,0,0.6h-4.6
		c0.1,0.9,0.6,1.3,1.3,1.3c0.6,0,0.9-0.3,1.1-0.6h2.2C238.1,377.8,236.9,378.8,235.2,378.8z M233.9,374.7h2.6c0-0.7-0.6-1.2-1.3-1.2
		C234.5,373.5,234,373.9,233.9,374.7z"/>
</g>
<g>
	<g>
		<path d="M75.1,389.4c1.5,0,2.7,0.8,3.2,2.1h-1.1c-0.4-0.8-1.1-1.3-2.1-1.3c-1.5,0-2.5,1.1-2.5,2.8c0,1.7,1.1,2.8,2.5,2.8
			c1,0,1.8-0.5,2.1-1.3h1.1c-0.5,1.3-1.7,2.1-3.2,2.1c-1.9,0-3.5-1.5-3.5-3.5S73.2,389.4,75.1,389.4z"/>
		<path d="M82.1,396.5c-1.6,0-2.7-1.1-2.7-2.8c0-1.7,1.1-2.8,2.7-2.8c1.6,0,2.6,1.1,2.6,2.6c0,0.2,0,0.4,0,0.5h-4.4
			c0.1,1.1,0.8,1.7,1.8,1.7c0.8,0,1.3-0.4,1.5-1h1C84.3,395.7,83.4,396.5,82.1,396.5z M80.3,393.3h3.5c0-1.1-0.8-1.7-1.7-1.7
			C81.1,391.6,80.4,392.2,80.3,393.3z"/>
		<path d="M89.9,393.3c0-1.1-0.6-1.7-1.5-1.7c-0.9,0-1.6,0.6-1.6,1.8v3h-0.9V391h0.9v0.8c0.4-0.6,1-0.9,1.8-0.9
			c1.3,0,2.2,0.8,2.2,2.3v3.2h-0.9V393.3z"/>
		<path d="M92.5,391.7h-0.7V391h0.7v-1.4h0.9v1.4h1.4v0.7h-1.4v3.2c0,0.5,0.2,0.7,0.8,0.7h0.7v0.8H94c-1,0-1.5-0.4-1.5-1.5V391.7z"
			/>
		<path d="M96.8,396.4h-0.9V391h0.9v0.9c0.3-0.6,0.9-1,1.8-1v0.9h-0.2c-0.9,0-1.5,0.4-1.5,1.7V396.4z"/>
		<path d="M99.5,389.4c0-0.3,0.3-0.6,0.6-0.6c0.3,0,0.6,0.3,0.6,0.6s-0.3,0.6-0.6,0.6C99.8,390.1,99.5,389.8,99.5,389.4z M99.7,391
			h0.9v5.5h-0.9V391z"/>
		<path d="M102.3,391.7h-0.7V391h0.7v-0.4c0-1.2,0.6-1.8,2-1.8v0.8c-0.8,0-1.1,0.3-1.1,1v0.4h1.1v0.7h-1.1v4.7h-0.9V391.7z"/>
		<path d="M110.3,396.4h-0.9v-0.8c-0.4,0.6-1,0.9-1.7,0.9c-1.3,0-2.2-0.8-2.2-2.3V391h0.9v3.1c0,1.1,0.6,1.7,1.5,1.7
			c0.9,0,1.6-0.6,1.6-1.8v-3h0.9V396.4z"/>
		<path d="M114.1,390.9c1,0,1.7,0.5,2,1.1v-1h0.9v5.6c0,1.5-1,2.6-2.6,2.6c-1.4,0-2.5-0.7-2.6-1.9h0.9c0.2,0.7,0.8,1.1,1.7,1.1
			c1,0,1.7-0.6,1.7-1.8v-1.1c-0.3,0.6-1,1.1-2,1.1c-1.5,0-2.6-1.1-2.6-2.8C111.5,392,112.6,390.9,114.1,390.9z M114.3,391.7
			c-1,0-1.8,0.7-1.8,2c0,1.3,0.8,2,1.8,2c1,0,1.9-0.7,1.9-2C116.1,392.4,115.3,391.7,114.3,391.7z"/>
		<path d="M120.9,396.5c-1.6,0-2.7-1.1-2.7-2.8c0-1.7,1.1-2.8,2.7-2.8c1.6,0,2.6,1.1,2.6,2.6c0,0.2,0,0.4,0,0.5h-4.4
			c0.1,1.1,0.8,1.7,1.8,1.7c0.8,0,1.3-0.4,1.5-1h1C123.2,395.7,122.3,396.5,120.9,396.5z M119.2,393.3h3.5c0-1.1-0.8-1.7-1.7-1.7
			C120,391.6,119.3,392.2,119.2,393.3z"/>
		<path d="M129.7,390.9c1,0,1.7,0.5,2,1.1v-1h0.9v5.5h-0.9v-1c-0.3,0.6-1,1.1-2,1.1c-1.5,0-2.6-1.1-2.6-2.8
			C127.1,392,128.2,390.9,129.7,390.9z M129.9,391.7c-1,0-1.8,0.7-1.8,2c0,1.3,0.8,2,1.8,2c1,0,1.9-0.7,1.9-2
			C131.7,392.4,130.9,391.7,129.9,391.7z"/>
		<path d="M138.2,393.3c0-1.1-0.6-1.7-1.5-1.7c-0.9,0-1.6,0.6-1.6,1.8v3h-0.9V391h0.9v0.8c0.4-0.6,1-0.9,1.8-0.9
			c1.3,0,2.2,0.8,2.2,2.3v3.2h-0.9V393.3z"/>
		<path d="M142.9,390.9c0.9,0,1.6,0.4,2,1.1V389h0.9v7.4h-0.9v-1c-0.3,0.6-1,1.1-2,1.1c-1.5,0-2.6-1.1-2.6-2.8
			C140.3,392,141.4,390.9,142.9,390.9z M143,391.7c-1,0-1.8,0.7-1.8,2c0,1.3,0.8,2,1.8,2c1,0,1.9-0.7,1.9-2
			C144.9,392.4,144,391.7,143,391.7z"/>
		<path d="M153.2,389.4c1.5,0,2.7,0.8,3.2,2.1h-1.1c-0.4-0.8-1.1-1.3-2.1-1.3c-1.5,0-2.5,1.1-2.5,2.8c0,1.7,1.1,2.8,2.5,2.8
			c1,0,1.8-0.5,2.1-1.3h1.1c-0.5,1.3-1.7,2.1-3.2,2.1c-1.9,0-3.5-1.5-3.5-3.5S151.2,389.4,153.2,389.4z"/>
		<path d="M160.1,396.5c-1.5,0-2.7-1.1-2.7-2.8c0-1.7,1.2-2.8,2.8-2.8c1.6,0,2.8,1.1,2.8,2.8C162.9,395.4,161.7,396.5,160.1,396.5z
			 M160.1,395.7c0.9,0,1.9-0.6,1.9-2c0-1.4-0.9-2-1.8-2c-1,0-1.8,0.6-1.8,2C158.3,395.1,159.2,395.7,160.1,395.7z"/>
		<path d="M164.5,391l1.7,4.6l1.7-4.6h1l-2.1,5.5h-1.1l-2.1-5.5H164.5z"/>
		<path d="M172,390.9c1,0,1.7,0.5,2,1.1v-1h0.9v5.5h-0.9v-1c-0.3,0.6-1,1.1-2,1.1c-1.5,0-2.6-1.1-2.6-2.8
			C169.4,392,170.6,390.9,172,390.9z M172.2,391.7c-1,0-1.8,0.7-1.8,2c0,1.3,0.8,2,1.8,2c1,0,1.9-0.7,1.9-2
			C174.1,392.4,173.2,391.7,172.2,391.7z"/>
		<path d="M181.3,389.5h1l-2.6,7h-1l-2.6-7h1l2.2,6L181.3,389.5z"/>
		<path d="M183.3,389.5h1l2.6,5.7l2.6-5.7h1v6.9h-0.9v-5.2l-2.3,5.2h-0.6l-2.3-5.2v5.2h-0.9V389.5z"/>
		<path d="M20.8,401.5h4.7v0.7h-1.9v6.2h-0.9v-6.2h-1.9V401.5z"/>
		<path d="M26.6,401h0.9v2.7c0.4-0.6,1-0.9,1.8-0.9c1.2,0,2.2,0.8,2.2,2.3v3.2h-0.9v-3.1c0-1.1-0.6-1.7-1.5-1.7
			c-0.9,0-1.6,0.6-1.6,1.8v3h-0.9V401z"/>
		<path d="M33.9,408.4H33V403h0.9v0.9c0.3-0.6,0.9-1,1.8-1v0.9h-0.2c-0.9,0-1.5,0.4-1.5,1.7V408.4z"/>
		<path d="M39.1,408.5c-1.6,0-2.7-1.1-2.7-2.8c0-1.7,1.1-2.8,2.7-2.8c1.6,0,2.6,1.1,2.6,2.6c0,0.2,0,0.4,0,0.5h-4.4
			c0.1,1.1,0.8,1.7,1.8,1.7c0.8,0,1.3-0.4,1.5-1h1C41.4,407.7,40.5,408.5,39.1,408.5z M37.4,405.3h3.5c0-1.1-0.8-1.7-1.7-1.7
			C38.2,403.6,37.5,404.2,37.4,405.3z"/>
		<path d="M44.9,408.5c-1.3,0-2.2-0.7-2.2-1.7h0.9c0,0.5,0.5,0.9,1.3,0.9c0.7,0,1.1-0.4,1.1-0.8c0-1.2-3.2-0.5-3.2-2.5
			c0-0.8,0.8-1.5,2-1.5c1.2,0,2,0.7,2.1,1.7h-0.9c0-0.5-0.5-0.9-1.2-0.9c-0.7,0-1.1,0.3-1.1,0.8c0,1.3,3.2,0.6,3.2,2.5
			C46.9,407.8,46.1,408.5,44.9,408.5z"/>
		<path d="M48.2,401h0.9v2.7c0.4-0.6,1-0.9,1.8-0.9c1.2,0,2.2,0.8,2.2,2.3v3.2h-0.9v-3.1c0-1.1-0.6-1.7-1.5-1.7
			c-0.9,0-1.6,0.6-1.6,1.8v3h-0.9V401z"/>
		<path d="M57,408.5c-1.5,0-2.7-1.1-2.7-2.8c0-1.7,1.2-2.8,2.8-2.8c1.6,0,2.8,1.1,2.8,2.8C59.8,407.4,58.5,408.5,57,408.5z
			 M57,407.7c0.9,0,1.9-0.6,1.9-2c0-1.4-0.9-2-1.8-2c-1,0-1.8,0.6-1.8,2C55.2,407.1,56,407.7,57,407.7z"/>
		<path d="M61,401h0.9v7.4H61V401z"/>
		<path d="M65.7,402.9c0.9,0,1.6,0.4,2,1.1V401h0.9v7.4h-0.9v-1c-0.3,0.6-1,1.1-2,1.1c-1.5,0-2.6-1.1-2.6-2.8
			C63.1,404,64.2,402.9,65.7,402.9z M65.9,403.7c-1,0-1.8,0.7-1.8,2c0,1.3,0.8,2,1.8,2c1,0,1.9-0.7,1.9-2
			C67.7,404.4,66.9,403.7,65.9,403.7z"/>
		<path d="M76.6,402.2h-2.8v2.3h2.5v0.7h-2.5v2.4h2.8v0.8h-3.7v-7h3.7V402.2z"/>
		<path d="M82,405.3c0-1.1-0.6-1.7-1.5-1.7c-0.9,0-1.6,0.6-1.6,1.8v3H78V403h0.9v0.8c0.4-0.6,1-0.9,1.8-0.9c1.3,0,2.2,0.8,2.2,2.3
			v3.2H82V405.3z"/>
		<path d="M86.7,402.9c1.4,0,2.2,0.7,2.5,1.8h-1c-0.2-0.7-0.7-1.1-1.5-1.1c-1,0-1.7,0.7-1.7,2c0,1.4,0.7,2.1,1.7,2.1
			c0.8,0,1.3-0.4,1.5-1.1h1c-0.3,1.1-1.2,1.8-2.5,1.8c-1.6,0-2.7-1.1-2.7-2.8C84.1,404,85.2,402.9,86.7,402.9z"/>
		<path d="M91.4,408.4h-0.9V403h0.9v0.9c0.3-0.6,0.9-1,1.8-1v0.9h-0.2c-0.9,0-1.5,0.4-1.5,1.7V408.4z"/>
		<path d="M98,403h0.9l-3.3,8.1h-0.9l1.1-2.6l-2.2-5.4h1l1.7,4.4L98,403z"/>
		<path d="M102.8,402.9c1.5,0,2.6,1.1,2.6,2.8c0,1.7-1.1,2.8-2.6,2.8c-1,0-1.7-0.5-2-1.1v3.6h-0.9V403h0.9v1
			C101.1,403.4,101.8,402.9,102.8,402.9z M102.6,403.7c-1,0-1.9,0.8-1.9,2c0,1.3,0.9,2,1.9,2c1,0,1.9-0.8,1.9-2
			C104.5,404.4,103.6,403.7,102.6,403.7z"/>
		<path d="M106.8,403.7h-0.7V403h0.7v-1.4h0.9v1.4h1.4v0.7h-1.4v3.2c0,0.5,0.2,0.7,0.8,0.7h0.7v0.8h-0.8c-1,0-1.5-0.4-1.5-1.5V403.7
			z"/>
		<path d="M112.6,408.5c-1.6,0-2.7-1.1-2.7-2.8c0-1.7,1.1-2.8,2.7-2.8c1.6,0,2.6,1.1,2.6,2.6c0,0.2,0,0.4,0,0.5h-4.4
			c0.1,1.1,0.8,1.7,1.8,1.7c0.8,0,1.3-0.4,1.5-1h1C114.8,407.7,114,408.5,112.6,408.5z M110.8,405.3h3.5c0-1.1-0.8-1.7-1.7-1.7
			C111.7,403.6,110.9,404.2,110.8,405.3z"/>
		<path d="M118.7,402.9c0.9,0,1.6,0.4,2,1.1V401h0.9v7.4h-0.9v-1c-0.3,0.6-1,1.1-2,1.1c-1.5,0-2.6-1.1-2.6-2.8
			C116.1,404,117.2,402.9,118.7,402.9z M118.9,403.7c-1,0-1.8,0.7-1.8,2c0,1.3,0.8,2,1.8,2c1,0,1.9-0.7,1.9-2
			C120.7,404.4,119.9,403.7,118.9,403.7z"/>
		<path d="M126.8,405.3v3.2h-0.9v-7h0.9v3.2l2.9-3.2h1.1l-3.2,3.5l3.2,3.5h-1.2L126.8,405.3z"/>
		<path d="M134.2,408.5c-1.6,0-2.7-1.1-2.7-2.8c0-1.7,1.1-2.8,2.7-2.8c1.6,0,2.6,1.1,2.6,2.6c0,0.2,0,0.4,0,0.5h-4.4
			c0.1,1.1,0.8,1.7,1.8,1.7c0.8,0,1.3-0.4,1.5-1h1C136.5,407.7,135.6,408.5,134.2,408.5z M132.4,405.3h3.5c0-1.1-0.8-1.7-1.7-1.7
			C133.3,403.6,132.5,404.2,132.4,405.3z"/>
		<path d="M141.8,403h0.9l-3.3,8.1h-0.9l1.1-2.6l-2.2-5.4h1l1.7,4.4L141.8,403z"/>
		<path d="M148.6,408.5c-1.4,0-2.4-0.8-2.4-1.9h1c0.1,0.6,0.5,1.2,1.4,1.2c0.9,0,1.4-0.5,1.4-1.2c0-1.9-3.8-0.7-3.8-3.3
			c0-1.1,0.9-1.9,2.3-1.9c1.3,0,2.2,0.7,2.3,1.8h-1c-0.1-0.5-0.5-1-1.3-1c-0.7,0-1.3,0.4-1.3,1.1c0,1.8,3.8,0.7,3.8,3.3
			C150.9,407.5,150.1,408.5,148.6,408.5z"/>
		<path d="M152.4,403.7h-0.7V403h0.7v-1.4h0.9v1.4h1.4v0.7h-1.4v3.2c0,0.5,0.2,0.7,0.8,0.7h0.7v0.8h-0.8c-1,0-1.5-0.4-1.5-1.5V403.7
			z"/>
		<path d="M158.2,408.5c-1.5,0-2.7-1.1-2.7-2.8c0-1.7,1.2-2.8,2.8-2.8c1.6,0,2.8,1.1,2.8,2.8C161.1,407.4,159.8,408.5,158.2,408.5z
			 M158.2,407.7c0.9,0,1.9-0.6,1.9-2c0-1.4-0.9-2-1.8-2c-1,0-1.8,0.6-1.8,2C156.4,407.1,157.3,407.7,158.2,407.7z"/>
		<path d="M163.2,408.4h-0.9V403h0.9v0.9c0.3-0.6,0.9-1,1.8-1v0.9h-0.2c-0.9,0-1.5,0.4-1.5,1.7V408.4z"/>
		<path d="M168.2,402.9c1,0,1.7,0.5,2,1.1v-1h0.9v5.5h-0.9v-1c-0.3,0.6-1,1.1-2,1.1c-1.5,0-2.6-1.1-2.6-2.8
			C165.6,404,166.8,402.9,168.2,402.9z M168.4,403.7c-1,0-1.8,0.7-1.8,2c0,1.3,0.8,2,1.8,2c1,0,1.9-0.7,1.9-2
			C170.3,404.4,169.4,403.7,168.4,403.7z"/>
		<path d="M175,402.9c1,0,1.7,0.5,2,1.1v-1h0.9v5.6c0,1.5-1,2.6-2.6,2.6c-1.4,0-2.5-0.7-2.6-1.9h0.9c0.2,0.7,0.8,1.1,1.7,1.1
			c1,0,1.7-0.6,1.7-1.8v-1.1c-0.3,0.6-1,1.1-2,1.1c-1.5,0-2.6-1.1-2.6-2.8C172.4,404,173.5,402.9,175,402.9z M175.2,403.7
			c-1,0-1.8,0.7-1.8,2c0,1.3,0.8,2,1.8,2c1,0,1.9-0.7,1.9-2C177,404.4,176.2,403.7,175.2,403.7z"/>
		<path d="M181.9,408.5c-1.6,0-2.7-1.1-2.7-2.8c0-1.7,1.1-2.8,2.7-2.8c1.6,0,2.6,1.1,2.6,2.6c0,0.2,0,0.4,0,0.5h-4.4
			c0.1,1.1,0.8,1.7,1.8,1.7c0.8,0,1.3-0.4,1.5-1h1C184.1,407.7,183.2,408.5,181.9,408.5z M180.1,405.3h3.5c0-1.1-0.8-1.7-1.7-1.7
			C180.9,403.6,180.2,404.2,180.1,405.3z"/>
		<path d="M190.8,408.5c-1.5,0-2.7-1.1-2.7-2.8c0-1.7,1.2-2.8,2.8-2.8c1.6,0,2.8,1.1,2.8,2.8C193.6,407.4,192.3,408.5,190.8,408.5z
			 M190.8,407.7c0.9,0,1.9-0.6,1.9-2c0-1.4-0.9-2-1.8-2c-1,0-1.8,0.6-1.8,2C189,407.1,189.8,407.7,190.8,407.7z"/>
		<path d="M198.8,405.3c0-1.1-0.6-1.7-1.5-1.7c-0.9,0-1.6,0.6-1.6,1.8v3h-0.9V403h0.9v0.8c0.4-0.6,1-0.9,1.8-0.9
			c1.3,0,2.2,0.8,2.2,2.3v3.2h-0.9V405.3z"/>
		<path d="M206,401.4c1.5,0,2.7,0.8,3.2,2.1h-1.1c-0.4-0.8-1.1-1.3-2.1-1.3c-1.5,0-2.5,1.1-2.5,2.8c0,1.7,1.1,2.8,2.5,2.8
			c1,0,1.8-0.5,2.1-1.3h1.1c-0.5,1.3-1.7,2.1-3.2,2.1c-1.9,0-3.5-1.5-3.5-3.5S204.1,401.4,206,401.4z"/>
		<path d="M213.8,408.5c-2,0-3.5-1.5-3.5-3.6s1.5-3.6,3.5-3.6c2,0,3.5,1.5,3.5,3.6S215.7,408.5,213.8,408.5z M213.8,407.7
			c1.5,0,2.6-1.1,2.6-2.8c0-1.7-1.1-2.8-2.6-2.8c-1.5,0-2.6,1.1-2.6,2.8C211.2,406.6,212.3,407.7,213.8,407.7z"/>
		<path d="M223.3,401.5h1l-2.6,7h-1l-2.6-7h1l2.2,6L223.3,401.5z"/>
		<path d="M229.3,406.9h-3l-0.6,1.5h-1l2.5-6.9h1l2.5,6.9h-1L229.3,406.9z M227.8,402.6l-1.3,3.5h2.5L227.8,402.6z"/>
		<path class="st4" d="M237.5,405.1c0-0.9,0.7-1.7,1.7-1.7c0.9,0,1.7,0.7,1.7,1.7c0,0.9-0.7,1.7-1.7,1.7
			C238.3,406.8,237.5,406,237.5,405.1z"/>
	</g>
</g>
<g>
	<path d="M53.7,506.3h6.5v1.6H58v6.8H56v-6.8h-2.2V506.3z"/>
	<path d="M66.4,507.9h-3.1v1.7h2.7v1.6h-2.7v1.8h3.1v1.6h-5.2v-8.4h5.2V507.9z"/>
	<path d="M72.9,507.9h-3.1v1.7h2.7v1.6h-2.7v1.8h3.1v1.6h-5.2v-8.4h5.2V507.9z"/>
	<path d="M84.7,509h-2.3c-0.3-0.6-0.9-0.9-1.7-0.9c-1.3,0-2.2,0.9-2.2,2.4c0,1.6,0.9,2.5,2.4,2.5c1,0,1.7-0.5,2-1.5h-2.6V510h4.5
		v1.9c-0.4,1.5-1.8,2.9-4.1,2.9c-2.5,0-4.3-1.8-4.3-4.3s1.8-4.3,4.3-4.3C82.8,506.2,84.2,507.2,84.7,509z"/>
	<path d="M89,514.8c-2,0-3.5-1.3-3.5-3.4c0-2.1,1.5-3.4,3.5-3.4c2,0,3.5,1.3,3.5,3.4C92.5,513.5,91,514.8,89,514.8z M89,513
		c0.7,0,1.4-0.5,1.4-1.7c0-1.1-0.7-1.7-1.4-1.7c-0.7,0-1.4,0.5-1.4,1.7C87.6,512.5,88.3,513,89,513z"/>
	<path d="M96.3,514.8c-1.8,0-3-1-3.1-2.3h2c0,0.5,0.5,0.8,1,0.8c0.5,0,0.8-0.2,0.8-0.5c0-1.1-3.6-0.3-3.6-2.8c0-1.1,1-2.1,2.7-2.1
		c1.7,0,2.7,1,2.8,2.3h-1.9c-0.1-0.5-0.4-0.8-1-0.8c-0.5,0-0.7,0.2-0.7,0.5c0,1.1,3.6,0.3,3.7,2.8C99,513.9,98,514.8,96.3,514.8z"/>
	<path d="M103,514.8c-1.8,0-3-1-3.1-2.3h2c0,0.5,0.5,0.8,1,0.8c0.5,0,0.8-0.2,0.8-0.5c0-1.1-3.6-0.3-3.6-2.8c0-1.1,1-2.1,2.7-2.1
		c1.7,0,2.7,1,2.8,2.3h-1.9c-0.1-0.5-0.4-0.8-1-0.8c-0.5,0-0.7,0.2-0.7,0.5c0,1.1,3.6,0.3,3.7,2.8
		C105.7,513.9,104.7,514.8,103,514.8z"/>
	<path d="M106.8,506.2c0-0.6,0.5-1.1,1.2-1.1c0.7,0,1.2,0.5,1.2,1.1c0,0.6-0.5,1.1-1.2,1.1C107.3,507.3,106.8,506.8,106.8,506.2z
		 M107,508h2.1v6.7H107V508z"/>
	<path d="M114.6,507.9c1.6,0,3,1.3,3,3.4c0,2.1-1.3,3.5-3,3.5c-1,0-1.7-0.5-2.1-1v4.1h-2.1V508h2.1v0.9
		C113,508.4,113.7,507.9,114.6,507.9z M114,509.7c-0.8,0-1.5,0.6-1.5,1.7s0.7,1.7,1.5,1.7c0.8,0,1.5-0.6,1.5-1.7
		S114.8,509.7,114,509.7z"/>
	<path d="M128.8,506.3v8.4h-2.1l-3.4-5.2v5.2h-2.1v-8.4h2.1l3.4,5.2v-5.2H128.8z"/>
	<path d="M133.2,514.8c-2,0-3.4-1.3-3.4-3.4c0-2.1,1.4-3.4,3.4-3.4c2,0,3.3,1.3,3.3,3.3c0,0.2,0,0.4,0,0.6h-4.6
		c0.1,0.9,0.6,1.3,1.3,1.3c0.6,0,0.9-0.3,1.1-0.6h2.2C136.1,513.8,134.9,514.8,133.2,514.8z M131.9,510.7h2.6c0-0.7-0.6-1.2-1.3-1.2
		C132.5,509.6,132,510,131.9,510.7z"/>
	<path d="M138,509.7h-0.8V508h0.8v-1.6h2.1v1.6h1.3v1.7H140v2.7c0,0.4,0.2,0.6,0.6,0.6h0.7v1.7h-1c-1.4,0-2.4-0.6-2.4-2.3V509.7z"/>
	<path d="M141.8,508h2.1l0.9,4.8l1.1-4.8h2.2l1.1,4.8l0.9-4.8h1.9l-1.8,6.7H148l-1.1-4.3l-1.1,4.3h-2.3L141.8,508z"/>
	<path d="M155.9,514.8c-2,0-3.5-1.3-3.5-3.4c0-2.1,1.5-3.4,3.5-3.4c2,0,3.5,1.3,3.5,3.4C159.4,513.5,157.9,514.8,155.9,514.8z
		 M155.9,513c0.7,0,1.4-0.5,1.4-1.7c0-1.1-0.7-1.7-1.4-1.7c-0.7,0-1.4,0.5-1.4,1.7C154.6,512.5,155.2,513,155.9,513z"/>
	<path d="M162.6,514.7h-2.1V508h2.1v1.1c0.5-0.7,1.2-1.2,2.1-1.2v2.2h-0.6c-1,0-1.5,0.3-1.5,1.5V514.7z"/>
	<path d="M165.7,505.8h2.1v4.9l2-2.7h2.5l-2.8,3.4l2.8,3.3h-2.5l-2-2.8v2.8h-2.1V505.8z"/>
	<path d="M177.7,506.3v6.8h2.7v1.6h-4.7v-8.4H177.7z"/>
	<path d="M183.9,507.9c1,0,1.7,0.5,2.1,1V508h2.1v6.7H186v-0.9c-0.4,0.6-1.1,1-2.1,1c-1.6,0-2.9-1.3-2.9-3.5
		C181,509.2,182.3,507.9,183.9,507.9z M184.5,509.7c-0.8,0-1.5,0.6-1.5,1.6s0.7,1.7,1.5,1.7c0.8,0,1.5-0.6,1.5-1.7
		S185.3,509.7,184.5,509.7z"/>
	<path d="M194.1,508h2.2l-4.2,9.9h-2.2l1.5-3.4l-2.7-6.5h2.3l1.5,4.2L194.1,508z"/>
	<path d="M200.1,514.8c-2,0-3.4-1.3-3.4-3.4c0-2.1,1.4-3.4,3.4-3.4c2,0,3.3,1.3,3.3,3.3c0,0.2,0,0.4,0,0.6h-4.6
		c0.1,0.9,0.6,1.3,1.3,1.3c0.6,0,0.9-0.3,1.1-0.6h2.2C202.9,513.8,201.7,514.8,200.1,514.8z M198.7,510.7h2.6c0-0.7-0.6-1.2-1.3-1.2
		C199.4,509.6,198.9,510,198.7,510.7z"/>
	<path d="M206.5,514.7h-2.1V508h2.1v1.1c0.5-0.7,1.2-1.2,2.1-1.2v2.2h-0.6c-1,0-1.5,0.3-1.5,1.5V514.7z"/>
</g>
<g>
	<g>
		<path d="M60.2,532.6h-1.3v2.9h-0.9v-7h2.2c1.6,0,2.4,0.9,2.4,2C62.6,531.6,61.9,532.6,60.2,532.6z M60.2,531.8
			c1,0,1.5-0.5,1.5-1.3c0-0.8-0.4-1.3-1.5-1.3h-1.3v2.6H60.2z"/>
		<path d="M66.1,535.6c-1.6,0-2.7-1.1-2.7-2.8c0-1.7,1.1-2.8,2.7-2.8c1.6,0,2.6,1.1,2.6,2.6c0,0.2,0,0.4,0,0.5h-4.4
			c0.1,1.1,0.8,1.7,1.8,1.7c0.8,0,1.3-0.4,1.5-1h1C68.3,534.8,67.4,535.6,66.1,535.6z M64.3,532.3h3.5c0-1.1-0.8-1.7-1.7-1.7
			C65.2,530.7,64.4,531.3,64.3,532.3z"/>
		<path d="M70.8,535.5h-0.9V530h0.9v0.9c0.3-0.6,0.9-1,1.8-1v0.9h-0.2c-0.9,0-1.5,0.4-1.5,1.7V535.5z"/>
		<path d="M75.6,535.6c-1.3,0-2.2-0.7-2.2-1.7h0.9c0,0.5,0.5,0.9,1.3,0.9c0.7,0,1.1-0.4,1.1-0.8c0-1.2-3.2-0.5-3.2-2.5
			c0-0.8,0.8-1.5,2-1.5c1.2,0,2,0.7,2.1,1.7h-0.9c0-0.5-0.5-0.9-1.2-0.9c-0.7,0-1.1,0.3-1.1,0.8c0,1.3,3.2,0.6,3.2,2.5
			C77.6,534.9,76.8,535.6,75.6,535.6z"/>
		<path d="M78.7,528.5c0-0.3,0.3-0.6,0.6-0.6c0.3,0,0.6,0.3,0.6,0.6s-0.3,0.6-0.6,0.6C79,529.1,78.7,528.8,78.7,528.5z M78.9,530
			h0.9v5.5h-0.9V530z"/>
		<path d="M83.3,535.6c-1.3,0-2.2-0.7-2.2-1.7H82c0,0.5,0.5,0.9,1.3,0.9c0.7,0,1.1-0.4,1.1-0.8c0-1.2-3.2-0.5-3.2-2.5
			c0-0.8,0.8-1.5,2-1.5c1.2,0,2,0.7,2.1,1.7h-0.9c0-0.5-0.5-0.9-1.2-0.9c-0.7,0-1.1,0.3-1.1,0.8c0,1.3,3.2,0.6,3.2,2.5
			C85.3,534.9,84.5,535.6,83.3,535.6z"/>
		<path d="M86.7,530.7H86V530h0.7v-1.4h0.9v1.4h1.4v0.7h-1.4v3.2c0,0.5,0.2,0.7,0.8,0.7h0.7v0.8h-0.8c-1,0-1.5-0.4-1.5-1.5V530.7z"
			/>
		<path d="M92.6,535.6c-1.6,0-2.7-1.1-2.7-2.8c0-1.7,1.1-2.8,2.7-2.8c1.6,0,2.6,1.1,2.6,2.6c0,0.2,0,0.4,0,0.5h-4.4
			c0.1,1.1,0.8,1.7,1.8,1.7c0.8,0,1.3-0.4,1.5-1h1C94.8,534.8,93.9,535.6,92.6,535.6z M90.8,532.3h3.5c0-1.1-0.8-1.7-1.7-1.7
			C91.6,530.7,90.9,531.3,90.8,532.3z"/>
		<path d="M100.4,532.4c0-1.1-0.6-1.7-1.5-1.7c-0.9,0-1.6,0.6-1.6,1.8v3h-0.9V530h0.9v0.8c0.4-0.6,1-0.9,1.8-0.9
			c1.3,0,2.2,0.8,2.2,2.3v3.2h-0.9V532.4z"/>
		<path d="M103,530.7h-0.7V530h0.7v-1.4h0.9v1.4h1.4v0.7h-1.4v3.2c0,0.5,0.2,0.7,0.8,0.7h0.7v0.8h-0.8c-1,0-1.5-0.4-1.5-1.5V530.7z"
			/>
		<path d="M111.4,529.9c1,0,1.7,0.5,2,1.1v-1h0.9v5.5h-0.9v-1c-0.3,0.6-1,1.1-2,1.1c-1.5,0-2.6-1.1-2.6-2.8
			C108.8,531,109.9,529.9,111.4,529.9z M111.5,530.7c-1,0-1.8,0.7-1.8,2c0,1.3,0.8,2,1.8,2c1,0,1.9-0.7,1.9-2
			C113.4,531.4,112.5,530.7,111.5,530.7z"/>
		<path d="M119.9,532.4c0-1.1-0.6-1.7-1.5-1.7c-0.9,0-1.6,0.6-1.6,1.8v3h-0.9V530h0.9v0.8c0.4-0.6,1-0.9,1.8-0.9
			c1.3,0,2.2,0.8,2.2,2.3v3.2h-0.9V532.4z"/>
		<path d="M124.5,529.9c0.9,0,1.6,0.4,2,1.1v-2.9h0.9v7.4h-0.9v-1c-0.3,0.6-1,1.1-2,1.1c-1.5,0-2.6-1.1-2.6-2.8
			C121.9,531,123,529.9,124.5,529.9z M124.7,530.7c-1,0-1.8,0.7-1.8,2c0,1.3,0.8,2,1.8,2c1,0,1.9-0.7,1.9-2
			C126.6,531.4,125.7,530.7,124.7,530.7z"/>
		<path d="M134.6,529.9c1.5,0,2.6,1.1,2.6,2.8c0,1.7-1.1,2.8-2.6,2.8c-1,0-1.7-0.5-2-1.1v3.6h-0.9V530h0.9v1
			C132.9,530.4,133.6,529.9,134.6,529.9z M134.5,530.7c-1,0-1.9,0.8-1.9,2c0,1.3,0.9,2,1.9,2c1,0,1.9-0.8,1.9-2
			C136.3,531.4,135.5,530.7,134.5,530.7z"/>
		<path d="M140.8,535.6c-1.6,0-2.7-1.1-2.7-2.8c0-1.7,1.1-2.8,2.7-2.8c1.6,0,2.6,1.1,2.6,2.6c0,0.2,0,0.4,0,0.5H139
			c0.1,1.1,0.8,1.7,1.8,1.7c0.8,0,1.3-0.4,1.5-1h1C143.1,534.8,142.2,535.6,140.8,535.6z M139,532.3h3.5c0-1.1-0.8-1.7-1.7-1.7
			C139.9,530.7,139.1,531.3,139,532.3z"/>
		<path d="M145.6,535.5h-0.9V530h0.9v0.9c0.3-0.6,0.9-1,1.8-1v0.9h-0.2c-0.9,0-1.5,0.4-1.5,1.7V535.5z"/>
		<path d="M156.3,532.4c0-1.1-0.6-1.7-1.5-1.7c-0.9,0-1.5,0.6-1.5,1.8v3h-0.9v-3.1c0-1.1-0.6-1.7-1.5-1.7c-0.9,0-1.5,0.6-1.5,1.8v3
			h-0.9V530h0.9v0.8c0.4-0.6,1-0.9,1.7-0.9c0.9,0,1.6,0.4,2,1.2c0.3-0.8,1.1-1.2,1.9-1.2c1.2,0,2.2,0.8,2.2,2.3v3.2h-0.9V532.4z"/>
		<path d="M158.5,528.5c0-0.3,0.3-0.6,0.6-0.6c0.3,0,0.6,0.3,0.6,0.6s-0.3,0.6-0.6,0.6C158.8,529.1,158.5,528.8,158.5,528.5z
			 M158.7,530h0.9v5.5h-0.9V530z"/>
		<path d="M163.1,535.6c-1.3,0-2.2-0.7-2.2-1.7h0.9c0,0.5,0.5,0.9,1.3,0.9c0.7,0,1.1-0.4,1.1-0.8c0-1.2-3.2-0.5-3.2-2.5
			c0-0.8,0.8-1.5,2-1.5c1.2,0,2,0.7,2.1,1.7h-0.9c0-0.5-0.5-0.9-1.2-0.9c-0.7,0-1.1,0.3-1.1,0.8c0,1.3,3.2,0.6,3.2,2.5
			C165.1,534.9,164.3,535.6,163.1,535.6z"/>
		<path d="M168.3,535.6c-1.3,0-2.2-0.7-2.2-1.7h0.9c0,0.5,0.5,0.9,1.3,0.9c0.7,0,1.1-0.4,1.1-0.8c0-1.2-3.2-0.5-3.2-2.5
			c0-0.8,0.8-1.5,2-1.5c1.2,0,2,0.7,2.1,1.7h-0.9c0-0.5-0.5-0.9-1.2-0.9c-0.7,0-1.1,0.3-1.1,0.8c0,1.3,3.2,0.6,3.2,2.5
			C170.3,534.9,169.5,535.6,168.3,535.6z"/>
		<path d="M171.4,528.5c0-0.3,0.3-0.6,0.6-0.6c0.3,0,0.6,0.3,0.6,0.6s-0.3,0.6-0.6,0.6C171.7,529.1,171.4,528.8,171.4,528.5z
			 M171.6,530h0.9v5.5h-0.9V530z"/>
		<path d="M176.4,535.6c-1.5,0-2.7-1.1-2.7-2.8c0-1.7,1.2-2.8,2.8-2.8c1.6,0,2.8,1.1,2.8,2.8C179.2,534.5,178,535.6,176.4,535.6z
			 M176.4,534.8c0.9,0,1.9-0.6,1.9-2c0-1.4-0.9-2-1.8-2c-1,0-1.8,0.6-1.8,2C174.6,534.1,175.5,534.8,176.4,534.8z"/>
		<path d="M184.4,532.4c0-1.1-0.6-1.7-1.5-1.7c-0.9,0-1.6,0.6-1.6,1.8v3h-0.9V530h0.9v0.8c0.4-0.6,1-0.9,1.8-0.9
			c1.3,0,2.2,0.8,2.2,2.3v3.2h-0.9V532.4z"/>
		<path d="M186.8,528.1h0.9v7.4h-0.9V528.1z"/>
		<path d="M191.7,535.6c-1.6,0-2.7-1.1-2.7-2.8c0-1.7,1.1-2.8,2.7-2.8c1.6,0,2.6,1.1,2.6,2.6c0,0.2,0,0.4,0,0.5h-4.4
			c0.1,1.1,0.8,1.7,1.8,1.7c0.8,0,1.3-0.4,1.5-1h1C193.9,534.8,193,535.6,191.7,535.6z M189.9,532.3h3.5c0-1.1-0.8-1.7-1.7-1.7
			C190.7,530.7,190,531.3,189.9,532.3z"/>
		<path d="M197.4,535.6c-1.3,0-2.2-0.7-2.2-1.7h0.9c0,0.5,0.5,0.9,1.3,0.9c0.7,0,1.1-0.4,1.1-0.8c0-1.2-3.2-0.5-3.2-2.5
			c0-0.8,0.8-1.5,2-1.5c1.2,0,2,0.7,2.1,1.7h-0.9c0-0.5-0.5-0.9-1.2-0.9c-0.7,0-1.1,0.3-1.1,0.8c0,1.3,3.2,0.6,3.2,2.5
			C199.4,534.9,198.6,535.6,197.4,535.6z"/>
		<path d="M202.7,535.6c-1.3,0-2.2-0.7-2.2-1.7h0.9c0,0.5,0.5,0.9,1.3,0.9c0.7,0,1.1-0.4,1.1-0.8c0-1.2-3.2-0.5-3.2-2.5
			c0-0.8,0.8-1.5,2-1.5c1.2,0,2,0.7,2.1,1.7h-0.9c0-0.5-0.5-0.9-1.2-0.9c-0.7,0-1.1,0.3-1.1,0.8c0,1.3,3.2,0.6,3.2,2.5
			C204.7,534.9,203.9,535.6,202.7,535.6z"/>
		<path d="M85.5,541.9c1.4,0,2.2,0.7,2.5,1.8h-1c-0.2-0.7-0.7-1.1-1.5-1.1c-1,0-1.7,0.7-1.7,2c0,1.4,0.7,2.1,1.7,2.1
			c0.8,0,1.3-0.4,1.5-1.1h1c-0.3,1.1-1.2,1.8-2.5,1.8c-1.6,0-2.7-1.1-2.7-2.8C82.8,543,83.9,541.9,85.5,541.9z"/>
		<path d="M91.6,547.6c-1.5,0-2.7-1.1-2.7-2.8c0-1.7,1.2-2.8,2.8-2.8c1.6,0,2.8,1.1,2.8,2.8C94.4,546.5,93.2,547.6,91.6,547.6z
			 M91.6,546.8c0.9,0,1.9-0.6,1.9-2c0-1.4-0.9-2-1.8-2c-1,0-1.8,0.6-1.8,2C89.8,546.1,90.7,546.8,91.6,546.8z"/>
		<path d="M103.5,544.4c0-1.1-0.6-1.7-1.5-1.7c-0.9,0-1.5,0.6-1.5,1.8v3h-0.9v-3.1c0-1.1-0.6-1.7-1.5-1.7c-0.9,0-1.5,0.6-1.5,1.8v3
			h-0.9V542h0.9v0.8c0.4-0.6,1-0.9,1.7-0.9c0.9,0,1.6,0.4,2,1.2c0.3-0.8,1.1-1.2,1.9-1.2c1.3,0,2.2,0.8,2.2,2.3v3.2h-0.9V544.4z"/>
		<path d="M108.9,541.9c1.5,0,2.6,1.1,2.6,2.8c0,1.7-1.1,2.8-2.6,2.8c-1,0-1.7-0.5-2-1.1v3.6h-0.9V542h0.9v1
			C107.2,542.4,107.9,541.9,108.9,541.9z M108.7,542.7c-1,0-1.9,0.8-1.9,2c0,1.3,0.9,2,1.9,2c1,0,1.9-0.8,1.9-2
			C110.5,543.4,109.7,542.7,108.7,542.7z"/>
		<path d="M117.5,547.5h-0.9v-0.8c-0.4,0.6-1,0.9-1.7,0.9c-1.3,0-2.2-0.8-2.2-2.3V542h0.9v3.1c0,1.1,0.6,1.7,1.5,1.7
			c0.9,0,1.6-0.6,1.6-1.8v-3h0.9V547.5z"/>
		<path d="M119.3,542.7h-0.7V542h0.7v-1.4h0.9v1.4h1.4v0.7h-1.4v3.2c0,0.5,0.2,0.7,0.8,0.7h0.7v0.8h-0.8c-1,0-1.5-0.4-1.5-1.5V542.7
			z"/>
		<path d="M122.6,540.5c0-0.3,0.3-0.6,0.6-0.6c0.3,0,0.6,0.3,0.6,0.6s-0.3,0.6-0.6,0.6C122.8,541.1,122.6,540.8,122.6,540.5z
			 M122.7,542h0.9v5.5h-0.9V542z"/>
		<path d="M129.2,544.4c0-1.1-0.6-1.7-1.5-1.7c-0.9,0-1.6,0.6-1.6,1.8v3h-0.9V542h0.9v0.8c0.4-0.6,1-0.9,1.8-0.9
			c1.3,0,2.2,0.8,2.2,2.3v3.2h-0.9V544.4z"/>
		<path d="M133.8,541.9c1,0,1.7,0.5,2,1.1v-1h0.9v5.6c0,1.5-1,2.6-2.6,2.6c-1.4,0-2.5-0.7-2.6-1.9h0.9c0.2,0.7,0.8,1.1,1.7,1.1
			c1,0,1.7-0.6,1.7-1.8v-1.1c-0.3,0.6-1,1.1-2,1.1c-1.5,0-2.6-1.1-2.6-2.8C131.2,543,132.4,541.9,133.8,541.9z M134,542.7
			c-1,0-1.8,0.7-1.8,2c0,1.3,0.8,2,1.8,2c1,0,1.9-0.7,1.9-2C135.9,543.4,135,542.7,134,542.7z"/>
		<path d="M145,544.4c0-1.1-0.6-1.7-1.5-1.7c-0.9,0-1.6,0.6-1.6,1.8v3H141V542h0.9v0.8c0.4-0.6,1-0.9,1.8-0.9c1.3,0,2.2,0.8,2.2,2.3
			v3.2H145V544.4z"/>
		<path d="M149.8,547.6c-1.6,0-2.7-1.1-2.7-2.8c0-1.7,1.1-2.8,2.7-2.8c1.6,0,2.6,1.1,2.6,2.6c0,0.2,0,0.4,0,0.5H148
			c0.1,1.1,0.8,1.7,1.8,1.7c0.8,0,1.3-0.4,1.5-1h1C152,546.8,151.1,547.6,149.8,547.6z M148,544.3h3.5c0-1.1-0.8-1.7-1.7-1.7
			C148.8,542.7,148.1,543.3,148,544.3z"/>
		<path d="M153.8,542.7h-0.7V542h0.7v-1.4h0.9v1.4h1.4v0.7h-1.4v3.2c0,0.5,0.2,0.7,0.8,0.7h0.7v0.8h-0.8c-1,0-1.5-0.4-1.5-1.5V542.7
			z"/>
		<path d="M156.6,542h0.9l1.3,4.6l1.4-4.6h0.9l1.3,4.6l1.2-4.6h0.9l-1.7,5.5h-0.9l-1.3-4.3l-1.3,4.3h-0.9L156.6,542z"/>
		<path d="M167.8,547.6c-1.5,0-2.7-1.1-2.7-2.8c0-1.7,1.2-2.8,2.8-2.8c1.6,0,2.8,1.1,2.8,2.8C170.6,546.5,169.4,547.6,167.8,547.6z
			 M167.8,546.8c0.9,0,1.9-0.6,1.9-2c0-1.4-0.9-2-1.8-2c-1,0-1.8,0.6-1.8,2C166,546.1,166.9,546.8,167.8,546.8z"/>
		<path d="M172.8,547.5h-0.9V542h0.9v0.9c0.3-0.6,0.9-1,1.8-1v0.9h-0.2c-0.9,0-1.5,0.4-1.5,1.7V547.5z"/>
		<path d="M175.6,540.1h0.9v4.3l2.1-2.4h1.3l-2.6,2.7l2.6,2.7h-1.2l-2.1-2.4v2.4h-0.9V540.1z"/>
	</g>
</g>
<g>
	<path class="st5" d="M149.9,324h-8.5c-0.3,0-0.6,0.3-0.6,0.6s0.3,0.6,0.6,0.6h8.5c0.4,0,0.7,0.3,0.7,0.7v23.3
		c0,0.4-0.3,0.7-0.7,0.7h-37.5c-0.4,0-0.7-0.3-0.7-0.7v-23.3c0-0.4,0.3-0.7,0.7-0.7h13.3v1.2h-12.1c-0.3,0-0.6,0.3-0.6,0.6v16
		c0,0.3,0.3,0.6,0.6,0.6c0.3,0,0.6-0.3,0.6-0.6v-15.4h11.5v3.2l-2.6,1.2c-0.2,0.1-0.3,0.3-0.3,0.5v9.9c0,0.2,0.1,0.4,0.3,0.5
		l7.8,3.7c0.2,0.1,0.4,0.1,0.5,0l4.4-2.1c0.3-0.1,0.4-0.5,0.3-0.8c-0.1-0.3-0.5-0.4-0.8-0.3l-3.5,1.7v-8.5l6.6-3.2v8.5l-0.9,0.4
		c-0.3,0.1-0.4,0.5-0.3,0.8c0.1,0.3,0.5,0.4,0.8,0.3l1.2-0.6c0.2-0.1,0.3-0.3,0.3-0.5v-9.9c0-0.2-0.1-0.4-0.3-0.5l-2.6-1.2v-3.2
		h11.5v19.7h-34v-1.8c0-0.3-0.3-0.6-0.6-0.6c-0.3,0-0.6,0.3-0.6,0.6v2.4c0,0.3,0.3,0.6,0.6,0.6h35.2c0.3,0,0.6-0.3,0.6-0.6v-21
		c0-0.3-0.3-0.6-0.6-0.6h-12.1v-1.2h2.2c0.3,0,0.6-0.3,0.6-0.6s-0.3-0.6-0.6-0.6h-2.2v-1.2h5.4c0.3,0,0.6-0.3,0.6-0.6v-1.4
		c0.7-0.2,1.2-0.9,1.2-1.7c0-1-0.8-1.8-1.8-1.8c-1,0-1.8,0.8-1.8,1.8c0,0.8,0.5,1.5,1.2,1.7v0.8H136c-0.3,0-0.6,0.3-0.6,0.6v1.8
		h-3.7v-3.2c0.7-0.2,1.2-0.9,1.2-1.7c0-1-0.8-1.8-1.8-1.8s-1.8,0.8-1.8,1.8c0,0.8,0.5,1.5,1.2,1.7v3.2h-3.7v-1.8
		c0-0.3-0.3-0.6-0.6-0.6h-5.4v-0.8c0.7-0.2,1.2-0.9,1.2-1.7c0-1-0.8-1.8-1.8-1.8c-1,0-1.8,0.8-1.8,1.8c0,0.8,0.5,1.5,1.2,1.7v1.4
		c0,0.3,0.3,0.6,0.6,0.6h5.4v1.2h-13.3c-1,0-1.9,0.8-1.9,1.9v23.3c0,1,0.8,1.9,1.9,1.9h13.1c-0.2,2.2-1.7,3.5-2.2,3.9h-2.6
		c-1,0-1.8,0.8-1.8,1.8s0.8,1.8,1.8,1.8h20.8c1,0,1.8-0.8,1.8-1.8s-0.8-1.8-1.8-1.8H139c-0.5-0.4-1.9-1.7-2.2-3.9h13.1
		c1,0,1.9-0.8,1.9-1.9v-23.3C151.8,324.8,151,324,149.9,324L149.9,324z M142.1,318.4c0.3,0,0.6,0.3,0.6,0.6s-0.3,0.6-0.6,0.6
		s-0.6-0.3-0.6-0.6S141.7,318.4,142.1,318.4L142.1,318.4z M131.2,318.4c0.3,0,0.6,0.3,0.6,0.6s-0.3,0.6-0.6,0.6s-0.6-0.3-0.6-0.6
		S130.8,318.4,131.2,318.4L131.2,318.4z M120.3,318.4c0.3,0,0.6,0.3,0.6,0.6s-0.3,0.6-0.6,0.6s-0.6-0.3-0.6-0.6
		S119.9,318.4,120.3,318.4L120.3,318.4z M126.9,327.6h3.7v0.9l-3.7,1.8V327.6z M137.6,332.6l-6.4,3.1l-6.4-3.1l6.4-3.1L137.6,332.6z
		 M123.9,333.6l6.6,3.2v8.5l-6.6-3.2V333.6z M135.4,330.3l-3.7-1.8v-0.9h3.7V330.3z M135.4,325.2v1.2h-3.7v-1.2H135.4z M130.6,325.2
		v1.2h-3.7v-1.2H130.6z M142.2,356.7c0,0.3-0.3,0.6-0.6,0.6h-20.8c-0.3,0-0.6-0.3-0.6-0.6s0.3-0.6,0.6-0.6h20.8
		C141.9,356.1,142.2,356.3,142.2,356.7L142.2,356.7z M137.3,354.8h-12.2c0.7-0.8,1.5-2.1,1.6-3.9h8.9
		C135.8,352.7,136.6,354,137.3,354.8L137.3,354.8z M137.3,354.8"/>
</g>
<g>
	<g>
		<g>
			<path class="st5" d="M131.2,285.3c-0.5,0-0.8,0.1-0.8,0.3v17.1c0.3,0,0.6,0,0.8,0c0.3,0,0.6,0,0.8,0v-17.1
				C132,285.5,131.6,285.3,131.2,285.3z"/>
			<path class="st5" d="M131.2,299.6c-0.3,0-0.7,0-1,0.1c-1.5,0.4-2.6,1.8-2.6,3.4c0,2,1.6,3.6,3.6,3.6c2,0,3.6-1.6,3.6-3.6
				c0-1.6-1.1-3-2.6-3.4C131.8,299.6,131.5,299.6,131.2,299.6z"/>
			<path class="st5" d="M131.2,281.8c-0.3,0-0.7,0-1,0.1c-1.5,0.4-2.6,1.8-2.6,3.4c0,2,1.6,3.6,3.6,3.6c2,0,3.6-1.6,3.6-3.6
				c0-1.6-1.1-3-2.6-3.4C131.8,281.8,131.5,281.8,131.2,281.8z"/>
		</g>
	</g>
</g>
<g>
	<g>
		<g>
			<path class="st3" d="M131.2,425.2c-0.5,0-0.8,0.1-0.8,0.3v17.1c0.3,0,0.6,0,0.8,0c0.3,0,0.6,0,0.8,0v-17.1
				C132,425.4,131.6,425.2,131.2,425.2z"/>
			<path class="st3" d="M131.2,439.4c-0.3,0-0.7,0-1,0.1c-1.5,0.4-2.6,1.8-2.6,3.4c0,2,1.6,3.6,3.6,3.6c2,0,3.6-1.6,3.6-3.6
				c0-1.6-1.1-3-2.6-3.4C131.8,439.5,131.5,439.4,131.2,439.4z"/>
			<path class="st3" d="M131.2,421.7c-0.3,0-0.7,0-1,0.1c-1.5,0.4-2.6,1.8-2.6,3.4c0,2,1.6,3.6,3.6,3.6c2,0,3.6-1.6,3.6-3.6
				c0-1.6-1.1-3-2.6-3.4C131.8,421.7,131.5,421.7,131.2,421.7z"/>
		</g>
	</g>
</g>
</svg>
