<svg xmlns="http://www.w3.org/2000/svg" viewBox="0 0 837.24 241.4">
  <title>layers</title>
  <g id="purple_info">
    <g>
      <g>
        <path d="M441.61,160.63h4.72v1.19h-1.62v4.9h-1.48v-4.9h-1.62Z" transform="translate(-6.62 -10.52)"/>
        <path d="M450.81,161.82h-2.25v1.23h2v1.15h-2v1.33h2.25v1.19h-3.74v-6.09h3.74Z" transform="translate(-6.62 -10.52)"/>
        <path d="M455.51,161.82h-2.25v1.23h2v1.15h-2v1.33h2.25v1.19h-3.74v-6.09h3.74Z" transform="translate(-6.62 -10.52)"/>
        <path d="M464,162.55h-1.64a1.3,1.3,0,0,0-1.2-.62,1.57,1.57,0,0,0-1.59,1.74,1.6,1.6,0,0,0,1.71,1.78,1.47,1.47,0,0,0,1.48-1.07h-1.89v-1.1h3.23v1.38a3.1,3.1,0,1,1-2.94-4.1A2.7,2.7,0,0,1,464,162.55Z" transform="translate(-6.62 -10.52)"/>
        <path d="M467.13,166.79a2.49,2.49,0,1,1,2.54-2.49A2.4,2.4,0,0,1,467.13,166.79Zm0-1.28a1.06,1.06,0,0,0,1-1.21c0-.83-.49-1.21-1-1.21s-1,.38-1,1.21S466.59,165.51,467.13,165.51Z" transform="translate(-6.62 -10.52)"/>
        <path d="M472.43,166.79a2,2,0,0,1-2.23-1.66h1.46a.69.69,0,0,0,.75.57c.38,0,.58-.18.58-.39,0-.78-2.64-.22-2.64-2,0-.83.71-1.5,2-1.5a1.82,1.82,0,0,1,2,1.65H473a.63.63,0,0,0-.71-.55c-.35,0-.54.14-.54.37,0,.78,2.62.23,2.65,2C474.39,166.16,473.64,166.79,472.43,166.79Z" transform="translate(-6.62 -10.52)"/>
        <path d="M477.27,166.79a2,2,0,0,1-2.23-1.66h1.47a.69.69,0,0,0,.75.57c.38,0,.58-.18.58-.39,0-.78-2.64-.22-2.64-2,0-.83.7-1.5,2-1.5a1.83,1.83,0,0,1,2,1.65h-1.37a.64.64,0,0,0-.71-.55c-.35,0-.54.14-.54.37,0,.78,2.62.23,2.65,2C479.24,166.16,478.49,166.79,477.27,166.79Z" transform="translate(-6.62 -10.52)"/>
        <path d="M480,160.57a.88.88,0,1,1,.88.8A.81.81,0,0,1,480,160.57Zm.14,1.31h1.48v4.84h-1.48Z" transform="translate(-6.62 -10.52)"/>
        <path d="M485.69,161.81a2.52,2.52,0,0,1,0,5,1.76,1.76,0,0,1-1.5-.75v3h-1.48v-7.15h1.48v.68A1.73,1.73,0,0,1,485.69,161.81Zm-.45,1.29a1.21,1.21,0,0,0,0,2.4,1.1,1.1,0,0,0,1.07-1.21A1.08,1.08,0,0,0,485.24,163.1Z" transform="translate(-6.62 -10.52)"/>
        <path d="M495.9,160.63v6.09h-1.49L491.93,163v3.76h-1.48v-6.09h1.48l2.48,3.77v-3.77Z" transform="translate(-6.62 -10.52)"/>
        <path d="M499.13,166.79a2.49,2.49,0,0,1,0-5,2.28,2.28,0,0,1,2.41,2.41c0,.14,0,.29,0,.44h-3.36a.89.89,0,0,0,.92.92.79.79,0,0,0,.77-.46h1.58A2.26,2.26,0,0,1,499.13,166.79Zm-1-3H500a.83.83,0,0,0-.91-.83A.91.91,0,0,0,498.17,163.83Z" transform="translate(-6.62 -10.52)"/>
        <path d="M502.56,163.11H502v-1.23h.59V160.7H504v1.18h1v1.23h-1v1.94c0,.29.13.41.46.41H505v1.26h-.75a1.49,1.49,0,0,1-1.71-1.68Z" transform="translate(-6.62 -10.52)"/>
        <path d="M505.35,161.88h1.48l.69,3.46.81-3.46h1.57l.83,3.44.68-3.44h1.39l-1.31,4.84h-1.64l-.76-3.14-.79,3.14h-1.63Z" transform="translate(-6.62 -10.52)"/>
        <path d="M515.57,166.79a2.49,2.49,0,1,1,2.54-2.49A2.4,2.4,0,0,1,515.57,166.79Zm0-1.28a1.06,1.06,0,0,0,1-1.21c0-.83-.49-1.21-1-1.21s-1,.38-1,1.21S515,165.51,515.57,165.51Z" transform="translate(-6.62 -10.52)"/>
        <path d="M520.39,166.72H518.9v-4.84h1.49v.8a1.78,1.78,0,0,1,1.51-.85v1.57h-.4c-.71,0-1.11.24-1.11,1.07Z" transform="translate(-6.62 -10.52)"/>
        <path d="M522.62,160.3h1.48v3.55l1.47-2h1.83l-2,2.43,2,2.41h-1.84l-1.48-2v2h-1.48Z" transform="translate(-6.62 -10.52)"/>
        <path d="M531.31,160.63v5h1.94v1.14h-3.43v-6.09Z" transform="translate(-6.62 -10.52)"/>
        <path d="M535.81,161.81a1.69,1.69,0,0,1,1.49.75v-.68h1.49v4.84H537.3V166a1.72,1.72,0,0,1-1.5.75,2.52,2.52,0,0,1,0-5Zm.43,1.29a1.08,1.08,0,0,0-1.06,1.19,1.1,1.1,0,0,0,1.06,1.21,1.21,1.21,0,0,0,0-2.4Z" transform="translate(-6.62 -10.52)"/>
        <path d="M543.2,161.88h1.61l-3,7.14h-1.6l1.12-2.46-2-4.68H541l1.12,3Z" transform="translate(-6.62 -10.52)"/>
        <path d="M547.5,166.79a2.49,2.49,0,0,1,0-5,2.29,2.29,0,0,1,2.42,2.41,3.37,3.37,0,0,1,0,.44h-3.36a.89.89,0,0,0,.92.92.78.78,0,0,0,.77-.46h1.58A2.26,2.26,0,0,1,547.5,166.79Zm-1-3h1.86a.84.84,0,0,0-.92-.83A.91.91,0,0,0,546.54,163.83Z" transform="translate(-6.62 -10.52)"/>
        <path d="M552.18,166.72H550.7v-4.84h1.48v.8a1.81,1.81,0,0,1,1.52-.85v1.57h-.41c-.7,0-1.11.24-1.11,1.07Z" transform="translate(-6.62 -10.52)"/>
      </g>
      <g>
        <path d="M477.25,179.6a1.22,1.22,0,1,1,1.21,1.21A1.2,1.2,0,0,1,477.25,179.6Z" transform="translate(-6.62 -10.52)"/>
        <path d="M489.61,179.9h-1V182H488v-5h1.63c1.19,0,1.74.66,1.74,1.48S490.86,179.9,489.61,179.9Zm0-.54c.75,0,1.07-.36,1.07-.92s-.32-.93-1.07-.93h-1v1.85Z" transform="translate(-6.62 -10.52)"/>
        <path d="M493.89,182.07a2,2,0,0,1,0-4.09,1.81,1.81,0,0,1,1.9,1.89c0,.15,0,.26,0,.4H492.6a1.25,1.25,0,0,0,1.29,1.24,1.08,1.08,0,0,0,1.11-.73h.71A1.77,1.77,0,0,1,493.89,182.07Zm-1.28-2.34h2.5a1.16,1.16,0,0,0-1.25-1.2A1.23,1.23,0,0,0,492.61,179.73Z" transform="translate(-6.62 -10.52)"/>
        <path d="M497.32,182h-.66v-4h.66v.65a1.33,1.33,0,0,1,1.28-.72v.68h-.18c-.62,0-1.1.28-1.1,1.2Z" transform="translate(-6.62 -10.52)"/>
        <path d="M500.76,182.07a1.45,1.45,0,0,1-1.62-1.23h.68c0,.38.38.67.94.67s.8-.26.8-.58c0-.88-2.34-.37-2.34-1.85,0-.6.57-1.1,1.45-1.1a1.33,1.33,0,0,1,1.5,1.24h-.66c0-.4-.33-.69-.86-.69s-.77.24-.77.55c0,.94,2.3.43,2.33,1.85C502.21,181.58,501.64,182.07,500.76,182.07Z" transform="translate(-6.62 -10.52)"/>
        <path d="M503,177a.44.44,0,1,1,.45.45A.44.44,0,0,1,503,177Zm.11,1.09h.65v4h-.65Z" transform="translate(-6.62 -10.52)"/>
        <path d="M506.32,182.07c-.93,0-1.58-.51-1.62-1.23h.68c0,.38.38.67.93.67s.81-.26.81-.58c0-.88-2.34-.37-2.34-1.85,0-.6.57-1.1,1.45-1.1a1.33,1.33,0,0,1,1.5,1.24h-.66a.76.76,0,0,0-.86-.69c-.48,0-.77.24-.77.55,0,.94,2.3.43,2.33,1.85C507.77,181.58,507.19,182.07,506.32,182.07Z" transform="translate(-6.62 -10.52)"/>
        <path d="M508.84,178.58h-.51V178h.51v-1h.66v1h1v.54h-1v2.34c0,.39.14.53.55.53h.48V182h-.59c-.7,0-1.1-.29-1.1-1.09Z" transform="translate(-6.62 -10.52)"/>
        <path d="M513,182.07a2,2,0,0,1,0-4.09,1.81,1.81,0,0,1,1.9,1.89,2.61,2.61,0,0,1,0,.4h-3.17a1.25,1.25,0,0,0,1.29,1.24,1.1,1.1,0,0,0,1.12-.73h.7A1.77,1.77,0,0,1,513,182.07Zm-1.28-2.34h2.5a1.16,1.16,0,0,0-1.25-1.2A1.23,1.23,0,0,0,511.76,179.73Z" transform="translate(-6.62 -10.52)"/>
        <path d="M518.71,179.76c0-.81-.44-1.22-1.1-1.22s-1.14.42-1.14,1.27V182h-.66v-4h.66v.57a1.46,1.46,0,0,1,1.28-.64,1.54,1.54,0,0,1,1.62,1.7V182h-.66Z" transform="translate(-6.62 -10.52)"/>
        <path d="M520.59,178.58h-.51V178h.51v-1h.66v1h1v.54h-1v2.34c0,.39.14.53.55.53h.48V182h-.59c-.7,0-1.1-.29-1.1-1.09Z" transform="translate(-6.62 -10.52)"/>
        <path d="M526.64,178a1.63,1.63,0,0,1,1.48.79V178h.67v4h-.67v-.74a1.64,1.64,0,0,1-1.48.8,1.91,1.91,0,0,1-1.88-2.06A1.88,1.88,0,0,1,526.64,178Zm.13.57a1.33,1.33,0,0,0-1.33,1.46,1.35,1.35,0,1,0,1.33-1.46Z" transform="translate(-6.62 -10.52)"/>
        <path d="M532.8,179.76c0-.81-.44-1.22-1.1-1.22s-1.14.42-1.14,1.27V182h-.66v-4h.66v.57a1.45,1.45,0,0,1,1.27-.64,1.53,1.53,0,0,1,1.62,1.7V182h-.65Z" transform="translate(-6.62 -10.52)"/>
        <path d="M536.17,178a1.73,1.73,0,0,1,1.47.77v-2.1h.67V182h-.67v-.75a1.63,1.63,0,0,1-1.47.81,1.9,1.9,0,0,1-1.88-2.06A1.87,1.87,0,0,1,536.17,178Zm.13.57A1.34,1.34,0,0,0,535,180a1.35,1.35,0,1,0,1.34-1.46Z" transform="translate(-6.62 -10.52)"/>
        <path d="M543.5,178a1.88,1.88,0,0,1,1.88,2,1.91,1.91,0,0,1-1.88,2.06,1.73,1.73,0,0,1-1.49-.79v2.61h-.65V178H542v.73A1.68,1.68,0,0,1,543.5,178Zm-.14.57A1.48,1.48,0,1,0,544.7,180,1.34,1.34,0,0,0,543.36,178.55Z" transform="translate(-6.62 -10.52)"/>
        <path d="M548,182.07a2,2,0,0,1,0-4.09,1.81,1.81,0,0,1,1.9,1.89,2.61,2.61,0,0,1,0,.4h-3.17a1.25,1.25,0,0,0,1.29,1.24,1.1,1.1,0,0,0,1.12-.73h.7A1.77,1.77,0,0,1,548,182.07Zm-1.28-2.34h2.5a1.16,1.16,0,0,0-1.25-1.2A1.23,1.23,0,0,0,546.68,179.73Z" transform="translate(-6.62 -10.52)"/>
        <path d="M551.39,182h-.66v-4h.66v.65a1.34,1.34,0,0,1,1.28-.72v.68h-.17c-.63,0-1.11.28-1.11,1.2Z" transform="translate(-6.62 -10.52)"/>
        <path d="M559.15,179.76c0-.81-.43-1.22-1.08-1.22S557,179,557,179.82V182h-.65v-2.25c0-.81-.44-1.22-1.09-1.22s-1.12.43-1.12,1.28V182h-.66v-4h.66v.57a1.43,1.43,0,0,1,1.25-.64,1.5,1.5,0,0,1,1.46.88,1.46,1.46,0,0,1,1.4-.88,1.53,1.53,0,0,1,1.6,1.7V182h-.65Z" transform="translate(-6.62 -10.52)"/>
        <path d="M560.78,177a.44.44,0,1,1,.45.45A.44.44,0,0,1,560.78,177Zm.11,1.09h.65v4h-.65Z" transform="translate(-6.62 -10.52)"/>
        <path d="M564.07,182.07c-.93,0-1.58-.51-1.62-1.23h.68c0,.38.38.67.93.67s.81-.26.81-.58c0-.88-2.34-.37-2.34-1.85,0-.6.57-1.1,1.45-1.1a1.33,1.33,0,0,1,1.5,1.24h-.66a.76.76,0,0,0-.86-.69c-.48,0-.77.24-.77.55,0,.94,2.3.43,2.33,1.85C565.52,181.58,564.94,182.07,564.07,182.07Z" transform="translate(-6.62 -10.52)"/>
        <path d="M567.85,182.07c-.93,0-1.58-.51-1.62-1.23h.68c0,.38.37.67.93.67s.81-.26.81-.58c0-.88-2.34-.37-2.34-1.85,0-.6.57-1.1,1.45-1.1a1.34,1.34,0,0,1,1.5,1.24h-.66a.76.76,0,0,0-.86-.69c-.49,0-.77.24-.77.55,0,.94,2.29.43,2.32,1.85C569.29,181.58,568.72,182.07,567.85,182.07Z" transform="translate(-6.62 -10.52)"/>
        <path d="M570.11,177a.45.45,0,1,1,.45.45A.45.45,0,0,1,570.11,177Zm.11,1.09h.66v4h-.66Z" transform="translate(-6.62 -10.52)"/>
        <path d="M573.73,182.07a1.92,1.92,0,0,1-2-2,2,2,0,1,1,4,0A2,2,0,0,1,573.73,182.07Zm0-.58a1.48,1.48,0,0,0,0-2.94,1.31,1.31,0,0,0-1.32,1.47A1.3,1.3,0,0,0,573.73,181.49Z" transform="translate(-6.62 -10.52)"/>
        <path d="M579.53,179.76c0-.81-.44-1.22-1.1-1.22s-1.14.42-1.14,1.27V182h-.66v-4h.66v.57a1.45,1.45,0,0,1,1.27-.64,1.53,1.53,0,0,1,1.62,1.7V182h-.65Z" transform="translate(-6.62 -10.52)"/>
        <path d="M581.26,176.65h.66V182h-.66Z" transform="translate(-6.62 -10.52)"/>
        <path d="M584.76,182.07a2,2,0,0,1,0-4.09,1.81,1.81,0,0,1,1.9,1.89c0,.15,0,.26,0,.4h-3.17a1.25,1.25,0,0,0,1.29,1.24,1.08,1.08,0,0,0,1.11-.73h.71A1.77,1.77,0,0,1,584.76,182.07Zm-1.28-2.34H586a1.16,1.16,0,0,0-1.25-1.2A1.23,1.23,0,0,0,583.48,179.73Z" transform="translate(-6.62 -10.52)"/>
        <path d="M588.93,182.07a1.45,1.45,0,0,1-1.62-1.23H588c0,.38.38.67.94.67s.81-.26.81-.58c0-.88-2.35-.37-2.35-1.85,0-.6.57-1.1,1.46-1.1a1.32,1.32,0,0,1,1.49,1.24h-.66c0-.4-.33-.69-.86-.69s-.77.24-.77.55c0,.94,2.3.43,2.33,1.85C590.38,181.58,589.81,182.07,588.93,182.07Z" transform="translate(-6.62 -10.52)"/>
        <path d="M592.71,182.07c-.93,0-1.58-.51-1.62-1.23h.68c0,.38.38.67.93.67s.81-.26.81-.58c0-.88-2.34-.37-2.34-1.85,0-.6.57-1.1,1.45-1.1a1.33,1.33,0,0,1,1.5,1.24h-.66a.76.76,0,0,0-.86-.69c-.48,0-.77.24-.77.55,0,.94,2.3.43,2.33,1.85C594.16,181.58,593.59,182.07,592.71,182.07Z" transform="translate(-6.62 -10.52)"/>
        <path d="M489.38,186.66a1.73,1.73,0,0,1,1.83,1.34h-.71a1.08,1.08,0,0,0-1.12-.78c-.73,0-1.26.51-1.26,1.48s.53,1.5,1.26,1.5a1.07,1.07,0,0,0,1.12-.78h.71a1.76,1.76,0,0,1-1.83,1.33,2,2,0,0,1,0-4.09Z" transform="translate(-6.62 -10.52)"/>
        <path d="M493.81,190.75a1.92,1.92,0,0,1-2-2.05,2,2,0,1,1,4,0A2,2,0,0,1,493.81,190.75Zm0-.57a1.35,1.35,0,0,0,1.36-1.48,1.33,1.33,0,0,0-1.33-1.47,1.48,1.48,0,0,0,0,3Z" transform="translate(-6.62 -10.52)"/>
        <path d="M502.44,188.45c0-.81-.44-1.23-1.09-1.23s-1.12.43-1.12,1.28v2.19h-.65v-2.24c0-.81-.43-1.23-1.09-1.23s-1.12.43-1.12,1.28v2.19h-.65v-4h.65v.57a1.44,1.44,0,0,1,1.26-.65,1.48,1.48,0,0,1,1.45.89,1.45,1.45,0,0,1,1.4-.89,1.54,1.54,0,0,1,1.61,1.7v2.34h-.65Z" transform="translate(-6.62 -10.52)"/>
        <path d="M506.31,186.66a1.88,1.88,0,0,1,1.88,2,1.91,1.91,0,0,1-1.88,2.06,1.71,1.71,0,0,1-1.48-.79v2.61h-.66v-5.84h.66v.73A1.68,1.68,0,0,1,506.31,186.66Zm-.14.57a1.48,1.48,0,1,0,1.35,1.46A1.34,1.34,0,0,0,506.17,187.23Z" transform="translate(-6.62 -10.52)"/>
        <path d="M512.58,190.69h-.66v-.59a1.46,1.46,0,0,1-1.27.65,1.55,1.55,0,0,1-1.63-1.7v-2.32h.65V189a1.07,1.07,0,0,0,1.11,1.22c.68,0,1.14-.42,1.14-1.28v-2.17h.66Z" transform="translate(-6.62 -10.52)"/>
        <path d="M513.84,187.27h-.52v-.54h.52v-1h.65v1h1v.54h-1v2.33c0,.4.15.53.55.53h.49v.56h-.6c-.7,0-1.09-.29-1.09-1.09Z" transform="translate(-6.62 -10.52)"/>
        <path d="M516.22,185.63a.43.43,0,0,1,.44-.44.45.45,0,1,1-.44.44Zm.1,1.1H517v4h-.66Z" transform="translate(-6.62 -10.52)"/>
        <path d="M521,188.45a1.08,1.08,0,0,0-1.11-1.23c-.67,0-1.14.42-1.14,1.28v2.19h-.66v-4h.66v.56a1.48,1.48,0,0,1,1.28-.64,1.54,1.54,0,0,1,1.62,1.7v2.34H521Z" transform="translate(-6.62 -10.52)"/>
        <path d="M524.37,186.66a1.65,1.65,0,0,1,1.48.79v-.72h.66v4.05a1.77,1.77,0,0,1-1.89,1.86,1.74,1.74,0,0,1-1.92-1.37h.65a1.24,1.24,0,0,0,1.27.8,1.18,1.18,0,0,0,1.23-1.29v-.84a1.66,1.66,0,0,1-1.48.81,1.91,1.91,0,0,1-1.88-2.06A1.88,1.88,0,0,1,524.37,186.66Zm.13.57a1.34,1.34,0,0,0-1.34,1.46,1.35,1.35,0,1,0,1.34-1.46Z" transform="translate(-6.62 -10.52)"/>
        <path d="M532.46,188.45c0-.81-.44-1.23-1.11-1.23s-1.13.42-1.13,1.28v2.19h-.66v-4h.66v.56a1.47,1.47,0,0,1,1.27-.64,1.54,1.54,0,0,1,1.62,1.7v2.34h-.65Z" transform="translate(-6.62 -10.52)"/>
        <path d="M535.9,190.75a2,2,0,0,1,0-4.09,1.82,1.82,0,0,1,1.91,1.9,2.47,2.47,0,0,1,0,.39h-3.16a1.24,1.24,0,0,0,1.28,1.25,1.1,1.1,0,0,0,1.12-.73h.71A1.79,1.79,0,0,1,535.9,190.75Zm-1.28-2.33h2.51a1.17,1.17,0,0,0-1.25-1.2A1.23,1.23,0,0,0,534.62,188.42Z" transform="translate(-6.62 -10.52)"/>
        <path d="M538.82,187.27h-.51v-.54h.51v-1h.66v1h1v.54h-1v2.33c0,.4.14.53.55.53h.48v.56h-.59c-.7,0-1.1-.29-1.1-1.09Z" transform="translate(-6.62 -10.52)"/>
        <path d="M540.84,186.73h.67l.91,3.32,1-3.32h.67l1,3.33.9-3.33h.65l-1.24,4h-.68l-.95-3.15-1,3.15h-.68Z" transform="translate(-6.62 -10.52)"/>
        <path d="M549,190.75a1.92,1.92,0,0,1-2-2.05,2,2,0,1,1,4,0A2,2,0,0,1,549,190.75Zm0-.57a1.48,1.48,0,0,0,0-3,1.49,1.49,0,0,0,0,3Z" transform="translate(-6.62 -10.52)"/>
        <path d="M552.53,190.69h-.66v-4h.66v.64a1.34,1.34,0,0,1,1.28-.72v.68h-.17c-.63,0-1.11.29-1.11,1.2Z" transform="translate(-6.62 -10.52)"/>
        <path d="M554.57,185.34h.66v3.14l1.53-1.75h.92l-1.87,2,1.87,2h-.89l-1.56-1.75v1.75h-.66Z" transform="translate(-6.62 -10.52)"/>
      </g>
      <g>
        <path d="M459.71,186.21a1.48,1.48,0,0,0,1.48-1.48v-6.46a1.48,1.48,0,0,0-1.48-1.48h-9a1.48,1.48,0,0,0-1.48,1.48v6.46a1.48,1.48,0,0,0,1.48,1.48h4v1.24H453.4a.55.55,0,1,0,0,1.09H457a.55.55,0,1,0,0-1.09h-1.26v-1.24Zm-9-1.09a.39.39,0,0,1-.39-.39v-6.46a.4.4,0,0,1,.39-.39h9a.39.39,0,0,1,.38.39v6.46a.38.38,0,0,1-.38.39Zm0,0" transform="translate(-6.62 -10.52)" style="fill: #5059ab"/>
        <path d="M452.15,190.29h-9a1.48,1.48,0,0,0-1.48,1.48v6.46a1.48,1.48,0,0,0,1.48,1.48h4V201h-1.26a.55.55,0,1,0,0,1.09h3.62a.55.55,0,0,0,0-1.09h-1.27v-1.24h4a1.48,1.48,0,0,0,1.48-1.48v-6.46a1.49,1.49,0,0,0-1.48-1.48Zm.38,8a.38.38,0,0,1-.38.38h-9a.38.38,0,0,1-.39-.38v-6.46a.38.38,0,0,1,.39-.39h9a.38.38,0,0,1,.39.39v6.46Zm0,0" transform="translate(-6.62 -10.52)" style="fill: #5059ab"/>
        <path d="M467.28,190.29h-9a1.48,1.48,0,0,0-1.48,1.48v6.46a1.48,1.48,0,0,0,1.48,1.48h4V201H461a.55.55,0,0,0,0,1.09h3.63a.55.55,0,0,0,0-1.09h-1.27v-1.24h4a1.47,1.47,0,0,0,1.47-1.48v-6.46a1.48,1.48,0,0,0-1.47-1.48Zm.38,8a.38.38,0,0,1-.38.38h-9a.38.38,0,0,1-.39-.38v-6.46a.38.38,0,0,1,.39-.39h9a.39.39,0,0,1,.39.39v6.46Zm0,0" transform="translate(-6.62 -10.52)" style="fill: #5059ab"/>
        <path d="M443.2,180.63V188a.55.55,0,1,0,1.09,0v-6.81h2.95a.55.55,0,1,0,0-1.09h-3.5a.55.55,0,0,0-.54.54Zm0,0" transform="translate(-6.62 -10.52)" style="fill: #5059ab"/>
        <path d="M466.68,188.55a.55.55,0,0,0,.55-.55v-7.37a.55.55,0,0,0-.55-.54h-3.5a.55.55,0,0,0,0,1.09h2.95V188a.56.56,0,0,0,.55.56Zm0,0" transform="translate(-6.62 -10.52)" style="fill: #5059ab"/>
      </g>
    </g>
  </g>
  <g id="teal_info">
    <g>
      <path d="M29.55,118.19a2.84,2.84,0,0,1,2.89,2.14H30.8a1.33,1.33,0,0,0-1.27-.79,1.77,1.77,0,0,0,0,3.51,1.34,1.34,0,0,0,1.27-.78h1.64a2.83,2.83,0,0,1-2.89,2.13,3.11,3.11,0,0,1,0-6.21Z" transform="translate(-6.62 -10.52)"/>
      <path d="M35.55,124.42a2.49,2.49,0,1,1,2.54-2.49A2.4,2.4,0,0,1,35.55,124.42Zm0-1.28a1.06,1.06,0,0,0,1-1.21c0-.82-.49-1.21-1-1.21s-1,.39-1,1.21S35,123.14,35.55,123.14Z" transform="translate(-6.62 -10.52)"/>
      <path d="M40,119.51,41.06,123l1-3.45h1.58L42,124.35H40.14l-1.72-4.84Z" transform="translate(-6.62 -10.52)"/>
      <path d="M46.16,119.44a1.69,1.69,0,0,1,1.49.75v-.68h1.48v4.84H47.65v-.68a1.72,1.72,0,0,1-1.5.75,2.52,2.52,0,0,1,0-5Zm.43,1.29a1.08,1.08,0,0,0-1.06,1.19,1.07,1.07,0,1,0,1.06-1.19Z" transform="translate(-6.62 -10.52)"/>
      <path d="M53,118.19a2.85,2.85,0,0,1,2.9,2.14H54.28a1.33,1.33,0,0,0-1.27-.79,1.77,1.77,0,0,0,0,3.51,1.34,1.34,0,0,0,1.27-.78h1.64A2.84,2.84,0,0,1,53,124.4a3.11,3.11,0,0,1,0-6.21Z" transform="translate(-6.62 -10.52)"/>
      <path d="M59,124.42a2.49,2.49,0,1,1,2.54-2.49A2.4,2.4,0,0,1,59,124.42Zm0-1.28a1.06,1.06,0,0,0,1-1.21c0-.82-.49-1.21-1-1.21s-1,.39-1,1.21S58.49,123.14,59,123.14Z" transform="translate(-6.62 -10.52)"/>
      <path d="M63.84,124.35H62.36v-4.84h1.48v.81a1.79,1.79,0,0,1,1.52-.86V121H65c-.7,0-1.11.24-1.11,1.07Z" transform="translate(-6.62 -10.52)"/>
      <path d="M68.23,124.42a2.49,2.49,0,0,1,0-5,2.28,2.28,0,0,1,2.41,2.41c0,.14,0,.29,0,.44H67.26a.9.9,0,0,0,.92.93.79.79,0,0,0,.77-.47h1.58A2.27,2.27,0,0,1,68.23,124.42Zm-1-3h1.86a.83.83,0,0,0-.91-.83A.92.92,0,0,0,67.26,121.46Z" transform="translate(-6.62 -10.52)"/>
      <path d="M72.12,120.89a.81.81,0,1,1,.88-.8A.83.83,0,0,1,72.12,120.89Zm0,3.53a.81.81,0,1,1,.88-.8A.82.82,0,0,1,72.12,124.42Z" transform="translate(-6.62 -10.52)"/>
      <path d="M78.54,118.19a2.83,2.83,0,0,1,2.89,2.14H79.8a1.33,1.33,0,0,0-1.27-.79,1.77,1.77,0,0,0,0,3.51,1.34,1.34,0,0,0,1.27-.78h1.63a2.82,2.82,0,0,1-2.89,2.13,3.11,3.11,0,0,1,0-6.21Z" transform="translate(-6.62 -10.52)"/>
      <path d="M85.23,124.41a3.12,3.12,0,1,1,3.12-3.12A3.06,3.06,0,0,1,85.23,124.41Zm0-1.35a1.78,1.78,0,1,0-1.62-1.77A1.6,1.6,0,0,0,85.23,123.06Z" transform="translate(-6.62 -10.52)"/>
      <path d="M93.32,118.26h1.57l-2.16,6.09H90.87l-2.16-6.09h1.58l1.51,4.6Z" transform="translate(-6.62 -10.52)"/>
      <path d="M99.3,123.28H97l-.36,1.07H95.11l2.21-6.09H99l2.2,6.09H99.67Zm-1.13-3.38-.75,2.23h1.5Z" transform="translate(-6.62 -10.52)"/>
      <path d="M106.16,122.17h-.92v2.18h-1.49v-6.09h2.41c1.49,0,2.24.84,2.24,2A2,2,0,0,1,106.16,122.17ZM106,121c.59,0,.84-.29.84-.76s-.25-.76-.84-.76h-.8V121Z" transform="translate(-6.62 -10.52)"/>
      <path d="M110.65,124.35h-1.48v-4.84h1.48v.81a1.79,1.79,0,0,1,1.52-.86V121h-.41c-.7,0-1.11.24-1.11,1.07Z" transform="translate(-6.62 -10.52)"/>
      <path d="M115.09,124.42a2.49,2.49,0,1,1,2.54-2.49A2.41,2.41,0,0,1,115.09,124.42Zm0-1.28a1.06,1.06,0,0,0,1-1.21c0-.82-.49-1.21-1-1.21s-1,.39-1,1.21S114.55,123.14,115.09,123.14Z" transform="translate(-6.62 -10.52)"/>
      <path d="M118.65,120.74h-.59v-1.23h.59v-1.18h1.49v1.18h1v1.23h-1v2c0,.28.12.4.45.4h.53v1.26h-.76a1.49,1.49,0,0,1-1.71-1.68Z" transform="translate(-6.62 -10.52)"/>
      <path d="M124.15,124.42a2.49,2.49,0,1,1,2.53-2.49A2.4,2.4,0,0,1,124.15,124.42Zm0-1.28c.53,0,1-.39,1-1.21s-.48-1.21-1-1.21-1,.39-1,1.21S123.61,123.14,124.15,123.14Z" transform="translate(-6.62 -10.52)"/>
      <path d="M129.61,119.44a2.23,2.23,0,0,1,2.33,1.82h-1.58a.77.77,0,0,0-.78-.55c-.53,0-.89.41-.89,1.22s.36,1.23.89,1.23a.76.76,0,0,0,.78-.56h1.58a2.26,2.26,0,0,1-2.33,1.82,2.49,2.49,0,0,1,0-5Z" transform="translate(-6.62 -10.52)"/>
      <path d="M134.93,124.42a2.49,2.49,0,1,1,2.54-2.49A2.4,2.4,0,0,1,134.93,124.42Zm0-1.28a1.06,1.06,0,0,0,1-1.21c0-.82-.49-1.21-1-1.21s-1,.39-1,1.21S134.39,123.14,134.93,123.14Z" transform="translate(-6.62 -10.52)"/>
      <path d="M138.26,117.93h1.48v6.42h-1.48Z" transform="translate(-6.62 -10.52)"/>
      <path d="M144.86,124.41c-1.31,0-2.33-.65-2.37-1.88h1.58a.69.69,0,0,0,.75.69c.44,0,.71-.21.71-.57,0-1.13-3-.52-3-2.68,0-1.16.95-1.8,2.23-1.8s2.22.66,2.28,1.83H145.4a.65.65,0,0,0-.7-.64.54.54,0,0,0-.63.56c0,1.06,3,.58,3,2.62A2,2,0,0,1,144.86,124.41Z" transform="translate(-6.62 -10.52)"/>
      <path d="M150.21,124.42a2.49,2.49,0,1,1,2.53-2.49A2.38,2.38,0,0,1,150.21,124.42Zm0-1.28c.53,0,1-.39,1-1.21s-.49-1.21-1-1.21-1,.39-1,1.21S149.67,123.14,150.21,123.14Z" transform="translate(-6.62 -10.52)"/>
      <path d="M153.68,120.74h-.54v-1.23h.54v-.14c0-1.27.78-1.89,2.26-1.81v1.25c-.58,0-.78.14-.78.66v0h.8v1.23h-.8v3.61h-1.48Z" transform="translate(-6.62 -10.52)"/>
      <path d="M156.89,120.74h-.59v-1.23h.59v-1.18h1.49v1.18h1v1.23h-1v2c0,.28.12.4.45.4h.53v1.26h-.76a1.49,1.49,0,0,1-1.71-1.68Z" transform="translate(-6.62 -10.52)"/>
      <path d="M159.68,119.51h1.48l.69,3.46.82-3.46h1.57l.82,3.45.68-3.45h1.4l-1.31,4.84h-1.65l-.76-3.14-.79,3.14H161Z" transform="translate(-6.62 -10.52)"/>
      <path d="M169.54,119.44a1.71,1.71,0,0,1,1.5.75v-.68h1.48v4.84H171v-.68a1.74,1.74,0,0,1-1.51.75,2.52,2.52,0,0,1,0-5Zm.44,1.29a1.08,1.08,0,0,0-1.06,1.19,1.07,1.07,0,1,0,1.06-1.19Z" transform="translate(-6.62 -10.52)"/>
      <path d="M175.08,124.35H173.6v-4.84h1.48v.81a1.79,1.79,0,0,1,1.52-.86V121h-.41c-.7,0-1.11.24-1.11,1.07Z" transform="translate(-6.62 -10.52)"/>
      <path d="M179.47,124.42a2.49,2.49,0,0,1,0-5,2.28,2.28,0,0,1,2.41,2.41,3.37,3.37,0,0,1,0,.44h-3.36a.91.91,0,0,0,.93.93.79.79,0,0,0,.77-.47h1.58A2.28,2.28,0,0,1,179.47,124.42Zm-1-3h1.86a.84.84,0,0,0-.91-.83A.92.92,0,0,0,178.5,121.46Z" transform="translate(-6.62 -10.52)"/>
    </g>
    <g>
      <path d="M52.65,133.9A2.36,2.36,0,0,1,55,135.43H54.2a1.59,1.59,0,0,0-1.55-1,2,2,0,0,0,0,4,1.6,1.6,0,0,0,1.55-.94H55a2.36,2.36,0,0,1-2.33,1.51,2.58,2.58,0,0,1,0-5.15Z" transform="translate(-6.62 -10.52)"/>
      <path d="M57.68,139.07a2,2,0,0,1,0-4.09,1.81,1.81,0,0,1,1.9,1.89c0,.15,0,.26,0,.4H56.39a1.24,1.24,0,0,0,1.29,1.25,1.09,1.09,0,0,0,1.11-.73h.71A1.78,1.78,0,0,1,57.68,139.07Zm-1.28-2.33h2.5a1.16,1.16,0,0,0-1.25-1.2A1.22,1.22,0,0,0,56.4,136.74Z" transform="translate(-6.62 -10.52)"/>
      <path d="M63.35,136.77c0-.81-.44-1.23-1.11-1.23s-1.13.42-1.13,1.28V139h-.66v-4h.66v.57a1.46,1.46,0,0,1,1.27-.64,1.54,1.54,0,0,1,1.62,1.7V139h-.65Z" transform="translate(-6.62 -10.52)"/>
      <path d="M65.22,135.59h-.51V135h.51v-1h.66v1h1v.55h-1v2.33c0,.39.15.53.55.53h.49V139h-.6c-.7,0-1.1-.29-1.1-1.09Z" transform="translate(-6.62 -10.52)"/>
      <path d="M68.37,139h-.66v-4h.66v.65a1.34,1.34,0,0,1,1.28-.72v.68h-.17c-.63,0-1.11.28-1.11,1.2Z" transform="translate(-6.62 -10.52)"/>
      <path d="M70.3,134a.45.45,0,1,1,.89,0,.45.45,0,1,1-.89,0Zm.11,1.09h.66v4h-.66Z" transform="translate(-6.62 -10.52)"/>
      <path d="M72.31,135.59H71.8V135h.51v-.28c0-.88.44-1.28,1.45-1.28V134c-.59,0-.79.22-.79.73V135h.83v.55H73V139h-.66Z" transform="translate(-6.62 -10.52)"/>
      <path d="M78.09,139h-.66v-.59a1.47,1.47,0,0,1-1.27.65,1.54,1.54,0,0,1-1.62-1.7V135h.65v2.24a1.06,1.06,0,0,0,1.1,1.21c.68,0,1.14-.41,1.14-1.27V135h.66Z" transform="translate(-6.62 -10.52)"/>
      <path d="M80.84,135a1.62,1.62,0,0,1,1.47.79V135H83v4.05a1.78,1.78,0,0,1-1.9,1.87,1.74,1.74,0,0,1-1.91-1.37h.65a1.23,1.23,0,0,0,1.26.8,1.18,1.18,0,0,0,1.23-1.3v-.83a1.65,1.65,0,0,1-1.47.81A1.9,1.9,0,0,1,79,137,1.87,1.87,0,0,1,80.84,135Zm.13.57A1.34,1.34,0,0,0,79.63,137,1.35,1.35,0,1,0,81,135.55Z" transform="translate(-6.62 -10.52)"/>
      <path d="M85.81,139.07a2,2,0,0,1,0-4.09,1.81,1.81,0,0,1,1.9,1.89c0,.15,0,.26,0,.4H84.52a1.25,1.25,0,0,0,1.29,1.25,1.09,1.09,0,0,0,1.11-.73h.71A1.78,1.78,0,0,1,85.81,139.07Zm-1.28-2.33H87a1.16,1.16,0,0,0-1.25-1.2A1.22,1.22,0,0,0,84.53,136.74Z" transform="translate(-6.62 -10.52)"/>
      <path d="M92.15,135a1.64,1.64,0,0,1,1.47.79V135h.67v4h-.67v-.74a1.64,1.64,0,0,1-1.48.8A1.9,1.9,0,0,1,90.27,137,1.87,1.87,0,0,1,92.15,135Zm.13.57A1.34,1.34,0,0,0,90.94,137a1.35,1.35,0,1,0,1.34-1.46Z" transform="translate(-6.62 -10.52)"/>
      <path d="M98.3,136.77c0-.81-.44-1.23-1.1-1.23s-1.14.42-1.14,1.28V139H95.4v-4h.66v.57a1.48,1.48,0,0,1,1.28-.64,1.54,1.54,0,0,1,1.62,1.7V139H98.3Z" transform="translate(-6.62 -10.52)"/>
      <path d="M101.68,135a1.75,1.75,0,0,1,1.47.77v-2.09h.66V139h-.66v-.75a1.64,1.64,0,0,1-1.48.81A1.91,1.91,0,0,1,99.79,137,1.88,1.88,0,0,1,101.68,135Zm.12.57a1.34,1.34,0,0,0-1.34,1.46,1.35,1.35,0,1,0,1.34-1.46Z" transform="translate(-6.62 -10.52)"/>
      <path d="M109.13,133.9a2.38,2.38,0,0,1,2.34,1.53h-.79a1.59,1.59,0,0,0-1.55-1,2,2,0,0,0,0,4,1.6,1.6,0,0,0,1.55-.94h.79a2.38,2.38,0,0,1-2.34,1.51,2.58,2.58,0,0,1,0-5.15Z" transform="translate(-6.62 -10.52)"/>
      <path d="M114.17,139.07a1.92,1.92,0,0,1-2-2,2,2,0,1,1,4,0A2,2,0,0,1,114.17,139.07Zm0-.58a1.34,1.34,0,0,0,1.36-1.47,1.34,1.34,0,1,0-2.66,0A1.31,1.31,0,0,0,114.17,138.49Z" transform="translate(-6.62 -10.52)"/>
      <path d="M117.31,135l1.24,3.36,1.23-3.36h.7l-1.55,4h-.77l-1.55-4Z" transform="translate(-6.62 -10.52)"/>
      <path d="M122.77,135a1.67,1.67,0,0,1,1.48.79V135h.66v4h-.66v-.74a1.66,1.66,0,0,1-1.49.8,1.91,1.91,0,0,1-1.87-2.06A1.88,1.88,0,0,1,122.77,135Zm.13.57a1.34,1.34,0,0,0-1.34,1.46,1.35,1.35,0,1,0,1.34-1.46Z" transform="translate(-6.62 -10.52)"/>
      <path d="M129.5,134h.69l-1.9,5h-.76l-1.9-5h.7l1.58,4.34Z" transform="translate(-6.62 -10.52)"/>
      <path d="M130.92,134h.71l1.85,4.14,1.85-4.14h.7v5h-.66v-3.73L133.71,139h-.46l-1.67-3.74V139h-.66Z" transform="translate(-6.62 -10.52)"/>
      <path d="M141.18,136.6a1.22,1.22,0,1,1,1.21,1.21A1.2,1.2,0,0,1,141.18,136.6Z" transform="translate(-6.62 -10.52)"/>
      <path d="M6.62,142.65H10v.54H8.66v4.5H8v-4.5H6.62Z" transform="translate(-6.62 -10.52)"/>
      <path d="M10.85,142.34h.66v2a1.48,1.48,0,0,1,1.3-.64,1.53,1.53,0,0,1,1.59,1.7v2.33h-.65v-2.24a1.06,1.06,0,0,0-1.11-1.22c-.67,0-1.13.42-1.13,1.27v2.19h-.66Z" transform="translate(-6.62 -10.52)"/>
      <path d="M16.14,147.69h-.66v-4h.66v.64a1.33,1.33,0,0,1,1.28-.71v.68h-.18c-.63,0-1.1.28-1.1,1.2Z" transform="translate(-6.62 -10.52)"/>
      <path d="M19.89,147.76a1.91,1.91,0,0,1-2-2.06,1.89,1.89,0,0,1,2-2,1.82,1.82,0,0,1,1.9,1.9,2.68,2.68,0,0,1,0,.4H18.6a1.25,1.25,0,0,0,1.29,1.24,1.08,1.08,0,0,0,1.11-.73h.71A1.79,1.79,0,0,1,19.89,147.76Zm-1.28-2.34h2.5a1.16,1.16,0,0,0-1.25-1.2A1.23,1.23,0,0,0,18.61,145.42Z" transform="translate(-6.62 -10.52)"/>
      <path d="M24.07,147.76c-.93,0-1.58-.51-1.62-1.23h.68c0,.38.37.67.93.67s.81-.26.81-.59c0-.88-2.34-.36-2.34-1.84,0-.61.57-1.11,1.45-1.11a1.34,1.34,0,0,1,1.5,1.25h-.66a.76.76,0,0,0-.86-.69c-.49,0-.78.23-.78.55,0,.94,2.3.43,2.33,1.84C25.51,147.26,24.94,147.76,24.07,147.76Z" transform="translate(-6.62 -10.52)"/>
      <path d="M26.44,142.34h.66v2a1.49,1.49,0,0,1,1.31-.64,1.53,1.53,0,0,1,1.58,1.7v2.33h-.65v-2.24a1.06,1.06,0,0,0-1.11-1.22c-.67,0-1.13.42-1.13,1.27v2.19h-.66Z" transform="translate(-6.62 -10.52)"/>
      <path d="M32.8,147.76a2.05,2.05,0,1,1,2-2.06A2,2,0,0,1,32.8,147.76Zm0-.58a1.48,1.48,0,0,0,0-3,1.49,1.49,0,0,0,0,3Z" transform="translate(-6.62 -10.52)"/>
      <path d="M35.7,142.34h.66v5.35H35.7Z" transform="translate(-6.62 -10.52)"/>
      <path d="M39.12,143.66a1.71,1.71,0,0,1,1.47.78v-2.1h.67v5.35h-.67V147a1.63,1.63,0,0,1-1.47.81,1.91,1.91,0,0,1-1.88-2.06A1.88,1.88,0,0,1,39.12,143.66Zm.13.57a1.34,1.34,0,0,0-1.34,1.47,1.35,1.35,0,1,0,1.34-1.47Z" transform="translate(-6.62 -10.52)"/>
      <path d="M47,143.19H45v1.68H46.8v.54H45v1.74H47v.54H44.31v-5.05H47Z" transform="translate(-6.62 -10.52)"/>
      <path d="M50.92,145.45a1.06,1.06,0,0,0-1.11-1.22c-.67,0-1.14.42-1.14,1.27v2.19H48v-4h.65v.56a1.48,1.48,0,0,1,1.28-.63,1.53,1.53,0,0,1,1.62,1.7v2.33h-.65Z" transform="translate(-6.62 -10.52)"/>
      <path d="M54.33,143.66A1.72,1.72,0,0,1,56.16,145h-.71a1.07,1.07,0,0,0-1.12-.78c-.72,0-1.26.51-1.26,1.48s.54,1.5,1.26,1.5a1.05,1.05,0,0,0,1.12-.78h.71a1.76,1.76,0,0,1-1.83,1.34,2.05,2.05,0,0,1,0-4.1Z" transform="translate(-6.62 -10.52)"/>
      <path d="M57.7,147.69H57v-4h.66v.64a1.33,1.33,0,0,1,1.28-.71v.68H58.8c-.62,0-1.1.28-1.1,1.2Z" transform="translate(-6.62 -10.52)"/>
      <path d="M62.47,143.73h.68l-2.38,5.83h-.68l.78-1.91-1.6-3.92H60l1.24,3.21Z" transform="translate(-6.62 -10.52)"/>
      <path d="M66,143.66a1.88,1.88,0,0,1,1.88,2A1.91,1.91,0,0,1,66,147.76a1.71,1.71,0,0,1-1.48-.8v2.61h-.66v-5.84h.66v.73A1.68,1.68,0,0,1,66,143.66Zm-.13.57a1.48,1.48,0,1,0,1.34,1.47A1.34,1.34,0,0,0,65.82,144.23Z" transform="translate(-6.62 -10.52)"/>
      <path d="M68.85,144.27h-.51v-.54h.51v-1h.66v1h1v.54h-1v2.34c0,.39.14.52.55.52h.48v.56H70c-.7,0-1.1-.29-1.1-1.08Z" transform="translate(-6.62 -10.52)"/>
      <path d="M73.05,147.76a1.91,1.91,0,0,1-2-2.06,1.89,1.89,0,0,1,2-2,1.82,1.82,0,0,1,1.9,1.9,2.68,2.68,0,0,1,0,.4H71.76a1.25,1.25,0,0,0,1.29,1.24,1.09,1.09,0,0,0,1.12-.73h.7A1.78,1.78,0,0,1,73.05,147.76Zm-1.28-2.34h2.5a1.16,1.16,0,0,0-1.25-1.2A1.23,1.23,0,0,0,71.77,145.42Z" transform="translate(-6.62 -10.52)"/>
      <path d="M77.47,143.66a1.71,1.71,0,0,1,1.46.78v-2.1h.67v5.35h-.67V147a1.61,1.61,0,0,1-1.47.81,1.91,1.91,0,0,1-1.88-2.06A1.89,1.89,0,0,1,77.47,143.66Zm.12.57a1.35,1.35,0,0,0-1.34,1.47,1.35,1.35,0,1,0,1.34-1.47Z" transform="translate(-6.62 -10.52)"/>
      <path d="M83.31,145.39v2.3h-.66v-5h.66V145l2.08-2.34h.83l-2.28,2.52,2.3,2.52h-.86Z" transform="translate(-6.62 -10.52)"/>
      <path d="M88.7,147.76a1.91,1.91,0,0,1-2-2.06,1.89,1.89,0,0,1,2-2,1.82,1.82,0,0,1,1.9,1.9c0,.14,0,.26,0,.4H87.41a1.24,1.24,0,0,0,1.29,1.24,1.08,1.08,0,0,0,1.11-.73h.71A1.79,1.79,0,0,1,88.7,147.76Zm-1.28-2.34h2.5a1.16,1.16,0,0,0-1.25-1.2A1.22,1.22,0,0,0,87.42,145.42Z" transform="translate(-6.62 -10.52)"/>
      <path d="M94.2,143.73h.68l-2.38,5.83h-.68l.78-1.91L91,143.73h.73L93,146.94Z" transform="translate(-6.62 -10.52)"/>
      <path d="M99.07,147.74c-1,0-1.73-.56-1.74-1.39H98a.93.93,0,0,0,1,.84c.64,0,1-.37,1-.84,0-1.36-2.73-.5-2.73-2.37,0-.83.67-1.4,1.67-1.4a1.51,1.51,0,0,1,1.67,1.3H100a.92.92,0,0,0-1-.73.83.83,0,0,0-1,.81c0,1.3,2.72.49,2.72,2.36A1.51,1.51,0,0,1,99.07,147.74Z" transform="translate(-6.62 -10.52)"/>
      <path d="M101.87,144.27h-.52v-.54h.52v-1h.66v1h1v.54h-1v2.34c0,.39.14.52.54.52h.49v.56H103c-.71,0-1.1-.29-1.1-1.08Z" transform="translate(-6.62 -10.52)"/>
      <path d="M106.08,147.76a2.05,2.05,0,1,1,2-2.06A2,2,0,0,1,106.08,147.76Zm0-.58a1.35,1.35,0,0,0,1.36-1.48,1.34,1.34,0,1,0-2.66,0A1.31,1.31,0,0,0,106.08,147.18Z" transform="translate(-6.62 -10.52)"/>
      <path d="M109.64,147.69H109v-4h.65v.64a1.35,1.35,0,0,1,1.28-.71v.68h-.17c-.63,0-1.11.28-1.11,1.2Z" transform="translate(-6.62 -10.52)"/>
      <path d="M113.32,143.66a1.67,1.67,0,0,1,1.48.79v-.72h.66v4h-.66V147a1.67,1.67,0,0,1-1.49.81,1.91,1.91,0,0,1-1.87-2.06A1.88,1.88,0,0,1,113.32,143.66Zm.13.57a1.35,1.35,0,0,0-1.34,1.47,1.35,1.35,0,1,0,1.34-1.47Z" transform="translate(-6.62 -10.52)"/>
      <path d="M118.21,143.66a1.64,1.64,0,0,1,1.48.79v-.72h.66v4.05a1.77,1.77,0,0,1-1.89,1.86,1.74,1.74,0,0,1-1.92-1.37h.65a1.24,1.24,0,0,0,1.27.8,1.18,1.18,0,0,0,1.23-1.29V147a1.68,1.68,0,0,1-1.48.81,1.91,1.91,0,0,1-1.88-2.06A1.88,1.88,0,0,1,118.21,143.66Zm.13.57A1.35,1.35,0,0,0,117,145.7a1.35,1.35,0,1,0,1.34-1.47Z" transform="translate(-6.62 -10.52)"/>
      <path d="M123.18,147.76a1.91,1.91,0,0,1-2-2.06,1.89,1.89,0,0,1,2-2,1.82,1.82,0,0,1,1.91,1.9,2.69,2.69,0,0,1,0,.4H121.9a1.24,1.24,0,0,0,1.28,1.24,1.09,1.09,0,0,0,1.12-.73H125A1.8,1.8,0,0,1,123.18,147.76Zm-1.28-2.34h2.5a1.16,1.16,0,0,0-1.25-1.2A1.23,1.23,0,0,0,121.9,145.42Z" transform="translate(-6.62 -10.52)"/>
      <path d="M129.62,147.76a2.05,2.05,0,1,1,2-2.06A2,2,0,0,1,129.62,147.76Zm0-.58A1.35,1.35,0,0,0,131,145.7a1.33,1.33,0,0,0-1.34-1.47,1.48,1.48,0,0,0,0,3Z" transform="translate(-6.62 -10.52)"/>
      <path d="M135.42,145.45a1.06,1.06,0,0,0-1.11-1.22c-.67,0-1.13.42-1.13,1.27v2.19h-.66v-4h.66v.56a1.45,1.45,0,0,1,1.27-.63,1.53,1.53,0,0,1,1.62,1.7v2.33h-.65Z" transform="translate(-6.62 -10.52)"/>
      <path d="M141.18,145.28a1.22,1.22,0,1,1,1.21,1.21A1.2,1.2,0,0,1,141.18,145.28Z" transform="translate(-6.62 -10.52)"/>
      <path d="M118.38,151.27a2.36,2.36,0,0,1,2.33,1.52h-.78a1.6,1.6,0,0,0-1.55-.94,2,2,0,0,0,0,4,1.6,1.6,0,0,0,1.55-.94h.78a2.36,2.36,0,0,1-2.33,1.51,2.58,2.58,0,0,1,0-5.15Z" transform="translate(-6.62 -10.52)"/>
      <path d="M124,156.42a2.57,2.57,0,1,1,2.53-2.57A2.48,2.48,0,0,1,124,156.42Zm0-.57a2,2,0,1,0-1.86-2A1.84,1.84,0,0,0,124,155.85Z" transform="translate(-6.62 -10.52)"/>
      <path d="M130.85,151.33h.7l-1.91,5h-.75l-1.91-5h.7l1.59,4.35Z" transform="translate(-6.62 -10.52)"/>
      <path d="M135.25,155.25h-2.2l-.4,1.12H132l1.83-5h.76l1.81,5h-.69Zm-1.1-3.08-.91,2.55h1.82Z" transform="translate(-6.62 -10.52)"/>
      <path d="M141.18,154a1.22,1.22,0,1,1,2.43,0,1.22,1.22,0,0,1-2.43,0Z" transform="translate(-6.62 -10.52)" style="fill: #fff"/>
    </g>
    <path d="M181.14,134.08H175a.44.44,0,0,0-.44.43.44.44,0,0,0,.44.44h6.12a.47.47,0,0,1,.47.47v16.85a.47.47,0,0,1-.47.47H154a.47.47,0,0,1-.47-.47V135.42A.47.47,0,0,1,154,135h9.61v.87h-8.77a.44.44,0,0,0-.44.44v11.56a.44.44,0,0,0,.88,0V136.7h8.33v2.35l-1.87.89a.45.45,0,0,0-.25.4v7.13a.41.41,0,0,0,.25.39l5.65,2.71a.5.5,0,0,0,.38,0l3.18-1.52a.44.44,0,1,0-.38-.79L168,149.48v-6.17l4.78-2.28v6.16l-.65.31a.44.44,0,0,0-.2.59.43.43,0,0,0,.58.2l.9-.43a.43.43,0,0,0,.25-.39v-7.13a.45.45,0,0,0-.25-.4l-1.87-.89V136.7h8.33V151H155.25v-1.3a.44.44,0,0,0-.88,0v1.74a.44.44,0,0,0,.44.43H180.3a.43.43,0,0,0,.43-.43V136.26a.44.44,0,0,0-.43-.44h-8.77V135h1.62a.44.44,0,0,0,.44-.44.44.44,0,0,0-.44-.43h-1.62v-.88h3.92a.44.44,0,0,0,.43-.44v-1a1.33,1.33,0,0,0,.88-1.24,1.32,1.32,0,0,0-2.63,0,1.33,1.33,0,0,0,.88,1.24v.6h-3.92a.44.44,0,0,0-.44.43v1.32H168v-2.35a1.32,1.32,0,0,0,.87-1.24,1.31,1.31,0,0,0-2.62,0,1.34,1.34,0,0,0,.87,1.24v2.35h-2.66v-1.32a.43.43,0,0,0-.43-.43h-3.93v-.6a1.33,1.33,0,0,0,.88-1.24,1.32,1.32,0,0,0-2.63,0,1.33,1.33,0,0,0,.88,1.24v1a.44.44,0,0,0,.44.44h3.92v.88H154a1.35,1.35,0,0,0-1.35,1.34v16.85a1.35,1.35,0,0,0,1.35,1.34h9.48a4.18,4.18,0,0,1-1.56,2.8H160a1.32,1.32,0,0,0,0,2.63h15.05a1.32,1.32,0,0,0,0-2.63h-1.86a4.18,4.18,0,0,1-1.57-2.8h9.49a1.34,1.34,0,0,0,1.34-1.34V135.42a1.34,1.34,0,0,0-1.34-1.34Zm-5.69-4a.44.44,0,0,1,0,.88.44.44,0,0,1,0-.88Zm-7.9,0a.44.44,0,1,1-.44.44.44.44,0,0,1,.44-.44Zm-7.89,0a.44.44,0,0,1,0,.88.44.44,0,1,1,0-.88Zm4.79,6.65h2.66v.66l-2.66,1.27Zm7.74,3.64-4.64,2.21-4.64-2.21,4.64-2.22Zm-9.86.69,4.78,2.28v6.17l-4.78-2.29Zm8.32-2.4L168,137.36v-.66h2.66Zm0-3.68v.87H168V135Zm-3.54,0v.87h-2.66V135Zm8.4,22.77a.43.43,0,0,1-.43.44H160a.44.44,0,1,1,0-.87h15.05a.43.43,0,0,1,.43.43ZM172,156.41h-8.82a5,5,0,0,0,1.19-2.8h6.44a5,5,0,0,0,1.19,2.8Zm0,0" transform="translate(-6.62 -10.52)" style="fill: #14a0c0"/>
  </g>
  <g id="light_teal_info">
    <g>
      <g>
        <path d="M444.78,74.81h-2.84v-6.1h2.75c1.24,0,2,.62,2,1.58a1.38,1.38,0,0,1-1,1.39,1.48,1.48,0,0,1,1.17,1.47C446.8,74.16,446.07,74.81,444.78,74.81Zm-.38-4.91h-1v1.28h1c.49,0,.76-.22.76-.64S444.89,69.9,444.4,69.9Zm.1,2.36h-1.07v1.35h1.09c.5,0,.78-.23.78-.66S445,72.26,444.5,72.26Z" transform="translate(-6.62 -10.52)"/>
        <path d="M447.67,68.38h1.48v6.43h-1.48Z" transform="translate(-6.62 -10.52)"/>
        <path d="M452.43,74.88A2.5,2.5,0,1,1,455,72.39,2.41,2.41,0,0,1,452.43,74.88Zm0-1.29a1.06,1.06,0,0,0,1-1.2c0-.83-.49-1.21-1-1.21s-1,.38-1,1.21S451.89,73.59,452.43,73.59Z" transform="translate(-6.62 -10.52)"/>
        <path d="M457.89,69.89a2.22,2.22,0,0,1,2.33,1.83h-1.58a.76.76,0,0,0-.77-.56c-.53,0-.9.42-.9,1.23s.37,1.22.9,1.22a.75.75,0,0,0,.77-.56h1.58a2.25,2.25,0,0,1-2.33,1.83,2.5,2.5,0,0,1,0-5Z" transform="translate(-6.62 -10.52)"/>
        <path d="M461,68.38h1.49v3.55L464,70h1.84l-2,2.43,2,2.42H464l-1.47-2v2H461Z" transform="translate(-6.62 -10.52)"/>
        <path d="M468.51,69.89a2.22,2.22,0,0,1,2.33,1.83h-1.58a.77.77,0,0,0-.77-.56c-.53,0-.9.42-.9,1.23s.37,1.22.9,1.22a.76.76,0,0,0,.77-.56h1.58a2.25,2.25,0,0,1-2.33,1.83,2.5,2.5,0,0,1,0-5Z" transform="translate(-6.62 -10.52)"/>
        <path d="M471.63,68.38h1.49v2.23a1.79,1.79,0,0,1,1.49-.7A1.82,1.82,0,0,1,476.45,72v2.83H475V72.18a.9.9,0,0,0-.93-1c-.56,0-.92.37-.92,1v2.63h-1.49Z" transform="translate(-6.62 -10.52)"/>
        <path d="M479.32,69.89a1.69,1.69,0,0,1,1.5.76V70h1.48v4.85h-1.48v-.69a1.71,1.71,0,0,1-1.51.76,2.53,2.53,0,0,1,0-5Zm.44,1.3a1.07,1.07,0,0,0-1.06,1.19,1.07,1.07,0,1,0,1.06-1.19Z" transform="translate(-6.62 -10.52)"/>
        <path d="M483.24,68.66a.88.88,0,1,1,.89.8A.82.82,0,0,1,483.24,68.66Zm.14,1.3h1.48v4.85h-1.48Z" transform="translate(-6.62 -10.52)"/>
        <path d="M489.28,72.18a.93.93,0,1,0-1.86,0v2.63h-1.48V70h1.48v.65a1.79,1.79,0,0,1,1.47-.7A1.83,1.83,0,0,1,490.76,72v2.83h-1.48Z" transform="translate(-6.62 -10.52)"/>
        <path d="M495.12,68.71v5h1.94v1.15h-3.43v-6.1Z" transform="translate(-6.62 -10.52)"/>
        <path d="M499.62,69.89a1.67,1.67,0,0,1,1.49.76V70h1.48v4.85h-1.48v-.69a1.7,1.7,0,0,1-1.5.76,2.53,2.53,0,0,1,0-5Zm.43,1.3A1.07,1.07,0,0,0,499,72.38a1.07,1.07,0,1,0,1.06-1.19Z" transform="translate(-6.62 -10.52)"/>
        <path d="M507,70h1.61l-3,7.15H504l1.11-2.47-2-4.68h1.66l1.12,3Z" transform="translate(-6.62 -10.52)"/>
        <path d="M511.31,74.88a2.5,2.5,0,0,1,0-5,2.29,2.29,0,0,1,2.42,2.42,3.22,3.22,0,0,1,0,.43h-3.36a.89.89,0,0,0,.92.93.78.78,0,0,0,.77-.47h1.58A2.26,2.26,0,0,1,511.31,74.88Zm-1-3h1.86a.85.85,0,0,0-.92-.84A.92.92,0,0,0,510.35,71.92Z" transform="translate(-6.62 -10.52)"/>
        <path d="M516,74.81h-1.48V70H516v.81a1.82,1.82,0,0,1,1.52-.86v1.57h-.41c-.7,0-1.11.25-1.11,1.08Z" transform="translate(-6.62 -10.52)"/>
        <path d="M518.92,71.34a.81.81,0,1,1,.88-.8A.82.82,0,0,1,518.92,71.34Zm0,3.54a.81.81,0,1,1,.88-.8A.83.83,0,0,1,518.92,74.88Z" transform="translate(-6.62 -10.52)"/>
        <path d="M522.53,68.71h4V69.9H524v1.29h1.85v1.15H524v2.47h-1.49Z" transform="translate(-6.62 -10.52)"/>
        <path d="M529.48,74.88A2.5,2.5,0,1,1,532,72.39,2.41,2.41,0,0,1,529.48,74.88Zm0-1.29a1.06,1.06,0,0,0,1-1.2c0-.83-.49-1.21-1-1.21s-1,.38-1,1.21S529,73.59,529.48,73.59Z" transform="translate(-6.62 -10.52)"/>
        <path d="M534.3,74.81h-1.49V70h1.49v.81a1.79,1.79,0,0,1,1.51-.86v1.57h-.4c-.71,0-1.11.25-1.11,1.08Z" transform="translate(-6.62 -10.52)"/>
        <path d="M540.77,72.62h-.92v2.19h-1.48v-6.1h2.4c1.5,0,2.24.84,2.24,2A2,2,0,0,1,540.77,72.62Zm-.11-1.18c.59,0,.84-.3.84-.77s-.25-.76-.84-.76h-.81v1.53Z" transform="translate(-6.62 -10.52)"/>
        <path d="M545.94,74.88a2.5,2.5,0,0,1,0-5,2.29,2.29,0,0,1,2.41,2.42c0,.14,0,.28,0,.43H545a.89.89,0,0,0,.92.93.79.79,0,0,0,.77-.47h1.58A2.26,2.26,0,0,1,545.94,74.88Zm-1-3h1.85a.84.84,0,0,0-.91-.84A.92.92,0,0,0,545,71.92Z" transform="translate(-6.62 -10.52)"/>
        <path d="M550.62,74.81h-1.49V70h1.49v.81a1.82,1.82,0,0,1,1.52-.86v1.57h-.41c-.7,0-1.11.25-1.11,1.08Z" transform="translate(-6.62 -10.52)"/>
        <path d="M554.82,74.88a2,2,0,0,1-2.23-1.66h1.47a.68.68,0,0,0,.75.56c.38,0,.58-.17.58-.39,0-.78-2.64-.21-2.64-2,0-.83.7-1.51,2-1.51a1.84,1.84,0,0,1,2,1.65h-1.37a.64.64,0,0,0-.72-.54c-.34,0-.53.14-.53.37,0,.77,2.62.23,2.65,2C556.79,74.24,556,74.88,554.82,74.88Z" transform="translate(-6.62 -10.52)"/>
        <path d="M557.56,68.66a.88.88,0,1,1,.88.8A.82.82,0,0,1,557.56,68.66Zm.14,1.3h1.48v4.85H557.7Z" transform="translate(-6.62 -10.52)"/>
        <path d="M562.23,74.88A2,2,0,0,1,560,73.22h1.47a.66.66,0,0,0,.74.56c.38,0,.58-.17.58-.39,0-.78-2.64-.21-2.64-2,0-.83.71-1.51,2-1.51a1.84,1.84,0,0,1,2,1.65h-1.38a.63.63,0,0,0-.71-.54c-.35,0-.54.14-.54.37,0,.77,2.63.23,2.65,2C564.19,74.24,563.44,74.88,562.23,74.88Z" transform="translate(-6.62 -10.52)"/>
        <path d="M565.34,71.2h-.59V70h.59V68.78h1.48V70h1V71.2h-1v1.94c0,.29.12.41.45.41h.53v1.26h-.75a1.5,1.5,0,0,1-1.71-1.69Z" transform="translate(-6.62 -10.52)"/>
        <path d="M570.78,74.88a2.5,2.5,0,0,1,0-5,2.29,2.29,0,0,1,2.42,2.42,3.22,3.22,0,0,1,0,.43h-3.36a.89.89,0,0,0,.92.93.78.78,0,0,0,.77-.47h1.58A2.26,2.26,0,0,1,570.78,74.88Zm-1-3h1.86a.85.85,0,0,0-.92-.84A.92.92,0,0,0,569.82,71.92Z" transform="translate(-6.62 -10.52)"/>
        <path d="M577.32,72.18a.93.93,0,1,0-1.86,0v2.63H574V70h1.48v.65a1.79,1.79,0,0,1,1.47-.7A1.83,1.83,0,0,1,578.8,72v2.83h-1.48Z" transform="translate(-6.62 -10.52)"/>
        <path d="M582,69.89a2.22,2.22,0,0,1,2.32,1.83h-1.58a.76.76,0,0,0-.77-.56c-.53,0-.89.42-.89,1.23s.36,1.22.89,1.22a.75.75,0,0,0,.77-.56h1.58A2.25,2.25,0,0,1,582,74.88a2.5,2.5,0,0,1,0-5Z" transform="translate(-6.62 -10.52)"/>
        <path d="M587.24,74.88a2.5,2.5,0,0,1,0-5,2.29,2.29,0,0,1,2.41,2.42,3.22,3.22,0,0,1,0,.43h-3.36a.9.9,0,0,0,.92.93.8.8,0,0,0,.78-.47h1.58A2.27,2.27,0,0,1,587.24,74.88Zm-1-3h1.86a.84.84,0,0,0-.91-.84A.93.93,0,0,0,586.27,71.92Z" transform="translate(-6.62 -10.52)"/>
      </g>
      <g>
        <path d="M477.25,87.47a1.22,1.22,0,1,1,2.43,0,1.22,1.22,0,0,1-2.43,0Z" transform="translate(-6.62 -10.52)"/>
        <path d="M490.7,85.37h-2.06v1.68h1.84v.55h-1.84v1.73h2.06v.54H488v-5h2.72Z" transform="translate(-6.62 -10.52)"/>
        <path d="M494.6,87.63a1.07,1.07,0,0,0-1.11-1.22c-.67,0-1.14.42-1.14,1.27v2.19h-.65v-4h.65v.57a1.46,1.46,0,0,1,1.28-.64,1.53,1.53,0,0,1,1.62,1.7v2.33h-.65Z" transform="translate(-6.62 -10.52)"/>
        <path d="M498,85.85a1.71,1.71,0,0,1,1.83,1.33h-.71A1.08,1.08,0,0,0,498,86.4c-.72,0-1.26.52-1.26,1.49s.54,1.49,1.26,1.49a1.05,1.05,0,0,0,1.12-.78h.71A1.76,1.76,0,0,1,498,89.94a2,2,0,0,1,0-4.09Z" transform="translate(-6.62 -10.52)"/>
        <path d="M501.38,89.87h-.66v-4h.66v.64a1.33,1.33,0,0,1,1.28-.71v.68h-.18c-.63,0-1.1.28-1.1,1.2Z" transform="translate(-6.62 -10.52)"/>
        <path d="M506.15,85.91h.68l-2.38,5.83h-.68l.78-1.91L503,85.91h.73l1.24,3.21Z" transform="translate(-6.62 -10.52)"/>
        <path d="M509.63,85.85a1.87,1.87,0,0,1,1.88,2,1.9,1.9,0,0,1-1.88,2.06,1.71,1.71,0,0,1-1.48-.8v2.61h-.66V85.91h.66v.73A1.67,1.67,0,0,1,509.63,85.85Zm-.13.57a1.48,1.48,0,1,0,1.34,1.46A1.34,1.34,0,0,0,509.5,86.42Z" transform="translate(-6.62 -10.52)"/>
        <path d="M512.53,86.45H512v-.54h.51v-1h.66v1h1v.54h-1v2.34c0,.39.14.53.55.53h.48v.55h-.59c-.7,0-1.1-.29-1.1-1.08Z" transform="translate(-6.62 -10.52)"/>
        <path d="M516.73,89.94a1.91,1.91,0,0,1-2-2,1.89,1.89,0,0,1,2-2,1.81,1.81,0,0,1,1.9,1.89,2.61,2.61,0,0,1,0,.4h-3.17a1.25,1.25,0,0,0,1.29,1.24,1.09,1.09,0,0,0,1.12-.73h.7A1.77,1.77,0,0,1,516.73,89.94Zm-1.28-2.34H518a1.16,1.16,0,0,0-1.25-1.2A1.23,1.23,0,0,0,515.45,87.6Z" transform="translate(-6.62 -10.52)"/>
        <path d="M521.15,85.85a1.7,1.7,0,0,1,1.46.77v-2.1h.67v5.35h-.67v-.74a1.61,1.61,0,0,1-1.47.81,1.91,1.91,0,0,1-1.88-2.06A1.88,1.88,0,0,1,521.15,85.85Zm.12.57a1.34,1.34,0,0,0-1.34,1.46,1.35,1.35,0,1,0,1.34-1.46Z" transform="translate(-6.62 -10.52)"/>
        <path d="M526.33,84.87H527L528.89,89l1.85-4.14h.7v5h-.66V86.14l-1.66,3.73h-.46L527,86.14v3.73h-.66Z" transform="translate(-6.62 -10.52)"/>
        <path d="M534.27,89.94a1.91,1.91,0,0,1-2-2,1.89,1.89,0,0,1,2-2,1.81,1.81,0,0,1,1.9,1.89,2.61,2.61,0,0,1,0,.4H533a1.25,1.25,0,0,0,1.29,1.24,1.09,1.09,0,0,0,1.12-.73h.7A1.77,1.77,0,0,1,534.27,89.94ZM533,87.6h2.5a1.16,1.16,0,0,0-1.25-1.2A1.23,1.23,0,0,0,533,87.6Z" transform="translate(-6.62 -10.52)"/>
        <path d="M537.19,86.45h-.51v-.54h.51v-1h.66v1h1v.54h-1v2.34c0,.39.14.53.55.53h.48v.55h-.59c-.7,0-1.1-.29-1.1-1.08Z" transform="translate(-6.62 -10.52)"/>
        <path d="M541.31,85.85a1.65,1.65,0,0,1,1.48.78v-.72h.66v4h-.66v-.73a1.66,1.66,0,0,1-1.48.8,1.91,1.91,0,0,1-1.88-2.06A1.88,1.88,0,0,1,541.31,85.85Zm.13.57a1.34,1.34,0,0,0-1.34,1.46,1.35,1.35,0,1,0,1.34-1.46Z" transform="translate(-6.62 -10.52)"/>
        <path d="M546.21,85.85a1.71,1.71,0,0,1,1.47.77v-2.1h.66v5.35h-.66v-.74a1.63,1.63,0,0,1-1.48.81,1.91,1.91,0,0,1-1.88-2.06A1.88,1.88,0,0,1,546.21,85.85Zm.12.57A1.33,1.33,0,0,0,545,87.88a1.35,1.35,0,1,0,1.33-1.46Z" transform="translate(-6.62 -10.52)"/>
        <path d="M551.1,85.85a1.64,1.64,0,0,1,1.47.78v-.72h.67v4h-.67v-.73a1.66,1.66,0,0,1-1.48.8,1.9,1.9,0,0,1-1.87-2.06A1.87,1.87,0,0,1,551.1,85.85Zm.13.57a1.34,1.34,0,0,0-1.34,1.46,1.35,1.35,0,1,0,1.34-1.46Z" transform="translate(-6.62 -10.52)"/>
        <path d="M554.5,86.45H554v-.54h.52v-1h.66v1h1v.54h-1v2.34c0,.39.14.53.55.53h.48v.55h-.59c-.7,0-1.1-.29-1.1-1.08Z" transform="translate(-6.62 -10.52)"/>
        <path d="M558.62,85.85a1.65,1.65,0,0,1,1.48.78v-.72h.66v4h-.66v-.73a1.68,1.68,0,0,1-1.49.8,1.91,1.91,0,0,1-1.87-2.06A1.88,1.88,0,0,1,558.62,85.85Zm.13.57a1.34,1.34,0,0,0-1.34,1.46,1.35,1.35,0,1,0,1.34-1.46Z" transform="translate(-6.62 -10.52)"/>
        <path d="M488.81,98.61c-1,0-1.73-.57-1.74-1.4h.7a.93.93,0,0,0,1,.84c.64,0,1-.36,1-.84,0-1.36-2.73-.49-2.73-2.36,0-.83.68-1.4,1.68-1.4a1.51,1.51,0,0,1,1.67,1.3h-.73a.9.9,0,0,0-1-.73c-.55,0-1,.26-1,.81,0,1.3,2.72.49,2.72,2.35A1.51,1.51,0,0,1,488.81,98.61Z" transform="translate(-6.62 -10.52)"/>
        <path d="M491.6,95.14h-.51v-.55h.51v-1h.66v1h1v.55h-1v2.33c0,.39.14.53.55.53h.48v.56h-.59c-.7,0-1.1-.29-1.1-1.09Z" transform="translate(-6.62 -10.52)"/>
        <path d="M495.82,98.62a1.92,1.92,0,0,1-2-2.05,2,2,0,1,1,2,2.05Zm0-.58a1.48,1.48,0,0,0,0-2.94,1.31,1.31,0,0,0-1.32,1.47A1.3,1.3,0,0,0,495.82,98Z" transform="translate(-6.62 -10.52)"/>
        <path d="M499.38,98.56h-.66v-4h.66v.65a1.33,1.33,0,0,1,1.28-.72v.68h-.17c-.63,0-1.11.28-1.11,1.2Z" transform="translate(-6.62 -10.52)"/>
        <path d="M503.06,94.53a1.65,1.65,0,0,1,1.47.79v-.73h.67v4h-.67v-.74a1.64,1.64,0,0,1-1.48.8,1.91,1.91,0,0,1-1.88-2.06A1.88,1.88,0,0,1,503.06,94.53Zm.13.57a1.34,1.34,0,0,0-1.34,1.46,1.35,1.35,0,1,0,1.34-1.46Z" transform="translate(-6.62 -10.52)"/>
        <path d="M508,94.53a1.62,1.62,0,0,1,1.47.79v-.73h.67v4a1.78,1.78,0,0,1-1.9,1.87,1.74,1.74,0,0,1-1.91-1.37h.65a1.23,1.23,0,0,0,1.26.8,1.18,1.18,0,0,0,1.23-1.3v-.83a1.65,1.65,0,0,1-1.47.81,1.9,1.9,0,0,1-1.88-2.06A1.87,1.87,0,0,1,508,94.53Zm.13.57a1.34,1.34,0,0,0-1.34,1.46,1.35,1.35,0,1,0,1.34-1.46Z" transform="translate(-6.62 -10.52)"/>
        <path d="M512.92,98.62a2,2,0,0,1,0-4.09,1.81,1.81,0,0,1,1.9,1.89c0,.15,0,.26,0,.4h-3.17a1.26,1.26,0,0,0,1.29,1.25,1.09,1.09,0,0,0,1.11-.73h.71A1.78,1.78,0,0,1,512.92,98.62Zm-1.28-2.33h2.5a1.16,1.16,0,0,0-1.25-1.2A1.22,1.22,0,0,0,511.64,96.29Z" transform="translate(-6.62 -10.52)"/>
        <path d="M519.35,98.62a1.92,1.92,0,0,1-2-2.05,2,2,0,1,1,4,0A2,2,0,0,1,519.35,98.62Zm0-.58a1.48,1.48,0,0,0,0-2.94,1.31,1.31,0,0,0-1.32,1.47A1.3,1.3,0,0,0,519.35,98Z" transform="translate(-6.62 -10.52)"/>
        <path d="M525.15,96.32c0-.81-.44-1.23-1.1-1.23s-1.14.42-1.14,1.28v2.19h-.66v-4h.66v.57a1.47,1.47,0,0,1,1.27-.64,1.54,1.54,0,0,1,1.62,1.7v2.34h-.65Z" transform="translate(-6.62 -10.52)"/>
        <path d="M528.51,93.52h3.41v.53h-1.38v4.51h-.65V94.05h-1.38Z" transform="translate(-6.62 -10.52)"/>
        <path d="M535.44,94.05h-2.05v1.69h1.84v.54h-1.84V98h2.05v.54h-2.71v-5h2.71Z" transform="translate(-6.62 -10.52)"/>
        <path d="M539.16,94.05H537.1v1.69h1.84v.54H537.1V98h2.06v.54h-2.72v-5h2.72Z" transform="translate(-6.62 -10.52)"/>
        <path d="M542.74,98.56h-.65v-4h.65v.65a1.35,1.35,0,0,1,1.28-.72v.68h-.17c-.63,0-1.11.28-1.11,1.2Z" transform="translate(-6.62 -10.52)"/>
        <path d="M546.51,98.62a1.92,1.92,0,0,1-2-2.05,2,2,0,1,1,4,0A2,2,0,0,1,546.51,98.62Zm0-.58a1.34,1.34,0,0,0,1.36-1.47,1.34,1.34,0,1,0-2.66,0A1.31,1.31,0,0,0,546.51,98Z" transform="translate(-6.62 -10.52)"/>
        <path d="M552.93,98.56h-.66V98a1.45,1.45,0,0,1-1.26.65,1.55,1.55,0,0,1-1.63-1.7V94.59H550v2.24A1.06,1.06,0,0,0,551.14,98c.68,0,1.13-.42,1.13-1.27V94.59h.66Z" transform="translate(-6.62 -10.52)"/>
        <path d="M554.19,95.14h-.51v-.55h.51v-1h.66v1h1v.55h-1v2.33c0,.39.14.53.55.53h.48v.56h-.59c-.7,0-1.1-.29-1.1-1.09Z" transform="translate(-6.62 -10.52)"/>
        <path d="M556.57,93.5A.45.45,0,1,1,557,94,.45.45,0,0,1,556.57,93.5Zm.11,1.09h.66v4h-.66Z" transform="translate(-6.62 -10.52)"/>
        <path d="M561.36,96.32c0-.81-.44-1.23-1.1-1.23s-1.14.42-1.14,1.28v2.19h-.66v-4h.66v.57a1.47,1.47,0,0,1,1.27-.64,1.54,1.54,0,0,1,1.62,1.7v2.34h-.65Z" transform="translate(-6.62 -10.52)"/>
        <path d="M564.73,94.53a1.62,1.62,0,0,1,1.47.79v-.73h.67v4a1.78,1.78,0,0,1-1.9,1.87,1.74,1.74,0,0,1-1.91-1.37h.65a1.23,1.23,0,0,0,1.26.8,1.18,1.18,0,0,0,1.23-1.3v-.83a1.65,1.65,0,0,1-1.47.81,1.9,1.9,0,0,1-1.88-2.06A1.87,1.87,0,0,1,564.73,94.53Zm.13.57a1.34,1.34,0,0,0-1.34,1.46,1.35,1.35,0,1,0,1.34-1.46Z" transform="translate(-6.62 -10.52)"/>
        <path d="M572.82,96.32a1.08,1.08,0,0,0-1.11-1.23c-.67,0-1.14.42-1.14,1.28v2.19h-.65v-4h.65v.57a1.48,1.48,0,0,1,1.28-.64,1.54,1.54,0,0,1,1.62,1.7v2.34h-.65Z" transform="translate(-6.62 -10.52)"/>
        <path d="M576.27,98.62a1.92,1.92,0,0,1-2-2.05,2,2,0,1,1,4,0A2,2,0,0,1,576.27,98.62Zm0-.58a1.34,1.34,0,0,0,1.36-1.47,1.34,1.34,0,1,0-2.66,0A1.31,1.31,0,0,0,576.27,98Z" transform="translate(-6.62 -10.52)"/>
        <path d="M580.82,94.53a1.75,1.75,0,0,1,1.47.77V93.21H583v5.35h-.66v-.75a1.63,1.63,0,0,1-1.48.81,1.91,1.91,0,0,1-1.88-2.06A1.88,1.88,0,0,1,580.82,94.53Zm.12.57a1.34,1.34,0,0,0-1.34,1.46,1.35,1.35,0,1,0,1.34-1.46Z" transform="translate(-6.62 -10.52)"/>
        <path d="M585.78,98.62a2,2,0,0,1,0-4.09,1.81,1.81,0,0,1,1.9,1.89,2.61,2.61,0,0,1,0,.4H584.5a1.25,1.25,0,0,0,1.28,1.25,1.1,1.1,0,0,0,1.12-.73h.71A1.79,1.79,0,0,1,585.78,98.62Zm-1.28-2.33H587a1.17,1.17,0,0,0-1.26-1.2A1.23,1.23,0,0,0,584.5,96.29Z" transform="translate(-6.62 -10.52)"/>
        <path d="M590,98.62c-.93,0-1.58-.5-1.62-1.23H589c0,.39.37.68.93.68s.81-.26.81-.59c0-.88-2.34-.37-2.34-1.84,0-.61.57-1.11,1.45-1.11a1.33,1.33,0,0,1,1.5,1.24h-.66a.76.76,0,0,0-.86-.68c-.48,0-.77.23-.77.55,0,.94,2.3.42,2.32,1.84C591.4,98.13,590.83,98.62,590,98.62Z" transform="translate(-6.62 -10.52)"/>
        <path d="M477.25,104.83a1.22,1.22,0,1,1,1.21,1.21A1.2,1.2,0,0,1,477.25,104.83Z" transform="translate(-6.62 -10.52)"/>
        <path d="M487.59,102.2h.71l1.09,4.27,1.22-4.27h.74l1.15,4.26,1.11-4.26h.71l-1.46,5h-.74L491,103.18l-1.22,4.06H489Z" transform="translate(-6.62 -10.52)"/>
        <path d="M496.68,103.21a1.67,1.67,0,0,1,1.48.79v-.72h.66v4h-.66v-.74a1.67,1.67,0,0,1-1.49.81,1.91,1.91,0,0,1-1.87-2.07A1.88,1.88,0,0,1,496.68,103.21Zm.13.57a1.34,1.34,0,0,0-1.34,1.46,1.35,1.35,0,1,0,1.34-1.46Z" transform="translate(-6.62 -10.52)"/>
        <path d="M499.94,101.89h.66v5.35h-.66Z" transform="translate(-6.62 -10.52)"/>
        <path d="M501.72,101.89h.66v5.35h-.66Z" transform="translate(-6.62 -10.52)"/>
        <path d="M505.21,107.31a1.91,1.91,0,0,1-2-2.06,1.89,1.89,0,0,1,2-2,1.82,1.82,0,0,1,1.9,1.9,2.48,2.48,0,0,1,0,.39h-3.17a1.26,1.26,0,0,0,1.29,1.25,1.09,1.09,0,0,0,1.12-.73H507A1.8,1.8,0,0,1,505.21,107.31ZM503.93,105h2.5a1.16,1.16,0,0,0-1.25-1.2A1.24,1.24,0,0,0,503.93,105Z" transform="translate(-6.62 -10.52)"/>
        <path d="M508.13,103.82h-.51v-.54h.51v-1h.66v1h1v.54h-1v2.34c0,.39.14.52.55.52h.48v.56h-.59c-.7,0-1.1-.29-1.1-1.08Z" transform="translate(-6.62 -10.52)"/>
        <path d="M514.18,103.21a1.65,1.65,0,0,1,1.48.79v-.72h.67v4h-.67v-.74a1.65,1.65,0,0,1-1.48.81,1.92,1.92,0,0,1-1.88-2.07A1.88,1.88,0,0,1,514.18,103.21Zm.13.57a1.33,1.33,0,0,0-1.33,1.46,1.35,1.35,0,1,0,1.33-1.46Z" transform="translate(-6.62 -10.52)"/>
        <path d="M520.34,105c0-.81-.44-1.22-1.1-1.22s-1.14.42-1.14,1.27v2.19h-.66v-4h.66v.56a1.47,1.47,0,0,1,1.27-.63A1.53,1.53,0,0,1,521,104.9v2.34h-.65Z" transform="translate(-6.62 -10.52)"/>
        <path d="M523.72,103.21a1.71,1.71,0,0,1,1.46.78v-2.1h.67v5.35h-.67v-.74a1.63,1.63,0,0,1-1.47.81,1.91,1.91,0,0,1-1.88-2.07A1.88,1.88,0,0,1,523.72,103.21Zm.12.57a1.34,1.34,0,0,0-1.34,1.46,1.35,1.35,0,1,0,1.34-1.46Z" transform="translate(-6.62 -10.52)"/>
        <path d="M530.3,107.31c-.93,0-1.58-.51-1.62-1.23h.68c0,.38.37.67.93.67s.81-.26.81-.59c0-.88-2.34-.37-2.34-1.84,0-.61.57-1.11,1.45-1.11a1.33,1.33,0,0,1,1.5,1.25h-.66a.76.76,0,0,0-.86-.69c-.48,0-.77.23-.77.55,0,.94,2.3.43,2.33,1.84C531.75,106.81,531.17,107.31,530.3,107.31Z" transform="translate(-6.62 -10.52)"/>
        <path d="M538.39,105c0-.81-.43-1.22-1.08-1.22s-1.12.42-1.12,1.28v2.18h-.65V105c0-.81-.44-1.22-1.09-1.22s-1.12.42-1.12,1.28v2.18h-.66v-4h.66v.57a1.43,1.43,0,0,1,1.25-.64,1.49,1.49,0,0,1,1.46.88,1.46,1.46,0,0,1,1.4-.88,1.53,1.53,0,0,1,1.61,1.69v2.34h-.66Z" transform="translate(-6.62 -10.52)"/>
        <path d="M541.76,103.21a1.65,1.65,0,0,1,1.48.79v-.72h.66v4h-.66v-.74a1.67,1.67,0,0,1-1.49.81,1.91,1.91,0,0,1-1.87-2.07A1.88,1.88,0,0,1,541.76,103.21Zm.13.57a1.34,1.34,0,0,0-1.34,1.46,1.35,1.35,0,1,0,1.34-1.46Z" transform="translate(-6.62 -10.52)"/>
        <path d="M545.68,107.24H545v-4h.66v.64a1.33,1.33,0,0,1,1.28-.71v.67h-.18c-.63,0-1.1.29-1.1,1.21Z" transform="translate(-6.62 -10.52)"/>
        <path d="M547.86,103.82h-.51v-.54h.51v-1h.66v1h1v.54h-1v2.34c0,.39.14.52.55.52h.48v.56H549c-.7,0-1.1-.29-1.1-1.08Z" transform="translate(-6.62 -10.52)"/>
        <path d="M554,103.21a1.73,1.73,0,0,1,1.83,1.34h-.71a1.08,1.08,0,0,0-1.12-.78c-.73,0-1.26.51-1.26,1.48s.53,1.5,1.26,1.5a1.07,1.07,0,0,0,1.12-.78h.71a1.77,1.77,0,0,1-1.83,1.34,2.05,2.05,0,0,1,0-4.1Z" transform="translate(-6.62 -10.52)"/>
        <path d="M558.4,107.31a2.05,2.05,0,1,1,2-2.06A2,2,0,0,1,558.4,107.31Zm0-.58a1.35,1.35,0,0,0,1.36-1.48,1.34,1.34,0,1,0-2.66,0A1.31,1.31,0,0,0,558.4,106.73Z" transform="translate(-6.62 -10.52)"/>
        <path d="M564.21,105a1.07,1.07,0,0,0-1.11-1.22c-.67,0-1.14.42-1.14,1.27v2.19h-.65v-4H562v.56a1.47,1.47,0,0,1,1.28-.63,1.53,1.53,0,0,1,1.62,1.69v2.34h-.65Z" transform="translate(-6.62 -10.52)"/>
        <path d="M566.08,103.82h-.51v-.54h.51v-1h.66v1h1v.54h-1v2.34c0,.39.14.52.55.52h.48v.56h-.59c-.7,0-1.1-.29-1.1-1.08Z" transform="translate(-6.62 -10.52)"/>
        <path d="M569.23,107.24h-.66v-4h.66v.64a1.33,1.33,0,0,1,1.28-.71v.67h-.17c-.63,0-1.11.29-1.11,1.21Z" transform="translate(-6.62 -10.52)"/>
        <path d="M572.9,103.21a1.65,1.65,0,0,1,1.48.79v-.72h.67v4h-.67v-.74a1.65,1.65,0,0,1-1.48.81,1.92,1.92,0,0,1-1.88-2.07A1.88,1.88,0,0,1,572.9,103.21Zm.13.57a1.33,1.33,0,0,0-1.33,1.46,1.35,1.35,0,1,0,1.33-1.46Z" transform="translate(-6.62 -10.52)"/>
        <path d="M577.85,103.21a1.73,1.73,0,0,1,1.83,1.34H579a1.08,1.08,0,0,0-1.12-.78c-.73,0-1.26.51-1.26,1.48s.53,1.5,1.26,1.5A1.07,1.07,0,0,0,579,106h.71a1.77,1.77,0,0,1-1.83,1.34,2.05,2.05,0,0,1,0-4.1Z" transform="translate(-6.62 -10.52)"/>
        <path d="M580.7,103.82h-.51v-.54h.51v-1h.66v1h1v.54h-1v2.34c0,.39.14.52.55.52h.48v.56h-.59c-.7,0-1.1-.29-1.1-1.08Z" transform="translate(-6.62 -10.52)"/>
        <path d="M489.42,116a2,2,0,1,1,2-2A2,2,0,0,1,489.42,116Zm0-.58a1.48,1.48,0,0,0,0-2.94,1.31,1.31,0,0,0-1.32,1.47A1.3,1.3,0,0,0,489.42,115.41Z" transform="translate(-6.62 -10.52)"/>
        <path d="M495.22,113.68c0-.81-.44-1.22-1.1-1.22s-1.14.42-1.14,1.27v2.19h-.66v-4H493v.56a1.47,1.47,0,0,1,1.27-.63,1.53,1.53,0,0,1,1.62,1.7v2.33h-.65Z" transform="translate(-6.62 -10.52)"/>
        <path d="M501.6,111.42h-2.06v1.68h1.84v.55h-1.84v1.73h2.06v.54h-2.72v-5h2.72Z" transform="translate(-6.62 -10.52)"/>
        <path d="M502.74,112.5h-.51V112h.51v-1h.66v1h1v.54h-1v2.34c0,.39.15.53.55.53h.48v.55h-.59c-.7,0-1.1-.29-1.1-1.08Z" transform="translate(-6.62 -10.52)"/>
        <path d="M505.23,110.57h.66v2a1.49,1.49,0,0,1,1.31-.64,1.53,1.53,0,0,1,1.58,1.7v2.33h-.65v-2.24a1.06,1.06,0,0,0-1.11-1.22c-.67,0-1.13.42-1.13,1.27v2.19h-.66Z" transform="translate(-6.62 -10.52)"/>
        <path d="M511.58,116a1.91,1.91,0,0,1-2-2,1.88,1.88,0,0,1,2-2,1.81,1.81,0,0,1,1.9,1.89c0,.15,0,.26,0,.4h-3.17a1.24,1.24,0,0,0,1.29,1.24,1.08,1.08,0,0,0,1.11-.73h.71A1.79,1.79,0,0,1,511.58,116Zm-1.28-2.34h2.5a1.16,1.16,0,0,0-1.25-1.2A1.22,1.22,0,0,0,510.3,113.65Z" transform="translate(-6.62 -10.52)"/>
        <path d="M515,115.92h-.66v-4H515v.64a1.33,1.33,0,0,1,1.28-.71v.68h-.18c-.63,0-1.1.28-1.1,1.2Z" transform="translate(-6.62 -10.52)"/>
        <path d="M518.76,116a1.91,1.91,0,0,1-2-2,1.88,1.88,0,0,1,2-2,1.81,1.81,0,0,1,1.9,1.89,2.61,2.61,0,0,1,0,.4h-3.17a1.25,1.25,0,0,0,1.29,1.24,1.1,1.1,0,0,0,1.12-.73h.7A1.78,1.78,0,0,1,518.76,116Zm-1.28-2.34H520a1.16,1.16,0,0,0-1.25-1.2A1.23,1.23,0,0,0,517.48,113.65Z" transform="translate(-6.62 -10.52)"/>
        <path d="M525.05,115.92h-.66v-.58a1.46,1.46,0,0,1-1.26.64,1.54,1.54,0,0,1-1.63-1.7V112h.65v2.24a1.06,1.06,0,0,0,1.11,1.21c.67,0,1.13-.42,1.13-1.27V112h.66Z" transform="translate(-6.62 -10.52)"/>
        <path d="M531.89,113.68c0-.81-.44-1.22-1.09-1.22s-1.12.43-1.12,1.28v2.18H529v-2.24c0-.81-.44-1.22-1.09-1.22s-1.12.43-1.12,1.28v2.18h-.66v-4h.66v.57a1.43,1.43,0,0,1,1.25-.64,1.5,1.5,0,0,1,1.46.88,1.46,1.46,0,0,1,1.4-.88,1.53,1.53,0,0,1,1.61,1.7v2.33h-.65Z" transform="translate(-6.62 -10.52)"/>
        <path d="M537.24,117.27a6.14,6.14,0,0,1,.11-8.1H538v.06a5.83,5.83,0,0,0-.11,8v.07Z" transform="translate(-6.62 -10.52)"/>
        <path d="M539,112.5h-.52V112H539v-.28c0-.88.43-1.28,1.44-1.28V111c-.59,0-.78.21-.78.73V112h.83v.54h-.83v3.42H539Z" transform="translate(-6.62 -10.52)"/>
        <path d="M542.94,116a2,2,0,1,1,2-2A2,2,0,0,1,542.94,116Zm0-.58a1.34,1.34,0,0,0,1.36-1.47,1.34,1.34,0,1,0-2.66,0A1.31,1.31,0,0,0,542.94,115.41Z" transform="translate(-6.62 -10.52)"/>
        <path d="M546.5,115.92h-.65v-4h.65v.64a1.35,1.35,0,0,1,1.28-.71v.68h-.17c-.63,0-1.11.28-1.11,1.2Z" transform="translate(-6.62 -10.52)"/>
        <path d="M550.37,110.87a.44.44,0,1,1,.45.45A.44.44,0,0,1,550.37,110.87Zm.11,1.09h.65v4h-.65Z" transform="translate(-6.62 -10.52)"/>
        <path d="M555.16,113.68a1.06,1.06,0,0,0-1.11-1.22c-.67,0-1.13.42-1.13,1.27v2.19h-.66v-4h.66v.56a1.45,1.45,0,0,1,1.27-.63,1.53,1.53,0,0,1,1.62,1.7v2.33h-.65Z" transform="translate(-6.62 -10.52)"/>
        <path d="M558.57,111.9a1.71,1.71,0,0,1,1.83,1.33h-.71a1.08,1.08,0,0,0-1.12-.78c-.72,0-1.26.52-1.26,1.49s.54,1.49,1.26,1.49a1.05,1.05,0,0,0,1.12-.78h.71a1.76,1.76,0,0,1-1.83,1.34,2,2,0,0,1,0-4.09Z" transform="translate(-6.62 -10.52)"/>
        <path d="M563,116a1.92,1.92,0,0,1-2-2,1.89,1.89,0,0,1,2-2,1.82,1.82,0,0,1,1.9,1.89c0,.15,0,.26,0,.4h-3.17a1.24,1.24,0,0,0,1.29,1.24,1.09,1.09,0,0,0,1.11-.73h.71A1.79,1.79,0,0,1,563,116Zm-1.28-2.34h2.5a1.17,1.17,0,0,0-1.25-1.2A1.22,1.22,0,0,0,561.72,113.65Z" transform="translate(-6.62 -10.52)"/>
        <path d="M568.67,113.68a1.06,1.06,0,0,0-1.11-1.22c-.67,0-1.14.42-1.14,1.27v2.19h-.65v-4h.65v.56a1.48,1.48,0,0,1,1.28-.63,1.53,1.53,0,0,1,1.62,1.7v2.33h-.65Z" transform="translate(-6.62 -10.52)"/>
        <path d="M570.54,112.5H570V112h.51v-1h.66v1h1v.54h-1v2.34c0,.39.15.53.55.53h.48v.55h-.59c-.7,0-1.1-.29-1.1-1.08Z" transform="translate(-6.62 -10.52)"/>
        <path d="M572.92,110.87a.45.45,0,1,1,.45.45A.45.45,0,0,1,572.92,110.87ZM573,112h.66v4H573Z" transform="translate(-6.62 -10.52)"/>
        <path d="M575.05,112l1.24,3.36,1.23-3.36h.7l-1.56,4h-.76l-1.56-4Z" transform="translate(-6.62 -10.52)"/>
        <path d="M580.59,116a1.91,1.91,0,0,1-2-2,1.88,1.88,0,0,1,2-2,1.81,1.81,0,0,1,1.9,1.89c0,.15,0,.26,0,.4H579.3a1.24,1.24,0,0,0,1.29,1.24,1.09,1.09,0,0,0,1.11-.73h.71A1.79,1.79,0,0,1,580.59,116Zm-1.28-2.34h2.5a1.16,1.16,0,0,0-1.25-1.2A1.22,1.22,0,0,0,579.31,113.65Z" transform="translate(-6.62 -10.52)"/>
        <path d="M584.76,116a1.45,1.45,0,0,1-1.62-1.23h.68c0,.38.38.67.93.67s.81-.26.81-.58c0-.89-2.34-.37-2.34-1.85,0-.61.57-1.1,1.45-1.1a1.33,1.33,0,0,1,1.5,1.24h-.66a.76.76,0,0,0-.86-.69c-.48,0-.77.23-.77.55,0,.94,2.3.43,2.33,1.85C586.21,115.5,585.64,116,584.76,116Z" transform="translate(-6.62 -10.52)"/>
        <path d="M586.93,117.27v-.07a5.86,5.86,0,0,0-.11-8v-.06h.68a6.14,6.14,0,0,1,.11,8.1Z" transform="translate(-6.62 -10.52)"/>
      </g>
      <path d="M457.71,86h7.22l-1.38,2.75h-7.21L457.71,86Zm6.58,9.29v-6l.92-1.83v5.74l-.92,2.06Zm-.91,1.7h-3.21V92.83h-.91V97h-3.21V89.63h7.33V97Zm-4.12,2.75h-1.83a.46.46,0,0,0-.42.25l-1.83,3.66h0a.41.41,0,0,0-.05.21v3.66h-2.75v-7.32h0a.46.46,0,0,0-.45-.46h-5.5V97.87h3.66a.46.46,0,0,0,.42-.28h0l1.71-3.84h2.91v3.66a.46.46,0,0,0,.46.46h3.66V99.7Zm5.67.91-1.38,2.75h-3.38v-2.75Zm-.64,9.29v-6l.92-1.84v5.75l-.92,2.06Zm-8-6.54,1.37-2.75h1.55v2.75Zm7,8.24h-7.33v-3.21h4.12v-.91h-4.12v-3.2h7.33v7.32Zm-12.82-1.7v-1.51h.67l-.67,1.51Zm-.92,1.7h-7.32v-7.32h3.2v4.11h.92v-4.11h3.2v7.32Zm.18-8.24h-3.38v-2.75h4.75l-1.37,2.75Zm1.66,4.12h-.92v-3.55l.92-1.84v5.39Zm-7.5-6.87h1.54v2.75H442.6l1.38-2.75Zm-1.66-11h7.32v3.2h-4.12v.92h4.12V97h-7.32V89.63ZM444,86h7.21l-1.37,2.75H442.6L444,86Zm6.58,6.87V89.28l.92-1.83v5.38Zm0,.92h.67l-.67,1.5v-1.5Zm4.58-.92h-2.75V85.51h0a.46.46,0,0,0-.45-.46h-8.25a.47.47,0,0,0-.41.25L441.45,89h0a.56.56,0,0,0-.06.21v8.24a.47.47,0,0,0,.46.46h3.66V99.7h-1.83a.47.47,0,0,0-.41.25l-1.83,3.66h0a.56.56,0,0,0-.06.21v8.24a.46.46,0,0,0,.46.45h8.24a.45.45,0,0,0,.42-.27h0l1.71-3.85h2.91v3.67a.45.45,0,0,0,.46.45h8.23a.44.44,0,0,0,.42-.27h0l1.83-4.12a.39.39,0,0,0,0-.18v-7.78h0a.44.44,0,0,0-.44-.46h-5.51V97.87h3.66a.45.45,0,0,0,.42-.28h0l1.83-4.11a.43.43,0,0,0,0-.19V85.51h0a.44.44,0,0,0-.44-.46h-8.25a.48.48,0,0,0-.42.25L455.18,89h0a.41.41,0,0,0-.05.21v3.66Z" transform="translate(-6.62 -10.52)" style="fill: #01cc9b"/>
    </g>
  </g>
  <g id="green_info">
    <g>
      <path d="M18.85,27.7H16.57l-.36,1.07H14.65l2.21-6.09h1.72l2.2,6.09H19.21Zm-1.14-3.38L17,26.55h1.5Z" transform="translate(-6.62 -10.52)"/>
      <path d="M24.43,23.86a2.22,2.22,0,0,1,2.13,2.48,2.24,2.24,0,0,1-2.13,2.5,1.74,1.74,0,0,1-1.49-.74v3H21.45V23.93h1.49v.68A1.7,1.7,0,0,1,24.43,23.86ZM24,25.15a1.21,1.21,0,1,0,1.06,1.19A1.09,1.09,0,0,0,24,25.15Z" transform="translate(-6.62 -10.52)"/>
      <path d="M30.32,23.86a2.23,2.23,0,0,1,2.14,2.48,2.25,2.25,0,0,1-2.14,2.5,1.76,1.76,0,0,1-1.49-.74v3H27.35V23.93h1.48v.68A1.71,1.71,0,0,1,30.32,23.86Zm-.44,1.29A1.21,1.21,0,1,0,31,26.34,1.08,1.08,0,0,0,29.88,25.15Z" transform="translate(-6.62 -10.52)"/>
      <path d="M33.24,22.35h1.49v6.42H33.24Z" transform="translate(-6.62 -10.52)"/>
      <path d="M35.66,22.63a.89.89,0,1,1,.89.79A.82.82,0,0,1,35.66,22.63Zm.14,1.3h1.49v4.84H35.8Z" transform="translate(-6.62 -10.52)"/>
      <path d="M40.5,23.86a2.22,2.22,0,0,1,2.33,1.82H41.25a.77.77,0,0,0-.78-.55c-.52,0-.89.41-.89,1.22s.37,1.22.89,1.22a.76.76,0,0,0,.78-.55h1.58a2.25,2.25,0,0,1-2.33,1.82,2.32,2.32,0,0,1-2.43-2.49A2.33,2.33,0,0,1,40.5,23.86Z" transform="translate(-6.62 -10.52)"/>
      <path d="M45.46,23.86a1.69,1.69,0,0,1,1.49.75v-.68h1.49v4.84H47v-.68a1.72,1.72,0,0,1-1.5.75,2.25,2.25,0,0,1-2.13-2.5A2.23,2.23,0,0,1,45.46,23.86Zm.43,1.29a1.08,1.08,0,0,0-1.06,1.19,1.1,1.1,0,0,0,1.06,1.21,1.21,1.21,0,0,0,0-2.4Z" transform="translate(-6.62 -10.52)"/>
      <path d="M49.75,25.16h-.59V23.93h.59V22.75h1.48v1.18h1v1.23h-1v1.95c0,.28.12.4.45.4h.53v1.26h-.75a1.49,1.49,0,0,1-1.71-1.68Z" transform="translate(-6.62 -10.52)"/>
      <path d="M52.9,22.63a.82.82,0,0,1,.89-.81.8.8,0,1,1,0,1.6A.82.82,0,0,1,52.9,22.63Zm.14,1.3h1.48v4.84H53Z" transform="translate(-6.62 -10.52)"/>
      <path d="M57.81,28.84a2.49,2.49,0,1,1,2.53-2.49A2.4,2.4,0,0,1,57.81,28.84Zm0-1.28c.53,0,1-.39,1-1.21s-.49-1.21-1-1.21-1,.39-1,1.21S57.27,27.56,57.81,27.56Z" transform="translate(-6.62 -10.52)"/>
      <path d="M64.47,26.14a.93.93,0,1,0-1.85,0v2.63H61.13V23.93h1.49v.64a1.75,1.75,0,0,1,1.46-.69A1.83,1.83,0,0,1,66,25.94v2.83H64.47Z" transform="translate(-6.62 -10.52)"/>
      <path d="M70.31,22.68v4.95h2v1.14H68.83V22.68Z" transform="translate(-6.62 -10.52)"/>
      <path d="M74.81,23.86a1.69,1.69,0,0,1,1.49.75v-.68h1.49v4.84H76.3v-.68a1.72,1.72,0,0,1-1.5.75,2.25,2.25,0,0,1-2.13-2.5A2.23,2.23,0,0,1,74.81,23.86Zm.43,1.29a1.08,1.08,0,0,0-1.06,1.19,1.1,1.1,0,0,0,1.06,1.21,1.21,1.21,0,0,0,0-2.4Z" transform="translate(-6.62 -10.52)"/>
      <path d="M82.21,23.93h1.6l-3,7.14H79.18l1.11-2.46-2-4.68H80l1.12,3Z" transform="translate(-6.62 -10.52)"/>
      <path d="M86.5,28.84a2.33,2.33,0,0,1-2.44-2.49,2.32,2.32,0,0,1,2.44-2.49,2.29,2.29,0,0,1,2.42,2.41,3.37,3.37,0,0,1,0,.44H85.53a.9.9,0,0,0,.92.93.78.78,0,0,0,.77-.47H88.8A2.26,2.26,0,0,1,86.5,28.84Zm-1-3H87.4a.84.84,0,0,0-.91-.83A.92.92,0,0,0,85.54,25.88Z" transform="translate(-6.62 -10.52)"/>
      <path d="M91.18,28.77H89.7V23.93h1.48v.81a1.79,1.79,0,0,1,1.52-.86v1.57h-.4c-.71,0-1.12.24-1.12,1.07Z" transform="translate(-6.62 -10.52)"/>
      <path d="M94.11,25.31a.81.81,0,1,1,.88-.8A.83.83,0,0,1,94.11,25.31Zm0,3.53A.81.81,0,1,1,95,28,.82.82,0,0,1,94.11,28.84Z" transform="translate(-6.62 -10.52)"/>
      <path d="M97.72,22.68h4v1.19H99.21v1.28h1.86v1.16H99.21v2.46H97.72Z" transform="translate(-6.62 -10.52)"/>
      <path d="M104.68,28.84a2.49,2.49,0,1,1,2.53-2.49A2.4,2.4,0,0,1,104.68,28.84Zm0-1.28c.53,0,1-.39,1-1.21s-.48-1.21-1-1.21-1,.39-1,1.21S104.14,27.56,104.68,27.56Z" transform="translate(-6.62 -10.52)"/>
      <path d="M109.49,28.77H108V23.93h1.49v.81a1.79,1.79,0,0,1,1.52-.86v1.57h-.41c-.7,0-1.11.24-1.11,1.07Z" transform="translate(-6.62 -10.52)"/>
      <path d="M115.71,28.84a2.33,2.33,0,0,1-2.44-2.49,2.32,2.32,0,0,1,2.44-2.49,2.29,2.29,0,0,1,2.42,2.41,3.37,3.37,0,0,1,0,.44h-3.36a.9.9,0,0,0,.92.93.78.78,0,0,0,.77-.47H118A2.26,2.26,0,0,1,115.71,28.84Zm-1-3h1.86a.84.84,0,0,0-.91-.83A.92.92,0,0,0,114.75,25.88Z" transform="translate(-6.62 -10.52)"/>
      <path d="M122.25,26.14a.93.93,0,1,0-1.86,0v2.63h-1.48V23.93h1.48v.64a1.78,1.78,0,0,1,1.47-.69,1.83,1.83,0,0,1,1.87,2.06v2.83h-1.48Z" transform="translate(-6.62 -10.52)"/>
      <path d="M126.6,23.86a1.78,1.78,0,0,1,1.5.74V22.35h1.48v6.42H128.1v-.69a1.69,1.69,0,0,1-1.5.76,2.24,2.24,0,0,1-2.13-2.5A2.22,2.22,0,0,1,126.6,23.86Zm.44,1.29A1.08,1.08,0,0,0,126,26.34,1.07,1.07,0,1,0,127,25.15Z" transform="translate(-6.62 -10.52)"/>
      <path d="M137.28,28.77H135.8v-.66a1.77,1.77,0,0,1-1.47.71,1.84,1.84,0,0,1-1.88-2.06V23.93h1.48v2.63a.94.94,0,1,0,1.87,0V23.93h1.48Z" transform="translate(-6.62 -10.52)"/>
      <path d="M140.32,28.84a2,2,0,0,1-2.23-1.66h1.47a.68.68,0,0,0,.74.57c.39,0,.59-.18.59-.39,0-.78-2.64-.22-2.64-2,0-.82.7-1.5,2-1.5a1.83,1.83,0,0,1,2,1.65h-1.37a.65.65,0,0,0-.72-.55c-.34,0-.53.14-.53.37,0,.78,2.62.23,2.64,2C142.28,28.21,141.54,28.84,140.32,28.84Z" transform="translate(-6.62 -10.52)"/>
      <path d="M145.35,28.84a2.33,2.33,0,0,1-2.45-2.49,2.33,2.33,0,0,1,2.45-2.49,2.28,2.28,0,0,1,2.41,2.41c0,.14,0,.29,0,.44h-3.36a.9.9,0,0,0,.92.93.79.79,0,0,0,.77-.47h1.58A2.26,2.26,0,0,1,145.35,28.84Zm-1-3h1.86a.83.83,0,0,0-.91-.83A.92.92,0,0,0,144.38,25.88Z" transform="translate(-6.62 -10.52)"/>
      <path d="M150,28.77h-1.49V23.93H150v.81a1.79,1.79,0,0,1,1.52-.86v1.57h-.41c-.7,0-1.11.24-1.11,1.07Z" transform="translate(-6.62 -10.52)"/>
      <path d="M158.89,28.77H157.4v-.66a1.76,1.76,0,0,1-1.47.71,1.84,1.84,0,0,1-1.87-2.06V23.93h1.47v2.63a.94.94,0,1,0,1.87,0V23.93h1.49Z" transform="translate(-6.62 -10.52)"/>
      <path d="M161.92,28.84a2,2,0,0,1-2.23-1.66h1.47a.69.69,0,0,0,.75.57c.38,0,.58-.18.58-.39,0-.78-2.64-.22-2.64-2,0-.82.7-1.5,2-1.5a1.82,1.82,0,0,1,2,1.65h-1.37a.64.64,0,0,0-.71-.55c-.35,0-.54.14-.54.37,0,.78,2.62.23,2.65,2C163.89,28.21,163.14,28.84,161.92,28.84Z" transform="translate(-6.62 -10.52)"/>
      <path d="M166.64,23.86a1.69,1.69,0,0,1,1.49.75v-.68h1.49v4.84h-1.49v-.68a1.72,1.72,0,0,1-1.5.75,2.25,2.25,0,0,1-2.13-2.5A2.23,2.23,0,0,1,166.64,23.86Zm.43,1.29A1.08,1.08,0,0,0,166,26.34a1.1,1.1,0,0,0,1.06,1.21,1.21,1.21,0,0,0,0-2.4Z" transform="translate(-6.62 -10.52)"/>
      <path d="M172.54,23.86a1.68,1.68,0,0,1,1.49.75v-.68h1.48v4.83a2.51,2.51,0,0,1-4.93.52h1.47a.92.92,0,0,0,1,.6c.57,0,1-.3,1-1.12v-.68a1.72,1.72,0,0,1-1.49.76,2.25,2.25,0,0,1-2.14-2.5A2.23,2.23,0,0,1,172.54,23.86Zm.43,1.29a1.08,1.08,0,0,0-1.06,1.19A1.07,1.07,0,1,0,173,25.15Z" transform="translate(-6.62 -10.52)"/>
      <path d="M178.74,28.84a2.33,2.33,0,0,1-2.44-2.49,2.32,2.32,0,0,1,2.44-2.49,2.29,2.29,0,0,1,2.42,2.41,3.37,3.37,0,0,1,0,.44h-3.36a.9.9,0,0,0,.92.93.78.78,0,0,0,.77-.47H181A2.26,2.26,0,0,1,178.74,28.84Zm-1-3h1.86a.84.84,0,0,0-.91-.83A.92.92,0,0,0,177.78,25.88Z" transform="translate(-6.62 -10.52)"/>
    </g>
    <g>
      <path d="M61.18,41.33a2.4,2.4,0,0,1-2.68,2.51H56.93v-5H58.5A2.42,2.42,0,0,1,61.18,41.33Zm-2.68,2a1.8,1.8,0,0,0,2-2,1.82,1.82,0,0,0-2-2h-.91v4Z" transform="translate(-6.62 -10.52)"/>
      <path d="M63.68,39.81a1.65,1.65,0,0,1,1.48.79v-.72h.66v4h-.66V43.1a1.65,1.65,0,0,1-1.48.81,1.92,1.92,0,0,1-1.88-2.07A1.88,1.88,0,0,1,63.68,39.81Zm.13.57a1.34,1.34,0,0,0-1.34,1.46,1.35,1.35,0,1,0,1.34-1.46Z" transform="translate(-6.62 -10.52)"/>
      <path d="M67.08,40.42h-.51v-.54h.51v-1h.66v1h1v.54h-1v2.34c0,.39.15.52.55.52h.49v.56h-.6c-.7,0-1.1-.29-1.1-1.08Z" transform="translate(-6.62 -10.52)"/>
      <path d="M71.21,39.81a1.64,1.64,0,0,1,1.47.79v-.72h.67v4h-.67V43.1a1.65,1.65,0,0,1-1.48.81,1.91,1.91,0,0,1-1.87-2.07A1.88,1.88,0,0,1,71.21,39.81Zm.13.57A1.34,1.34,0,0,0,70,41.84a1.35,1.35,0,1,0,1.34-1.46Z" transform="translate(-6.62 -10.52)"/>
      <path d="M78.68,43.89a2.58,2.58,0,1,1,2.53-2.57A2.49,2.49,0,0,1,78.68,43.89Zm0-.57a2,2,0,1,0-1.86-2A1.84,1.84,0,0,0,78.68,43.32Z" transform="translate(-6.62 -10.52)"/>
      <path d="M81.61,39.88h.68l.91,3.32,1-3.32h.68l1,3.33.89-3.33h.65l-1.23,4h-.68l-1-3.15-.95,3.15h-.68Z" transform="translate(-6.62 -10.52)"/>
      <path d="M90.92,41.6a1.06,1.06,0,0,0-1.11-1.22c-.67,0-1.13.42-1.13,1.27v2.19H88v-4h.66v.56A1.46,1.46,0,0,1,90,39.8a1.54,1.54,0,0,1,1.62,1.7v2.34h-.65Z" transform="translate(-6.62 -10.52)"/>
      <path d="M94.36,43.91a1.92,1.92,0,0,1-2-2.06,1.89,1.89,0,0,1,2-2,1.82,1.82,0,0,1,1.91,1.9,2.47,2.47,0,0,1,0,.39H93.08a1.24,1.24,0,0,0,1.28,1.25,1.1,1.1,0,0,0,1.12-.73h.71A1.8,1.8,0,0,1,94.36,43.91Zm-1.28-2.34h2.51a1.18,1.18,0,0,0-1.26-1.2A1.24,1.24,0,0,0,93.08,41.57Z" transform="translate(-6.62 -10.52)"/>
      <path d="M97.79,43.84h-.65v-4h.65v.64a1.34,1.34,0,0,1,1.28-.72v.68H98.9c-.63,0-1.11.29-1.11,1.21Z" transform="translate(-6.62 -10.52)"/>
      <path d="M100,40.79a.45.45,0,0,1,0-.9.45.45,0,0,1,0,.9Zm0,3.09a.45.45,0,0,1,0-.89.45.45,0,0,1,0,.89Z" transform="translate(-6.62 -10.52)"/>
      <path d="M106.29,42.72h-2.2l-.41,1.12H103l1.82-5h.76l1.82,5h-.7Zm-1.1-3.08-.91,2.54h1.82Z" transform="translate(-6.62 -10.52)"/>
      <path d="M109.81,41.74h-1v2.1h-.66v-5h1.63c1.19,0,1.74.65,1.74,1.47S111.06,41.74,109.81,41.74Zm0-.55c.75,0,1.07-.35,1.07-.92s-.32-.93-1.07-.93h-1v1.85Z" transform="translate(-6.62 -10.52)"/>
      <path d="M112.37,38.8H113v5h-.66Z" transform="translate(-6.62 -10.52)"/>
      <path d="M116,37h.66l-2,8H114Z" transform="translate(-6.62 -10.52)"/>
      <path d="M119.24,39.81a1.74,1.74,0,0,1,1.47.78v-2.1h.66v5.35h-.66V43.1a1.63,1.63,0,0,1-1.48.81,1.92,1.92,0,0,1-1.88-2.07A1.88,1.88,0,0,1,119.24,39.81Zm.12.57A1.34,1.34,0,0,0,118,41.84a1.35,1.35,0,1,0,1.34-1.46Z" transform="translate(-6.62 -10.52)"/>
      <path d="M125.47,42.72h-2.2l-.4,1.12h-.7l1.82-5h.76l1.82,5h-.7Zm-1.1-3.08-.91,2.54h1.82Z" transform="translate(-6.62 -10.52)"/>
      <path d="M129.51,39.81a1.88,1.88,0,0,1,1.88,2,1.92,1.92,0,0,1-1.88,2.07,1.74,1.74,0,0,1-1.49-.8v2.61h-.65V39.88H128v.73A1.68,1.68,0,0,1,129.51,39.81Zm-.14.57a1.48,1.48,0,1,0,1.35,1.46A1.34,1.34,0,0,0,129.37,40.38Z" transform="translate(-6.62 -10.52)"/>
      <path d="M134.4,39.81a1.88,1.88,0,0,1,1.88,2,1.92,1.92,0,0,1-1.88,2.07,1.72,1.72,0,0,1-1.48-.8v2.61h-.66V39.88h.66v.73A1.66,1.66,0,0,1,134.4,39.81Zm-.14.57a1.48,1.48,0,1,0,1.35,1.46A1.34,1.34,0,0,0,134.26,40.38Z" transform="translate(-6.62 -10.52)"/>
      <path d="M141.18,41.43a1.22,1.22,0,1,1,1.22,1.21A1.21,1.21,0,0,1,141.18,41.43Z" transform="translate(-6.62 -10.52)"/>
      <path d="M68.77,50a2.4,2.4,0,0,1-2.68,2.51H64.52v-5h1.57A2.42,2.42,0,0,1,68.77,50Zm-2.68,2a2,2,0,1,0,0-4h-.91v4Z" transform="translate(-6.62 -10.52)"/>
      <path d="M71.27,48.49a1.65,1.65,0,0,1,1.48.79v-.72h.66v4h-.66v-.73a1.66,1.66,0,0,1-1.48.8,1.91,1.91,0,0,1-1.88-2.06A1.88,1.88,0,0,1,71.27,48.49Zm.13.58a1.33,1.33,0,0,0-1.33,1.46,1.34,1.34,0,1,0,1.33-1.46Z" transform="translate(-6.62 -10.52)"/>
      <path d="M74.67,49.1h-.51v-.54h.51v-1h.66v1h1v.54h-1v2.34c0,.39.15.53.55.53h.49v.55h-.6c-.7,0-1.1-.29-1.1-1.08Z" transform="translate(-6.62 -10.52)"/>
      <path d="M78.8,48.49a1.64,1.64,0,0,1,1.47.79v-.72h.67v4h-.67v-.73a1.65,1.65,0,0,1-1.48.8,1.91,1.91,0,0,1-1.87-2.06A1.88,1.88,0,0,1,78.8,48.49Zm.13.58a1.34,1.34,0,0,0-1.34,1.46,1.34,1.34,0,1,0,1.34-1.46Z" transform="translate(-6.62 -10.52)"/>
      <path d="M84,47.48h.66v3.19A1.16,1.16,0,0,0,85.88,52c.74,0,1.23-.4,1.23-1.33V47.48h.66v3.18a1.9,1.9,0,1,1-3.8,0Z" transform="translate(-6.62 -10.52)"/>
      <path d="M90.28,52.59a1.46,1.46,0,0,1-1.63-1.23h.69c0,.38.37.67.93.67s.81-.26.81-.58c0-.89-2.35-.37-2.35-1.85,0-.61.58-1.11,1.46-1.11a1.34,1.34,0,0,1,1.5,1.25H91a.77.77,0,0,0-.86-.69c-.49,0-.78.23-.78.55,0,.94,2.3.43,2.33,1.85C91.72,52.1,91.15,52.59,90.28,52.59Z" transform="translate(-6.62 -10.52)"/>
      <path d="M94.36,52.59a1.91,1.91,0,0,1-2-2.06,1.89,1.89,0,0,1,2-2,1.82,1.82,0,0,1,1.91,1.9,2.69,2.69,0,0,1,0,.4H93.08A1.24,1.24,0,0,0,94.36,52a1.09,1.09,0,0,0,1.12-.73h.71A1.8,1.8,0,0,1,94.36,52.59Zm-1.28-2.34h2.51a1.18,1.18,0,0,0-1.26-1.2A1.23,1.23,0,0,0,93.08,50.25Z" transform="translate(-6.62 -10.52)"/>
      <path d="M97.79,52.52h-.65v-4h.65v.64a1.34,1.34,0,0,1,1.28-.71v.68H98.9c-.63,0-1.11.28-1.11,1.2Z" transform="translate(-6.62 -10.52)"/>
      <path d="M100,49.47A.43.43,0,0,1,99.6,49a.44.44,0,0,1,.44-.45.45.45,0,0,1,.44.45A.44.44,0,0,1,100,49.47Zm0,3.1a.45.45,0,0,1,0-.9.45.45,0,0,1,0,.9Z" transform="translate(-6.62 -10.52)"/>
      <path d="M106.29,51.4h-2.2l-.41,1.12H103l1.82-5h.76l1.82,5h-.7Zm-1.1-3.08-.91,2.55h1.82Z" transform="translate(-6.62 -10.52)"/>
      <path d="M109.81,50.42h-1v2.1h-.66v-5h1.63c1.19,0,1.74.65,1.74,1.48S111.06,50.42,109.81,50.42Zm0-.54c.75,0,1.07-.36,1.07-.92s-.32-.94-1.07-.94h-1v1.86Z" transform="translate(-6.62 -10.52)"/>
      <path d="M112.37,47.48H113v5h-.66Z" transform="translate(-6.62 -10.52)"/>
      <path d="M116,45.71h.66l-2,8H114Z" transform="translate(-6.62 -10.52)"/>
      <path d="M119.24,48.49a1.74,1.74,0,0,1,1.47.78v-2.1h.66v5.35h-.66v-.74a1.63,1.63,0,0,1-1.48.81,1.91,1.91,0,0,1-1.88-2.06A1.89,1.89,0,0,1,119.24,48.49Zm.12.58A1.34,1.34,0,0,0,118,50.53a1.35,1.35,0,1,0,1.34-1.46Z" transform="translate(-6.62 -10.52)"/>
      <path d="M125.47,51.4h-2.2l-.4,1.12h-.7l1.82-5h.76l1.82,5h-.7Zm-1.1-3.08-.91,2.55h1.82Z" transform="translate(-6.62 -10.52)"/>
      <path d="M129.51,48.49a1.88,1.88,0,0,1,1.88,2,1.91,1.91,0,0,1-1.88,2.06,1.72,1.72,0,0,1-1.49-.8V54.4h-.65V48.56H128v.73A1.68,1.68,0,0,1,129.51,48.49Zm-.14.58a1.48,1.48,0,1,0,1.35,1.46A1.34,1.34,0,0,0,129.37,49.07Z" transform="translate(-6.62 -10.52)"/>
      <path d="M134.4,48.49a1.88,1.88,0,0,1,1.88,2,1.91,1.91,0,0,1-1.88,2.06,1.7,1.7,0,0,1-1.48-.8V54.4h-.66V48.56h.66v.73A1.66,1.66,0,0,1,134.4,48.49Zm-.14.58a1.48,1.48,0,1,0,1.35,1.46A1.34,1.34,0,0,0,134.26,49.07Z" transform="translate(-6.62 -10.52)"/>
      <path d="M141.18,50.11a1.22,1.22,0,1,1,2.43,0,1.22,1.22,0,0,1-2.43,0Z" transform="translate(-6.62 -10.52)"/>
    </g>
    <g>
      <path d="M153.75,55.84h26.52V40.69a1,1,0,0,0-1-.95H154.69a1,1,0,0,0-.94.95V55.84Zm27,.95H153.27a.47.47,0,0,1-.47-.47V40.69a1.89,1.89,0,0,1,1.89-1.89h24.63a1.89,1.89,0,0,1,1.89,1.89V56.32a.47.47,0,0,1-.47.47Z" transform="translate(-6.62 -10.52)" style="fill: #7de314"/>
      <path d="M153.75,56.79v1.9a.94.94,0,0,0,.94.94h24.63a1,1,0,0,0,1-.94v-1.9Zm25.57,3.79H154.69a1.89,1.89,0,0,1-1.89-1.89V56.32a.48.48,0,0,1,.47-.48h27.47a.48.48,0,0,1,.47.48v2.37a1.89,1.89,0,0,1-1.89,1.89Z" transform="translate(-6.62 -10.52)" style="fill: #7de314"/>
      <path d="M168.43,58.69h-2.84a.48.48,0,0,1-.48-.48.47.47,0,0,1,.48-.47h2.84a.47.47,0,0,1,.47.47.48.48,0,0,1-.47.48Z" transform="translate(-6.62 -10.52)" style="fill: #7de314"/>
      <path d="M155.64,55.84h22.73V41.64H155.64v14.2Zm23.2.95H155.17a.48.48,0,0,1-.48-.47V41.16a.48.48,0,0,1,.48-.47h23.67a.47.47,0,0,1,.48.47V56.32a.47.47,0,0,1-.48.47Z" transform="translate(-6.62 -10.52)" style="fill: #7de314"/>
      <path d="M160.85,64.37a.47.47,0,0,0-.47.47.48.48,0,0,0,.47.48h12.31a.49.49,0,0,0,.48-.48.48.48,0,0,0-.48-.47Zm12.31,1.89H160.85a1.42,1.42,0,1,1,0-2.84h12.31a1.42,1.42,0,1,1,0,2.84Z" transform="translate(-6.62 -10.52)" style="fill: #7de314"/>
      <path d="M164.1,63.42h5.81a4.55,4.55,0,0,1-1-2.84H165.1a4.49,4.49,0,0,1-1,2.84Zm8.11,1H161.8a.48.48,0,1,1,0-1c1.57,0,2.36-1.11,2.36-3.31a.48.48,0,0,1,.48-.48h4.73a.48.48,0,0,1,.48.48c0,2.2.79,3.31,2.36,3.31a.48.48,0,1,1,0,1Z" transform="translate(-6.62 -10.52)" style="fill: #7de314"/>
      <path d="M172.28,52.53a.61.61,0,0,1,.43.18l1,1,.67-.67L173.32,52a.55.55,0,0,1-.15-.38.52.52,0,0,1,.15-.38l.37-.37-3.13-.94.94,3.13.34-.34a.62.62,0,0,1,.44-.18Zm1.47,2.37a.47.47,0,0,1-.33-.14l-1.14-1.15-.67.67a.47.47,0,0,1-.45.13.46.46,0,0,1-.34-.32l-1.42-4.74a.45.45,0,0,1,.12-.47.48.48,0,0,1,.47-.12l4.73,1.42a.48.48,0,0,1,.32.34.45.45,0,0,1-.12.45l-.64.64,1.15,1.14a.48.48,0,0,1,0,.67l-1.34,1.34a.48.48,0,0,1-.34.14Z" transform="translate(-6.62 -10.52)" style="fill: #7de314"/>
      <path d="M159.9,45h12.31V43.53H159.9V45Zm12.79.95H159.43a.47.47,0,0,1-.47-.47V43.06a.48.48,0,0,1,.47-.48h13.26a.48.48,0,0,1,.47.48v2.37a.47.47,0,0,1-.47.47Z" transform="translate(-6.62 -10.52)" style="fill: #7de314"/>
      <path d="M161.8,49.69h2.84v-.95H161.8v.95Zm3.31,1h-3.79a.48.48,0,0,1-.47-.48V48.27a.48.48,0,0,1,.47-.48h3.79a.49.49,0,0,1,.48.48v1.89a.49.49,0,0,1-.48.48Z" transform="translate(-6.62 -10.52)" style="fill: #7de314"/>
      <path d="M159.9,51.58h10.17l-.67-2.23a.45.45,0,0,1,.12-.47.48.48,0,0,1,.47-.12l2.22.67v-5.9H159.9v8Zm10.8,1H159.43a.47.47,0,0,1-.47-.47v-9a.48.48,0,0,1,.47-.48h13.26a.48.48,0,0,1,.47.48v7a.47.47,0,0,1-.19.38.48.48,0,0,1-.42.07l-2-.6.6,2a.49.49,0,0,1-.08.42.47.47,0,0,1-.38.19Z" transform="translate(-6.62 -10.52)" style="fill: #7de314"/>
    </g>
  </g>
  <g id="purple_pointer_right">
    <g>
      <g>
        <path d="M469,214.09a1.08,1.08,0,0,1-1.08,1.08H409.5a3.76,3.76,0,0,0,0-2.17h58.37A1.08,1.08,0,0,1,469,214.09Z" transform="translate(-6.62 -10.52)" style="fill: #5059ab"/>
        <path d="M409.66,214.09a3.92,3.92,0,0,1-.16,1.08,4,4,0,1,1,0-2.17A3.94,3.94,0,0,1,409.66,214.09Z" transform="translate(-6.62 -10.52)" style="fill: #5059ab"/>
      </g>
      <path d="M469.9,214.09a2,2,0,1,1-2-2A2,2,0,0,1,469.9,214.09Z" transform="translate(-6.62 -10.52)" style="fill: #5059ab"/>
    </g>
  </g>
  <g id="teal_pointer_left">
    <g>
      <g>
        <path d="M153.17,169.88a1.08,1.08,0,0,0,1.09,1.08h58.36a4,4,0,0,1,0-2.17H154.26A1.09,1.09,0,0,0,153.17,169.88Z" transform="translate(-6.62 -10.52)" style="fill: #14a0c0"/>
        <path d="M212.47,169.88a3.91,3.91,0,0,0,.15,1.08,4,4,0,1,0,0-2.17A3.93,3.93,0,0,0,212.47,169.88Z" transform="translate(-6.62 -10.52)" style="fill: #14a0c0"/>
      </g>
      <path d="M152.22,169.88a2,2,0,1,0,2-2A2,2,0,0,0,152.22,169.88Z" transform="translate(-6.62 -10.52)" style="fill: #14a0c0"/>
    </g>
  </g>
  <g id="light_teal_pointer_right">
    <g>
      <g>
        <path d="M469,124a1.08,1.08,0,0,1-1.08,1.09H409.5a3.94,3.94,0,0,0,.16-1.09,3.86,3.86,0,0,0-.16-1.08h58.37A1.08,1.08,0,0,1,469,124Z" transform="translate(-6.62 -10.52)" style="fill: #01cc9b"/>
        <path d="M409.66,124a3.94,3.94,0,0,1-.16,1.09,4,4,0,1,1,0-2.17A3.86,3.86,0,0,1,409.66,124Z" transform="translate(-6.62 -10.52)" style="fill: #01cc9b"/>
      </g>
      <path d="M469.9,124a2,2,0,1,1-2-2A2,2,0,0,1,469.9,124Z" transform="translate(-6.62 -10.52)" style="fill: #01cc9b"/>
    </g>
  </g>
  <g id="green_pointer_left">
    <g>
      <g>
        <path d="M153.17,77.25a1.09,1.09,0,0,0,1.09,1.09h58.36a4,4,0,0,1,0-2.17H154.26A1.08,1.08,0,0,0,153.17,77.25Z" transform="translate(-6.62 -10.52)" style="fill: #7de314"/>
        <path d="M212.47,77.25a3.93,3.93,0,0,0,.15,1.09,4,4,0,1,0,0-2.17A3.91,3.91,0,0,0,212.47,77.25Z" transform="translate(-6.62 -10.52)" style="fill: #7de314"/>
      </g>
      <path d="M152.22,77.25a2,2,0,1,0,2-2A2,2,0,0,0,152.22,77.25Z" transform="translate(-6.62 -10.52)" style="fill: #7de314"/>
    </g>
  </g>
  <g id="purple_layer">
    <path d="M418.77,188.9,314.14,149.07a3.89,3.89,0,0,0-2.73,0L207.49,188.9a3.82,3.82,0,0,0,0,7.14l104.64,39.83a3.7,3.7,0,0,0,1.36.26,3.77,3.77,0,0,0,1.36-.26l103.93-39.82a3.83,3.83,0,0,0,0-7.15ZM313.49,231.75,210.31,192.46l102.47-39.27L416,192.48Z" transform="translate(-6.62 -10.52)" style="fill: #5059ab"/>
  </g>
  <g id="teal_layer">
    <path d="M418.77,142.8,314.14,103a3.89,3.89,0,0,0-2.73,0L207.49,142.8a3.82,3.82,0,0,0,0,7.14l104.64,39.83a3.69,3.69,0,0,0,1.36.25,3.76,3.76,0,0,0,1.36-.25c104.69-40.11-.66.25,103.93-39.83a3.82,3.82,0,0,0,0-7.14ZM313.49,185.65,210.31,146.36l102.47-39.27L416,146.38Z" transform="translate(-6.62 -10.52)" style="fill: #14a0c0"/>
  </g>
  <g id="light_teal_layer">
    <path d="M418.77,96.7,314.14,56.87a3.78,3.78,0,0,0-2.73,0L207.49,96.69a3.83,3.83,0,0,0,0,7.15l104.64,39.83a3.69,3.69,0,0,0,1.36.25,3.76,3.76,0,0,0,1.36-.25c104.69-40.11-.66.25,103.93-39.83a3.82,3.82,0,0,0,0-7.14ZM313.49,139.55,210.31,100.26,312.78,61,416,100.28Z" transform="translate(-6.62 -10.52)" style="fill: #01cc9b"/>
  </g>
  <g id="green_layer">
    <rect x="808.6" y="209.57" width="28.65" height="31.83" style="fill: none"/>
    <path d="M418.77,50.6,314.14,10.77a3.78,3.78,0,0,0-2.73,0L207.49,50.59a3.82,3.82,0,0,0,0,7.14L312.13,97.57a3.9,3.9,0,0,0,1.36.25,4,4,0,0,0,1.36-.25c104.69-40.11-.66.25,103.93-39.83a3.82,3.82,0,0,0,0-7.14ZM313.49,93.44c-77.15-29.36-31.29-11.9-103.18-39.28L312.78,14.89,416,54.17Z" transform="translate(-6.62 -10.52)" style="fill: #7de314"/>
  </g>
</svg>
