<svg xmlns="http://www.w3.org/2000/svg" viewBox="0 0 521.7 490.84">
  <g id="logo" fill="none" stroke="#fff" stroke-width="15">
    <g stroke-linecap="round">
      <path stroke-miterlimit="10" d="M277.85 56.86l.76 67.07a15 15 0 0 0 7.65 12.91l58.46 32.87a15 15 0 0 0 15-.17l57.7-34.19a15 15 0 0 0 7.35-13.08l-.76-67.07"/>
      <path stroke-linejoin="round" d="M432.33 165.42l-57.7 34.19a15 15 0 0 0-7.35 13.08l.76 67.06a15 15 0 0 0 7.65 12.91l58.46 32.87"/>
      <path stroke-miterlimit="10" d="M424.78 433.98l-.76-67.07a15 15 0 0 0-7.64-12.91l-58.47-32.87a15 15 0 0 0-15 .17l-57.7 34.19a15 15 0 0 0-7.36 13.08l.76 67.07"/>
    </g>
    <path stroke-miterlimit="10" d="M252.5 164.42l-57.65 34.22a15 15 0 0 0-7.35 13.08l.76 67.06a15 15 0 0 0 7.59 12.91l58.46 32.87a15 15 0 0 0 15-.17l57.7-34.19a15 15 0 0 0 7.35-13.08l-.76-67.06a15 15 0 0 0-7.65-12.91l-58.46-32.87a15 15 0 0 0-14.99.14z"/>
    <g stroke-linecap="round">
      <path stroke-miterlimit="10" d="M243.53 56.86l-.76 67.07a15 15 0 0 1-7.65 12.91l-58.46 32.87a15 15 0 0 1-15-.17l-57.7-34.19a15 15 0 0 1-7.35-13.08l.76-67.07"/>
      <path stroke-linejoin="round" d="M89.06 165.42l57.7 34.19a15 15 0 0 1 7.35 13.08l-.76 67.06a15 15 0 0 1-7.65 12.91l-58.46 32.87"/>
      <path stroke-miterlimit="10" d="M96.61 433.98l.76-67.07a15 15 0 0 1 7.65-12.91l58.46-32.87a15 15 0 0 1 15 .17l57.7 34.19a15 15 0 0 1 7.35 13.08l-.76 67.07"/>
    </g>
  </g>
  <path id="center" fill="none" stroke="#fff" stroke-miterlimit="10" stroke-width="15" d="M252.5 164.42l-57.65 34.22a15 15 0 0 0-7.35 13.08l.76 67.06a15 15 0 0 0 7.59 12.91l58.46 32.87a15 15 0 0 0 15-.17l57.7-34.19a15 15 0 0 0 7.35-13.08l-.76-67.06a15 15 0 0 0-7.65-12.91l-58.46-32.87a15 15 0 0 0-14.99.14z"/>
  <path id="_6" fill="none" stroke="#fff" stroke-miterlimit="10" stroke-width="15" d="M89.37 165.42l57.7 34.19a15 15 0 0 1 7.35 13.08l-.76 67.06a15 15 0 0 1-7.65 12.91l-58.46 32.9a15 15 0 0 1-15-.17l-57.7-34.19a15 15 0 0 1-7.35-13.08l.76-67.06a15 15 0 0 1 7.65-12.91l58.46-32.87a15 15 0 0 1 15 .14z" data-name="6"/>
  <path id="_5" fill="none" stroke="#fff" stroke-miterlimit="10" stroke-width="15" d="M178.79 321.3l57.7 34.19a15 15 0 0 1 7.36 13.08l-.76 67.07a15 15 0 0 1-7.65 12.9l-58.47 32.88a15 15 0 0 1-15-.17l-57.7-34.19a15 15 0 0 1-7.35-13.07l.76-67.07a15 15 0 0 1 7.64-12.91l58.47-32.87a15 15 0 0 1 15 .16z" data-name="5"/>
  <path id="_4" fill="none" stroke="#fff" stroke-miterlimit="10" stroke-width="15" d="M342.91 321.3l-57.7 34.19a15 15 0 0 0-7.36 13.08l.76 67.07a15 15 0 0 0 7.65 12.9l58.47 32.88a15 15 0 0 0 15-.17l57.7-34.19a15 15 0 0 0 7.35-13.07l-.76-67.07a15 15 0 0 0-7.64-12.91l-58.47-32.87a15 15 0 0 0-15 .16z" data-name="4"/>
  <path id="_3" fill="none" stroke="#fff" stroke-miterlimit="10" stroke-width="15" d="M432.33 165.42l-57.7 34.19a15 15 0 0 0-7.35 13.08l.76 67.06a15 15 0 0 0 7.65 12.91l58.46 32.87a15 15 0 0 0 15-.17l57.7-34.16a15 15 0 0 0 7.35-13.08l-.76-67.06a15 15 0 0 0-7.65-12.91l-58.46-32.87a15 15 0 0 0-15 .14z" data-name="3"/>
  <path id="_2" fill="none" stroke="#fff" stroke-miterlimit="10" stroke-width="15" d="M342.91 9.6l-57.7 34.19a15 15 0 0 0-7.36 13.07l.76 67.07a15 15 0 0 0 7.65 12.91l58.46 32.87a15 15 0 0 0 15-.17l57.7-34.19a15 15 0 0 0 7.35-13.08l-.76-67.07a15 15 0 0 0-7.64-12.9L357.91 9.42a15 15 0 0 0-15 .18z" data-name="2"/>
  <path id="_1" fill="none" stroke="#fff" stroke-miterlimit="10" stroke-width="15" d="M178.79 9.6l57.7 34.19a15 15 0 0 1 7.36 13.07l-.76 67.07a15 15 0 0 1-7.65 12.91l-58.46 32.87a15 15 0 0 1-15-.17l-57.7-34.19a15 15 0 0 1-7.35-13.08l.76-67.07a15 15 0 0 1 7.64-12.9l58.46-32.88a15 15 0 0 1 15 .18z" data-name="1"/>
  <g id="logo_begin" fill="none" stroke="#fff" stroke-width="15">
    <g stroke-linecap="round">
      <path stroke-miterlimit="10" d="M277.85 56.86l.76 67.07a15 15 0 0 0 7.65 12.91l58.46 32.87a15 15 0 0 0 15-.17l57.7-34.19a15 15 0 0 0 7.35-13.08l-.76-67.07"/>
      <path stroke-linejoin="round" d="M432.33 165.42l-57.7 34.19a15 15 0 0 0-7.35 13.08l.76 67.06a15 15 0 0 0 7.65 12.91l58.46 32.87"/>
      <path stroke-miterlimit="10" d="M424.78 433.98l-.76-67.07a15 15 0 0 0-7.64-12.91l-58.47-32.87a15 15 0 0 0-15 .17l-57.7 34.19a15 15 0 0 0-7.36 13.08l.76 67.07"/>
    </g>
    <path stroke-miterlimit="10" d="M252.5 164.42l-57.65 34.22a15 15 0 0 0-7.35 13.08l.76 67.06a15 15 0 0 0 7.59 12.91l58.46 32.87a15 15 0 0 0 15-.17l57.7-34.19a15 15 0 0 0 7.35-13.08l-.76-67.06a15 15 0 0 0-7.65-12.91l-58.46-32.87a15 15 0 0 0-14.99.14z"/>
    <g stroke-linecap="round">
      <path stroke-miterlimit="10" d="M243.53 56.86l-.76 67.07a15 15 0 0 1-7.65 12.91l-58.46 32.87a15 15 0 0 1-15-.17l-57.7-34.19a15 15 0 0 1-7.35-13.08l.76-67.07"/>
      <path stroke-linejoin="round" d="M89.06 165.42l57.7 34.19a15 15 0 0 1 7.35 13.08l-.76 67.06a15 15 0 0 1-7.65 12.91l-58.46 32.87"/>
      <path stroke-miterlimit="10" d="M96.61 433.98l.76-67.07a15 15 0 0 1 7.65-12.91l58.46-32.87a15 15 0 0 1 15 .17l57.7 34.19a15 15 0 0 1 7.35 13.08l-.76 67.07"/>
    </g>
    <path stroke-miterlimit="10" d="M252.5 164.42l-57.65 34.22a15 15 0 0 0-7.35 13.08l.76 67.06a15 15 0 0 0 7.59 12.91l58.46 32.87a15 15 0 0 0 15-.17l57.7-34.19a15 15 0 0 0 7.35-13.08l-.76-67.06a15 15 0 0 0-7.65-12.91l-58.46-32.87a15 15 0 0 0-14.99.14zM89.37 165.42l57.7 34.19a15 15 0 0 1 7.35 13.08l-.76 67.06a15 15 0 0 1-7.65 12.91l-58.46 32.9a15 15 0 0 1-15-.17l-57.7-34.19a15 15 0 0 1-7.35-13.08l.76-67.06a15 15 0 0 1 7.65-12.91l58.46-32.87a15 15 0 0 1 15 .14zM178.79 321.3l57.7 34.19a15 15 0 0 1 7.36 13.08l-.76 67.07a15 15 0 0 1-7.65 12.9l-58.47 32.88a15 15 0 0 1-15-.17l-57.7-34.19a15 15 0 0 1-7.35-13.07l.76-67.07a15 15 0 0 1 7.64-12.91l58.47-32.87a15 15 0 0 1 15 .16zM342.91 321.3l-57.7 34.19a15 15 0 0 0-7.36 13.08l.76 67.07a15 15 0 0 0 7.65 12.9l58.47 32.88a15 15 0 0 0 15-.17l57.7-34.19a15 15 0 0 0 7.35-13.07l-.76-67.07a15 15 0 0 0-7.64-12.91l-58.47-32.87a15 15 0 0 0-15 .16zM432.33 165.42l-57.7 34.19a15 15 0 0 0-7.35 13.08l.76 67.06a15 15 0 0 0 7.65 12.91l58.46 32.87a15 15 0 0 0 15-.17l57.7-34.16a15 15 0 0 0 7.35-13.08l-.76-67.06a15 15 0 0 0-7.65-12.91l-58.46-32.87a15 15 0 0 0-15 .14zM342.91 9.6l-57.7 34.19a15 15 0 0 0-7.36 13.07l.76 67.07a15 15 0 0 0 7.65 12.91l58.46 32.87a15 15 0 0 0 15-.17l57.7-34.19a15 15 0 0 0 7.35-13.08l-.76-67.07a15 15 0 0 0-7.64-12.9L357.91 9.42a15 15 0 0 0-15 .18zM178.79 9.6l57.7 34.19a15 15 0 0 1 7.36 13.07l-.76 67.07a15 15 0 0 1-7.65 12.91l-58.46 32.87a15 15 0 0 1-15-.17l-57.7-34.19a15 15 0 0 1-7.35-13.08l.76-67.07a15 15 0 0 1 7.64-12.9l58.46-32.88a15 15 0 0 1 15 .18z"/>
  </g>
</svg>
